<?xml version="1.0" encoding="UTF-8" standalone="no"?>
<svg width="190px" height="190px" viewBox="0 0 190 190" version="1.1" xmlns="http://www.w3.org/2000/svg" xmlns:xlink="http://www.w3.org/1999/xlink" xmlns:sketch="http://www.bohemiancoding.com/sketch/ns">
    <!-- Generator: sketchtool 3.4.4 (395) - http://www.bohemiancoding.com/sketch -->
    <title>Integration</title>
    <desc>Created with sketchtool.</desc>
    <defs></defs>
    <g id="01-Homepage" stroke="none" stroke-width="1" fill="none" fill-rule="evenodd" sketch:type="MSPage">
        <g id="03-Homepage---Desktop" sketch:type="MSArtboardGroup" transform="translate(-684.000000, -1313.000000)">
            <g id="Integration" sketch:type="MSLayerGroup" transform="translate(683.000000, 1318.000000)">
                <g id="Illustrations">
                    <g>
                        <g id="Integration">
                            <ellipse id="circle-copy" fill="#81BDDA" sketch:type="MSShapeGroup" cx="96" cy="90" rx="90" ry="90"></ellipse>
                            <g id="Girl" transform="translate(97.000000, 133.000000) rotate(-40.000000) translate(-97.000000, -133.000000) translate(48.000000, 82.000000)" sketch:type="MSShapeGroup">
                                <rect id="Face" fill="#EEDBCB" transform="translate(46.500000, 49.500000) rotate(40.000000) translate(-46.500000, -49.500000) " x="24" y="13" width="45" height="73"></rect>
                                <path d="M93.0042108,30.6173523 C90.3231403,21.7831302 81.3356695,16.3259064 74.3910726,9.73604843 C63.9145101,-0.205357823 55.1204935,-3.59688745 41.0872903,5.3484254 C27.0540872,14.2937382 0.863728863,43.3180797 0.863728863,43.3180797 L4.73830942,63.4526358 L42.7643285,23.33419 C51.0251126,46.2365332 76.1944354,43.7660401 76.1944354,43.7660401 L33.0929393,100.706123 L53.8560462,101.969299 C53.8560462,101.969299 82.2120964,67.5792439 91.1027836,47.3101999 C93.1166058,42.7190756 93.8982265,38.7900781 93.7807817,35.343273 C95.0833396,33.3171466 96.5794383,30.8552926 97.4082031,29.0341797 C98.5270759,26.5755888 97.7740413,25.3979216 96.0883789,27.6225586 C95.0275489,29.0225789 93.9791842,29.9753631 93.0042108,30.6173523 L93.0042108,30.6173523 Z" id="Hair" fill="#BB814D"></path>
                                <rect id="Eye-1" fill="#81BDDA" transform="translate(36.000000, 43.000000) rotate(40.000000) translate(-36.000000, -43.000000) " x="33" y="38" width="6" height="10" rx="5"></rect>
                                <rect id="Eye-2" fill="#81BDDA" transform="translate(55.000000, 59.000000) rotate(40.000000) translate(-55.000000, -59.000000) " x="52" y="54" width="6" height="10" rx="5"></rect>
                                <rect id="Nose" fill-opacity="0.100000001" fill="#000000" transform="translate(38.000000, 59.000000) rotate(40.000000) translate(-38.000000, -59.000000) " x="34" y="52" width="8" height="14" rx="7"></rect>
                                <rect id="Nose-Copy" fill-opacity="0.200000018" fill="#E55E5E" transform="translate(26.563691, 48.933462) rotate(40.000000) translate(-26.563691, -48.933462) " x="22.5636913" y="44.9334616" width="8" height="8" rx="7"></rect>
                                <rect id="Nose-Copy-2" fill-opacity="0.200000018" fill="#E55E5E" transform="translate(49.563691, 68.933462) rotate(40.000000) translate(-49.563691, -68.933462) " x="45.5636913" y="64.9334616" width="8" height="8" rx="7"></rect>
                            </g>
                            <g id="Ring" transform="translate(11.000000, 5.000000)" sketch:type="MSShapeGroup">
                                <ellipse id="path-1" cx="85" cy="85" rx="85" ry="85"></ellipse>
                                <g id="path-1-link" stroke="#EBEBEB" stroke-width="20">
                                    <ellipse id="path-1" cx="85" cy="85" rx="85" ry="85"></ellipse>
                                </g>
                            </g>
                            <g id="Oval-10-+-Rectangle-17-+-Rectangle-16" transform="translate(148.851521, 73.727902) rotate(7.000000) translate(-148.851521, -73.727902) translate(115.851521, 43.727902)" sketch:type="MSShapeGroup">
                                <path d="M44.959426,49.2676537 C56.9840431,45.8250154 65.4874774,37.350041 65.4874774,27.4407728 C65.4874774,14.4783249 50.9367317,3.97018461 32.9874774,3.97018461 C15.038223,3.97018461 0.487477374,14.4783249 0.487477374,27.4407728 C0.487477374,40.0229358 14.1969835,50.2926849 31.4167789,50.8844318 C31.8367433,56.4392844 29.4673293,56.6851468 27.949131,58.3938983 C27.473606,58.9291077 27.6239194,59.4056155 28.8431974,59.4056982 C30.5493732,59.405814 41.3530072,56.1718878 44.959426,49.2676537 L44.959426,49.2676537 Z" id="Oval-10-Copy-2" fill-opacity="0.25" fill="#000000"></path>
                                <path d="M44.4719487,45.2974691 C56.4965657,41.8548308 65,33.3798564 65,23.4705882 C65,10.5081403 50.4492544,-8.17124146e-14 32.5,-8.17124146e-14 C14.5507456,-8.17124146e-14 7.81597009e-13,10.5081403 7.81597009e-13,23.4705882 C7.81597009e-13,36.0527512 13.7095062,46.3225003 30.9293015,46.9142472 C31.3492659,52.4690998 28.979852,52.7149622 27.4616536,54.4237137 C26.9861287,54.9589231 27.1364421,55.4354309 28.35572,55.4355136 C30.0618958,55.4356294 40.8655298,52.2017032 44.4719487,45.2974691 L44.4719487,45.2974691 Z" id="Oval-10" fill="#FFFFFF"></path>
                            </g>
                            <g id="Oval-10-Copy-+-Oval-10" transform="translate(45.000000, 12.000000)" sketch:type="MSShapeGroup">
                                <path d="M49.4719487,55.2974691 C61.4965657,51.8548308 70,43.3798564 70,33.4705882 C70,20.5081403 55.4492544,10 37.5,10 C19.5507456,10 4.99999997,20.5081403 4.99999997,33.4705882 C4.99999997,46.0527512 18.7095062,56.3225003 35.9293015,56.9142472 C36.3492659,62.4690998 33.979852,62.7149622 32.4616536,64.4237137 C31.9861287,64.9589231 32.1364421,65.4354309 33.35572,65.4355136 C35.0618958,65.4356294 45.8655298,62.2017032 49.4719487,55.2974691 L49.4719487,55.2974691 Z" id="Oval-10-Copy" fill-opacity="0.25" fill="#000000" transform="translate(37.500000, 37.717757) rotate(-10.000000) translate(-37.500000, -37.717757) "></path>
                                <path d="M49.4719487,51.2974691 C61.4965657,47.8548308 70,39.3798564 70,29.4705882 C70,16.5081403 55.4492544,6 37.5,6 C19.5507456,6 4.99999997,16.5081403 4.99999997,29.4705882 C4.99999997,42.0527512 18.7095062,52.3225003 35.9293015,52.9142472 C36.3492659,58.4690998 33.979852,58.7149622 32.4616536,60.4237137 C31.9861287,60.9589231 32.1364421,61.4354309 33.35572,61.4355136 C35.0618958,61.4356294 45.8655298,58.2017032 49.4719487,51.2974691 L49.4719487,51.2974691 Z" id="Oval-10" fill="#FFFFFF" transform="translate(37.500000, 33.717757) rotate(-10.000000) translate(-37.500000, -33.717757) "></path>
                            </g>
                            <g id="Oval-10-Copy-+-Oval-10-Copy" transform="translate(42.500000, 93.500000) rotate(-8.000000) translate(-42.500000, -93.500000) translate(5.000000, 58.000000)" sketch:type="MSShapeGroup">
                                <path d="M49.4719487,55.2974691 C61.4965657,51.8548308 70,43.3798564 70,33.4705882 C70,20.5081403 55.4492544,10 37.5,10 C19.5507456,10 4.99999997,20.5081403 4.99999997,33.4705882 C4.99999997,46.0527512 18.7095062,56.3225003 35.9293015,56.9142472 C36.3492659,62.4690998 33.979852,62.7149622 32.4616536,64.4237137 C31.9861287,64.9589231 32.1364421,65.4354309 33.35572,65.4355136 C35.0618958,65.4356294 45.8655298,62.2017032 49.4719487,55.2974691 L49.4719487,55.2974691 Z" id="Oval-10-Copy" fill-opacity="0.25" fill="#000000" transform="translate(37.500000, 37.717757) rotate(-10.000000) translate(-37.500000, -37.717757) "></path>
                                <path d="M49.4719487,51.2974691 C61.4965657,47.8548308 70,39.3798564 70,29.4705882 C70,16.5081403 55.4492544,6 37.5,6 C19.5507456,6 4.99999997,16.5081403 4.99999997,29.4705882 C4.99999997,42.0527512 18.7095062,52.3225003 35.9293015,52.9142472 C36.3492659,58.4690998 33.979852,58.7149622 32.4616536,60.4237137 C31.9861287,60.9589231 32.1364421,61.4354309 33.35572,61.4355136 C35.0618958,61.4356294 45.8655298,58.2017032 49.4719487,51.2974691 L49.4719487,51.2974691 Z" id="Oval-10" fill="#FFFFFF" transform="translate(37.500000, 33.717757) rotate(-10.000000) translate(-37.500000, -33.717757) "></path>
                            </g>
                            <g id="slack" transform="translate(150.000000, 68.000000) rotate(10.000000) translate(-150.000000, -68.000000) translate(135.000000, 53.000000)" sketch:type="MSShapeGroup">
                                <g id="Layer_1">
                                    <g id="Group">
                                        <g id="Shape">
                                            <path d="M2.63452703,15.8734694 C1.52087838,15.8820408 0.5775,15.2138776 0.229662162,14.1710204 C0.216283784,14.1306122 0.20472973,14.0914286 0.193581081,14.0520408 C-0.185472973,12.7165306 0.549527027,11.3193878 1.86689189,10.8720408 L22.9966216,3.74489796 C23.2534459,3.67081633 23.5120946,3.63306122 23.7683108,3.63142857 C24.9115541,3.62244898 25.8808784,4.30530612 26.2372297,5.37020408 L26.2688514,5.47306122 C26.6641216,6.86408163 25.682027,8.10571429 24.5053378,8.50367347 C24.504527,8.50428571 24.290473,8.57714286 3.49277027,15.7263265 C3.21162162,15.822449 2.92317568,15.8710204 2.63452703,15.8734694 L2.63452703,15.8734694 L2.63452703,15.8734694 L2.63452703,15.8734694 Z" fill="#70CADB"></path>
                                            <path d="M6.15648649,26.3357143 C5.03412162,26.3438776 4.0875,25.685102 3.74371622,24.6571429 C3.73074324,24.6179592 3.71837838,24.5785714 3.70722973,24.5389796 C3.32290541,23.187551 4.05709459,21.7757143 5.37891892,21.3277551 L26.5094595,14.1353061 C26.7825,14.0434694 27.0644595,13.9965306 27.3480405,13.9938776 C28.4734459,13.9853061 29.4622297,14.677551 29.8110811,15.7171429 L29.8435135,15.8253061 C30.0476351,16.5438776 29.927027,17.3514286 29.5212162,17.9887755 C29.2187838,18.4626531 28.2648649,18.8797959 28.2648649,18.8797959 L7.05405405,26.1816327 C6.75851351,26.2810204 6.45709459,26.3334694 6.15648649,26.3361224 L6.15648649,26.3357143 L6.15648649,26.3357143 L6.15648649,26.3357143 Z" fill="#E01765"></path>
                                            <path d="M23.7462162,26.3812245 C22.6191892,26.39 21.6212838,25.6740816 21.2620946,24.6010204 L14.2100676,3.51122449 L14.1747973,3.39285714 C13.7927027,2.04795918 14.5275,0.645102041 15.8444595,0.198163265 C16.107973,0.108979592 16.3804054,0.0624489796 16.6546622,0.06 C17.0620946,0.0569387755 17.4563514,0.149387755 17.8277027,0.334081633 C18.4485811,0.645306122 18.912973,1.18102041 19.1349324,1.84265306 L26.1863514,22.9306122 L26.2068243,22.9983673 C26.6029054,24.3946939 25.8697297,25.7983673 24.5527703,26.2453061 C24.2918919,26.3328571 24.0202703,26.3787755 23.7462162,26.3812245 L23.7462162,26.3812245 L23.7462162,26.3812245 L23.7462162,26.3812245 Z" fill="#E8A723"></path>
                                            <path d="M13.2638514,29.9334694 C12.1368243,29.9422449 11.1381081,29.2263265 10.7787162,28.1518367 L3.72851351,7.06285714 C3.71635135,7.02408163 3.70418919,6.98530612 3.69243243,6.9455102 C3.31135135,5.60102041 4.04391892,4.19795918 5.36047297,3.75061224 C5.62297297,3.66285714 5.89439189,3.61653061 6.16824324,3.61428571 C7.29547297,3.60530612 8.29358108,4.32102041 8.65277027,5.3944898 L15.7031757,26.4842857 C15.7163514,26.5210204 15.7283108,26.5616327 15.7390541,26.6004082 C16.1209459,27.9459184 15.387973,29.3497959 14.0693919,29.7971429 C13.8075,29.885102 13.5364865,29.9310204 13.2630405,29.9332653 L13.2638514,29.9332653 L13.2638514,29.9334694 L13.2638514,29.9334694 Z" fill="#3EB890"></path>
                                            <path d="M20.2696622,21.6318367 L25.1868243,19.9391837 L23.5793919,15.1330612 L18.6565541,16.8079592 L20.2696622,21.6318367 L20.2696622,21.6318367 L20.2696622,21.6318367 Z" fill="#CC2027"></path>
                                            <path d="M9.80351351,25.2346939 L14.7202703,23.5422449 L13.1006757,18.6993878 L8.17905405,20.374898 L9.80351351,25.2346939 L9.80351351,25.2346939 L9.80351351,25.2346939 Z" fill="#361238"></path>
                                            <path d="M16.7689865,11.1632653 L21.6865541,9.47285714 L20.097973,4.72285714 L15.1712838,6.38469388 L16.7689865,11.1632653 L16.7689865,11.1632653 L16.7689865,11.1632653 Z" fill="#65863A"></path>
                                            <path d="M6.30162162,14.7612245 L11.2191892,13.0708163 L9.61114865,8.26020408 L4.68445946,9.92183673 L6.30162162,14.7612245 L6.30162162,14.7612245 L6.30162162,14.7612245 L6.30162162,14.7612245 Z" fill="#1A937D"></path>
                                        </g>
                                    </g>
                                </g>
                            </g>
                            <g id="github-octocat" transform="translate(82.000000, 42.500000) rotate(-10.000000) translate(-82.000000, -42.500000) translate(64.000000, 28.000000)" sketch:type="MSShapeGroup">
                                <g id="Group">
                                    <path d="M6.5953125,17.9165385 L6.3,18.9411538 C6.3,18.9411538 6.2296875,19.3111538 6.5671875,19.3823077 C6.9328125,19.3680769 6.9046875,19.0265385 6.8765625,18.9269231 L6.5953125,17.9165385 L6.5953125,17.9165385 L6.5953125,17.9165385 L6.5953125,17.9165385 Z" id="Shape" fill="#9EDCF2"></path>
                                    <path d="M35.971875,13.6046154 L36,13.4765385 C33.0328125,12.8788462 29.9953125,12.8646154 28.153125,12.95 C28.4484375,11.8542308 28.546875,10.5734615 28.546875,9.16461538 C28.546875,7.12961538 27.7875,5.50730769 26.578125,4.28346154 C26.7890625,3.58615385 27.0703125,2.035 26.296875,0.0569230769 C26.296875,0.0569230769 24.91875,-0.384230769 21.7828125,1.73615385 C20.559375,1.42307692 19.2515625,1.26653846 17.94375,1.26653846 C16.509375,1.26653846 15.0609375,1.45153846 13.696875,1.82153846 C10.4625,-0.412692308 9.0421875,0.0426923077 9.0421875,0.0426923077 C8.1140625,2.39076923 8.690625,4.14115385 8.859375,4.56807692 C7.7625,5.76346154 7.1015625,7.28615385 7.1015625,9.15038462 C7.1015625,10.5592308 7.25625,11.8257692 7.65,12.9215385 C5.79375,12.8503846 2.86875,12.8788462 0,13.4623077 L0.028125,13.5903846 C2.896875,13.0069231 5.85,12.9926923 7.6921875,13.0638462 C7.7765625,13.2915385 7.875,13.5192308 7.9734375,13.7326923 C6.1453125,13.7896154 3.0375,14.0315385 0.05625,14.8853846 L0.0984375,15.0134615 C3.1078125,14.1596154 6.24375,13.9319231 8.0578125,13.875 C9.1546875,15.9242308 11.2921875,17.2619231 15.1171875,17.6746154 C14.56875,18.0446154 14.0203125,18.6707692 13.7953125,19.7380769 C13.05,20.0938462 10.715625,20.9761538 9.309375,18.5284615 C9.309375,18.5284615 8.521875,17.0769231 7.0171875,16.9630769 C7.0171875,16.9630769 5.5546875,16.9346154 6.91875,17.8880769 C6.91875,17.8880769 7.8890625,18.3576923 8.5640625,20.1080769 C8.5640625,20.1080769 9.45,23.0965385 13.6828125,22.1288462 L13.6828125,25.1884615 C13.6828125,25.1884615 13.5984375,26.2842308 12.6,26.64 C12.6,26.64 12.009375,27.0526923 12.6421875,27.2803846 C12.6421875,27.2803846 15.384375,27.5080769 15.384375,25.2311538 L15.384375,21.8726923 C15.384375,21.8726923 15.271875,20.535 15.91875,20.0796154 L15.91875,25.6011538 C15.91875,25.6011538 15.8765625,26.9246154 15.2015625,27.4226923 C15.2015625,27.4226923 14.7515625,28.2338462 15.7359375,28.0203846 C15.7359375,28.0203846 17.6203125,27.75 17.7046875,25.5157692 L17.746875,19.9230769 L18.196875,19.9230769 L18.2390625,25.5157692 C18.3234375,27.7357692 20.2078125,28.0203846 20.2078125,28.0203846 C21.1921875,28.2480769 20.7421875,27.4226923 20.7421875,27.4226923 C20.0671875,26.9246154 20.025,25.6011538 20.025,25.6011538 L20.025,20.1223077 C20.671875,20.6346154 20.559375,21.8726923 20.559375,21.8726923 L20.559375,25.2311538 C20.559375,27.5080769 23.3015625,27.2803846 23.3015625,27.2803846 C23.934375,27.0526923 23.34375,26.64 23.34375,26.64 C22.359375,26.27 22.2609375,25.1884615 22.2609375,25.1884615 L22.2609375,20.7769231 C22.2609375,19.055 21.54375,18.1442308 20.840625,17.6746154 C24.91875,17.2619231 26.8734375,15.9384615 27.7734375,13.8607692 C29.559375,13.9034615 32.7796875,14.1311538 35.8453125,15.0134615 L35.8875,14.8853846 C32.8359375,14.0173077 29.64375,13.7896154 27.8296875,13.7326923 C27.9140625,13.5192308 27.984375,13.3057692 28.0546875,13.0780769 C29.9390625,13.0069231 32.990625,13.0069231 35.971875,13.6046154 L35.971875,13.6046154 L35.971875,13.6046154 L35.971875,13.6046154 Z" id="Shape" fill="#010101"></path>
                                    <path d="M24.553125,9.065 C25.425,9.87615385 25.9453125,10.8438462 25.9453125,11.8826923 C25.9453125,16.7780769 22.3453125,16.9061538 17.9015625,16.9061538 C13.4578125,16.9061538 9.8578125,16.2230769 9.8578125,11.8826923 C9.8578125,10.8438462 10.3640625,9.87615385 11.2359375,9.07923077 C12.684375,7.74153846 15.13125,8.45307692 17.9015625,8.45307692 C20.671875,8.45307692 23.1046875,7.72730769 24.553125,9.065 L24.553125,9.065 L24.553125,9.065 L24.553125,9.065 Z" id="Shape" fill="#F5CCB3"></path>
                                    <path d="M15.2296875,12.1388462 C15.2296875,13.4907692 14.484375,14.5723077 13.55625,14.5723077 C12.628125,14.5723077 11.8828125,13.4765385 11.8828125,12.1388462 C11.8828125,10.7869231 12.628125,9.70538462 13.55625,9.70538462 C14.484375,9.69115385 15.2296875,10.7869231 15.2296875,12.1388462 L15.2296875,12.1388462 L15.2296875,12.1388462 L15.2296875,12.1388462 Z" id="Shape" fill="#FFFFFF"></path>
                                    <path d="M14.6953125,12.1673077 C14.6953125,13.0638462 14.1890625,13.7896154 13.584375,13.7896154 C12.965625,13.7896154 12.4734375,13.0638462 12.4734375,12.1673077 C12.4734375,11.2707692 12.9796875,10.545 13.584375,10.545 C14.1890625,10.545 14.6953125,11.2707692 14.6953125,12.1673077 L14.6953125,12.1673077 L14.6953125,12.1673077 L14.6953125,12.1673077 Z" id="Shape" fill="#AF5C51"></path>
                                    <path d="M24.215625,12.1388462 C24.215625,13.4907692 23.4703125,14.5723077 22.5421875,14.5723077 C21.6140625,14.5723077 20.86875,13.4765385 20.86875,12.1388462 C20.86875,10.7869231 21.6140625,9.70538462 22.5421875,9.70538462 C23.45625,9.69115385 24.215625,10.7869231 24.215625,12.1388462 L24.215625,12.1388462 L24.215625,12.1388462 L24.215625,12.1388462 Z" id="Shape" fill="#FFFFFF"></path>
                                    <path d="M23.6671875,12.1673077 C23.6671875,13.0638462 23.1609375,13.7896154 22.55625,13.7896154 C21.9375,13.7896154 21.4453125,13.0638462 21.4453125,12.1673077 C21.4453125,11.2707692 21.9515625,10.545 22.55625,10.545 C23.175,10.545 23.6671875,11.2707692 23.6671875,12.1673077 L23.6671875,12.1673077 L23.6671875,12.1673077 L23.6671875,12.1673077 Z" id="Shape" fill="#AF5C51"></path>
                                    <path d="M18.3515625,14.3019231 C18.3515625,14.5296154 18.16875,14.7288462 17.9296875,14.7288462 C17.7046875,14.7288462 17.5078125,14.5438462 17.5078125,14.3019231 C17.5078125,14.06 17.690625,13.875 17.9296875,13.875 C18.1546875,13.875 18.3515625,14.06 18.3515625,14.3019231 L18.3515625,14.3019231 L18.3515625,14.3019231 L18.3515625,14.3019231 Z" id="Shape" fill="#AF5C51"></path>
                                    <path d="M16.959375,15.3692308 C16.93125,15.2980769 16.9734375,15.2269231 17.04375,15.1984615 C17.1140625,15.17 17.184375,15.2126923 17.2125,15.2838462 C17.325,15.5969231 17.60625,15.7961538 17.9296875,15.7961538 C18.253125,15.7961538 18.534375,15.5826923 18.646875,15.2838462 C18.675,15.2126923 18.7453125,15.17 18.815625,15.1984615 C18.8859375,15.2269231 18.928125,15.2980769 18.9,15.3692308 C18.759375,15.7819231 18.365625,16.0665385 17.9296875,16.0665385 C17.49375,16.0665385 17.1,15.7819231 16.959375,15.3692308 L16.959375,15.3692308 L16.959375,15.3692308 L16.959375,15.3692308 Z" id="Shape" fill="#AF5C51"></path>
                                    <path id="Shape" fill="#C4E5D9" d="M7.6640625,17.3046154 C7.6640625,17.4184615 7.5375,17.5038462 7.36875,17.5038462 C7.2140625,17.5038462 7.0734375,17.4184615 7.0734375,17.3046154 C7.0734375,17.1907692 7.2,17.1053846 7.36875,17.1053846 C7.5375,17.1053846 7.6640625,17.1907692 7.6640625,17.3046154 L7.6640625,17.3046154 L7.6640625,17.3046154 L7.6640625,17.3046154 Z"></path>
                                    <path id="Shape" fill="#C4E5D9" d="M8.4796875,17.76 C8.4796875,17.8738462 8.353125,17.9592308 8.184375,17.9592308 C8.0296875,17.9592308 7.8890625,17.8738462 7.8890625,17.76 C7.8890625,17.6461538 8.015625,17.5607692 8.184375,17.5607692 C8.353125,17.5607692 8.4796875,17.6461538 8.4796875,17.76 L8.4796875,17.76 L8.4796875,17.76 L8.4796875,17.76 Z"></path>
                                    <path id="Shape" fill="#C4E5D9" d="M8.971875,18.3576923 C8.971875,18.4715385 8.8453125,18.5569231 8.6765625,18.5569231 C8.521875,18.5569231 8.38125,18.4715385 8.38125,18.3576923 C8.38125,18.2438462 8.5078125,18.1584615 8.6765625,18.1584615 C8.8453125,18.1442308 8.971875,18.2438462 8.971875,18.3576923 L8.971875,18.3576923 L8.971875,18.3576923 L8.971875,18.3576923 Z"></path>
                                    <path id="Shape" fill="#C4E5D9" d="M9.421875,19.0407692 C9.421875,19.1546154 9.2953125,19.24 9.1265625,19.24 C8.971875,19.24 8.83125,19.1546154 8.83125,19.0407692 C8.83125,18.9269231 8.9578125,18.8415385 9.1265625,18.8415385 C9.2953125,18.8273077 9.421875,18.9269231 9.421875,19.0407692 L9.421875,19.0407692 L9.421875,19.0407692 L9.421875,19.0407692 Z"></path>
                                    <path id="Shape" fill="#C4E5D9" d="M9.9140625,19.6669231 C9.9140625,19.7807692 9.7875,19.8661538 9.61875,19.8661538 C9.4640625,19.8661538 9.3234375,19.7807692 9.3234375,19.6669231 C9.3234375,19.5530769 9.45,19.4676923 9.61875,19.4676923 C9.7875,19.4676923 9.9140625,19.5530769 9.9140625,19.6669231 L9.9140625,19.6669231 L9.9140625,19.6669231 L9.9140625,19.6669231 Z"></path>
                                    <path id="Shape" fill="#C4E5D9" d="M10.5890625,20.2219231 C10.5890625,20.3357692 10.4625,20.4211538 10.29375,20.4211538 C10.1390625,20.4211538 9.9984375,20.3357692 9.9984375,20.2219231 C9.9984375,20.1080769 10.125,20.0226923 10.29375,20.0226923 C10.4625,20.0084615 10.5890625,20.1080769 10.5890625,20.2219231 L10.5890625,20.2219231 L10.5890625,20.2219231 L10.5890625,20.2219231 Z"></path>
                                    <path id="Shape" fill="#C4E5D9" d="M11.53125,20.5776923 C11.53125,20.6915385 11.4046875,20.7769231 11.2359375,20.7769231 C11.08125,20.7769231 10.940625,20.6915385 10.940625,20.5776923 C10.940625,20.4638462 11.0671875,20.3784615 11.2359375,20.3784615 C11.4046875,20.3784615 11.53125,20.4638462 11.53125,20.5776923 L11.53125,20.5776923 L11.53125,20.5776923 L11.53125,20.5776923 Z"></path>
                                    <path id="Shape" fill="#C4E5D9" d="M12.4734375,20.5776923 C12.4734375,20.6915385 12.346875,20.7769231 12.178125,20.7769231 C12.0234375,20.7769231 11.8828125,20.6915385 11.8828125,20.5776923 C11.8828125,20.4638462 12.009375,20.3784615 12.178125,20.3784615 C12.346875,20.3784615 12.4734375,20.4638462 12.4734375,20.5776923 L12.4734375,20.5776923 L12.4734375,20.5776923 L12.4734375,20.5776923 Z"></path>
                                    <path id="Shape" fill="#C4E5D9" d="M13.4296875,20.4211538 C13.4296875,20.535 13.303125,20.6203846 13.134375,20.6203846 C12.9796875,20.6203846 12.8390625,20.535 12.8390625,20.4211538 C12.8390625,20.3073077 12.965625,20.2219231 13.134375,20.2219231 C13.2890625,20.2219231 13.4296875,20.3073077 13.4296875,20.4211538 L13.4296875,20.4211538 L13.4296875,20.4211538 L13.4296875,20.4211538 Z"></path>
                                </g>
                            </g>
                            <g id="IRC" transform="translate(39.522942, 86.965753) rotate(-20.000000) translate(-39.522942, -86.965753) translate(24.522942, 76.965753)" font-size="16.6666329" font-family="Montserrat" fill="#76CFA6" sketch:type="MSTextLayer" font-weight="bold">
                                <text>
                                    <tspan x="0.5585938" y="17" fill="#000000">IRC</tspan>
                                </text>
                            </g>
                        </g>
                    </g>
                </g>
            </g>
        </g>
    </g>
</svg>