<?xml version="1.0" encoding="UTF-8" standalone="no"?>
<svg width="190px" height="190px" viewBox="0 0 190 190" version="1.1" xmlns="http://www.w3.org/2000/svg" xmlns:xlink="http://www.w3.org/1999/xlink" xmlns:sketch="http://www.bohemiancoding.com/sketch/ns">
    <!-- Generator: sketchtool 3.4.4 (395) - http://www.bohemiancoding.com/sketch -->
    <title>Working group</title>
    <desc>Created with sketchtool.</desc>
    <defs></defs>
    <g id="01-Homepage" stroke="none" stroke-width="1" fill="none" fill-rule="evenodd" sketch:type="MSPage">
        <g id="03-Homepage---Desktop" sketch:type="MSArtboardGroup" transform="translate(-935.000000, -2867.000000)">
            <g id="Segments" sketch:type="MSLayerGroup" transform="translate(0.000000, 2728.000000)">
                <g id="Working-group" transform="translate(940.000000, 144.000000)" sketch:type="MSShapeGroup">
                    <g id="Illustrations">
                        <g>
                            <g id="Working-group">
                                <circle id="circle-copy" fill="#76CFA6" cx="90" cy="90" r="90"></circle>
                                <g id="Boy/Shadow" transform="translate(125.250000, 119.897114) rotate(-30.000000) translate(-125.250000, -119.897114) translate(79.250000, 76.397114)" fill-opacity="0.25" fill="#000000">
                                    <path d="M10.9099655,64.2282379 C11.6665613,76.7992019 22.0992775,86.7679492 34.8581202,86.7679492 L56.8739307,86.7679492 C70.1201583,86.7679492 80.8660254,76.020975 80.8660254,62.7639106 L80.8660254,57.2831573 L80.8660254,57.2831573 C81.0512986,58.0394058 81.3509092,58.7114451 81.7548892,59.258354 C81.6190272,60.8636025 81.2919922,64.1103516 81.2919922,64.1103516 C81.2919922,64.1103516 82.8720703,65.2949252 82.8720703,65.2949219 C82.8720703,65.2949185 84.2128906,64.3432613 84.2128906,63.5527344 C84.2128906,63.2870868 84.2717225,62.1775569 84.3498467,60.7438477 C86.7515496,60.924236 89.4442504,58.6560219 90.6984631,55.2101007 C92.1151569,51.3177664 91.1600406,47.3967679 88.5651511,46.4523053 C87.5240257,46.0733667 86.3771146,46.2311607 85.2854022,46.8073894 C85.5382711,44.6081007 85.7827148,42.3058748 85.7827148,40.7661133 C85.7827148,37.5766606 86.987793,34.9687495 86.987793,32.7368164 C86.987793,30.5048833 88.1064453,27.1303706 87.2539063,25.6953125 C86.4013672,24.2602544 85.8422852,25.1152339 83.8276367,23.4638672 C81.8129883,21.8125005 78.2993164,17.4912105 77.5771484,17.4912109 C76.8549805,17.4912114 75.640625,17.4042969 75.640625,17.4042969 C75.640625,17.4042969 74.0019531,7.72167969 71.5966797,6.38574219 C69.1914063,5.04980469 63.6489258,4.12207031 63.6489258,4.12207031 C63.6489258,4.12207031 62.2651367,1.82617187 60.5766602,1.82617187 C58.8881836,1.82617187 51.4858398,0.0126953125 48.8735352,0.919433594 C46.2612305,1.82617187 29.5161133,6.92871096 28.0883789,7.71044922 C26.6606445,8.49218748 14.2744141,13.8491206 13.4111328,15.8793945 C12.5478516,17.9096684 8.30273438,22.8120113 8.30273438,24.2392578 C8.30273438,25.6665044 6.61474609,30.7963863 6.61474609,31.7895508 C6.61474609,32.7827153 6.70166016,36.5810542 7.21728516,38.9487305 C7.73291016,41.3164067 7.98828125,44.7465816 7.98828125,45.3925781 L7.98828125,47.6925157 C6.55767127,46.4433768 4.89256945,45.9217385 3.43484893,46.4523053 C0.839959405,47.3967679 -0.115156924,51.3177664 1.3015369,55.2101007 C2.7087449,59.0763729 5.92679434,61.4600879 8.51293933,60.5662184 C8.61084946,61.8071407 8.68310547,62.6972656 8.68310547,62.6972656 C8.68310547,62.6972656 9.67138672,64.3041988 9.67138672,64.3041992 C9.67138672,64.3041995 10.3449118,64.4835646 10.9099655,64.2282379 L10.9099655,64.2282379 L10.9099655,64.2282379 Z M10.8660254,49.3514334 L10.8660254,46.2897787 C10.8238833,47.8833943 10.8452148,49.0561523 10.8452148,49.0561523 C10.8452148,49.0561523 10.8526194,49.1605883 10.8660254,49.3514334 L10.8660254,49.3514334 L10.8660254,49.3514334 Z M80.8660254,50.822061 L80.8660254,53.3105609 C80.9177106,53.0647851 80.978679,52.8175246 81.0491211,52.5695621 C81.0410076,52.4696155 81.0366211,52.3889344 81.0366211,52.3310547 C81.0366211,52.1122202 80.9664637,51.5482382 80.8660254,50.822061 L80.8660254,50.822061 L80.8660254,50.822061 Z" id="Rectangle-25"></path>
                                </g>
                                <g id="Boy/Brown" transform="translate(125.250000, 115.897114) rotate(-30.000000) translate(-125.250000, -115.897114) translate(79.250000, 72.397114)">
                                    <path d="M80.8660254,57.2831573 L80.8660254,62.7639106 C80.8660254,76.020975 70.1201583,86.7679492 56.8739307,86.7679492 L34.8581202,86.7679492 C21.6076521,86.7679492 10.8660254,76.0161669 10.8660254,62.7639106 L10.8660254,58.1261096 C10.4020994,59.2899369 9.61880511,60.1641959 8.56515107,60.5476947 C5.97026156,61.4921572 2.71823072,59.102435 1.3015369,55.2101007 C-0.115156924,51.3177664 0.839959405,47.3967679 3.43484893,46.4523053 C6.02973844,45.5078428 9.28176928,47.897565 10.6984631,51.7898993 C10.7585677,51.9550354 10.8144032,52.1202232 10.8660254,52.285233 L10.8660254,37.7719878 C10.8660254,24.5149234 21.6118925,13.7679492 34.8581202,13.7679492 L56.8739307,13.7679492 C70.1243987,13.7679492 80.8660254,24.5197315 80.8660254,37.7719878 L80.8660254,53.3105609 C80.9717836,52.8076548 81.1164096,52.2985323 81.3015369,51.7898993 C82.7182307,47.897565 85.9702616,45.5078428 88.5651511,46.4523053 C91.1600406,47.3967679 92.1151569,51.3177664 90.6984631,55.2101007 C89.2817693,59.102435 86.0297384,61.4921572 83.4348489,60.5476947 C82.1398362,60.0763486 81.2532314,58.8636556 80.8660254,57.2831573 L80.8660254,57.2831573 L80.8660254,57.2831573 Z" id="Rectangle-25" fill="#9D633D"></path>
                                    <circle id="Oval-37" fill="#311F1D" cx="24.5" cy="50.5" r="5.5"></circle>
                                    <circle id="Oval-37-Copy" fill="#311F1D" cx="65.5" cy="50.5" r="5.5"></circle>
                                    <path d="M36.3749111,56.6061314 C37.0504465,53.9340771 39.8374285,51.7621815 42.5905821,51.7550904 L46.5433925,51.7449096 C49.3006774,51.7378079 52.2042195,53.868107 53.028586,56.502908 L54.5073124,61.2291428 C55.331701,63.8640145 53.7922405,66.3127283 51.0422287,66.6237185 C51.0422287,66.6237185 50.1376953,66.9550781 45,66.9550781 C39.8623047,66.9550781 38.9577713,66.6237185 38.9577713,66.6237185 C36.2196698,66.2792483 34.5464703,63.8384578 35.2231651,61.1618178 L36.3749111,56.6061314 L36.3749111,56.6061314 Z" id="Nose-Copy-3" fill-opacity="0.5" fill="#311F1D"></path>
                                    <path d="M75.640625,17.4042969 C75.640625,17.4042969 74.0019531,7.72167969 71.5966797,6.38574219 C69.1914063,5.04980469 63.6489258,4.12207031 63.6489258,4.12207031 C63.6489258,4.12207031 62.2651367,1.82617187 60.5766602,1.82617187 C58.8881836,1.82617187 51.4858398,0.0126953125 48.8735352,0.919433594 C46.2612305,1.82617187 29.5161133,6.92871096 28.0883789,7.71044922 C26.6606445,8.49218748 14.2744141,13.8491206 13.4111328,15.8793945 C12.5478516,17.9096684 8.30273438,22.8120113 8.30273438,24.2392578 C8.30273438,25.6665044 6.61474609,30.7963863 6.61474609,31.7895508 C6.61474609,32.7827153 6.70166016,36.5810542 7.21728516,38.9487305 C7.73291016,41.3164067 7.98828125,44.7465816 7.98828125,45.3925781 L7.98828125,53.1010742 C7.98828125,54.1376958 8.68310547,62.6972656 8.68310547,62.6972656 C8.68310547,62.6972656 9.67138672,64.3041988 9.67138672,64.3041992 C9.67138672,64.3041997 11.6699219,64.8364253 11.6699219,62.762207 C11.6699219,60.6879887 10.8452148,49.0561523 10.8452148,49.0561523 C10.8452148,49.0561523 10.7363281,43.0698238 11.496582,39.7685547 C12.2568359,36.4672856 14.1899414,32.8100581 15.5307617,31.3115234 C16.871582,29.8129887 22.5224609,27.0341792 24.2050781,26.2958984 C25.8876953,25.5576176 34.3227539,22.6479488 36.3476563,22.6479492 C38.3725586,22.6479497 44.2294922,23.039062 47.355957,23.0390625 C50.4824219,23.039063 54.878418,23.1523433 57.1103516,23.6958008 C59.3422852,24.2392583 61.6533203,24.8247066 63.8583984,24.2602539 C66.0634766,23.6958012 67.6650391,23.4716797 67.6650391,23.4716797 C67.6650391,23.4716797 66.9267578,24.2202144 67.8227539,26.5336914 C68.71875,28.8471684 72.3920898,30.0791011 73.7070313,31.7026367 C75.0219727,33.3261723 78.8217773,35.3847652 78.8217773,37.5766602 C78.8217773,39.7685551 80.1679688,43.8251949 80.1679688,45.1713867 C80.1679688,46.5175786 81.0366211,51.5610347 81.0366211,52.3310547 C81.0366211,53.1010747 81.8129883,57.9067378 81.8129883,58.4223633 C81.8129883,58.9379887 81.2919922,64.1103516 81.2919922,64.1103516 C81.2919922,64.1103516 82.8720703,65.2949252 82.8720703,65.2949219 C82.8720703,65.2949185 84.2128906,64.3432613 84.2128906,63.5527344 C84.2128906,62.7622075 84.7338867,54.4985347 84.7338867,52.4575195 C84.7338867,50.4165044 85.7827148,43.9555659 85.7827148,40.7661133 C85.7827148,37.5766606 86.987793,34.9687495 86.987793,32.7368164 C86.987793,30.5048833 88.1064453,27.1303706 87.2539063,25.6953125 C86.4013672,24.2602544 85.8422852,25.1152339 83.8276367,23.4638672 C81.8129883,21.8125005 78.2993164,17.4912105 77.5771484,17.4912109 C76.8549805,17.4912114 75.640625,17.4042969 75.640625,17.4042969 L75.640625,17.4042969 Z" id="Path-37" fill="#311E1C"></path>
                                </g>
                                <g id="Girl/Shadow" transform="translate(6.000000, 66.000000)" fill-opacity="0.25" fill="#000000">
                                    <path d="M93.0042108,30.6173523 C90.3231403,21.7831302 81.3356695,16.3259064 74.3910726,9.73604843 C63.9145101,-0.205357823 55.1204935,-3.59688745 41.0872903,5.3484254 C27.0540872,14.2937382 0.863728863,43.3180797 0.863728863,43.3180797 L4.73830942,63.4526358 L42.7643285,23.33419 C51.0251126,46.2365332 76.1944354,43.7660401 76.1944354,43.7660401 L33.0929393,100.706123 L53.8560462,101.969299 C53.8560462,101.969299 82.2120964,67.5792439 91.1027836,47.3101999 C93.1166058,42.7190756 93.8982265,38.7900781 93.7807817,35.343273 C95.0833396,33.3171466 96.5794383,30.8552926 97.4082031,29.0341797 C98.5270759,26.5755888 97.7740413,25.3979216 96.0883789,27.6225586 C95.0275489,29.0225789 93.9791842,29.9753631 93.0042108,30.6173523 L93.0042108,30.6173523 Z" id="Hair"></path>
                                </g>
                                <g id="Girl/White" transform="translate(5.000000, 62.000000)">
                                    <rect id="Face" fill="#EEDBCB" transform="translate(46.500000, 49.500000) rotate(40.000000) translate(-46.500000, -49.500000) " x="24" y="13" width="45" height="73"></rect>
                                    <path d="M93.0042108,30.6173523 C90.3231403,21.7831302 81.3356695,16.3259064 74.3910726,9.73604843 C63.9145101,-0.205357823 55.1204935,-3.59688745 41.0872903,5.3484254 C27.0540872,14.2937382 0.863728863,43.3180797 0.863728863,43.3180797 L4.73830942,63.4526358 L42.7643285,23.33419 C51.0251126,46.2365332 76.1944354,43.7660401 76.1944354,43.7660401 L33.0929393,100.706123 L53.8560462,101.969299 C53.8560462,101.969299 82.2120964,67.5792439 91.1027836,47.3101999 C93.1166058,42.7190756 93.8982265,38.7900781 93.7807817,35.343273 C95.0833396,33.3171466 96.5794383,30.8552926 97.4082031,29.0341797 C98.5270759,26.5755888 97.7740413,25.3979216 96.0883789,27.6225586 C95.0275489,29.0225789 93.9791842,29.9753631 93.0042108,30.6173523 L93.0042108,30.6173523 Z" id="Hair" fill="#BB814D"></path>
                                    <rect id="Eye-1" fill="#81BDDA" transform="translate(36.000000, 43.000000) rotate(40.000000) translate(-36.000000, -43.000000) " x="33" y="38" width="6" height="10" rx="5"></rect>
                                    <rect id="Eye-2" fill="#81BDDA" transform="translate(55.000000, 59.000000) rotate(40.000000) translate(-55.000000, -59.000000) " x="52" y="54" width="6" height="10" rx="5"></rect>
                                    <rect id="Nose" fill-opacity="0.100000001" fill="#000000" transform="translate(38.000000, 59.000000) rotate(40.000000) translate(-38.000000, -59.000000) " x="34" y="52" width="8" height="14" rx="7"></rect>
                                    <rect id="Nose-Copy" fill-opacity="0.200000018" fill="#E55E5E" transform="translate(26.563691, 48.933462) rotate(40.000000) translate(-26.563691, -48.933462) " x="22.5636913" y="44.9334616" width="8" height="8" rx="7"></rect>
                                    <rect id="Nose-Copy-2" fill-opacity="0.200000018" fill="#E55E5E" transform="translate(49.563691, 68.933462) rotate(40.000000) translate(-49.563691, -68.933462) " x="45.5636913" y="64.9334616" width="8" height="8" rx="7"></rect>
                                </g>
                                <g id="Ring" transform="translate(5.000000, 5.000000)">
                                    <circle id="path-1" cx="85" cy="85" r="85"></circle>
                                    <g id="path-1-link" stroke="#EBEBEB" stroke-width="20">
                                        <circle id="path-1" cx="85" cy="85" r="85"></circle>
                                    </g>
                                </g>
                            </g>
                        </g>
                    </g>
                </g>
            </g>
        </g>
    </g>
</svg>