<?xml version="1.0" encoding="UTF-8" standalone="no"?>
<svg width="255px" height="255px" viewBox="0 0 255 255" version="1.1" xmlns="http://www.w3.org/2000/svg" xmlns:xlink="http://www.w3.org/1999/xlink" xmlns:sketch="http://www.bohemiancoding.com/sketch/ns">
    <!-- Generator: sketchtool 3.4.4 (395) - http://www.bohemiancoding.com/sketch -->
    <title>Working group@2x</title>
    <desc>Created with sketchtool.</desc>
    <defs></defs>
    <g id="02-Features" stroke="none" stroke-width="1" fill="none" fill-rule="evenodd" sketch:type="MSPage">
        <g id="03-Features---Desktop" sketch:type="MSArtboardGroup" transform="translate(-136.000000, -578.000000)">
            <g id="Icons" sketch:type="MSLayerGroup" transform="translate(140.000000, 582.000000)">
                <g id="Working-group@2x" sketch:type="MSShapeGroup">
                    <g id="Working-group">
                        <g id="Illustrations">
                            <g id="Working-group">
                                <ellipse id="circle-copy" fill="#76CFA6" cx="123.68984" cy="123.812155" rx="123.68984" ry="123.812155"></ellipse>
                                <g id="Boy/Shadow" transform="translate(172.135027, 164.941334) rotate(-30.000000) translate(-172.135027, -164.941334) translate(108.915775, 105.098792)" fill-opacity="0.25" fill="#000000">
                                    <path d="M14.9939098,88.3581836 C16.0337233,105.651941 30.3717343,119.365853 47.9066144,119.365853 L78.1636374,119.365853 C96.3683459,119.365853 111.13673,104.581341 111.13673,86.3437223 L111.13673,78.8039015 L111.13673,78.8039015 C111.391357,79.8442654 111.803121,80.7687836 112.358324,81.521161 C112.171604,83.7294863 111.72215,88.1960086 111.72215,88.1960086 C111.72215,88.1960086 113.893701,89.8256153 113.893701,89.8256108 C113.893701,89.8256061 115.736433,88.5164202 115.736433,87.4288998 C115.736433,87.0634509 115.817287,85.537081 115.924656,83.5647408 C119.225392,83.8128992 122.926055,80.6925384 124.649759,75.952017 C126.596766,70.5973692 125.28412,65.2032884 121.717881,63.9040001 C120.28703,63.3826978 118.710794,63.5997736 117.210419,64.392486 C117.557945,61.3669452 117.893891,58.1997946 117.893891,56.0815592 C117.893891,51.6938591 119.550068,48.1061803 119.550068,45.0357308 C119.550068,41.9652814 121.087468,37.322996 119.915796,35.3488001 C118.744125,33.3746041 117.975761,34.5507914 115.206966,32.2790217 C112.438171,30.0072521 107.609221,24.062494 106.616723,24.0624946 C105.624225,24.0624952 103.955297,23.9429278 103.955297,23.9429278 C103.955297,23.9429278 101.703219,10.6226422 98.3975758,8.78480555 C95.0919327,6.94696888 87.4747269,5.67069341 87.4747269,5.67069341 C87.4747269,5.67069341 85.5729419,2.51224749 83.2524154,2.51224749 C80.9318887,2.51224749 70.7586141,0.0174648222 67.1684414,1.26485616 C63.5782687,2.51224749 40.5649258,9.53176259 38.6027453,10.6071926 C36.6405649,11.6826226 19.6177777,19.0521051 18.4313429,21.8451339 C17.2449083,24.6381626 11.4107098,31.3822697 11.4107098,33.3457193 C11.4107098,35.309169 9.09085425,42.3662994 9.09085425,43.7325865 C9.09085425,45.0988735 9.210303,50.3242127 9.91894271,53.5814027 C10.6275824,56.8385926 10.978547,61.557452 10.978547,62.4461434 L10.978547,65.6101459 C9.01241453,63.8917173 6.72401256,63.1741043 4.72062126,63.9040001 C1.15438271,65.2032884 -0.158263794,70.5973692 1.78874323,75.952017 C3.72271358,81.2708113 8.14538046,84.5500657 11.6996011,83.3203778 C11.8341621,85.027503 11.9334658,86.2520394 11.9334658,86.2520394 C11.9334658,86.2520394 13.2916919,88.4626823 13.2916919,88.4626829 C13.2916919,88.4626833 14.2173387,88.7094342 14.9939098,88.3581836 L14.9939098,88.3581836 L14.9939098,88.3581836 Z M14.9335215,67.8923034 L14.9335215,63.6804138 C14.8756043,65.8727358 14.9049209,67.486088 14.9049209,67.486088 C14.9049209,67.486088 14.9150973,67.6297596 14.9335215,67.8923034 L14.9335215,67.8923034 L14.9335215,67.8923034 Z M111.13673,69.915432 L111.13673,73.3388379 C111.207763,73.0007265 111.291553,72.6605725 111.388364,72.3194528 C111.377214,72.1819572 111.371185,72.070965 111.371185,71.9913404 C111.371185,71.6902919 111.274766,70.9144271 111.13673,69.915432 L111.13673,69.915432 L111.13673,69.915432 Z" id="Rectangle-25"></path>
                                </g>
                                <g id="Boy/Brown" transform="translate(172.135027, 159.438571) rotate(-30.000000) translate(-172.135027, -159.438571) translate(108.915775, 99.596030)">
                                    <path d="M111.13673,78.8039015 L111.13673,86.3437223 C111.13673,104.581341 96.3683459,119.365853 78.1636374,119.365853 L47.9066144,119.365853 C29.696078,119.365853 14.9335215,104.574727 14.9335215,86.3437223 L14.9335215,79.963543 C14.2959334,81.5646093 13.2194273,82.7673192 11.7713574,83.2948949 C8.20511883,84.5941831 3.73575024,81.3066647 1.78874323,75.952017 C-0.158263794,70.5973692 1.15438271,65.2032884 4.72062126,63.9040001 C8.28685978,62.6047119 12.7562284,65.8922303 14.7032354,71.246878 C14.785839,71.4740542 14.8625755,71.7013015 14.9335215,71.928304 L14.9335215,51.9625689 C14.9335215,33.7249499 29.7019057,18.9404384 47.9066144,18.9404384 L78.1636374,18.9404384 C96.3741736,18.9404384 111.13673,33.7315643 111.13673,51.9625689 L111.13673,73.3388379 C111.282077,72.6469947 111.480841,71.9465997 111.735267,71.246878 C113.682274,65.8922303 118.151643,62.6047119 121.717881,63.9040001 C125.28412,65.2032884 126.596766,70.5973692 124.649759,75.952017 C122.702752,81.3066647 118.233384,84.5941831 114.667145,83.2948949 C112.887368,82.6464685 111.66888,80.9781781 111.13673,78.8039015 L111.13673,78.8039015 L111.13673,78.8039015 Z" id="Rectangle-25" fill="#9D633D"></path>
                                    <ellipse id="Oval-37" fill="#311F1D" cx="33.671123" cy="69.4723757" rx="7.55882353" ry="7.56629834"></ellipse>
                                    <ellipse id="Oval-37-Copy" fill="#311F1D" cx="90.0187166" cy="69.4723757" rx="7.55882353" ry="7.56629834"></ellipse>
                                    <path d="M49.991188,77.8725233 C50.9195976,74.1966033 54.7498349,71.2087469 58.5335807,71.1989918 L63.9660528,71.1849861 C67.7554764,71.1752164 71.7459059,74.1058489 72.8788588,77.7305198 L74.9111192,84.2323567 C76.0441024,87.8571249 73.9283733,91.2257975 70.1489453,91.6536238 C70.1489453,91.6536238 68.9058165,92.1094721 61.8449198,92.1094721 C54.784023,92.1094721 53.5408942,91.6536238 53.5408942,91.6536238 C49.777835,91.1797394 47.4783041,87.8219668 48.4083071,84.1397383 L49.991188,77.8725233 L49.991188,77.8725233 Z" id="Nose-Copy-3" fill-opacity="0.5" fill="#311F1D"></path>
                                    <path d="M103.955297,23.9429278 C103.955297,23.9429278 101.703219,10.6226422 98.3975758,8.78480555 C95.0919327,6.94696888 87.4747269,5.67069341 87.4747269,5.67069341 C87.4747269,5.67069341 85.5729419,2.51224749 83.2524154,2.51224749 C80.9318887,2.51224749 70.7586141,0.0174648222 67.1684414,1.26485616 C63.5782687,2.51224749 40.5649258,9.53176259 38.6027453,10.6071926 C36.6405649,11.6826226 19.6177777,19.0521051 18.4313429,21.8451339 C17.2449083,24.6381626 11.4107098,31.3822697 11.4107098,33.3457193 C11.4107098,35.309169 9.09085425,42.3662994 9.09085425,43.7325865 C9.09085425,45.0988735 9.210303,50.3242127 9.91894271,53.5814027 C10.6275824,56.8385926 10.978547,61.557452 10.978547,62.4461434 L10.978547,73.050649 C10.978547,74.4767196 11.9334658,86.2520394 11.9334658,86.2520394 C11.9334658,86.2520394 13.2916919,88.4626823 13.2916919,88.4626829 C13.2916919,88.4626836 16.0383419,89.1948613 16.0383419,86.3413787 C16.0383419,83.4878961 14.9049209,67.486088 14.9049209,67.486088 C14.9049209,67.486088 14.7552744,59.2507521 15.8001154,54.7092272 C16.8449563,50.1677023 19.5016842,45.1364888 21.3444158,43.0749687 C23.1871475,41.0134485 30.9533286,37.1906664 33.2658025,36.1750205 C35.5782764,35.1593745 47.1708436,31.1565704 49.9537309,31.156571 C52.736618,31.1565717 60.7859866,31.6946212 65.0827858,31.6946219 C69.3795852,31.6946226 75.4211413,31.8504612 78.4885581,32.5980906 C81.5559748,33.34572 84.7321033,34.1511157 87.7626117,33.3746034 C90.7931202,32.5980912 92.9941981,32.2897693 92.9941981,32.2897693 C92.9941981,32.2897693 91.9795548,33.3195215 93.2109505,36.50215 C94.4423463,39.6847786 99.490733,41.3795369 101.297899,43.6130195 C103.105064,45.8465022 108.327255,48.6784891 108.327255,51.6938585 C108.327255,54.7092277 110.177369,60.289909 110.177369,62.1418524 C110.177369,63.993796 111.371185,70.9320312 111.371185,71.9913404 C111.371185,73.0506497 112.438171,79.6617553 112.438171,80.3710965 C112.438171,81.0804375 111.72215,88.1960086 111.72215,88.1960086 C111.72215,88.1960086 113.893701,89.8256153 113.893701,89.8256108 C113.893701,89.8256061 115.736433,88.5164202 115.736433,87.4288998 C115.736433,86.3413794 116.452454,74.9731223 116.452454,72.1653169 C116.452454,69.3575116 117.893891,60.4692592 117.893891,56.0815592 C117.893891,51.6938591 119.550068,48.1061803 119.550068,45.0357308 C119.550068,41.9652814 121.087468,37.322996 119.915796,35.3488001 C118.744125,33.3746041 117.975761,34.5507914 115.206966,32.2790217 C112.438171,30.0072521 107.609221,24.062494 106.616723,24.0624946 C105.624225,24.0624952 103.955297,23.9429278 103.955297,23.9429278 L103.955297,23.9429278 Z" id="Path-37" fill="#311E1C"></path>
                                </g>
                                <g id="Girl/Shadow" transform="translate(8.245989, 90.795580)" fill-opacity="0.25" fill="#000000">
                                    <path d="M127.818621,42.120004 C124.133941,29.9668476 111.782177,22.4593961 102.237998,13.3937904 C87.8397278,-0.282508828 75.7538333,-4.94820428 56.4675594,7.35777859 C37.1812856,19.6637614 1.18704983,59.5922754 1.18704983,59.5922754 L6.51200813,87.2911951 L58.7723659,32.100626 C70.1254221,63.6071645 104.716417,60.2085303 104.716417,60.2085303 L45.4806706,138.540468 L74.0160635,140.278207 C74.0160635,140.278207 112.986678,92.9681311 125.20543,65.0841977 C127.973089,58.7682311 129.047295,53.3631461 128.885887,48.6214087 C130.676034,45.8340857 132.732169,42.4473362 133.871167,39.9420483 C135.408869,36.5597879 134.37395,34.9396822 132.057291,38.0000944 C130.599359,39.9260892 129.158558,41.2368255 127.818621,42.120004 L127.818621,42.120004 Z" id="Hair"></path>
                                </g>
                                <g id="Girl/White" transform="translate(6.871658, 85.292818)">
                                    <rect id="Face" fill="#EEDBCB" transform="translate(63.906417, 68.096685) rotate(40.000000) translate(-63.906417, -68.096685) " x="32.9839572" y="17.8839779" width="61.8449198" height="100.425414"></rect>
                                    <path d="M127.818621,42.120004 C124.133941,29.9668476 111.782177,22.4593961 102.237998,13.3937904 C87.8397278,-0.282508828 75.7538333,-4.94820428 56.4675594,7.35777859 C37.1812856,19.6637614 1.18704983,59.5922754 1.18704983,59.5922754 L6.51200813,87.2911951 L58.7723659,32.100626 C70.1254221,63.6071645 104.716417,60.2085303 104.716417,60.2085303 L45.4806706,138.540468 L74.0160635,140.278207 C74.0160635,140.278207 112.986678,92.9681311 125.20543,65.0841977 C127.973089,58.7682311 129.047295,53.3631461 128.885887,48.6214087 C130.676034,45.8340857 132.732169,42.4473362 133.871167,39.9420483 C135.408869,36.5597879 134.37395,34.9396822 132.057291,38.0000944 C130.599359,39.9260892 129.158558,41.2368255 127.818621,42.120004 L127.818621,42.120004 Z" id="Hair" fill="#BB814D"></path>
                                    <rect id="Eye-1" fill="#81BDDA" transform="translate(49.475936, 59.154696) rotate(40.000000) translate(-49.475936, -59.154696) " x="45.3529412" y="52.2762431" width="8.2459893" height="13.7569061" rx="5"></rect>
                                    <rect id="Eye-2" fill="#81BDDA" transform="translate(75.588235, 81.165746) rotate(40.000000) translate(-75.588235, -81.165746) " x="71.4652406" y="74.2872928" width="8.2459893" height="13.7569061" rx="5"></rect>
                                    <rect id="Nose" fill-opacity="0.100000001" fill="#000000" transform="translate(52.224599, 81.165746) rotate(40.000000) translate(-52.224599, -81.165746) " x="46.7272727" y="71.5359116" width="10.9946524" height="19.2596685" rx="7"></rect>
                                    <rect id="Nose-Copy" fill-opacity="0.200000018" fill="#E55E5E" transform="translate(36.507319, 67.317304) rotate(40.000000) translate(-36.507319, -67.317304) " x="31.0099929" y="61.8145411" width="10.9946524" height="11.0055249" rx="7"></rect>
                                    <rect id="Nose-Copy-2" fill-opacity="0.200000018" fill="#E55E5E" transform="translate(68.116945, 94.831116) rotate(40.000000) translate(-68.116945, -94.831116) " x="62.6196186" y="89.3283533" width="10.9946524" height="11.0055249" rx="7"></rect>
                                </g>
                                <g id="Ring" transform="translate(6.871658, 6.878453)">
                                    <ellipse id="path-1" cx="116.818182" cy="116.933702" rx="116.818182" ry="116.933702"></ellipse>
                                    <g id="path-1-link" stroke="#EBEBEB" stroke-width="20">
                                        <ellipse id="path-1" cx="116.818182" cy="116.933702" rx="116.818182" ry="116.933702"></ellipse>
                                    </g>
                                </g>
                            </g>
                        </g>
                    </g>
                </g>
            </g>
        </g>
    </g>
</svg>