<?xml version="1.0" encoding="UTF-8" standalone="no"?>
<svg width="251px" height="251px" viewBox="0 0 251 251" version="1.1" xmlns="http://www.w3.org/2000/svg" xmlns:xlink="http://www.w3.org/1999/xlink" xmlns:sketch="http://www.bohemiancoding.com/sketch/ns">
    <!-- Generator: sketchtool 3.4.4 (395) - http://www.bohemiancoding.com/sketch -->
    <title>Rich communication@2x</title>
    <desc>Created with sketchtool.</desc>
    <defs></defs>
    <g id="02-Features" stroke="none" stroke-width="1" fill="none" fill-rule="evenodd" sketch:type="MSPage">
        <g id="03-Features---Desktop" sketch:type="MSArtboardGroup" transform="translate(-305.000000, -949.000000)">
            <g id="Icons" sketch:type="MSLayerGroup" transform="translate(140.000000, 582.000000)">
                <g id="Rich-communication@2x" transform="translate(158.000000, 371.000000)" sketch:type="MSShapeGroup">
                    <g id="Rich-communication">
                        <g id="Illustrations">
                            <g id="Rich-communication">
                                <ellipse id="circle-copy" fill="#81BDDA" cx="132.3" cy="121.875" rx="121.5" ry="121.875"></ellipse>
                                <g id="Boy/Shadow" transform="translate(184.950000, 161.822917) rotate(-30.000000) translate(-184.950000, -161.822917) translate(122.850000, 102.916667)" fill-opacity="0.25" fill="#000000">
                                    <path d="M14.7284534,86.9757388 C15.7498578,103.998919 29.8340246,117.498265 47.0584623,117.498265 L76.7798064,117.498265 C94.6622137,117.498265 109.169134,102.94507 109.169134,84.9927956 L109.169134,77.5709422 L109.169134,77.5709422 C109.419253,78.5950287 109.823727,79.5050819 110.3691,80.2456877 C110.185687,82.4194617 109.744189,86.8161011 109.744189,86.8161011 C109.744189,86.8161011 111.877295,88.4202112 111.877295,88.4202067 C111.877295,88.4202021 113.687402,87.1314997 113.687402,86.0609945 C113.687402,85.7012634 113.766825,84.198775 113.872293,82.2572938 C117.114592,82.5015696 120.749738,79.4300297 122.442925,74.763678 C124.355462,69.4928087 123.066055,64.1831232 119.562954,62.9041634 C118.157435,62.3910174 116.609105,62.6046968 115.135293,63.3850065 C115.476666,60.406803 115.806665,57.2892055 115.806665,55.2041118 C115.806665,50.8850612 117.433521,47.3535149 117.433521,44.3311055 C117.433521,41.3086961 118.943701,36.7390435 117.792774,34.7957357 C116.641846,32.8524278 115.887085,34.0102126 113.16731,31.7739868 C110.447534,29.5377611 105.704077,23.6860142 104.72915,23.6860148 C103.754224,23.6860154 102.114844,23.5683187 102.114844,23.5683187 C102.114844,23.5683187 99.9026367,10.4564412 96.6555176,8.64735922 C93.4083985,6.83827718 85.9260498,5.58197021 85.9260498,5.58197021 C85.9260498,5.58197021 84.0579345,2.47294107 81.7784913,2.47294107 C79.4990479,2.47294107 69.5058837,0.017191569 65.9792725,1.24506633 C62.4526612,2.47294107 39.846753,9.38262943 37.9193115,10.4412333 C35.9918701,11.4998372 19.270459,18.7540175 18.1050293,21.5033467 C16.9395997,24.252676 11.2086914,30.8912653 11.2086914,32.8239949 C11.2086914,34.7567247 8.92990722,41.7034398 8.92990722,43.04835 C8.92990722,44.3932603 9.04724122,49.5368442 9.74333497,52.7430726 C10.4394287,55.9493007 10.7841797,60.5943293 10.7841797,61.4691162 L10.7841797,64.583615 C8.85285621,62.8920728 6.60496876,62.1856876 4.63704606,62.9041634 C1.1339452,64.1831232 -0.155461847,69.4928087 1.75707481,74.763678 C3.65680561,79.999255 8.00117236,83.2272024 11.4924681,82.0167541 C11.6246468,83.6971697 11.7221924,84.9025472 11.7221924,84.9025472 C11.7221924,84.9025472 13.0563721,87.0786025 13.0563721,87.0786031 C13.0563721,87.0786035 13.9656309,87.3214937 14.7284534,86.9757388 L14.7284534,86.9757388 L14.7284534,86.9757388 Z M14.6691343,66.8300661 L14.6691343,62.6840753 C14.6122425,64.8420964 14.64104,66.4302062 14.64104,66.4302062 C14.64104,66.4302062 14.6510362,66.57163 14.6691343,66.8300661 L14.6691343,66.8300661 L14.6691343,66.8300661 Z M109.169134,68.8215409 L109.169134,72.1913846 C109.238909,71.8585632 109.321217,71.5237312 109.416313,71.1879487 C109.40536,71.0526043 109.399438,70.9433487 109.399438,70.8649699 C109.399438,70.5686315 109.304726,69.8049059 109.169134,68.8215409 L109.169134,68.8215409 L109.169134,68.8215409 Z" id="Rectangle-25"></path>
                                </g>
                                <g id="Girl/Shadow" transform="translate(87.750000, 171.979167) rotate(-20.000000) translate(-87.750000, -171.979167) translate(21.600000, 102.916667)" fill-opacity="0.25" fill="#000000">
                                    <path d="M125.555685,41.4609979 C121.936239,29.4979888 109.803154,22.1079982 100.427948,13.1842322 C86.2845886,-0.278088719 74.4126662,-4.87078509 55.4678419,7.2426594 C36.5230177,19.3561038 1.16603397,58.6598996 1.16603397,58.6598996 L6.39671772,85.9254443 L57.7318435,31.5983823 C68.883902,62.611972 102.862488,59.2665126 102.862488,59.2665126 L44.6754681,136.372875 L72.7056624,138.083426 C72.7056624,138.083426 110.98633,91.5135594 122.988758,64.0658957 C125.707418,57.8487482 126.762606,52.5282308 126.604055,47.8606822 C128.362508,45.1169694 130.382242,41.7832087 131.501074,39.3171183 C133.011552,35.9877765 131.994956,34.3930188 129.719312,37.4055481 C128.287191,39.3014089 126.871899,40.5916375 125.555685,41.4609979 L125.555685,41.4609979 Z" id="Hair"></path>
                                </g>
                                <g id="Boy" transform="translate(185.909337, 156.338031) rotate(-30.000000) translate(-185.909337, -156.338031) translate(123.809337, 97.431781)">
                                    <path d="M109.169134,77.5709422 L109.169134,84.9927956 C109.169134,102.94507 94.6622137,117.498265 76.7798064,117.498265 L47.0584623,117.498265 C29.1703303,117.498265 14.6691343,102.938559 14.6691343,84.9927956 L14.6691343,78.7124401 C14.0428342,80.2884562 12.9853869,81.4723486 11.5629539,81.9916699 C8.05985311,83.2706295 3.66961147,80.0345474 1.75707481,74.763678 C-0.155461847,69.4928087 1.1339452,64.1831232 4.63704606,62.9041634 C8.14014689,61.6252038 12.5303885,64.8612859 14.4429252,70.1321553 C14.5240664,70.3557771 14.5994443,70.5794689 14.6691343,70.8029197 L14.6691343,51.1495668 C14.6691343,33.1972921 29.1760549,18.6440979 47.0584623,18.6440979 L76.7798064,18.6440979 C94.6679382,18.6440979 109.169134,33.2038031 109.169134,51.1495668 L109.169134,72.1913846 C109.311908,71.5103659 109.507153,70.8209292 109.757075,70.1321553 C111.669611,64.8612859 116.059853,61.6252038 119.562954,62.9041634 C123.066055,64.1831232 124.355462,69.4928087 122.442925,74.763678 C120.530389,80.0345474 116.140147,83.2706295 112.637046,81.9916699 C110.888779,81.3533887 109.691862,79.7112003 109.169134,77.5709422 L109.169134,77.5709422 L109.169134,77.5709422 Z" id="Rectangle-25" fill="#9D633D"></path>
                                    <ellipse id="Oval-37" fill="#311F1D" cx="33.075" cy="68.3854167" rx="7.425" ry="7.44791667"></ellipse>
                                    <ellipse id="Oval-37-Copy" fill="#311F1D" cx="88.425" cy="68.3854167" rx="7.425" ry="7.44791667"></ellipse>
                                    <path d="M49.10613,76.6541363 C50.0181028,73.0357294 53.7805285,70.0946208 57.4972858,70.0850182 L62.8335799,70.0712317 C66.5559145,70.0616149 70.4756963,72.9463949 71.5885911,76.5143546 L73.5848717,82.9144642 C74.6977964,86.4825196 72.6195247,89.7984862 68.9070087,90.2196188 C68.9070087,90.2196188 67.6858887,90.6683349 60.75,90.6683349 C53.8141113,90.6683349 52.5929913,90.2196188 52.5929913,90.2196188 C48.8965542,89.7531487 46.6377349,86.4479116 47.5512729,82.8232949 L49.10613,76.6541363 L49.10613,76.6541363 Z" id="Nose-Copy-3" fill-opacity="0.5" fill="#311F1D"></path>
                                    <path d="M102.114844,23.5683187 C102.114844,23.5683187 99.9026367,10.4564412 96.6555176,8.64735922 C93.4083985,6.83827718 85.9260498,5.58197021 85.9260498,5.58197021 C85.9260498,5.58197021 84.0579345,2.47294107 81.7784913,2.47294107 C79.4990479,2.47294107 69.5058837,0.017191569 65.9792725,1.24506633 C62.4526612,2.47294107 39.846753,9.38262942 37.9193115,10.4412333 C35.9918701,11.4998372 19.270459,18.7540175 18.1050293,21.5033467 C16.9395997,24.252676 11.2086914,30.8912653 11.2086914,32.8239949 C11.2086914,34.7567247 8.92990722,41.7034398 8.92990722,43.04835 C8.92990722,44.3932603 9.04724122,49.5368442 9.74333497,52.7430726 C10.4394287,55.9493007 10.7841797,60.5943292 10.7841797,61.4691162 L10.7841797,71.9077046 C10.7841797,73.3114631 11.7221924,84.9025472 11.7221924,84.9025472 C11.7221924,84.9025472 13.0563721,87.0786025 13.0563721,87.0786031 C13.0563721,87.0786038 15.7543946,87.7993259 15.7543946,84.9904886 C15.7543946,82.1816514 14.64104,66.4302062 14.64104,66.4302062 C14.64104,66.4302062 14.4940429,58.3237197 15.5203857,53.8532512 C16.5467285,49.3827826 19.1564209,44.430287 20.9665283,42.4010213 C22.7766357,40.3717555 30.4053222,36.6087843 32.6768554,35.6090291 C34.9483887,34.6092738 46.3357178,30.6690973 49.069336,30.6690979 C51.8029541,30.6690986 59.7098145,31.1987298 63.930542,31.1987305 C68.1512696,31.1987311 74.0858643,31.3521316 77.0989747,32.0880636 C80.112085,32.8239956 83.2319824,33.6167902 86.2088378,32.8524272 C89.1856934,32.0880641 91.3478028,31.7845663 91.3478028,31.7845663 C91.3478028,31.7845663 90.351123,32.798207 91.5607178,35.9310404 C92.7703125,39.0638739 97.7293212,40.7321161 99.5044923,42.9306539 C101.279663,45.1291917 106.409399,47.9168695 106.409399,50.8850607 C106.409399,53.8532517 108.226758,59.3466181 108.226758,61.1695862 C108.226758,62.9925544 109.399438,69.8222345 109.399438,70.8649699 C109.399438,71.9077053 110.447534,78.4153741 110.447534,79.113617 C110.447534,79.8118597 109.744189,86.8161011 109.744189,86.8161011 C109.744189,86.8161011 111.877295,88.4202112 111.877295,88.4202067 C111.877295,88.4202021 113.687402,87.1314997 113.687402,86.0609945 C113.687402,84.9904893 114.390747,73.8000991 114.390747,71.0362243 C114.390747,68.2723497 115.806665,59.5231622 115.806665,55.2041118 C115.806665,50.8850612 117.433521,47.3535149 117.433521,44.3311055 C117.433521,41.3086961 118.943701,36.7390435 117.792774,34.7957357 C116.641846,32.8524278 115.887085,34.0102126 113.16731,31.7739868 C110.447534,29.5377611 105.704077,23.6860142 104.72915,23.6860148 C103.754224,23.6860154 102.114844,23.5683187 102.114844,23.5683187 L102.114844,23.5683187 Z" id="Path-37" fill="#311E1C"></path>
                                </g>
                                <g id="Girl" transform="translate(86.318418, 166.608112) rotate(-20.000000) translate(-86.318418, -166.608112) translate(20.168418, 97.545612)">
                                    <rect id="Face" fill="#EEDBCB" transform="translate(62.775000, 67.031250) rotate(40.000000) translate(-62.775000, -67.031250) " x="32.4" y="17.6041667" width="60.75" height="98.8541667"></rect>
                                    <path d="M125.555685,41.4609979 C121.936239,29.4979888 109.803154,22.1079982 100.427948,13.1842322 C86.2845886,-0.278088719 74.4126662,-4.87078509 55.4678419,7.2426594 C36.5230177,19.3561038 1.16603397,58.6598996 1.16603397,58.6598996 L6.39671772,85.9254443 L57.7318435,31.5983823 C68.883902,62.611972 102.862488,59.2665126 102.862488,59.2665126 L44.6754681,136.372875 L72.7056624,138.083426 C72.7056624,138.083426 110.98633,91.5135594 122.988758,64.0658957 C125.707418,57.8487482 126.762606,52.5282308 126.604055,47.8606822 C128.362508,45.1169694 130.382242,41.7832087 131.501074,39.3171183 C133.011552,35.9877765 131.994956,34.3930188 129.719312,37.4055481 C128.287191,39.3014089 126.871899,40.5916375 125.555685,41.4609979 L125.555685,41.4609979 Z" id="Hair" fill="#BB814D"></path>
                                    <rect id="Eye-1" fill="#81BDDA" transform="translate(48.600000, 58.229167) rotate(40.000000) translate(-48.600000, -58.229167) " x="44.55" y="51.4583333" width="8.1" height="13.5416667" rx="5"></rect>
                                    <rect id="Eye-2" fill="#81BDDA" transform="translate(74.250000, 79.895833) rotate(40.000000) translate(-74.250000, -79.895833) " x="70.2" y="73.125" width="8.1" height="13.5416667" rx="5"></rect>
                                    <rect id="Nose" fill-opacity="0.100000001" fill="#000000" transform="translate(51.300000, 79.895833) rotate(40.000000) translate(-51.300000, -79.895833) " x="45.9" y="70.4166667" width="10.8" height="18.9583333" rx="7"></rect>
                                    <rect id="Nose-Copy" fill-opacity="0.200000018" fill="#E55E5E" transform="translate(35.860983, 66.264063) rotate(40.000000) translate(-35.860983, -66.264063) " x="30.4609833" y="60.8473959" width="10.8" height="10.8333333" rx="7"></rect>
                                    <rect id="Nose-Copy-2" fill-opacity="0.200000018" fill="#E55E5E" transform="translate(66.910983, 93.347396) rotate(40.000000) translate(-66.910983, -93.347396) " x="61.5109833" y="87.9307293" width="10.8" height="10.8333333" rx="7"></rect>
                                </g>
                                <g id="circle" transform="translate(17.550000, 6.770833)">
                                    <ellipse id="path-1" cx="114.75" cy="115.104167" rx="114.75" ry="115.104167"></ellipse>
                                    <g id="path-1-link" stroke="#EBEBEB" stroke-width="20">
                                        <ellipse id="path-1" cx="114.75" cy="115.104167" rx="114.75" ry="115.104167"></ellipse>
                                    </g>
                                </g>
                                <path d="M113.17441,122.962705 C139.248185,115.563136 157.659374,97.5250364 157.659374,76.4469913 C157.659374,48.7752242 125.927555,26.3428247 86.7843735,26.3428247 C47.641192,26.3428247 15.9093736,48.7752242 15.9093736,76.4469913 C15.9093736,103.312952 45.8200287,125.240245 83.3842612,126.494516 C84.2968199,138.289437 79.0958511,138.814692 75.7624052,142.448387 C74.7175002,143.587408 75.0477945,144.601501 77.7270009,144.601678 C81.481491,144.601924 105.283979,137.699754 113.17441,122.962705 L113.17441,122.962705 Z" id="Oval-10-Copy-3" fill-opacity="0.25" fill="#000000" transform="translate(86.784374, 85.472251) rotate(-10.000000) translate(-86.784374, -85.472251) "></path>
                                <path d="M113.17441,117.546039 C139.248185,110.14647 157.659374,92.1083698 157.659374,71.0303247 C157.659374,43.3585576 125.927555,20.926158 86.7843735,20.926158 C47.641192,20.926158 15.9093736,43.3585576 15.9093736,71.0303247 C15.9093736,97.8962855 45.8200287,119.823578 83.3842612,121.077849 C84.2968199,132.87277 79.0958511,133.398025 75.7624052,137.031721 C74.7175002,138.170741 75.0477945,139.184835 77.7270009,139.185011 C81.481491,139.185257 105.283979,132.283087 113.17441,117.546039 L113.17441,117.546039 Z" id="Oval-10" fill="#FFFFFF" transform="translate(86.784374, 80.055584) rotate(-10.000000) translate(-86.784374, -80.055584) "></path>
                                <path d="M203.891785,121.448012 C225.512369,115.595572 240.875909,100.70759 240.875909,83.265606 C240.875909,60.7121799 215.188247,42.4290158 183.500909,42.4290158 C151.813571,42.4290158 126.125909,60.7121799 126.125909,83.265606 C126.125909,104.976624 149.930456,122.730426 179.976324,124.026403 C180.693314,133.582395 176.494736,134.014804 173.801766,136.970313 C172.95589,137.898654 173.223271,138.725175 175.392153,138.725319 C178.401044,138.725518 197.315609,133.212204 203.891785,121.448012 L203.891785,121.448012 Z" id="Oval-10-Copy-2" fill-opacity="0.25" fill="#000000" transform="translate(183.500909, 90.577167) rotate(10.000000) translate(-183.500909, -90.577167) "></path>
                                <g id="fi-play-video-512px" transform="translate(82.350000, 72.447917) rotate(-12.000000) translate(-82.350000, -72.447917) translate(52.650000, 50.104167)" fill="#BD79CB">
                                    <path d="M55.7533969,44.6220812 C57.7685883,44.6220812 59.4,43.0025049 59.4,41.001933 L59.4,3.62118476 C59.4,1.61992188 57.7685883,4.3298698e-13 55.7533969,4.3298698e-13 L3.64764727,4.3298698e-13 C1.63245586,4.3298698e-13 2.19664287e-12,1.61992188 2.19664287e-12,3.62118476 L2.19664287e-12,41.001933 C2.19664287e-12,43.0025049 1.63175977,44.6220812 3.64764727,44.6220812 L55.7533969,44.6220812 L55.7533969,44.6220812 L55.7533969,44.6220812 Z M52.1052855,37.3804027 L7.29355429,37.3804027 L7.29355429,7.24213918 L52.1052855,7.24213918 L52.1052855,37.3804027 L52.1052855,37.3804027 L52.1052855,37.3804027 Z" id="Shape"></path>
                                    <path d="M40.5668355,22.5211179 L31.7817844,27.5538748 L23.0011418,32.5896263 L23.0011418,22.5211179 L23.0011418,12.4556041 L31.7817844,17.4918162 L40.5668355,22.5211179 L40.5668355,22.5211179 Z" id="Shape"></path>
                                </g>
                                <path d="M204.493101,115.351507 C225.721175,109.212498 240.733007,94.0996851 240.733007,76.4291994 C240.733007,53.3141978 215.045344,34.5757866 183.358007,34.5757866 C151.670669,34.5757866 125.983007,53.3141978 125.983007,76.4291994 C125.983007,98.8660662 150.185557,117.179372 180.585119,118.234591 C181.326518,128.140161 177.143591,128.578589 174.463388,131.625683 C173.623902,132.580084 173.889264,133.429806 176.041758,133.429953 C179.053814,133.43016 198.126385,127.663332 204.493101,115.351507 L204.493101,115.351507 Z" id="Oval-10" fill="#FFFFFF" transform="translate(183.358007, 84.002870) rotate(10.000000) translate(-183.358007, -84.002870) "></path>
                                <g id="file-pdf-512px" transform="translate(186.300000, 76.510417) rotate(10.000000) translate(-186.300000, -76.510417) translate(167.400000, 54.166667)" fill="#E55E5E">
                                    <path d="M32.8223813,25.7249878 C32.2466063,25.1382025 30.9697594,24.8274848 29.0266875,24.8010388 C27.7113656,24.7860266 26.1283219,24.9058624 24.4632656,25.1470179 C23.7176438,24.7019757 22.9490719,24.2177447 22.3459594,23.634538 C20.7233438,22.0671588 19.3688719,19.8914361 18.5247844,17.4989965 C18.5797969,17.275559 18.626625,17.0791785 18.6702469,16.8787829 C18.6702469,16.8787829 19.5842813,11.5084277 19.3422937,9.69273621 C19.3089656,9.44372558 19.2885469,9.37145752 19.2238312,9.17795715 L19.1444344,8.96700074 C18.8956969,8.373844 18.4083469,7.74533875 17.6439938,7.77963989 L17.1957937,7.76488953 L17.183475,7.76462769 C16.3312875,7.76462769 15.6367125,8.21551758 15.4543781,8.88940857 C14.9001188,11.003075 15.4720125,14.1651519 16.5083063,18.2606042 L16.2430313,18.9276873 C15.5010375,20.7988018 14.5711406,22.6833575 13.7506781,24.3459595 L13.6440281,24.5620654 C12.7808719,26.3093292 11.9977031,27.7925701 11.2876875,29.0492315 L10.5546375,29.4501972 C10.5013125,29.4793487 9.24496875,30.1666809 8.95033125,30.3511041 C6.45046875,31.8951795 4.79393438,33.6476801 4.519125,35.0387531 C4.4317125,35.4825732 4.49676563,36.0505933 4.94159062,36.313656 L5.65059375,36.6827642 C5.95814062,36.8421381 6.28247813,36.9228723 6.61474688,36.9228723 C8.39522812,36.9228723 10.4622469,34.628623 13.3097344,29.4880767 C16.5974063,28.3810138 20.34045,27.4607306 23.62095,26.9530212 C26.1208969,28.4092054 29.1956906,29.4206964 31.1363156,29.4206964 C31.4809031,29.4206964 31.7780719,29.3867444 32.0193844,29.3204986 C32.3915625,29.2185553 32.7052688,28.9990454 32.8965469,28.7011579 C33.2731125,28.1149835 33.3493875,27.307641 33.2472094,26.4809223 C33.21675,26.2354901 33.0273281,25.9321038 32.8223813,25.7249878 L32.8223813,25.7249878 L32.8223813,25.7249878 Z M6.22881563,35.5251659 C6.55349063,34.6068902 7.83869063,32.7913733 9.73898438,31.1805286 C9.85845938,31.0803308 10.1527594,30.7950989 10.4221688,30.5302033 C8.43505313,33.8086248 7.10429063,35.1152979 6.22881563,35.5251659 L6.22881563,35.5251659 L6.22881563,35.5251659 Z M17.4839344,8.71432434 C18.05625,8.71432434 18.3818531,10.2065552 18.4088531,11.605658 C18.4358531,13.0047607 18.1195313,13.9866638 17.7271875,14.7131848 C17.4022594,13.6375427 17.2451531,11.9420361 17.2451531,10.8334021 C17.2451531,10.8334021 17.221275,8.71432434 17.4839344,8.71432434 L17.4839344,8.71432434 L17.4839344,8.71432434 Z M14.1265688,27.8203253 C14.5252406,27.0821088 14.9400281,26.3035687 15.3639281,25.47781 C16.3971844,23.4565734 17.0496563,21.8750549 17.5356563,20.5750152 C18.5021719,22.3941108 19.70595,23.9405426 21.1210031,25.1795734 C21.2975156,25.3341468 21.484575,25.4895056 21.681,25.6443409 C18.8033906,26.2333082 16.3162688,26.9496174 14.1265688,27.8203253 L14.1265688,27.8203253 L14.1265688,27.8203253 Z M32.2693875,27.6526599 C32.0941406,27.766037 31.5921094,27.8315845 31.2692063,27.8315845 C30.2269219,27.8315845 28.9374188,27.3387128 27.1295156,26.5369562 C27.8242594,26.4838024 28.4610375,26.4567457 29.0321719,26.4567457 C30.0776625,26.4567457 30.3872344,26.4520325 31.4094375,26.7217284 C32.4316406,26.9914246 32.4446344,27.5392829 32.2693875,27.6526599 L32.2693875,27.6526599 L32.2693875,27.6526599 Z M35.4135375,8.70315247 L29.3864625,2.46863526 C28.073925,1.11090332 25.48125,-1.82816725e-13 23.625,-1.82816725e-13 L3.375,-1.82816725e-13 C1.51875,-1.82816725e-13 -3.83693077e-14,1.57104492 -3.83693077e-14,3.49121094 L-3.83693077e-14,41.1962891 C-3.83693077e-14,43.116455 1.51875,44.6875 3.375,44.6875 L34.425,44.6875 C36.28125,44.6875 37.8,43.116455 37.8,41.1962891 L37.8,14.6630859 C37.8,12.7429199 36.726075,10.0608844 35.4135375,8.70315247 L35.4135375,8.70315247 L35.4135375,8.70315247 Z M33.5043844,10.6781305 C33.6364313,10.8147241 33.7680563,10.9824768 33.8958844,11.171875 L27,11.171875 L27,4.03863281 C27.1830938,4.17086242 27.3452625,4.30701965 27.4773094,4.44361328 L33.5043844,10.6781305 L33.5043844,10.6781305 L33.5043844,10.6781305 Z M35.1,41.1962891 C35.1,41.5747363 34.79085,41.8945312 34.425,41.8945312 L3.375,41.8945312 C3.00915,41.8945312 2.7,41.5747363 2.7,41.1962891 L2.7,3.49121094 C2.7,3.11276367 3.00915,2.79296875 3.375,2.79296875 L23.625,2.79296875 C23.82885,2.79296875 24.0575906,2.81958923 24.3,2.86733154 L24.3,13.9648437 L35.0281125,13.9648437 C35.0742656,14.2155999 35.1,14.4521295 35.1,14.6630859 L35.1,41.1962891 L35.1,41.1962891 L35.1,41.1962891 Z" id="Shape"></path>
                                </g>
                            </g>
                        </g>
                    </g>
                </g>
            </g>
        </g>
    </g>
</svg>