<?xml version="1.0" encoding="utf-8"?>
<!-- Generator: Adobe Illustrator 19.1.0, SVG Export Plug-In . SVG Version: 6.00 Build 0)  -->
<svg version="1.1" id="Layer_1" xmlns:sketch="http://www.bohemiancoding.com/sketch/ns"
	 xmlns="http://www.w3.org/2000/svg" xmlns:xlink="http://www.w3.org/1999/xlink" x="0px" y="0px" viewBox="45 -45 190 190"
	 style="enable-background:new 45 -45 190 190;" xml:space="preserve">
<style type="text/css">
	.st0{fill:#76CFA6;}
	.st1{fill:none;}
	.st2{fill:none;stroke:#EBEBEB;stroke-width:20;}
	.st3{opacity:0.25;fill:none;stroke:#000000;stroke-width:2;}
	.st4{opacity:0.25;}
	.st5{fill:none;stroke:#000000;}
	.st6{fill:#E55E5E;}
	.st7{fill:none;stroke:#FFFFFF;stroke-width:2;}
	.st8{enable-background:new    ;}
</style>
<title>Open source</title>
<desc>Created with sketchtool.</desc>
<g id="_x30_1-Homepage" sketch:type="MSPage">
	<g id="_x30_3-Homepage---Desktop" transform="translate(-158.000000, -1313.000000)" sketch:type="MSArtboardGroup">
		<g id="Open-source_1_" transform="translate(163.000000, 1318.000000)" sketch:type="MSLayerGroup">
			<g id="Illustrations">
				<g>
					<g id="Open-source">
						<circle id="circle-copy" sketch:type="MSShapeGroup" class="st0" cx="135" cy="45" r="90">
						</circle>
						<g id="Ring" transform="translate(5.000000, 5.000000)" sketch:type="MSShapeGroup">
							<circle id="path-1" class="st1" cx="130" cy="40" r="85"/>
							<g id="path-1-link">
								<circle id="path-1_1_" class="st2" cx="130" cy="40" r="85"/>
							</g>
						</g>
						<polygon id="Shadow" class="st3" points="127.3,-17 79.6,15.5 180.8,4.8 127.3,-17 						"/>
						<path id="Shadow_1_" class="st4" d="M69.7,14.9L188.1,2.5c5.5-0.6,10.4,3.4,11,8.9l7.2,68.7c0.6,5.5-3.4,10.4-8.9,11L79,103.5
							c-5.5,0.6-10.4-3.4-11-8.9l-7.2-68.7C60.2,20.4,64.2,15.5,69.7,14.9z"/>
						
							<g id="Sign" transform="translate(87.923634, 83.421138) rotate(-6.000000) translate(-87.923634, -83.421138) translate(18.423634, 25.921138)">
							<path id="Path-58" sketch:type="MSShapeGroup" class="st5" d="M119-39.8L68.1-12.5l101.7,0L119-39.8L119-39.8z"/>
							<path id="Rectangle-50" sketch:type="MSShapeGroup" class="st6" d="M59.5-15l119,0c5.5,0,10,4.5,10,10l0,69.1
								c0,5.5-4.5,10-10,10l-119,0c-5.5,0-10-4.5-10-10l0-69.1C49.5-10.6,53.9-15,59.5-15z"/>
							<path id="Rectangle-50-Copy" sketch:type="MSShapeGroup" class="st7" d="M59.6-10.4l118,0c3.3,0,6,2.7,6,6l0,68
								c0,3.3-2.7,6-6,6l-118,0c-3.3,0-6-2.7-6-6l0-68C53.6-7.7,56.3-10.4,59.6-10.4z"/>
							
								<g id="Yes" transform="translate(34.698712, 52.266797) rotate(-20.000000) translate(-34.698712, -52.266797) translate(17.698712, 32.766797)" sketch:type="MSTextLayer">
								<g class="st8">
									<path d="M69.1-0.9c-2.7,0-2.9-3.8-2.9-5.8c0-2.7,0-5.4,0.8-8.2c0,0,0.6-2.2,1.3-2.5c0.2-0.1,0.5-0.1,0.8-0.1
										c0.5,0,0.9,0.2,0.9,0.7c0,0.2,0,0.3-0.1,0.4c-0.9,3.2-1.2,6.8-1.2,10.2c0,0.9,0,3.3,1.3,3.3c2.6,0,6.4-8.7,7.3-10.9
										c0.2-0.5,0.7-1.4,0.7-1.8c0,0,0.2-1.6,1-1.6l0.4,0c0.5,0,0.6,0.3,0.6,0.7l0,0.1c-0.1,1.2-0.2,2.4-0.4,3.5
										C79-8.4,76.9,5.8,70.7,5.8c-0.9,0-1.9-0.4-2.6-1c-0.3-0.2-0.7-0.7-0.7-1.1c0-0.2,0.2-0.4,0.4-0.4c0.5,0,1.3,1.4,2.9,1.4
										c0.9,0,1.8-0.5,2.3-1.2c2.2-2.9,3.4-9.7,3.6-13.4C75.6-7.1,72.5-0.9,69.1-0.9z"/>
									<path d="M80.9-3.7c0-2.3,1.8-7,4.5-7c0.9,0,1.4,0.6,1.4,1.5c0,1.7-2.4,4.3-3.9,4.9c-0.1,0.4-0.1,0.7-0.1,1.1
										c0,1.1,0.5,1.8,1.6,1.8c2.1,0,3.8-1.8,4.8-3.5c0.2-0.3,0.4-0.7,0.8-0.7c0.1,0,0.4,0.1,0.4,0.3c0,0.3-0.1,0.5-0.2,0.8
										c-1.3,2.3-3.7,4.3-6.4,4.3C81.7-0.3,80.9-1.9,80.9-3.7z M83-5.3C84.1-6,85.7-7.7,85.7-9c0-0.3-0.1-0.6-0.4-0.6
										C84.3-9.6,83.1-6.2,83-5.3z"/>
									<path d="M95-2.8c0,0.7-0.2,1.4-0.6,1.9c1.2,0,3.5-2.6,4.2-3.6C98.8-4.7,99-5,99.3-5c0.3,0,0.4,0.3,0.4,0.5
										c0,0.2-0.2,0.4-0.2,0.5c-1.9,3-4,4.7-7.7,4.7c-1,0-2.2-0.1-3-0.8c-0.2-0.2-0.3-0.3-0.3-0.6c0-0.3,0.2-0.4,0.4-0.4
										c0.2,0,0.5,0.2,0.5,0.2c0.5,0.4,1.1,0.5,1.8,0.5c1.3,0,2-0.9,2-2.2c0-1.5-0.9-3.6-1.8-4.9C91-6.1,90-4,89-3
										c-0.1,0.2-0.4,0.4-0.7,0.4C88.1-2.6,88-2.8,88-3c0-0.3,0.2-0.5,0.3-0.7c1.1-1.4,2-3.1,2.6-4.8c-0.1-0.4-0.2-0.9-0.2-1.3
										c0-1,0.7-2.9,1.9-2.9c0.6,0,0.8,0.9,0.8,1.4c0,0.8-0.3,1.7-0.6,2.5C93.5-6.9,95-5,95-2.8z"/>
								</g>
							</g>
							<g id="OPEN" transform="translate(23.000000, 48.000000)" sketch:type="MSTextLayer">
								<g class="st8">
									<path d="M51.2-16.7c0-6.2,3.2-9.7,9.2-9.7c5.9,0,9.2,3.5,9.2,9.7l0,20c0,6.2-3.2,9.7-9.2,9.7c-5.9,0-9.2-3.5-9.2-9.7
										L51.2-16.7z M57.3,3.7c0,2.7,1.2,3.8,3.1,3.8c1.9,0,3.1-1,3.1-3.8l0-20.8c0-2.8-1.2-3.8-3.1-3.8c-1.9,0-3.1,1-3.1,3.8
										L57.3,3.7z"/>
									<path d="M91.4-16.5l0,5c0,6.2-3,9.5-9,9.5l-2.9,0l0,14.5l-6,0l0-38.5l8.9,0C88.4-26,91.4-22.6,91.4-16.5z M79.5-20.5l0,13
										l2.9,0c1.9,0,3-0.9,3-3.6l0-5.8c0-2.7-1-3.6-3-3.6L79.5-20.5z"/>
									<path d="M100.5-9.8l8.3,0l0,5.5l-8.3,0l0,11.3L111,7l0,5.5l-16.5,0l0-38.5l16.5,0l0,5.5l-10.4,0L100.5-9.8z"/>
									<path d="M120.1-15.4l0,27.9l-5.4,0l0-38.5l7.6,0l6.2,23l0-23l5.4,0l0,38.5l-6.2,0L120.1-15.4z"/>
								</g>
							</g>
							<g id="WE_x2019_RE-" transform="translate(61.000000, 33.000000)" sketch:type="MSTextLayer">
								<g class="st8">
									<path d="M57.1-25.3l-1,9.3l-3.8,0l-1.9-17.5l2.7,0l1.5,13.8l1.3-13.8l2.7,0l1.4,13.9l1.4-13.9l2.4,0L61.8-16l-3.6,0
										L57.1-25.3z"/>
									<path d="M67.9-26.1l3.8,0l0,2.5l-3.8,0l0,5.1l4.7,0l0,2.5l-7.5,0l0-17.5l7.5,0l0,2.5l-4.7,0L67.9-26.1z"/>
									<path d="M74.3-30.8l0-2.7l2.6,0l0,2.4l-1.2,2.8l-1.1,0l0.7-2.5L74.3-30.8z"/>
									<path d="M84.7-16c-0.2-0.4-0.2-0.7-0.3-2.1l0-2.7c0-1.6-0.5-2.2-1.8-2.2l-0.9,0l0,7.1L79-16l0-17.5l4.1,0
										c2.8,0,4.1,1.3,4.1,4l0,1.4c0,1.8-0.6,3-1.8,3.5c1.4,0.6,1.8,1.9,1.8,3.7l0,2.7c0,0.8,0,1.5,0.3,2.1L84.7-16z M81.7-31
										l0,5.4l1.1,0c1,0,1.6-0.4,1.6-1.8l0-1.7c0-1.2-0.4-1.8-1.4-1.8L81.7-31z"/>
									<path d="M91.8-26.1l3.8,0l0,2.5l-3.8,0l0,5.1l4.7,0l0,2.5L89-16l0-17.5l7.5,0l0,2.5l-4.7,0L91.8-26.1z"/>
								</g>
							</g>
						</g>
						<g id="Path-57" transform="translate(5.000000, 90.000000)" sketch:type="MSShapeGroup">
							<path id="path-2" class="st1" d="M45-44.4C45,7,86.6,40,130,40s85-35,85-85"/>
							<g id="path-2-link">
								<path id="path-2_1_" class="st2" d="M45-44.4C45,7,86.6,40,130,40s85-35,85-85"/>
							</g>
						</g>
					</g>
				</g>
			</g>
		</g>
	</g>
</g>
</svg>
