<?xml version="1.0" encoding="utf-8"?>
<!-- Generator: Adobe Illustrator 19.1.0, SVG Export Plug-In . SVG Version: 6.00 Build 0)  -->
<svg version="1.1" id="Layer_1" xmlns="http://www.w3.org/2000/svg" xmlns:xlink="http://www.w3.org/1999/xlink" x="0px" y="0px"
	 viewBox="0 0 338.4 108" style="enable-background:new 0 0 338.4 108;" xml:space="preserve">
<style type="text/css">
	.st0{fill:#E0E0E0;}
	.st1{fill:#FFFFFF;}
	.st2{fill:#67CB9C;}
	.st3{fill:#77CEA5;}
	.st4{fill:#85D6B4;}
</style>
<g>
	<path class="st0" d="M66.5,18.7c-0.1,0.5-0.2,1-0.4,1.4c0.5,0.2,1.1,0.4,1.6,0.6c2.5,0.9,4.8,2.1,7,3.5c1.5,1,2.9,2,4.3,3.2
		c0.3-0.4,0.7-0.7,1.1-1c0.4-0.3,0.8-0.6,1.3-0.9c-1-0.9-2.1-1.8-3.2-2.6c-3.2-2.3-6.7-4.2-10.5-5.4c-0.3-0.1-0.7-0.2-1-0.3
		C66.6,17.7,66.6,18.2,66.5,18.7z"/>
	<path class="st1" d="M55.2,22.5c2.5,0,4.6-1.5,5.5-3.6c0.2-0.5,0.3-0.9,0.4-1.4c0.1-0.3,0.1-0.6,0.1-1c0-0.2,0-0.4,0-0.5
		c-0.1-1.6-0.9-3-2-4c-1.1-0.9-2.4-1.5-4-1.5c-1.5,0-2.9,0.6-4,1.5c-1.1,1-1.9,2.4-2,4c0,0.2,0,0.4,0,0.5c0,0.3,0,0.7,0.1,1
		c0.1,0.5,0.2,1,0.4,1.4C50.6,21,52.7,22.5,55.2,22.5z"/>
	<path class="st0" d="M55.2,25.5c3.9,0,7.2-2.5,8.5-6c0.2-0.5,0.3-1,0.4-1.4c0.1-0.5,0.1-1,0.1-1.5c0,0,0,0,0-0.1
		c0-1.6-0.4-3.2-1.2-4.5c-1.6-2.7-4.5-4.5-7.8-4.5c-3.3,0-6.2,1.8-7.8,4.5c-0.8,1.3-1.2,2.9-1.2,4.5c0,0,0,0,0,0.1
		c0,0.5,0.1,1,0.1,1.5c0.1,0.5,0.2,1,0.4,1.4C47.9,23,51.3,25.5,55.2,25.5z M49.3,17.5c-0.1-0.3-0.1-0.6-0.1-1c0-0.2,0-0.4,0-0.5
		c0.1-1.6,0.9-3,2-4c1.1-0.9,2.4-1.5,4-1.5c1.5,0,2.9,0.6,4,1.5c1.1,1,1.9,2.4,2,4c0,0.2,0,0.4,0,0.5c0,0.3,0,0.7-0.1,1
		c-0.1,0.5-0.2,1-0.4,1.4c-0.9,2.1-3,3.6-5.5,3.6c-2.5,0-4.6-1.5-5.5-3.6C49.5,18.5,49.3,18,49.3,17.5z"/>
	<path class="st0" d="M18.4,61.7c0.5-0.2,1-0.3,1.5-0.4c-0.1-0.4-0.2-0.8-0.2-1.3c-0.3-1.8-0.4-3.6-0.4-5.5c0-2.2,0.2-4.4,0.6-6.5
		c0.1-0.4,0.2-0.8,0.2-1.2c-0.5-0.1-1-0.2-1.5-0.4c-0.5-0.2-0.9-0.4-1.4-0.6c-0.2,0.7-0.3,1.4-0.4,2.2c-0.4,2.1-0.5,4.3-0.5,6.5
		c0,1.9,0.1,3.7,0.4,5.5c0.1,0.8,0.2,1.5,0.4,2.3C17.4,62,17.9,61.8,18.4,61.7z"/>
	<path class="st1" d="M25.2,67.3l0.7-1.3l-0.1,0.2l-0.1,0.2L25.2,67.3c-1-0.5-2-0.8-3-0.8c-0.3,0-0.6,0-0.9,0.1
		c-0.5,0.1-1,0.2-1.4,0.4c-0.5,0.2-0.9,0.5-1.3,0.8c-0.6,0.5-1.1,1-1.5,1.7c-0.5,0.9-0.8,2-0.8,3c0,2.1,1.1,4.1,3,5.2
		c1,0.5,2,0.8,3,0.8c0.7,0,1.4-0.1,2-0.4c0.5-0.2,0.9-0.4,1.4-0.7c0.4-0.3,0.8-0.6,1.1-1c0.3-0.3,0.5-0.6,0.7-1c0.5-1,0.8-2,0.8-3
		C28.2,70.4,27.1,68.4,25.2,67.3z"/>
	<path class="st0" d="M26.7,64.7L26.7,64.7c-1.4-0.8-3-1.2-4.5-1.2c-0.6,0-1.2,0.1-1.8,0.2c-0.5,0.1-1,0.2-1.4,0.4
		c-0.5,0.2-0.9,0.4-1.4,0.7c-1.3,0.8-2.4,1.8-3.2,3.2c-0.8,1.4-1.2,3-1.2,4.5c0,3.1,1.6,6.1,4.5,7.8c1.4,0.8,3,1.2,4.5,1.2
		c0,0,0,0,0,0c1.4,0,2.7-0.3,4-1c0.5-0.2,0.9-0.5,1.3-0.8c0.4-0.3,0.8-0.6,1.1-1c0.5-0.5,1-1.1,1.4-1.8c0.8-1.4,1.2-3,1.2-4.5
		C31.2,69.4,29.6,66.4,26.7,64.7z M25.2,67.3c1.9,1.1,3,3.1,3,5.2c0,1-0.3,2-0.8,3c-0.2,0.4-0.4,0.7-0.7,1c-0.3,0.4-0.7,0.7-1.1,1
		c-0.4,0.3-0.9,0.5-1.4,0.7c-0.6,0.2-1.3,0.4-2,0.4c-1,0-2-0.3-3-0.8c-1.9-1.1-3-3.1-3-5.2c0-1,0.3-2,0.8-3c0.4-0.7,0.9-1.3,1.5-1.7
		c0.4-0.3,0.9-0.6,1.3-0.8c0.5-0.2,0.9-0.3,1.4-0.4c0.3,0,0.6-0.1,0.9-0.1C23.2,66.5,24.2,66.8,25.2,67.3"/>
	<path class="st0" d="M80.7,82c-0.4-0.3-0.8-0.6-1.2-0.9c-1.5,1.4-3.1,2.6-4.8,3.7c-2.2,1.4-4.5,2.6-7,3.5c-0.4,0.2-0.9,0.3-1.4,0.5
		c0.1,0.5,0.2,1,0.3,1.5c0,0.4,0.1,0.8,0.1,1.3c0,0.1,0,0.2,0,0.3c0.3-0.1,0.7-0.2,1-0.3C72,90,76,87.8,79.5,85
		c0.9-0.7,1.7-1.5,2.6-2.2C81.6,82.5,81.1,82.3,80.7,82z"/>
	<path class="st1" d="M93.2,72.5c0-1-0.3-2-0.8-3c-0.2-0.4-0.5-0.7-0.8-1c-0.4-0.4-0.8-0.7-1.2-1C90,67.2,89.5,67,89,66.8
		c-0.6-0.2-1.2-0.3-1.8-0.3c-1,0-2,0.3-3,0.8c-1.9,1.1-3,3.1-3,5.2c0,1,0.3,2,0.8,3c0.3,0.6,0.8,1.1,1.3,1.5
		c0.4,0.3,0.8,0.6,1.3,0.8c0.5,0.2,1,0.4,1.5,0.5c0.4,0.1,0.8,0.1,1.2,0.1c1,0,2-0.3,3-0.8l0,0C92.1,76.6,93.2,74.6,93.2,72.5z"/>
	<path class="st0" d="M91.7,80.3C91.7,80.3,91.7,80.3,91.7,80.3c2.9-1.7,4.5-4.7,4.5-7.8c0-1.5-0.4-3.1-1.2-4.5
		c-0.6-1.1-1.4-2-2.3-2.7c-0.4-0.3-0.9-0.6-1.3-0.8c-0.4-0.2-0.9-0.4-1.4-0.6c-0.9-0.3-1.8-0.4-2.7-0.4c-1.5,0-3.1,0.4-4.5,1.2
		c-2.9,1.7-4.5,4.7-4.5,7.8c0,1.5,0.4,3.1,1.2,4.5c0.5,0.9,1.2,1.6,1.9,2.3c0.4,0.3,0.8,0.6,1.2,0.9c0.4,0.3,0.9,0.5,1.4,0.7
		c1,0.4,2.2,0.6,3.3,0.6c0,0,0,0,0,0C88.7,81.5,90.3,81.1,91.7,80.3L91.7,80.3 M90.2,77.7L90.2,77.7c-1,0.5-2,0.8-3,0.8
		c-0.4,0-0.8-0.1-1.2-0.1c-0.5-0.1-1-0.3-1.5-0.5c-0.4-0.2-0.9-0.5-1.3-0.8c-0.5-0.4-0.9-0.9-1.3-1.5c-0.6-1-0.8-2-0.8-3
		c0-2.1,1.1-4.1,3-5.2c1-0.6,2-0.8,3-0.8c0.6,0,1.3,0.1,1.8,0.3c0.5,0.2,0.9,0.4,1.4,0.6c0.4,0.3,0.8,0.6,1.2,1
		c0.3,0.3,0.6,0.7,0.8,1c0.5,0.9,0.8,2,0.8,3C93.2,74.6,92.1,76.6,90.2,77.7z"/>
	<path class="st0" d="M43.7,91.5c0-0.4,0-0.9,0.1-1.3c0.1-0.5,0.2-1,0.3-1.5c-0.5-0.1-0.9-0.3-1.4-0.5c-2.9-1.1-5.5-2.5-8-4.2
		c-1.5-1.1-3-2.2-4.3-3.5c-0.4,0.4-0.7,0.7-1.1,1c-0.4,0.3-0.8,0.6-1.3,0.9c0.9,0.9,1.9,1.8,2.9,2.6c3.5,2.8,7.5,5,11.8,6.4
		c0.3,0.1,0.7,0.2,1,0.3C43.7,91.7,43.7,91.6,43.7,91.5z"/>
	<path class="st2" d="M53.6,80.1c-0.4-0.3-0.7-0.7-1.1-1.1c-5.7-5.7-15.6-17.1-19.6-31c-0.6-1.9-1-3.9-1.3-6c-0.7,1-1.6,2-2.5,2.7
		c0.2,1.1,0.5,2.2,0.8,3.3c1.1,4.3,2.8,8.3,4.7,12c0,0.1,0.1,0.2,0.1,0.2c4.1,7.9,9.5,14.4,13.6,18.8c0.7,0.8,1.4,1.5,2,2.1
		C51.4,80.6,52.5,80.3,53.6,80.1z"/>
	<path class="st1" d="M55.2,85.5c-2.8,0-5.1,1.9-5.8,4.5c-0.1,0.5-0.2,1-0.2,1.5c0,0,0,0,0,0c0,0.5,0.1,1.1,0.2,1.6
		c0.5,1.8,1.7,3.2,3.4,3.9c0.7,0.3,1.5,0.5,2.4,0.5c0.8,0,1.7-0.2,2.4-0.5c1.7-0.7,2.9-2.2,3.4-3.9c0.1-0.5,0.2-1,0.2-1.6
		c0,0,0,0,0,0c0-0.5-0.1-1-0.2-1.5C60.3,87.4,58,85.5,55.2,85.5z"/>
	<path class="st2" d="M58.1,83c-0.6-0.2-1.1-0.3-1.7-0.4c-0.4,0-0.8-0.1-1.1-0.1c-0.4,0-0.8,0-1.1,0.1c-0.6,0.1-1.2,0.2-1.7,0.4
		c-2.9,1-5.2,3.4-5.9,6.4c-0.1,0.5-0.2,1-0.2,1.5c0,0.2,0,0.4,0,0.6c0,0.3,0,0.6,0.1,1c0.2,1.7,0.8,3.3,1.8,4.5
		c1.6,2.1,4.2,3.5,7.1,3.5c2.9,0,5.5-1.4,7.1-3.5c1-1.3,1.7-2.8,1.8-4.5c0-0.3,0.1-0.6,0.1-1c0-0.2,0-0.4,0-0.6c0-0.5-0.1-1-0.2-1.5
		C63.2,86.4,61,84,58.1,83z M61.2,91.5C61.2,91.5,61.2,91.5,61.2,91.5c0,0.6-0.1,1.1-0.2,1.6c-0.5,1.8-1.7,3.2-3.4,3.9
		c-0.7,0.3-1.5,0.5-2.4,0.5c-0.8,0-1.7-0.2-2.4-0.5c-1.7-0.7-2.9-2.2-3.4-3.9c-0.1-0.5-0.2-1-0.2-1.6c0,0,0,0,0,0
		c0-0.5,0.1-1,0.2-1.5c0.7-2.6,3-4.5,5.8-4.5c2.8,0,5.1,1.9,5.8,4.5C61.1,90.5,61.2,91,61.2,91.5z"/>
	<path class="st0" d="M29.8,26.9c0.4,0.3,0.7,0.7,1.1,1.1c1.2-1.1,2.5-2.1,3.8-3.1c2.5-1.7,5.1-3.1,8-4.2c0.5-0.2,1.1-0.4,1.6-0.6
		c-0.2-0.5-0.3-1-0.4-1.4c-0.1-0.5-0.2-1-0.2-1.5c-0.3,0.1-0.7,0.2-1,0.3c-3.8,1.3-7.3,3.1-10.5,5.4c-1.3,0.9-2.5,1.9-3.6,3
		C29,26.3,29.4,26.6,29.8,26.9z"/>
	<path class="st1" d="M19.2,40.7c0.3,0.2,0.6,0.3,1,0.4c0.5,0.2,1,0.3,1.5,0.3c0.2,0,0.4,0,0.6,0c2.1,0,4.1-1.1,5.2-3
		c0.5-0.9,0.8-2,0.8-3c0-1.2-0.4-2.5-1.1-3.5c-0.3-0.4-0.6-0.8-1-1.1c-0.3-0.2-0.5-0.4-0.9-0.6l0.5-0.8l0.1-0.1l0.2-0.4l-0.8,1.3
		c-0.1-0.1-0.3-0.1-0.4-0.2c-0.8-0.4-1.7-0.6-2.6-0.6c-2.1,0-4.1,1.1-5.2,3c-0.5,0.9-0.8,2-0.8,3c0,1.9,0.9,3.8,2.6,4.9
		C18.9,40.5,19,40.6,19.2,40.7z"/>
	<path class="st3" d="M20.6,44.4c0.5,0.1,1,0.1,1.5,0.1c0,0,0,0,0,0c2.4,0,4.7-1,6.4-2.7c0.5-0.5,1-1.1,1.4-1.8
		c0.7-1.3,1.1-2.6,1.2-4c0-0.2,0-0.3,0-0.5c0-2.1-0.8-4.1-2.1-5.8c-0.3-0.4-0.7-0.7-1.1-1.1c-0.4-0.3-0.8-0.6-1.2-0.9
		c0,0-0.1,0-0.1-0.1c-1.4-0.8-3-1.2-4.5-1.2c-3.1,0-6.1,1.6-7.8,4.5c-0.8,1.4-1.2,3-1.2,4.5c0,3.1,1.6,6.1,4.5,7.8
		c0,0,0.1,0,0.1,0.1c0.4,0.3,0.9,0.4,1.4,0.6C19.7,44.1,20.1,44.3,20.6,44.4z M25.2,30.3c0.3,0.2,0.6,0.4,0.9,0.6
		c0.4,0.3,0.7,0.7,1,1.1c0.7,1,1.1,2.2,1.1,3.5c0,1-0.3,2-0.8,3c-1.1,1.9-3.1,3-5.2,3c-0.2,0-0.4,0-0.6,0c-0.5,0-1-0.2-1.5-0.3
		c-0.3-0.1-0.6-0.3-1-0.4c-0.1-0.1-0.3-0.2-0.4-0.3c-1.7-1.1-2.6-3-2.6-4.9c0-1,0.3-2,0.8-3c1.1-1.9,3.1-3,5.2-3
		c0.9,0,1.7,0.2,2.6,0.6C24.9,30.2,25,30.2,25.2,30.3"/>
	<path class="st0" d="M92.9,45.5c-0.4,0.2-0.8,0.4-1.2,0.6c-0.5,0.2-0.9,0.4-1.4,0.5c0.1,0.5,0.2,1,0.3,1.4c0.4,2.1,0.6,4.3,0.6,6.5
		c0,1.9-0.1,3.7-0.4,5.5c-0.1,0.5-0.2,1-0.3,1.5c0.5,0.1,1,0.3,1.4,0.5c0.5,0.2,0.9,0.5,1.4,0.7c0.2-0.9,0.4-1.8,0.5-2.8
		c0.3-1.8,0.4-3.6,0.4-5.5c0-2.2-0.2-4.4-0.5-6.5c-0.2-0.9-0.3-1.8-0.5-2.6C93,45.4,93,45.4,92.9,45.5"/>
	<path class="st0" d="M91.3,42.6"/>
	<path class="st2" d="M77.4,48c-2.3,8.1-6.6,15.3-10.9,21.1c-3.1,4.1-6.2,7.5-8.6,9.9c-0.1,0.1-0.1,0.1-0.2,0.2
		c-0.3,0.3-0.6,0.6-1,0.9c1.2,0.2,2.3,0.5,3.3,1c0.6-0.6,1.3-1.3,2-2.1c3.8-4,8.6-9.8,12.6-16.9c0.4-0.7,0.8-1.4,1.1-2.1
		c1.9-3.7,3.6-7.7,4.7-12c0.2-0.9,0.5-1.8,0.6-2.7c-1-0.6-1.8-1.3-2.6-2.2C78.3,44.8,77.9,46.4,77.4,48z"/>
	<path class="st1" d="M93.2,35.5c0-1-0.3-2-0.8-3c-1.1-1.9-3.1-3-5.2-3c-0.6,0-1.2,0.1-1.8,0.3c-0.4,0.1-0.8,0.3-1.2,0.5
		c-0.1,0-0.1,0.1-0.2,0.2c-0.4,0.3-0.8,0.6-1.2,1c-1,1.1-1.6,2.6-1.6,4.1c0,0.2,0,0.3,0,0.5c0.1,0.9,0.3,1.7,0.8,2.5
		c0,0.1,0.1,0.1,0.1,0.2c1.1,1.8,3.1,2.8,5.1,2.8c0.5,0,1-0.1,1.5-0.2c0.5-0.1,0.9-0.3,1.4-0.6c0,0,0.1,0,0.1-0.1l0,0
		c0.4-0.2,0.8-0.5,1.1-0.9C92.5,38.7,93.2,37.1,93.2,35.5z"/>
	<path class="st3" d="M91.7,43.3c0.3-0.1,0.5-0.3,0.7-0.5c2.4-1.7,3.8-4.5,3.8-7.3c0-1.5-0.4-3.1-1.2-4.5c-1.7-2.9-4.7-4.5-7.8-4.5
		c-1.3,0-2.7,0.3-3.9,0.9c-0.2,0.1-0.4,0.2-0.6,0.3c-0.3,0.2-0.5,0.3-0.8,0.5c-0.4,0.3-0.8,0.6-1.2,1c-1.7,1.7-2.6,4-2.6,6.3
		c0,1.3,0.3,2.6,0.9,3.8c0.1,0.2,0.2,0.5,0.4,0.7c0.6,1,1.4,1.9,2.3,2.6c1.6,1.2,3.5,1.9,5.5,1.9c0.8,0,1.7-0.1,2.5-0.4
		c0.5-0.1,0.9-0.3,1.4-0.5C91.3,43.5,91.5,43.4,91.7,43.3 M90.2,40.7L90.2,40.7c0,0-0.1,0-0.1,0.1c-0.5,0.2-0.9,0.4-1.4,0.6
		c-0.5,0.1-1,0.2-1.5,0.2c-2,0-4-1-5.1-2.8c0-0.1-0.1-0.1-0.1-0.2c-0.5-0.8-0.7-1.6-0.8-2.5c0-0.2,0-0.3,0-0.5c0-1.5,0.6-3,1.6-4.1
		c0.3-0.4,0.7-0.7,1.2-1c0.1,0,0.1-0.1,0.2-0.2c0.4-0.2,0.8-0.4,1.2-0.5c0.6-0.2,1.2-0.3,1.8-0.3c2.1,0,4.1,1.1,5.2,3
		c0.5,0.9,0.8,2,0.8,3c0,1.6-0.7,3.2-1.9,4.3C91,40.2,90.6,40.5,90.2,40.7z"/>
</g>
<g>
	<path class="st4" d="M120.1,42.4c-0.9-2.1,2.4-3.4,3.4-1.3l12.3,24.6l12-24.5c0.8-2,4-0.9,3.3,1.2l-13.8,28
		c-0.7,1.2-2.4,1.5-3.2-0.1L120.1,42.4z"/>
	<path class="st4" d="M162.6,67.8h19c2,0,2.3,3.2,0,3.2h-20.2c-1.3,0-2.2-1-2.2-2.1V42.5c0-1.1,0.9-2.1,2.2-2.1h20.3
		c2.1,0,2,3.1,0,3.1h-19v10.8h18c1.9,0,2,3.1,0,3.1h-18V67.8z"/>
	<path class="st4" d="M213.9,69.8c-2.3,1.1-4.9,1.7-7.2,1.7c-8.2,0-15.6-6.7-15.6-16.2c0-7.9,5.6-14.1,13-15.3
		c5.6-0.8,10.5,0.6,14.3,4.6c1.4,1.6-1.2,3.6-2.5,2.2c-3.3-3.5-7.1-4-11.3-3.5c-5.9,0.9-10.1,5.1-10.1,12c0,7.3,5.6,12.9,12.2,12.9
		c1.8,0,3.7-0.5,5.6-1.4c1.5-0.8,2.9-1.9,3.9-3.2c1.1-1.6,4,0.1,2.8,1.9C217.8,67.4,216,68.8,213.9,69.8z"/>
	<path class="st4" d="M250.3,40.4c2.4,0,2.4,3.3,0,3.3h-10.7c0,8.6,0,17.4,0,26.1c0,1.2-1,1.8-1.8,1.8s-1.7-0.6-1.7-1.8V43.7h-10.7
		c-2.3,0-2.3-3.3,0-3.3H250.3z"/>
</g>
<g>
	<path class="st4" d="M255.8,55.2c0-7.5,5.1-14,12.7-15.2c1.8-0.2,3.4-0.2,5.1,0c7.4,1.2,13.1,7.3,13.1,15.2
		c0,10-7.2,16.3-15.4,16.3C262.7,71.5,255.8,65.4,255.8,55.2z M259.4,55.4c0,7.9,5.2,12.9,12,12.9c6.5,0,11.8-4.8,11.8-12.9
		c0-6.2-4.1-11.1-10-12.1c-1.4-0.2-2.8-0.2-4.2,0C263.2,44.2,259.4,48.8,259.4,55.4z"/>
	<path class="st4" d="M299.9,60.3v9.3c0,2.2-3.5,2.2-3.5,0V42.1c0-1,0.7-1.7,1.8-1.7h11.4c8.3,0,12.5,4.7,12.5,10.3
		c0,4.8-2.6,8.4-8.5,9.4l7.8,8.4c1.8,1.8-0.8,3.9-2.4,2.3l-9.7-10.5H299.9z M299.9,57.3h9.7c6.3,0,9-2.9,8.9-6.5
		c0-3.9-3.4-7.1-8.9-7.1h-9.7V57.3z"/>
</g>
</svg>
