<?xml version="1.0" encoding="UTF-8" standalone="no"?>
<svg width="190px" height="190px" viewBox="0 0 190 190" version="1.1" xmlns="http://www.w3.org/2000/svg" xmlns:xlink="http://www.w3.org/1999/xlink" xmlns:sketch="http://www.bohemiancoding.com/sketch/ns">
    <!-- Generator: sketchtool 3.4.4 (395) - http://www.bohemiancoding.com/sketch -->
    <title>SMEs</title>
    <desc>Created with sketchtool.</desc>
    <defs></defs>
    <g id="01-Homepage" stroke="none" stroke-width="1" fill="none" fill-rule="evenodd" sketch:type="MSPage">
        <g id="03-Homepage---Desktop" sketch:type="MSArtboardGroup" transform="translate(-674.000000, -2937.000000)">
            <g id="Segments" sketch:type="MSLayerGroup" transform="translate(0.000000, 2728.000000)">
                <g id="SMEs" transform="translate(679.000000, 214.000000)" sketch:type="MSShapeGroup">
                    <g id="Illustrations">
                        <g>
                            <g id="SMEs">
                                <circle id="circle-copy" fill="#76CFA6" cx="90" cy="90" r="90"></circle>
                                <g id="circle" transform="translate(5.000000, 5.000000)">
                                    <circle id="path-1" cx="85" cy="85" r="85"></circle>
                                    <g id="path-1-link" stroke="#EBEBEB" stroke-width="20">
                                        <circle id="path-1" cx="85" cy="85" r="85"></circle>
                                    </g>
                                </g>
                                <g id="Papers" transform="translate(91.000000, 65.000000)">
                                    <rect id="Rectangle-143" stroke-opacity="0.1" stroke="#000000" fill="#FFFFFF" transform="translate(39.000000, 46.967742) rotate(7.000000) translate(-39.000000, -46.967742) " x="11" y="12.5806452" width="56" height="68.7741935"></rect>
                                    <rect id="Rectangle-143-Copy" stroke-opacity="0.1" stroke="#000000" fill="#FFFFFF" transform="translate(39.000000, 43.000000) rotate(22.000000) translate(-39.000000, -43.000000) " x="11" y="8.61290323" width="56" height="68.7741935"></rect>
                                    <g id="Writing" transform="translate(41.102699, 35.823959) rotate(22.000000) translate(-41.102699, -35.823959) translate(23.102699, 21.823959)" stroke="#979797" fill="#D8D8D8">
                                        <rect id="Rectangle-146" x="0" y="0" width="35.7777778" height="1.38870968"></rect>
                                        <rect id="Rectangle-146-Copy" x="0" y="4.16612903" width="20.2222222" height="1.38870968"></rect>
                                        <rect id="Rectangle-146-Copy-2" x="0" y="8.33225806" width="31.1111111" height="1.38870968"></rect>
                                        <rect id="Rectangle-146-Copy-3" x="0" y="12.4983871" width="35.7777778" height="1.38870968"></rect>
                                        <rect id="Rectangle-146-Copy-4" x="0" y="22.2193548" width="32.6666667" height="1.38870968"></rect>
                                        <rect id="Rectangle-146-Copy-5" x="0" y="26.3854839" width="28" height="1.38870968"></rect>
                                    </g>
                                </g>
                                <g id="Laptop" transform="translate(76.116215, 84.258074) rotate(-6.000000) translate(-76.116215, -84.258074) translate(9.616215, 28.758074)">
                                    <path d="M1.09332646,9.70378595 C0.310091668,6.48384058 2.3583889,3.87355912 5.68386715,3.87355912 L126.490904,3.87355912 C129.809425,3.87355912 131.863297,6.48952507 131.081445,9.70378595 L123.621319,40.3730026 C122.838084,43.592948 119.512088,46.2032294 116.208771,46.2032294 L15.9660004,46.2032294 C12.655398,46.2032294 9.33530439,43.5872635 8.55345232,40.3730026 L1.09332646,9.70378595 L1.09332646,9.70378595 Z" id="Rectangle-50-Copy-4" fill-opacity="0.25" fill="#000000"></path>
                                    <path d="M8.68138135,51.0307407 C8.68138135,47.7151899 11.364291,45.027405 14.6724468,45.027405 L117.502282,45.027405 C120.811056,45.027405 123.493347,47.7107723 123.493347,51.0307407 L123.493347,104.870223 C123.493347,108.185774 120.810438,110.873559 117.502282,110.873559 L14.6724468,110.873559 C11.3636727,110.873559 8.68138135,108.190192 8.68138135,104.870223 L8.68138135,51.0307407 L8.68138135,51.0307407 Z" id="Rectangle-50-Copy-3" fill-opacity="0.25" fill="#000000" transform="translate(66.087364, 77.950482) scale(1, -1) translate(-66.087364, -77.950482) "></path>
                                    <path d="M2.50596221,5.83022683 C1.72272742,2.61028146 3.77102465,1.63424829e-13 7.0965029,1.63424829e-13 L127.90354,1.63424829e-13 C131.22206,1.63424829e-13 133.275933,2.61596595 132.494081,5.83022683 L125.033955,36.4994435 C124.25072,39.7193889 120.924723,42.3296703 117.621407,42.3296703 L17.3786362,42.3296703 C14.0680337,42.3296703 10.7479401,39.7137044 9.96608807,36.4994435 L2.50596221,5.83022683 L2.50596221,5.83022683 Z" id="Rectangle-50" stroke="#CCCCCC" stroke-width="2" fill="#000000"></path>
                                    <path d="M8.42009898,7.82633516 C8.16708629,6.75091841 8.85198938,5.87912088 9.95403877,5.87912088 L125.045954,5.87912088 C126.146139,5.87912088 126.834342,6.74481905 126.579894,7.82633516 L120.531883,33.5330808 C120.152799,35.1443542 118.502731,36.4505495 116.853125,36.4505495 L18.1468679,36.4505495 C16.4942296,36.4505495 14.8454479,35.1369334 14.4681104,33.5330808 L8.42009898,7.82633516 L8.42009898,7.82633516 Z" id="Rectangle-50-Copy-2" fill="#000000"></path>
                                    <path d="M10.0940171,47.1571817 C10.0940171,43.8416309 12.7769267,41.153846 16.0850826,41.153846 L118.914917,41.153846 C122.223692,41.153846 124.905983,43.8372133 124.905983,47.1571817 L124.905983,100.996664 C124.905983,104.312215 122.223073,107 118.914917,107 L16.0850826,107 C12.7763085,107 10.0940171,104.316633 10.0940171,100.996664 L10.0940171,47.1571817 L10.0940171,47.1571817 Z" id="Rectangle-50-Copy" stroke="#CCCCCC" stroke-width="2" fill="#F2F2F2" transform="translate(67.500000, 74.076923) scale(1, -1) translate(-67.500000, -74.076923) "></path>
                                    <g id="Keyboard" transform="translate(16.914530, 50.560440)" fill="#000000">
                                        <g id="Keys" transform="translate(0.000000, 3.527473)">
                                            <rect id="Rectangle-54" x="0" y="0" width="99.9357292" height="3.52747253" rx="1"></rect>
                                            <rect id="Rectangle-54-Copy" x="6.82051282" y="-3.07184132e-14" width="5.68376068" height="3.52747253" rx="1"></rect>
                                            <rect id="Rectangle-54-Copy-2" x="13.6410256" y="1.99669686e-13" width="5.68376068" height="3.52747253" rx="1"></rect>
                                            <rect id="Rectangle-54-Copy-3" x="20.4615385" y="1.68951273e-13" width="5.68376068" height="3.52747253" rx="1"></rect>
                                            <rect id="Rectangle-54-Copy-4" x="27.2820513" y="1.22873653e-13" width="5.68376068" height="3.52747253" rx="1"></rect>
                                            <rect id="Rectangle-54-Copy-5" x="34.1025641" y="1.22873653e-13" width="5.68376068" height="3.52747253" rx="1"></rect>
                                            <rect id="Rectangle-54-Copy-6" x="40.9230769" y="9.21552397e-14" width="5.68376068" height="3.52747253" rx="1"></rect>
                                            <rect id="Rectangle-54-Copy-7" x="47.7435897" y="7.67960331e-14" width="5.68376068" height="3.52747253" rx="1"></rect>
                                            <rect id="Rectangle-54-Copy-8" x="54.5641026" y="3.07184132e-14" width="5.68376068" height="3.52747253" rx="1"></rect>
                                            <rect id="Rectangle-54-Copy-9" x="61.3846154" y="1.53592066e-14" width="5.68376068" height="3.52747253" rx="1"></rect>
                                            <rect id="Rectangle-54-Copy-10" x="68.2051282" y="0" width="5.68376068" height="3.52747253" rx="1"></rect>
                                            <rect id="Rectangle-54-Copy-11" x="75.025641" y="2.15028893e-13" width="5.68376068" height="3.52747253" rx="1"></rect>
                                            <rect id="Rectangle-54-Copy-12" x="81.8461538" y="1.68951273e-13" width="5.68376068" height="3.52747253" rx="1"></rect>
                                            <rect id="Rectangle-54-Copy-13" x="88.6666667" y="1.68951273e-13" width="5.68376068" height="3.52747253" rx="1"></rect>
                                            <rect id="Rectangle-54-Copy-14" x="95.4871795" y="1.3823286e-13" width="5.68376068" height="3.52747253" rx="1"></rect>
                                        </g>
                                        <g id="Keys-Copy-5">
                                            <rect id="Rectangle-54" x="0" y="0" width="29.7703749" height="2.35164835" rx="1"></rect>
                                            <rect id="Rectangle-54-Copy" x="6.82051282" y="-1.53592066e-14" width="5.68376068" height="2.35164835" rx="1"></rect>
                                            <rect id="Rectangle-54-Copy-2" x="13.6410256" y="-6.14368264e-14" width="5.68376068" height="2.35164835" rx="1"></rect>
                                            <rect id="Rectangle-54-Copy-3" x="20.4615385" y="-7.67960331e-14" width="5.68376068" height="2.35164835" rx="1"></rect>
                                            <rect id="Rectangle-54-Copy-4" x="27.2820513" y="-9.21552397e-14" width="5.68376068" height="2.35164835" rx="1"></rect>
                                            <rect id="Rectangle-54-Copy-5" x="34.1025641" y="-1.22873653e-13" width="30.817619" height="2.35164835" rx="1"></rect>
                                            <rect id="Rectangle-54-Copy-6" x="40.9230769" y="7.67960331e-14" width="5.68376068" height="2.35164835" rx="1"></rect>
                                            <rect id="Rectangle-54-Copy-7" x="47.7435897" y="7.67960331e-14" width="5.68376068" height="2.35164835" rx="1"></rect>
                                            <rect id="Rectangle-54-Copy-8" x="54.5641026" y="4.60776198e-14" width="5.68376068" height="2.35164835" rx="1"></rect>
                                            <rect id="Rectangle-54-Copy-9" x="61.3846154" y="3.07184132e-14" width="5.68376068" height="2.35164835" rx="1"></rect>
                                            <rect id="Rectangle-54-Copy-10" x="68.2051282" y="-1.53592066e-14" width="29.7703749" height="2.35164835" rx="1"></rect>
                                            <rect id="Rectangle-54-Copy-11" x="75.025641" y="-3.07184132e-14" width="5.68376068" height="2.35164835" rx="1"></rect>
                                            <rect id="Rectangle-54-Copy-12" x="81.8461538" y="-4.60776198e-14" width="5.68376068" height="2.35164835" rx="1"></rect>
                                            <rect id="Rectangle-54-Copy-13" x="88.6666667" y="-7.67960331e-14" width="5.68376068" height="2.35164835" rx="1"></rect>
                                            <rect id="Rectangle-54-Copy-14" x="95.4871795" y="-1.22873653e-13" width="5.68376068" height="2.35164835" rx="1"></rect>
                                        </g>
                                        <g id="Keys-Copy" transform="translate(0.000000, 8.230769)">
                                            <rect id="Rectangle-54" x="0" y="0" width="99.9357292" height="3.52747253" rx="1"></rect>
                                            <rect id="Rectangle-54-Copy" x="6.82051282" y="-3.07184132e-14" width="5.68376068" height="3.52747253" rx="1"></rect>
                                            <rect id="Rectangle-54-Copy-2" x="13.6410256" y="-6.14368264e-14" width="5.68376068" height="3.52747253" rx="1"></rect>
                                            <rect id="Rectangle-54-Copy-3" x="20.4615385" y="-7.67960331e-14" width="5.68376068" height="3.52747253" rx="1"></rect>
                                            <rect id="Rectangle-54-Copy-4" x="27.2820513" y="-1.07514446e-13" width="5.68376068" height="3.52747253" rx="1"></rect>
                                            <rect id="Rectangle-54-Copy-5" x="34.1025641" y="1.07514446e-13" width="5.68376068" height="3.52747253" rx="1"></rect>
                                            <rect id="Rectangle-54-Copy-6" x="40.9230769" y="9.21552397e-14" width="5.68376068" height="3.52747253" rx="1"></rect>
                                            <rect id="Rectangle-54-Copy-7" x="47.7435897" y="6.14368264e-14" width="5.68376068" height="3.52747253" rx="1"></rect>
                                            <rect id="Rectangle-54-Copy-8" x="54.5641026" y="3.07184132e-14" width="5.68376068" height="3.52747253" rx="1"></rect>
                                            <rect id="Rectangle-54-Copy-9" x="61.3846154" y="1.53592066e-14" width="5.68376068" height="3.52747253" rx="1"></rect>
                                            <rect id="Rectangle-54-Copy-10" x="68.2051282" y="-1.53592066e-14" width="5.68376068" height="3.52747253" rx="1"></rect>
                                            <rect id="Rectangle-54-Copy-11" x="75.025641" y="-3.07184132e-14" width="5.68376068" height="3.52747253" rx="1"></rect>
                                            <rect id="Rectangle-54-Copy-12" x="81.8461538" y="-6.14368264e-14" width="5.68376068" height="3.52747253" rx="1"></rect>
                                            <rect id="Rectangle-54-Copy-13" x="88.6666667" y="-1.07514446e-13" width="5.68376068" height="3.52747253" rx="1"></rect>
                                            <rect id="Rectangle-54-Copy-14" x="95.4871795" y="1.3823286e-13" width="5.68376068" height="3.52747253" rx="1"></rect>
                                        </g>
                                        <g id="Keys-Copy-2" transform="translate(0.000000, 12.934066)">
                                            <rect id="Rectangle-54" x="0" y="0" width="97.062521" height="3.52747253" rx="1"></rect>
                                            <rect id="Rectangle-54-Copy" x="10.2307692" y="9.21552397e-14" width="5.68376068" height="3.52747253" rx="1"></rect>
                                            <rect id="Rectangle-54-Copy-2" x="17.0512821" y="6.14368264e-14" width="5.68376068" height="3.52747253" rx="1"></rect>
                                            <rect id="Rectangle-54-Copy-3" x="23.8717949" y="3.07184132e-14" width="5.68376068" height="3.52747253" rx="1"></rect>
                                            <rect id="Rectangle-54-Copy-4" x="30.6923077" y="1.53592066e-14" width="5.68376068" height="3.52747253" rx="1"></rect>
                                            <rect id="Rectangle-54-Copy-5" x="37.5128205" y="-3.07184132e-14" width="5.68376068" height="3.52747253" rx="1"></rect>
                                            <rect id="Rectangle-54-Copy-6" x="44.3333333" y="-4.60776198e-14" width="5.68376068" height="3.52747253" rx="1"></rect>
                                            <rect id="Rectangle-54-Copy-7" x="51.1538462" y="-6.14368264e-14" width="5.68376068" height="3.52747253" rx="1"></rect>
                                            <rect id="Rectangle-54-Copy-8" x="57.974359" y="-9.21552397e-14" width="5.68376068" height="3.52747253" rx="1"></rect>
                                            <rect id="Rectangle-54-Copy-9" x="64.7948718" y="-1.22873653e-13" width="5.68376068" height="3.52747253" rx="1"></rect>
                                            <rect id="Rectangle-54-Copy-10" x="71.6153846" y="1.07514446e-13" width="5.68376068" height="3.52747253" rx="1"></rect>
                                            <rect id="Rectangle-54-Copy-11" x="78.4358974" y="7.67960331e-14" width="5.68376068" height="3.52747253" rx="1"></rect>
                                            <rect id="Rectangle-54-Copy-12" x="85.2564103" y="4.60776198e-14" width="5.68376068" height="3.52747253" rx="1"></rect>
                                            <rect id="Rectangle-54-Copy-13" x="92.0769231" y="3.07184132e-14" width="9.09401709" height="3.52747253" rx="1"></rect>
                                        </g>
                                        <g id="Keys-Copy-3" transform="translate(0.000000, 17.637363)">
                                            <rect id="Rectangle-54" x="0" y="0" width="99.9357292" height="3.52747253" rx="1"></rect>
                                            <rect id="Rectangle-54-Copy" x="6.82051282" y="-3.07184132e-14" width="5.68376068" height="3.52747253" rx="1"></rect>
                                            <rect id="Rectangle-54-Copy-2" x="13.6410256" y="-7.67960331e-14" width="5.68376068" height="3.52747253" rx="1"></rect>
                                            <rect id="Rectangle-54-Copy-3" x="20.4615385" y="-9.21552397e-14" width="5.68376068" height="3.52747253" rx="1"></rect>
                                            <rect id="Rectangle-54-Copy-4" x="27.2820513" y="-1.07514446e-13" width="5.68376068" height="3.52747253" rx="1"></rect>
                                            <rect id="Rectangle-54-Copy-5" x="34.1025641" y="1.07514446e-13" width="5.68376068" height="3.52747253" rx="1"></rect>
                                            <rect id="Rectangle-54-Copy-6" x="40.9230769" y="7.67960331e-14" width="5.68376068" height="3.52747253" rx="1"></rect>
                                            <rect id="Rectangle-54-Copy-7" x="47.7435897" y="6.14368264e-14" width="5.68376068" height="3.52747253" rx="1"></rect>
                                            <rect id="Rectangle-54-Copy-8" x="54.5641026" y="4.60776198e-14" width="5.68376068" height="3.52747253" rx="1"></rect>
                                            <rect id="Rectangle-54-Copy-9" x="61.3846154" y="1.53592066e-14" width="5.68376068" height="3.52747253" rx="1"></rect>
                                            <rect id="Rectangle-54-Copy-10" x="68.2051282" y="-3.07184132e-14" width="5.68376068" height="3.52747253" rx="1"></rect>
                                            <rect id="Rectangle-54-Copy-11" x="75.025641" y="-3.07184132e-14" width="5.68376068" height="3.52747253" rx="1"></rect>
                                            <rect id="Rectangle-54-Copy-12" x="81.8461538" y="-6.14368264e-14" width="5.68376068" height="3.52747253" rx="1"></rect>
                                            <rect id="Rectangle-54-Copy-13" x="88.6666667" y="-9.21552397e-14" width="5.68376068" height="3.52747253" rx="1"></rect>
                                            <rect id="Rectangle-54-Copy-14" x="95.4871795" y="1.22873653e-13" width="5.68376068" height="3.52747253" rx="1"></rect>
                                        </g>
                                        <g id="Keys-Copy-4" transform="translate(0.000000, 22.340659)">
                                            <rect id="Rectangle-54" x="0" y="0" width="19.566458" height="3.52747253" rx="1"></rect>
                                            <rect id="Rectangle-54-Copy" x="10.2307692" y="9.21552397e-14" width="5.68376068" height="3.52747253" rx="1"></rect>
                                            <rect id="Rectangle-54-Copy-2" x="17.0512821" y="4.60776198e-14" width="5.68376068" height="3.52747253" rx="1"></rect>
                                            <rect id="Rectangle-54-Copy-3" x="23.8717949" y="4.60776198e-14" width="16.1562016" height="3.52747253" rx="1"></rect>
                                            <rect id="Rectangle-54-Copy-4" x="30.6923077" y="1.53592066e-14" width="5.68376068" height="3.52747253" rx="1"></rect>
                                            <rect id="Rectangle-54-Copy-5" x="37.5128205" y="-1.53592066e-14" width="5.68376068" height="3.52747253" rx="1"></rect>
                                            <rect id="Rectangle-54-Copy-6" x="44.3333333" y="-4.60776198e-14" width="16.1562016" height="3.52747253" rx="1"></rect>
                                            <rect id="Rectangle-54-Copy-7" x="51.1538462" y="-6.14368264e-14" width="5.68376068" height="3.52747253" rx="1"></rect>
                                            <rect id="Rectangle-54-Copy-8" x="57.974359" y="-9.21552397e-14" width="5.68376068" height="3.52747253" rx="1"></rect>
                                            <rect id="Rectangle-54-Copy-9" x="64.7948718" y="1.22873653e-13" width="16.1562016" height="3.52747253" rx="1"></rect>
                                            <rect id="Rectangle-54-Copy-10" x="71.6153846" y="9.21552397e-14" width="5.68376068" height="3.52747253" rx="1"></rect>
                                            <rect id="Rectangle-54-Copy-11" x="78.4358974" y="6.14368264e-14" width="5.68376068" height="3.52747253" rx="1"></rect>
                                            <rect id="Rectangle-54-Copy-12" x="85.2564103" y="6.14368264e-14" width="5.68376068" height="3.52747253" rx="1"></rect>
                                            <rect id="Rectangle-54-Copy-13" x="92.0769231" y="1.53592066e-14" width="9.09401709" height="3.52747253" rx="1"></rect>
                                        </g>
                                    </g>
                                    <rect id="Rectangle-142" stroke-opacity="0.1" stroke="#000000" x="14.6410256" y="47.032967" width="105.717949" height="31.7472527" rx="2"></rect>
                                    <rect id="Rectangle-53" fill-opacity="0.1" fill="#000000" x="52.1538462" y="83.4835165" width="32.965812" height="16.4615385" rx="2"></rect>
                                    <rect id="Rectangle-54-Copy-7" fill="#000000" x="20.3247863" y="41.1538462" width="96.6239316" height="2.35164835" rx="1"></rect>
                                </g>
                                <g id="Path-57" transform="translate(5.000000, 90.000000)">
                                    <path d="M0,0.6200027 C0,50 37.7777778,85 85,85 C132.222222,85 170,50 170,0" id="path-2"></path>
                                    <g id="path-2-link" stroke="#EBEBEB" stroke-width="20">
                                        <path d="M0,0.6200027 C0,50 37.7777778,85 85,85 C132.222222,85 170,50 170,0" id="path-2"></path>
                                    </g>
                                </g>
                            </g>
                        </g>
                    </g>
                </g>
            </g>
        </g>
    </g>
</svg>