<?xml version="1.0" encoding="utf-8"?>
<!-- Generator: Adobe Illustrator 19.1.0, SVG Export Plug-In . SVG Version: 6.00 Build 0)  -->
<svg version="1.1" id="svg3206" xmlns:svg="http://www.w3.org/2000/svg"
	 xmlns="http://www.w3.org/2000/svg" xmlns:xlink="http://www.w3.org/1999/xlink" x="0px" y="0px" viewBox="462 -89 1024 278"
	 style="enable-background:new 462 -89 1024 278;" xml:space="preserve">
<style type="text/css">
	.st0{fill:#FFFFFF;}
</style>
<path id="path3087" class="st0" d="M1405.5,86.8c-31.7,0-42.8,5.8-42.8,26.7c0,13.6,8.7,22.9,20.3,22.9c8.5,0,17.1-4.5,23.9-12
	l0.7-37.7L1405.5,86.8L1405.5,86.8z M1346.1-5.3c17.1-7.2,31.7-10.3,47.9-10.3c29.5,0,49.7,10.9,56.6,30.4
	c2.3,7.2,3.3,12.7,3.1,31.5l-1.1,58.8c0,1,0,2.1,0,3.1c0,18.8,3.1,26,16.5,35.9l-24.4,28.1c-10.7-4.5-20.3-12.4-24.7-21.3
	c-3.4,3.5-7.2,6.8-10.6,9.2c-8.5,6.2-20.9,9.6-35.3,9.6c-39,0-60.2-19.9-60.2-54.7c0-41.1,28.5-60.3,84.2-60.3c3.4,0,6.5,0,10.3,0.4
	v-7.1c0-19.5-3.8-26.1-20.7-26.1c-14.5,0-31.8,7.1-50.6,19.8l-19.5-32.9C1326.9,3.2,1333.7-0.1,1346.1-5.3 M1274.1-44.3V92.3
	c0,30.2,0.4,34.2,3.2,39c1.6,3.1,5.3,4.8,9.2,4.8c1.7,0,2.8,0,5.2-0.6l7.8,27.4c-7.8,3.1-17.4,4.8-27.4,4.8
	c-19.5,0-35.3-9.2-40.8-23.9c-3.5-8.9-4.1-14.4-4.1-39.4V-26.5c0-22.9-0.7-36.9-2.5-52.7l46.8-10.6
	C1273.5-80.3,1274.1-69,1274.1-44.3 M1179-44.3V92.3c0,30.2,0.4,34.2,3.1,39c1.7,3.1,5.4,4.8,9.3,4.8c1.6,0,2.6,0,5.1-0.6l7.8,27.4
	c-7.8,3.1-17.4,4.8-27.4,4.8c-19.6,0-35.3-9.2-40.7-23.9c-3.4-8.9-4.2-14.4-4.2-39.4V-26.5c0-22.9-0.6-36.9-2.3-52.7l46.9-10.6
	C1178.3-80.3,1179-69,1179-44.3 M1095.5-15.9v179.4h-45.9V-8.7C1049.6-8.7,1095.5-15.9,1095.5-15.9z M1100.9-60
	c0,15.8-12.5,28.4-28.4,28.4c-15.3,0-28-12.6-28-28.4c0-15.7,13-28.4,28.7-28.4C1088.6-88.5,1100.9-75.8,1100.9-60 M1023.3-11.8
	v31.5l-77.4,111.9h80.4l-11,31.8h-129v-28.4l82.4-114.7h-75.5v-32.2L1023.3-11.8 M773.1,36.5c-3.1,9.3-4.8,21.6-4.8,39.1
	c0,20.1,2.1,35.3,5.8,44.1c4.1,9.6,14.4,14.4,23.3,14.4c19.9,0,28.4-17.8,28.4-59.2c0-23.6-3.1-39.1-9.2-47
	c-4.4-5.8-11.5-9.2-19.8-9.2C785.7,18.7,776.8,25.5,773.1,36.5L773.1,36.5z M855.5,11.2c14,16.4,20.3,35.6,20.3,64
	c0,30.1-6.9,50.7-22,67.8c-13.3,15-30.8,24.3-57.8,24.3c-47.6,0-78.7-35.6-78.7-90.7c0-55.1,31.4-91.8,78.7-91.8
	C821-15.2,840.5-6.6,855.5,11.2 M503-14.8c3.1,4.7,4.4,8.9,6.1,17.8c11.9-11.6,26.7-17.8,42.7-17.8c14.5,0,26.4,4.7,35.6,14.3
	c2.5,2.4,4.9,5.5,6.9,8.6c16-16.4,30.4-22.9,49.6-22.9c13.7,0,26.7,4.1,34.6,10.9c9.9,8.6,13,18.8,13,42.8v124.6h-44.5V47.8
	c0-21-2.5-25-14.4-25c-8.6,0-20.6,5.8-30.4,14.7v126h-43.4v-114c0-21.9-3.2-27-15.9-27c-8.5,0-20.2,4.4-30.1,13.3v127.7h-44.8V41.3
	c0-25.3-1.7-36.2-6.5-44.8L503-14.8"/>
</svg>
