<?xml version="1.0" encoding="utf-8"?>
<!-- Generator: Adobe Illustrator 19.1.0, SVG Export Plug-In . SVG Version: 6.00 Build 0)  -->
<svg version="1.1" id="svg3206" xmlns:svg="http://www.w3.org/2000/svg"
	 xmlns="http://www.w3.org/2000/svg" xmlns:xlink="http://www.w3.org/1999/xlink" x="0px" y="0px"
	 viewBox="469.1 -81.1 495.8 264.4" style="enable-background:new 469.1 -81.1 495.8 264.4;" xml:space="preserve">
<style type="text/css">
	.st0{fill:#FFFFFF;}
</style>
<g>
	<path class="st0" d="M964.9,56c0,43.4-18.2,75.5-54.4,96.2C874.1,173,809.7,183.3,717,183.3c-88.1,0-151.5-10.7-190-32.1
		c-38.6-21.4-57.8-53.1-57.8-95.3c0-91.4,82.6-137.1,247.9-137.1C882.3-81.1,964.9-35.4,964.9,56z M604.2,49.2
		c2.6,0,5.2-2.3,7.8-6.8c2.6-3.2,3.9-7.1,3.9-11.7c0-8.4-3.6-13-10.7-13.6c-10.4,0-22.4,9.7-36,29.2l3.9-13.6
		c0.6-3.9-1.1-7.6-5.3-11.2c-4.2-3.6-8.9-5.7-14.1-6.3c0.6,1.3-2.8,14.9-10.2,40.8c-7.5,25.9-10.5,41.2-9.2,45.7
		c1.3,9.1,9.4,14.9,24.3,17.5c-1.3-6.5-0.3-15.6,2.9-27.2c3.9-22,13-38.2,27.2-48.6c7.8-5.8,12.3-5.8,13.6,0v2.9
		C602.3,48.9,602.9,49.8,604.2,49.2z M728.2,97.3c13.9-15.2,21.2-31.3,21.9-48.1c1.9-21.4-6.2-32.1-24.3-32.1
		c-8.4-0.6-17.2,2.9-26.2,10.7c5.8-22,9.7-39.2,11.7-51.5c0.6-3.9-1.1-7.8-5.3-11.7c-4.2-3.9-8.9-6.2-14.1-6.8
		c0.6,0.7-0.7,7.8-3.9,21.4c-2.6,10.4-7.6,28.2-15.1,53.5c-7.5,25.3-12.2,42.1-14.1,50.5c-8.4,14.3-16.9,20.7-25.3,19.4
		c-2.6-2.6-2.8-8.3-0.5-17c2.3-8.7,5.3-19.4,9.2-32.1c3.9-12.6,5.5-20.2,4.9-22.8c-2.6-8.4-9.7-13.3-21.4-14.6
		c-0.7,5.2-4.4,18-11.2,38.4c-6.8,20.4-10.5,33.5-11.2,39.4c-0.7,5.2,1.8,10.9,7.3,17c5.5,6.2,10.8,9.6,16,10.2
		c11.7,0,22-5.5,31.1-16.5c3.2,9.7,11,14.6,23.3,14.6C698.5,119.8,714.2,112.5,728.2,97.3z M644.1-0.4c5.2,0.7,9.6-1.1,13.1-5.3
		c3.6-4.2,5.3-8.9,5.3-14.1c0.6-7.1-2.9-11.3-10.7-12.6c-3.9-1.3-7.8,0-11.7,3.9c-3.9,3.9-6.2,8.4-6.8,13.6
		C632.1-6.5,635.7-1.7,644.1-0.4z M722.8,44.3c-0.7,12.3-4.5,25.6-11.7,39.9c-7.1,14.3-14.6,21.1-22.4,20.4c-3.9,0-5.8-1.9-5.8-5.8
		c0.6-9.7,4.9-23.5,12.6-41.3c7.8-17.8,15.2-26.4,22.4-25.8C722.5,31.7,724.1,35.9,722.8,44.3z M816.6,98.8
		c10-14.9,15.4-30.8,16-47.6c1.3-9.7-0.3-17.8-4.9-24.3c-4.5-6.5-11.7-10-21.4-10.7c-15.6-0.6-29,6.7-40.3,21.9
		c-11.3,15.2-17.3,31-18,47.1c-0.7,9.7,1.8,17.8,7.3,24.3c5.5,6.5,13.1,10.1,22.8,10.7C793.8,120.8,806.6,113.7,816.6,98.8z
		 M814.2,44.3c0,9.1-3.3,21.4-9.7,36.9c-6.5,15.6-13.6,23-21.4,22.4c-4.5,0-6.8-5.2-6.8-15.6c0.6-11,3.7-23.8,9.2-38.4
		c5.5-14.6,12.5-21.5,20.9-20.9C813.6,28.8,816.2,34,814.2,44.3z M905.6,71.6c0-2.6-0.7-3.9-1.9-3.9c-1.3,0-2.3,1.3-2.9,3.9
		c-9.7,16.9-21.1,26.9-34,30.1c-5.2,1.3-7.8,0-7.8-3.9c0.6-5.2,5.5-26.2,14.6-63.2c13,1.9,20.4,2.3,22.4,1c3.2-1.3,6.2-6.8,8.7-16.5
		h-26.2c3.2-13,4.5-20.4,3.9-22.4c-1.3-8.4-8.1-13.3-20.4-14.6C861.2-13.3,856,5,846.3,37c-9.7,32.1-14.9,51-15.6,56.9
		c0,5.2,2.6,10.9,7.8,17c5.2,6.2,10.4,9.2,15.6,9.2c18.8,1.3,35-9.1,48.6-31.1c0.6-2.6,1.9-5.2,3.9-7.8L905.6,71.6z"/>
</g>
</svg>
