<svg xmlns="http://www.w3.org/2000/svg" height="372.28" width="461.293">
  <path d="M112.596 66.665c-1.32-6.666-6.665-10.032-13.199-10.032-11.22 0-15.972 9.24-15.972 19.074 0 10.757 4.752 19.734 16.038 19.734 8.25 0 13.002-5.808 13.595-13.597h6.27c-1.187 11.748-8.513 18.879-20.393 18.879-14.652 0-21.78-10.827-21.78-24.552 0-13.664 7.788-24.818 22.308-24.818 9.834 0 17.952 5.28 19.404 15.312h-6.27M124.39 65.477h5.28v7.196h.133c2.705-5.48 6.468-8.185 12.54-7.988v5.94C133.3 70.625 130 75.775 130 84.42V99.6h-5.61V65.477M159.535 95.441c5.873 0 10.625-4.62 10.625-12.87 0-8.315-4.752-12.935-10.625-12.935-5.875 0-10.627 4.62-10.627 12.935 0 8.25 4.752 12.87 10.627 12.87zm0-30.756c10.824 0 16.565 7.855 16.565 17.886 0 9.966-5.741 17.821-16.565 17.821-10.824 0-16.566-7.855-16.566-17.821 0-10.031 5.742-17.886 16.566-17.886M213.725 99.6h-5.94l-6.929-27.128h-.132L193.86 99.6h-6.072l-10.956-34.123h6.204l7.721 27.918h.132l6.864-27.918h6.139l7.128 27.918h.132l7.656-27.918h5.808L213.726 99.6M228.345 65.477h5.28v5.412h.132c2.376-4.224 6.204-6.204 11.088-6.204 8.976 0 11.748 5.15 11.748 12.475V99.6h-5.609V76.499c0-4.158-2.64-6.863-6.93-6.863-6.798 0-10.098 4.552-10.098 10.69V99.6h-5.61V65.477M112.596 135.999c-1.32-6.664-6.665-10.032-13.199-10.032-11.22 0-15.972 9.24-15.972 19.073 0 10.757 4.752 19.735 16.038 19.735 8.25 0 13.002-5.808 13.595-13.598h6.27c-1.187 11.748-8.513 18.879-20.393 18.879-14.652 0-21.78-10.827-21.78-24.553 0-13.662 7.788-24.818 22.308-24.818 9.834 0 17.952 5.282 19.404 15.314h-6.27M139.465 164.775c5.874 0 10.626-4.62 10.626-12.871 0-8.315-4.752-12.935-10.626-12.935s-10.626 4.62-10.626 12.935c0 8.25 4.752 12.87 10.626 12.87zm0-30.756c10.823 0 16.566 7.854 16.566 17.885 0 9.967-5.743 17.821-16.566 17.821-10.824 0-16.567-7.854-16.567-17.821 0-10.03 5.743-17.885 16.567-17.885M161.08 134.81h5.28v5.017h.132c2.508-3.828 6.336-5.808 11.021-5.808 4.158 0 7.987 1.65 9.372 5.808 2.31-3.631 6.336-5.808 10.692-5.808 6.798 0 11.352 2.838 11.352 9.898v25.016h-5.61V146.56c0-4.224-1.122-7.59-6.6-7.59-5.412 0-8.91 3.432-8.91 8.711v21.253h-5.61V146.56c0-4.423-1.386-7.59-6.402-7.59-6.665 0-9.108 6.139-9.108 8.711v21.253h-5.609v-34.122M215.8 134.81h5.28v5.017h.132c2.508-3.828 6.336-5.808 11.021-5.808 4.158 0 7.987 1.65 9.372 5.808 2.311-3.631 6.336-5.808 10.692-5.808 6.798 0 11.352 2.838 11.352 9.898v25.016h-5.61V146.56c0-4.224-1.122-7.59-6.6-7.59-5.411 0-8.91 3.432-8.91 8.711v21.253h-5.61V146.56c0-4.423-1.386-7.59-6.402-7.59-6.665 0-9.108 6.139-9.108 8.711v21.253H215.8v-34.122M294.193 148.605c-.264-5.346-4.29-9.636-9.833-9.636-5.875 0-9.373 4.423-9.77 9.636zm5.412 9.503c-1.518 7.525-6.93 11.617-14.585 11.617-10.89 0-16.039-7.524-16.37-17.953 0-10.23 6.734-17.753 16.04-17.753 12.077 0 15.773 11.286 15.443 19.537h-25.542c-.198 5.94 3.168 11.219 10.626 11.219 4.62 0 7.854-2.246 8.844-6.667h5.544M304.655 134.81h5.28v7.195h.132c2.705-5.478 6.466-8.184 12.54-7.986v5.94c-9.043 0-12.343 5.149-12.343 13.794v15.18h-5.61v-34.122M348.279 145.767c-.858-4.29-3.828-6.798-8.447-6.798-8.119 0-10.627 6.402-10.627 13.331 0 6.27 2.838 12.475 9.966 12.475 5.413 0 8.646-3.167 9.372-8.316h5.742c-1.254 8.316-6.468 13.266-15.048 13.266-10.428 0-15.972-7.261-15.972-17.425 0-10.23 5.28-18.281 16.104-18.281 7.722 0 13.926 3.63 14.718 11.748h-5.808M359.301 134.81h5.61v34.123h-5.61zm5.61-6.137h-5.61v-6.865h5.61v6.865M393.059 151.31c-2.178 1.583-6.402 1.651-10.164 2.31-3.696.66-6.864 1.98-6.864 6.139 0 3.694 3.168 5.016 6.6 5.016 7.392 0 10.428-4.62 10.428-7.722zm9.108 17.49c-.991.593-2.244.925-4.027.925-2.904 0-4.75-1.584-4.75-5.281-3.103 3.63-7.26 5.281-12.013 5.281-6.205 0-11.286-2.774-11.286-9.57 0-7.722 5.742-9.374 11.549-10.495 6.204-1.188 11.484-.792 11.484-5.016 0-4.883-4.025-5.675-7.59-5.675-4.751 0-8.25 1.451-8.513 6.467h-5.61c.33-8.448 6.864-11.417 14.453-11.417 6.139 0 12.804 1.385 12.804 9.373v17.555c0 2.64 0 3.828 1.783 3.828.462 0 .99-.066 1.716-.331v4.356M406.317 121.808h5.611v47.125h-5.61v-47.125M106.723 204.936c-.726-6.732-5.214-9.636-11.682-9.636-5.28 0-10.56 1.915-10.56 8.052 0 5.808 7.524 6.667 15.114 8.383 7.524 1.716 15.048 4.354 15.048 13.594 0 10.034-9.835 14.06-18.414 14.06-10.56 0-19.47-5.149-19.47-16.633h5.94c0 7.919 6.6 11.352 13.728 11.352 5.676 0 11.945-1.781 11.945-8.581 0-6.467-7.523-7.588-15.047-9.24-7.524-1.648-15.114-3.828-15.114-12.474 0-9.57 8.514-13.794 17.094-13.794 9.636 0 16.962 4.554 17.358 14.917h-5.94M143.59 217.939c-.263-5.347-4.29-9.636-9.834-9.636-5.874 0-9.372 4.422-9.768 9.636zm5.411 9.502c-1.517 7.526-6.929 11.618-14.584 11.618-10.89 0-16.039-7.524-16.37-17.954 0-10.229 6.734-17.753 16.04-17.753 12.077 0 15.773 11.287 15.442 19.537h-25.541c-.197 5.94 3.168 11.219 10.627 11.219 4.62 0 7.853-2.245 8.844-6.667H149M154.05 204.144h5.28v7.195h.133c2.705-5.479 6.468-8.184 12.54-7.987v5.94c-9.042 0-12.342 5.15-12.342 13.795v15.18h-5.61v-34.123M192.23 238.267h-6.006l-12.67-34.123h6.269l9.569 28.445h.133l9.306-28.445h5.873l-12.473 34.123M208.42 204.144h5.61v34.123h-5.61zm5.61-6.139h-5.61v-6.864h5.61v6.864M244.324 215.1c-.859-4.29-3.828-6.797-8.448-6.797-8.119 0-10.627 6.401-10.627 13.33 0 6.271 2.838 12.475 9.967 12.475 5.412 0 8.645-3.167 9.37-8.316h5.743c-1.253 8.316-6.468 13.267-15.048 13.267-10.428 0-15.972-7.262-15.972-17.426 0-10.229 5.28-18.281 16.104-18.281 7.723 0 13.926 3.63 14.719 11.748h-5.808M278.96 217.939c-.265-5.347-4.29-9.636-9.835-9.636-5.874 0-9.372 4.422-9.768 9.636zm5.41 9.502c-1.517 7.526-6.929 11.618-14.585 11.618-10.889 0-16.037-7.524-16.368-17.954 0-10.229 6.732-17.753 16.039-17.753 12.077 0 15.773 11.287 15.443 19.537h-25.542c-.197 5.94 3.168 11.219 10.627 11.219 4.62 0 7.853-2.245 8.844-6.667h5.543" fill="#231f20"/>
  <path d="M45.771 308.043h4.625V51.51H45.77v256.532" fill="#1574c4"/>
  <path d="M112.187 275.37c-.067-8.287-4.442-10.94-12.53-10.94-5.836 0-12.068 2.717-12.068 9.48 0 5.04 3.979 6.631 7.957 7.823l5.038 1.526c6.498 1.99 12.73 4.11 12.73 12.066 0 4.641-2.918 14.584-18.299 14.584-10.608 0-18.364-5.105-17.835-16.573h4.51c-.465 9.216 5.038 12.728 13.656 12.728 6.167 0 13.46-3.05 13.46-10.141 0-6.698-6.498-7.89-11.735-9.416l-4.642-1.392c-5.502-1.59-9.348-4.907-9.348-11.006 0-9.481 8.354-13.526 16.774-13.526 9.614 0 17.371 3.848 16.84 14.786h-4.508M142.881 308.916h-3.845l1.193-6.232h-.133c-2.585 4.043-7.094 7.225-12.199 7.225-5.967 0-10.342-2.652-10.342-9.213 0-1.06.199-2.456.53-4.045l4.707-21.944h4.177l-4.774 22.077c-.265 1.06-.463 2.321-.463 3.447 0 4.509 3.448 6.165 7.16 6.165 6.033 0 11.536-5.436 13.392-14.12l3.78-17.57h4.176l-7.359 34.21M156.603 296.517c0 5.967 3.448 9.88 9.548 9.88 9.613 0 14.585-10.61 14.585-18.96 0-5.835-2.916-10.212-9.215-10.212-9.613 0-14.918 10.807-14.918 19.292zm.265-21.81h3.78l-1.325 6.165h.132c2.916-4.51 6.43-7.161 12.464-7.161 8.75 0 12.994 5.634 12.994 13.989 0 10.476-7.226 22.21-18.696 22.21-5.37 0-10.012-2.253-10.94-7.822h-.133l-4.176 19.49h-4.177l10.077-46.871M192.668 296.517c0 5.967 3.448 9.88 9.548 9.88 9.613 0 14.587-10.61 14.587-18.96 0-5.835-2.918-10.212-9.218-10.212-9.613 0-14.917 10.807-14.917 19.292zm.265-21.81h3.78l-1.326 6.165h.133c2.917-4.51 6.43-7.161 12.464-7.161 8.752 0 12.995 5.634 12.995 13.989 0 10.476-7.227 22.21-18.698 22.21-5.369 0-10.01-2.253-10.938-7.822h-.134l-4.176 19.49h-4.177l10.077-46.871M231.452 261.578h4.177l-10.21 47.338h-4.178l10.211-47.338M241.73 261.578h4.177l-1.459 6.698h-4.177zm-2.851 13.129h4.177l-7.36 34.209h-4.177l7.36-34.21M270.703 289.424c0-.927.065-1.79.065-2.652 0-5.7-3.579-9.547-9.348-9.547-6.895 0-11.603 5.834-13.061 12.199zm-22.874 3.513a16.525 16.525 0 00-.198 2.652c0 6.168 3.181 10.807 9.944 10.807 5.437 0 9.614-3.513 11.205-8.485h4.176c-2.253 7.624-7.49 11.998-15.58 11.998-9.017 0-13.923-5.634-13.923-14.517 0-10.807 6.763-21.681 18.498-21.681 8.221 0 12.994 5.37 12.994 13.328 0 1.921-.066 3.844-.332 5.898H247.83M281.575 274.707h3.778l-1.724 7.888h.134c2.652-4.906 6.297-8.42 12.397-8.355.73 0 1.525 0 2.255.068l-.928 4.176c-.796 0-1.592-.064-2.387-.064-7.493.132-11.47 6.165-12.863 12.595l-3.846 17.901h-4.176l7.36-34.21" fill="#918f90"/>
</svg>
