<?xml version="1.0" encoding="UTF-8"?>
<svg width="64px" height="54px" viewBox="0 0 64 54" version="1.1" xmlns="http://www.w3.org/2000/svg" xmlns:xlink="http://www.w3.org/1999/xlink">
    <!-- Generator: Sketch 58 (84663) - https://sketch.com -->
    <title>0493-first-aid</title>
    <desc>Created with Sketch.</desc>
    <g id="Page-1" stroke="none" stroke-width="1" fill="none" fill-rule="evenodd">
        <g id="Artboard" transform="translate(-1292.000000, -642.000000)" fill="#005450" fill-rule="nonzero">
            <g id="0493-first-aid" transform="translate(1292.000000, 642.000000)">
                <path d="M36.5294118,44.4705882 L27,44.4705882 C26.1232941,44.4705882 25.4117647,43.7590588 25.4117647,42.8823529 L25.4117647,38.1176471 L20.6470588,38.1176471 C19.7703529,38.1176471 19.0588235,37.4061176 19.0588235,36.5294118 L19.0588235,27 C19.0588235,26.1232941 19.7703529,25.4117647 20.6470588,25.4117647 L25.4117647,25.4117647 L25.4117647,20.6470588 C25.4117647,19.7703529 26.1232941,19.0588235 27,19.0588235 L36.5294118,19.0588235 C37.4061176,19.0588235 38.1176471,19.7703529 38.1176471,20.6470588 L38.1176471,25.4117647 L42.8823529,25.4117647 C43.7590588,25.4117647 44.4705882,26.1232941 44.4705882,27 L44.4705882,36.5294118 C44.4705882,37.4061176 43.7590588,38.1176471 42.8823529,38.1176471 L38.1176471,38.1176471 L38.1176471,42.8823529 C38.1176471,43.7590588 37.4061176,44.4705882 36.5294118,44.4705882 Z M28.5882353,41.2941176 L34.9411765,41.2941176 L34.9411765,36.5294118 C34.9411765,35.6527059 35.6527059,34.9411765 36.5294118,34.9411765 L41.2941176,34.9411765 L41.2941176,28.5882353 L36.5294118,28.5882353 C35.6527059,28.5882353 34.9411765,27.8767059 34.9411765,27 L34.9411765,22.2352941 L28.5882353,22.2352941 L28.5882353,27 C28.5882353,27.8767059 27.8767059,28.5882353 27,28.5882353 L22.2352941,28.5882353 L22.2352941,34.9411765 L27,34.9411765 C27.8767059,34.9411765 28.5882353,35.6527059 28.5882353,36.5294118 L28.5882353,41.2941176 Z" id="Shape"></path>
                <path d="M58.7647059,9.52941176 L44.4705882,9.52941176 L44.4705882,4.76470588 C44.4705882,2.13776471 42.3328235,0 39.7058824,0 L23.8235294,0 C21.1965882,0 19.0588235,2.13776471 19.0588235,4.76470588 L19.0588235,9.52941176 L4.76470588,9.52941176 C2.13776471,9.52941176 0,11.6671765 0,14.2941176 L0,49.2352941 C0,51.8622353 2.13776471,54 4.76470588,54 L58.7647059,54 C61.3916471,54 63.5294118,51.8622353 63.5294118,49.2352941 L63.5294118,14.2941176 C63.5294118,11.6671765 61.3916471,9.52941176 58.7647059,9.52941176 Z M22.2352941,4.76470588 C22.2352941,3.888 22.9468235,3.17647059 23.8235294,3.17647059 L39.7058824,3.17647059 C40.5825882,3.17647059 41.2941176,3.888 41.2941176,4.76470588 L41.2941176,9.52941176 L22.2352941,9.52941176 L22.2352941,4.76470588 Z M60.3529412,49.2352941 C60.3529412,50.112 59.6414118,50.8235294 58.7647059,50.8235294 L4.76470588,50.8235294 C3.888,50.8235294 3.17647059,50.112 3.17647059,49.2352941 L3.17647059,14.2941176 C3.17647059,13.4174118 3.888,12.7058824 4.76470588,12.7058824 L58.7647059,12.7058824 C59.6414118,12.7058824 60.3529412,13.4174118 60.3529412,14.2941176 L60.3529412,49.2352941 Z" id="Shape"></path>
            </g>
        </g>
    </g>
</svg>