<?xml version="1.0" encoding="UTF-8"?>
<svg width="247px" height="240px" viewBox="0 0 247 240" version="1.1" xmlns="http://www.w3.org/2000/svg" xmlns:xlink="http://www.w3.org/1999/xlink">
    <!-- Generator: Sketch 53 (72520) - https://sketchapp.com -->
    <title>low-bandwith copy</title>
    <desc>Created with Sketch.</desc>
    <g id="Page-1" stroke="none" stroke-width="1" fill="none" fill-rule="evenodd">
        <g id="Artboard" transform="translate(-1852.000000, -6468.000000)">
            <g id="Group-5-Copy-3" transform="translate(708.000000, 242.000000)">
                <g id="Stacked-Group-2" transform="translate(250.000000, 3404.000000)">
                    <g id="Group-7-Copy" transform="translate(0.000000, 2767.000000)">
                        <g id="low-bandwith-copy" transform="translate(894.000000, 55.000000)">
                            <rect id="background" fill="#FFFFFF" x="2.98427949e-13" y="0" width="246.233766" height="240" rx="15"></rect>
                            <g id="bad-wifi" transform="translate(166.000000, 174.000000)" fill="#005450" fill-rule="nonzero">
                                <path d="M32,45 C28.8865882,45 26.3529412,42.47625 26.3529412,39.375 C26.3529412,36.27375 28.8865882,33.75 32,33.75 C35.1134118,33.75 37.6470588,36.27375 37.6470588,39.375 C37.6470588,42.47625 35.1134118,45 32,45 Z M32,37.5 C30.9609412,37.5 30.1176471,38.34 30.1176471,39.375 C30.1176471,40.41 30.9609412,41.25 32,41.25 C33.0390588,41.25 33.8823529,40.41 33.8823529,39.375 C33.8823529,38.34 33.0390588,37.5 32,37.5 Z" id="Shape"></path>
                                <path d="M44.9769412,33.63 C44.3331765,33.63 43.7044706,33.3 43.3543529,32.7075 C42.6465882,31.515 41.7581176,30.44625 40.7152941,29.5275 C39.936,28.84125 39.8607059,27.65625 40.5496471,26.88 C41.2385882,26.10375 42.4282353,26.02875 43.2075294,26.715 C44.5477647,27.8925 45.6884706,29.26875 46.5957647,30.79875 C47.1265882,31.69125 46.8291765,32.83875 45.9331765,33.3675 C45.632,33.54375 45.3044706,33.63 44.9769412,33.63 Z" id="Path"></path>
                                <path d="M28.2352941,26.7225 C27.3957647,26.7225 26.6315294,26.16 26.4131765,25.3125 C26.1534118,24.31125 26.7595294,23.2875 27.7684706,23.02875 C30.5204706,22.32375 33.4832941,22.32375 36.2352941,23.02875 C37.2404706,23.2875 37.8465882,24.3075 37.5905882,25.3125 C37.3345882,26.3175 36.3030588,26.9175 35.2978824,26.6625 C33.1557647,26.115 30.8442353,26.115 28.7058824,26.6625 C28.5477647,26.70375 28.3896471,26.7225 28.2352941,26.7225 Z" id="Path"></path>
                                <path d="M19.0230588,33.63 C18.6992941,33.63 18.368,33.5475 18.0668235,33.3675 C17.1708235,32.8425 16.8734118,31.69125 17.4042353,30.79875 C18.3115294,29.26875 19.4522353,27.89625 20.7924706,26.715 C21.5717647,26.02875 22.7614118,26.10375 23.4503529,26.88 C24.1392941,27.65625 24.064,28.84125 23.2847059,29.5275 C22.2418824,30.44625 21.3534118,31.515 20.6456471,32.7075 C20.2955294,33.3 19.6668235,33.63 19.0230588,33.63 L19.0230588,33.63 Z" id="Path"></path>
                                <path d="M53.1087059,25.53 C52.5364706,25.53 51.9717647,25.27125 51.5990588,24.78 C49.6865882,22.2375 47.3336471,20.11875 44.608,18.48 C43.7157647,17.9475 43.4296471,16.7925 43.968,15.9075 C44.5063529,15.0225 45.6621176,14.73375 46.5505882,15.27 C49.6941176,17.15625 52.4084706,19.60125 54.6108235,22.53375 C55.2357647,23.3625 55.0663529,24.53625 54.2343529,25.15875 C53.8955294,25.41 53.5002353,25.53375 53.1087059,25.53375 L53.1087059,25.53 Z" id="Path"></path>
                                <path d="M37.6508235,15.60375 C37.5190588,15.60375 37.3835294,15.58875 37.248,15.55875 C33.8258824,14.8125 30.1778824,14.81625 26.7557647,15.55875 C25.7392941,15.78 24.7378824,15.13875 24.5157647,14.12625 C24.2936471,13.11375 24.9374118,12.11625 25.9538824,11.895 C29.9030588,11.03625 34.1007059,11.03625 38.0498824,11.895 C39.0663529,12.11625 39.7101176,13.11375 39.488,14.12625 C39.296,15.00375 38.5167059,15.6 37.6508235,15.6 L37.6508235,15.60375 Z" id="Path"></path>
                                <path d="M10.8912941,25.53 C10.4997647,25.53 10.1044706,25.40625 9.76564706,25.155 C8.93364706,24.5325 8.76423529,23.35875 9.38917647,22.53 C11.5915294,19.60125 14.3058824,17.15625 17.4494118,15.27 C18.3416471,14.73375 19.4974118,15.0225 20.032,15.9075 C20.5665882,16.7925 20.2804706,17.9475 19.392,18.48 C16.6663529,20.11875 14.3134118,22.2375 12.4009412,24.77625 C12.032,25.2675 11.4672941,25.52625 10.8912941,25.52625 L10.8912941,25.53 Z" id="Path"></path>
                                <path d="M61.1501176,17.51625 C60.6042353,17.51625 60.0658824,17.28 59.6931765,16.83 C56.5383529,12.99 52.5251765,9.78 48.0941176,7.5525 C47.1642353,7.0875 46.7915294,5.95875 47.2621176,5.0325 C47.7327059,4.10625 48.8621176,3.735 49.792,4.20375 C54.7614118,6.70125 59.0757647,10.15125 62.6108235,14.45625 C63.2696471,15.25875 63.1491765,16.44 62.3472941,17.09625 C61.9971765,17.38125 61.5755294,17.52 61.1576471,17.52 L61.1501176,17.51625 Z" id="Path"></path>
                                <path d="M39.5331765,4.5 C39.4089412,4.5 39.2847059,4.48875 39.1567059,4.4625 C34.4771765,3.5175 29.5265882,3.5175 24.8470588,4.4625 C23.8268235,4.66875 22.8329412,4.0125 22.6296471,2.99625 C22.4263529,1.98 23.0814118,0.99 24.1016471,0.7875 C29.2705882,-0.25875 34.7407059,-0.25875 39.9096471,0.7875 C40.9298824,0.99375 41.5887059,1.98375 41.3816471,2.99625 C41.2009412,3.885 40.4141176,4.5 39.5369412,4.5 L39.5331765,4.5 Z" id="Path"></path>
                                <path d="M2.84988235,17.51625 C2.432,17.51625 2.01035294,17.3775 1.66023529,17.0925 C0.854588235,16.43625 0.737882353,15.255 1.39670588,14.4525 C4.93176471,10.1475 9.24611765,6.70125 14.2155294,4.2 C15.1454118,3.735 16.2748235,4.10625 16.7454118,5.02875 C17.216,5.95125 16.8395294,7.08 15.9134118,7.54875 C11.4785882,9.77625 7.46917647,12.98625 4.31435294,16.82625 C3.94164706,17.28 3.40329412,17.5125 2.85741176,17.5125 L2.84988235,17.51625 Z" id="Path"></path>
                            </g>
                            <g id="low-signal" transform="translate(22.000000, 31.000000)" fill="#005450" fill-rule="nonzero">
                                <path d="M8.42105263,20 L1.68421053,20 C0.754526316,20 0,19.2533333 0,18.3333333 L0,8.33333333 C0,7.41333333 0.754526316,6.66666667 1.68421053,6.66666667 L8.42105263,6.66666667 C9.35073684,6.66666667 10.1052632,7.41333333 10.1052632,8.33333333 L10.1052632,18.3333333 C10.1052632,19.2533333 9.35073684,20 8.42105263,20 Z M3.36842105,16.6666667 L6.73684211,16.6666667 L6.73684211,10 L3.36842105,10 L3.36842105,16.6666667 Z" id="Shape"></path>
                                <path d="M21.8947368,20 L15.1578947,20 C14.2282105,20 13.4736842,19.2533333 13.4736842,18.3333333 L13.4736842,1.66666667 C13.4736842,0.746666667 14.2282105,0 15.1578947,0 L21.8947368,0 C22.8244211,0 23.5789474,0.746666667 23.5789474,1.66666667 L23.5789474,18.3333333 C23.5789474,19.2533333 22.8244211,20 21.8947368,20 Z M16.8421053,16.6666667 L20.2105263,16.6666667 L20.2105263,3.33333333 L16.8421053,3.33333333 L16.8421053,16.6666667 Z" id="Shape"></path>
                                <path d="M62.3157895,20 L55.5789474,20 C54.6492632,20 53.8947368,19.2533333 53.8947368,18.3333333 C53.8947368,17.4133333 54.6492632,16.6666667 55.5789474,16.6666667 L62.3157895,16.6666667 C63.2454737,16.6666667 64,17.4133333 64,18.3333333 C64,19.2533333 63.2454737,20 62.3157895,20 Z" id="Path"></path>
                                <path d="M48.8421053,20 L42.1052632,20 C41.1755789,20 40.4210526,19.2533333 40.4210526,18.3333333 C40.4210526,17.4133333 41.1755789,16.6666667 42.1052632,16.6666667 L48.8421053,16.6666667 C49.7717895,16.6666667 50.5263158,17.4133333 50.5263158,18.3333333 C50.5263158,19.2533333 49.7717895,20 48.8421053,20 Z" id="Path"></path>
                                <path d="M35.3684211,20 L28.6315789,20 C27.7018947,20 26.9473684,19.2533333 26.9473684,18.3333333 C26.9473684,17.4133333 27.7018947,16.6666667 28.6315789,16.6666667 L35.3684211,16.6666667 C36.2981053,16.6666667 37.0526316,17.4133333 37.0526316,18.3333333 C37.0526316,19.2533333 36.2981053,20 35.3684211,20 Z" id="Path"></path>
                            </g>
                            <g id="orbit" transform="translate(165.000000, 17.000000)" fill="#005450" fill-rule="nonzero">
                                <path d="M29.4,47.272 C28.1168,47.272 26.9104,46.7728 26.0048,45.8704 L17.7296,37.5952 C16.824,36.6896 16.328,35.4864 16.328,34.2 C16.328,32.9136 16.8272,31.7104 17.7296,30.8048 L32.4048,16.1296 C33.3104,15.224 34.5136,14.728 35.8,14.728 C37.0864,14.728 38.2896,15.2272 39.1952,16.1296 L47.4704,24.4048 C49.3424,26.2768 49.3424,29.32 47.4704,31.192 L32.7952,45.8672 C31.8896,46.7728 30.6864,47.2688 29.4,47.2688 L29.4,47.272 Z M35.8,17.928 C35.3712,17.928 34.968,18.0944 34.6672,18.392 L19.992,33.0672 C19.6912,33.368 19.528,33.768 19.528,34.2 C19.528,34.632 19.6944,35.032 19.992,35.3296 L28.2672,43.6048 C28.568,43.9056 28.968,44.0688 29.4,44.0688 C29.832,44.0688 30.232,43.9024 30.5328,43.6048 L45.208,28.9296 C45.832,28.3056 45.832,27.2912 45.208,26.6672 L36.9328,18.392 C36.632,18.0912 36.232,17.928 35.8,17.928 Z" id="Shape"></path>
                                <path d="M16.6,29.4 C16.1904,29.4 15.7808,29.2432 15.4672,28.9328 L2.6672,16.1328 C2.0432,15.5088 2.0432,14.4944 2.6672,13.8704 L15.4672,1.0704 C16.0912,0.4464 17.1056,0.4464 17.7296,1.0704 L30.5296,13.8704 C31.1536,14.4944 31.1536,15.5088 30.5296,16.1328 C29.9056,16.7568 28.8912,16.7568 28.2672,16.1328 L16.6,4.4656 L6.0624,15.0032 L17.7296,26.6704 C18.3536,27.2944 18.3536,28.3088 17.7296,28.9328 C17.416,29.2464 17.0064,29.4 16.5968,29.4 L16.6,29.4 Z" id="Path"></path>
                                <path d="M48.6,61.4 C48.1904,61.4 47.7808,61.2432 47.4672,60.9328 L34.6672,48.1328 C34.0432,47.5088 34.0432,46.4944 34.6672,45.8704 C35.2912,45.2464 36.3056,45.2464 36.9296,45.8704 L48.5968,57.5376 L59.1344,47 L47.4672,35.3328 C46.8432,34.7088 46.8432,33.6944 47.4672,33.0704 C48.0912,32.4464 49.1056,32.4464 49.7296,33.0704 L62.5296,45.8704 C63.1536,46.4944 63.1536,47.5088 62.5296,48.1328 L49.7296,60.9328 C49.416,61.2464 49.0064,61.4 48.5968,61.4 L48.6,61.4 Z" id="Path"></path>
                                <path d="M53.4,21.4 L48.6,21.4 C47.7168,21.4 47,20.6832 47,19.8 C47,18.9168 47.7168,18.2 48.6,18.2 L52.7376,18.2 L43.8,9.2624 L43.8,13.4 C43.8,14.2832 43.0832,15 42.2,15 C41.3168,15 40.6,14.2832 40.6,13.4 L40.6,8.6 C40.6,6.4432 41.7552,5.7328 42.2512,5.528 C42.7472,5.3232 44.0688,5.0064 45.592,6.5328 L55.4672,16.408 C56.9904,17.9344 56.6768,19.2528 56.472,19.7488 C56.2672,20.2448 55.5536,21.4 53.4,21.4 Z" id="Path"></path>
                                <path d="M21.4,50.2 C20.9904,50.2 20.5808,50.0432 20.2672,49.7328 L13.8672,43.3328 C13.2432,42.7088 13.2432,41.6944 13.8672,41.0704 C14.4912,40.4464 15.5056,40.4464 16.1296,41.0704 L22.5296,47.4704 C23.1536,48.0944 23.1536,49.1088 22.5296,49.7328 C22.216,50.0464 21.8064,50.2 21.3968,50.2 L21.4,50.2 Z" id="Path"></path>
                                <path d="M18.2,56.6 C17.7904,56.6 17.3808,56.4432 17.0672,56.1328 L7.4672,46.5328 C6.8432,45.9088 6.8432,44.8944 7.4672,44.2704 C8.0912,43.6464 9.1056,43.6464 9.7296,44.2704 L19.3296,53.8704 C19.9536,54.4944 19.9536,55.5088 19.3296,56.1328 C19.016,56.4464 18.6064,56.6 18.1968,56.6 L18.2,56.6 Z" id="Path"></path>
                                <path d="M15,63 C14.5904,63 14.1808,62.8432 13.8672,62.5328 L1.0672,49.7328 C0.4432,49.1088 0.4432,48.0944 1.0672,47.4704 C1.6912,46.8464 2.7056,46.8464 3.3296,47.4704 L16.1296,60.2704 C16.7536,60.8944 16.7536,61.9088 16.1296,62.5328 C15.816,62.8464 15.4064,63 14.9968,63 L15,63 Z" id="Path"></path>
                            </g>
                            <g id="satellite" transform="translate(22.000000, 161.000000)" fill="#005450" fill-rule="nonzero">
                                <path d="M16.6703097,57.5308824 C16.4429872,57.5308824 16.2126339,57.4794074 15.9944044,57.3704015 C15.2457559,56.9979647 14.9426594,56.0865544 15.3154681,55.3386529 L21.3773989,43.2268882 C21.7502077,42.4789868 22.6625282,42.1761926 23.4111767,42.5486294 C24.1598251,42.9210662 24.4629217,43.8324765 24.0901129,44.5803779 L18.0281821,56.6921426 C17.7614572,57.2220324 17.2280073,57.5308824 16.6703097,57.5308824 Z" id="Path"></path>
                                <path d="M1.5154827,51.475 C1.22754098,51.475 0.933537341,51.3932456 0.675905282,51.2206529 C-0.0212167577,50.7573779 -0.209136612,49.8156882 0.254601093,49.1222897 L6.31653188,40.0384662 C6.78026958,39.3420397 7.72289982,39.1543074 8.41699089,39.6175824 C9.11108197,40.0808574 9.30203279,41.0225471 8.83829508,41.7159456 L2.7763643,50.7997691 C2.48539162,51.2388206 2.00346812,51.475 1.51245173,51.475 L1.5154827,51.475 Z" id="Path"></path>
                                <path d="M51.5264117,4.54191176 C51.5264117,2.03780441 49.4865719,0 46.9799636,0 C44.5460984,0 42.5547541,1.91971471 42.4395774,4.32087206 L16.2338506,12.1753515 C15.4336758,12.4145588 14.976,13.2593544 15.2184772,14.0617588 C15.41549,14.7188221 16.0186521,15.1397059 16.6703097,15.1397059 C16.815796,15.1397059 16.9612823,15.1185103 17.1067687,15.0761191 L43.3124954,7.22163971 C43.3215883,7.23677941 43.3337122,7.24889118 43.3428051,7.26403088 L27.5332896,30.9546426 C27.0695519,31.6510691 27.2574718,32.5897309 27.9545938,33.0530059 C28.2122259,33.2255985 28.5062295,33.3073529 28.7941712,33.3073529 C29.2851876,33.3073529 29.7640801,33.0711735 30.0550528,32.6321221 L43.7398616,12.1238765 L39.4389217,31.4633368 C39.2570638,32.2808809 39.7723279,33.0893412 40.5906885,33.2710176 C40.7028342,33.2952412 40.811949,33.3073529 40.9210638,33.3073529 C41.6151548,33.3073529 42.2425647,32.8259103 42.4001749,32.1204 L47.5315993,9.04748824 C49.7805756,8.77497353 51.5294426,6.85828676 51.5294426,4.53888382 L51.5264117,4.54191176 Z M46.9799636,6.05588235 C46.1434171,6.05588235 45.4644809,5.37762353 45.4644809,4.54191176 C45.4644809,3.7062 46.1434171,3.02794118 46.9799636,3.02794118 C47.81651,3.02794118 48.4954463,3.7062 48.4954463,4.54191176 C48.4954463,5.37762353 47.81651,6.05588235 46.9799636,6.05588235 Z" id="Shape"></path>
                                <path d="M32.2131002,13.6257353 C32.755643,14.1192897 33.2981858,14.6219279 33.8407286,15.1397059 L32.2131002,13.6257353 Z" id="Path"></path>
                                <path d="M33.8376976,16.6536765 C33.4618579,16.6536765 33.0829872,16.5143912 32.7889836,16.2327926 C32.2646266,15.7301544 31.7251148,15.2305441 31.1916648,14.7460735 C30.5703169,14.1859044 30.5248525,13.2260471 31.0855811,12.6083471 C31.6463097,11.9906471 32.6071257,11.9422 33.2254426,12.5023691 C33.7801093,13.0050074 34.3378069,13.5227853 34.8833807,14.0435912 C35.4865428,14.6219279 35.5077596,15.5787574 34.9288452,16.1843456 C34.6318106,16.4962235 34.2317231,16.6506485 33.8346667,16.6506485 L33.8376976,16.6536765 Z" id="Path"></path>
                                <path d="M48.256,31.0848441 C47.8650055,30.3460265 46.946623,30.0644279 46.2070674,30.4580603 C45.4675118,30.8516926 45.1856321,31.7661309 45.5796576,32.5049485 C48.5409107,38.0793882 49.2774353,42.6455235 47.4982587,44.422925 C45.9312495,45.9883706 42.1667905,45.6159338 37.4263607,43.4297603 C32.0827687,40.9680441 26.0784262,36.5502779 20.5196357,30.9940059 C14.9608452,25.4377338 10.5386667,19.4393824 8.07146084,14.10415 C5.88310383,9.36845 5.51332605,5.60774706 7.07730419,4.04230147 C8.3109071,2.80992941 10.6114098,2.98555 12.3239053,3.35193088 C15.0457122,3.93329559 18.3646193,5.41698676 21.9260036,7.65160735 C22.6352495,8.09671471 23.5718179,7.88173088 24.0143388,7.17319265 C24.4568597,6.46465441 24.2446922,5.52902059 23.5354463,5.08694118 C19.6770273,2.66761618 16.0186521,1.04463971 12.9543461,0.393632353 C8.52004372,-0.551085294 6.14376685,0.693398529 4.93138069,1.904575 C2.82485974,4.00899412 1.38212022,6.68266618 0.639533698,9.85594853 C-0.0636502732,12.8657221 -0.103052823,16.1692059 0.527387978,19.6755618 C1.81554827,26.86995 5.74974135,34.0522265 11.6025355,39.8991809 C12.9270674,41.2223912 14.3394973,42.4638471 15.8034536,43.5902412 C16.0792714,43.8021971 16.4035847,43.9051471 16.727898,43.9051471 C17.1825428,43.9051471 17.6311257,43.702275 17.9281603,43.3146985 C18.4403934,42.6515794 18.3161239,41.7008059 17.6523424,41.1921118 C16.291439,40.1444441 14.976,38.9877706 13.7454281,37.7584265 C8.32606193,32.3444676 4.69193443,25.7314441 3.50985792,19.1426441 C2.95822222,16.0723118 2.99762477,13.1776 3.58563206,10.6250456 C3.9584408,12.096625 4.53432423,13.6832662 5.3163133,15.3728574 C7.92900546,21.0260235 12.5633515,27.333225 18.3737122,33.1377882 C24.1840729,38.9423515 30.4975738,43.5720735 36.1563862,46.1821588 C37.8719126,46.9724515 39.4843862,47.5568441 40.9725902,47.9262529 C37.1596357,48.8194956 32.5919709,48.4531147 27.7818288,46.7635235 C26.9907468,46.4849529 26.1269217,46.8997809 25.8480729,47.6900735 C25.569224,48.4803662 25.9844663,49.3433294 26.7755483,49.6219 C28.5607869,50.2486838 30.3460255,50.7119588 32.1009545,51.0086971 L33.3800219,56.3711809 C33.546725,57.0676074 34.1680729,57.5339103 34.853071,57.5339103 C34.9682477,57.5339103 35.0864554,57.5217985 35.204663,57.4915191 C36.0199927,57.2977309 36.520102,56.4801868 36.3261202,55.6686985 L35.3016539,51.3690221 C35.7653916,51.3932456 36.2230674,51.4083853 36.6777122,51.4083853 C37.6051876,51.4083853 38.5144772,51.3569103 39.4025501,51.2509324 C43.5186011,50.7634338 47.0587687,49.1434853 49.6381202,46.5667074 C52.5205683,43.6871353 52.0295519,38.1883941 48.252969,31.0878721 L48.256,31.0848441 Z" id="Path"></path>
                            </g>
                            <g id="globe" transform="translate(91.000000, 88.000000)" fill="#005450" fill-rule="nonzero">
                                <path d="M54.6272,9.3728 C48.5824,3.328 40.5472,0 32,0 C23.4528,0 15.4176,3.328 9.3728,9.3728 C3.328,15.4176 0,23.4528 0,32 C0,40.5472 3.328,48.5824 9.3728,54.6272 C15.4176,60.672 23.4528,64 32,64 C40.5472,64 48.5824,60.672 54.6272,54.6272 C60.672,48.5824 64,40.5472 64,32 C64,23.4528 60.672,15.4176 54.6272,9.3728 Z M58.8704,21.6352 C58.2464,20.512 56.6784,19.9776 54.6304,19.28 C52.432,18.5312 51.6544,16.272 50.7552,13.6544 C49.9744,11.3824 49.168,9.0368 47.2512,7.5776 C52.496,10.864 56.608,15.792 58.8704,21.6352 Z M49.8912,32.6112 C50.1344,34.7776 50.384,37.0208 47.6928,40.0416 C46.9664,40.8576 46.5408,41.9936 46.0896,43.1968 C45.0464,45.984 44.0608,48.6176 39.8624,48.656 C39.744,48.5152 39.4112,47.984 39.1136,46.3104 C38.8416,44.768 38.6848,42.7712 38.5152,40.6624 C38.2592,37.424 37.968,33.7504 37.168,30.704 C36.144,26.8096 34.4256,24.5088 31.9168,23.6704 C30.8224,23.3056 29.7024,23.1264 28.4992,23.1264 C27.6096,23.1264 26.8032,23.2224 26.0928,23.3056 C25.5392,23.3696 25.0144,23.4336 24.5728,23.4336 C24.5728,23.4336 24.5728,23.4336 24.5728,23.4336 C23.824,23.4336 22.976,23.4336 21.9296,21.04 C20.4288,17.6 21.536,12.0864 25.9424,9.1776 C28.3584,7.584 30.0256,6.9024 31.5168,6.9024 C32.7072,6.9024 33.9904,7.3152 35.8112,8.288 C37.9616,9.4336 39.648,9.5808 40.8768,9.5808 C41.3632,9.5808 41.8048,9.5552 42.2304,9.5296 C42.5888,9.5072 42.9248,9.488 43.2384,9.488 C43.9424,9.488 44.512,9.5808 45.1808,10.0352 C46.4128,10.8768 47.0528,12.736 47.728,14.7008 C48.752,17.6832 49.9136,21.0624 53.6,22.3168 C54.096,22.4864 54.9472,22.7744 55.552,23.0272 C55.0304,23.5648 54.16,24.3424 53.3056,25.104 C52.7552,25.5968 52.1312,26.1536 51.44,26.784 C49.4432,28.6048 49.68,30.736 49.8912,32.6144 L49.8912,32.6112 Z M3.2032,31.7536 C3.5488,31.8144 3.92,31.888 4.304,31.968 C6.1024,32.352 6.944,32.6976 7.312,32.8928 C7.1424,33.2224 6.8,33.7088 6.5728,34.0288 C5.7824,35.152 4.7968,36.5504 5.1712,38.0896 C5.424,39.1296 5.2096,40.4032 4.8416,41.5808 C3.7792,38.5792 3.2,35.3536 3.2,31.9936 C3.2,31.9104 3.2032,31.8304 3.2032,31.7472 L3.2032,31.7536 Z M32,60.8 C21.04,60.8 11.488,54.6432 6.624,45.6096 C7.4624,44.0128 9.0176,40.48 8.2912,37.3888 C8.3424,37.0784 8.8704,36.3296 9.1872,35.8784 C10.0544,34.6464 11.1328,33.1168 10.3328,31.4944 C9.7728,30.3552 8.272,29.5872 5.3216,28.9216 C4.6368,28.768 3.9712,28.6432 3.4048,28.544 C5.12,14.288 17.2864,3.2032 31.9968,3.2032 C37.0464,3.2032 41.7952,4.512 45.9232,6.8032 C44.9024,6.3584 43.9776,6.288 43.2352,6.288 C42.8288,6.288 42.4256,6.3104 42.0352,6.336 C41.6544,6.3584 41.2608,6.3808 40.8704,6.3808 C39.9616,6.3808 38.8288,6.272 37.312,5.4624 C34.9952,4.2304 33.2608,3.7024 31.5136,3.7024 C29.3504,3.7024 27.1552,4.5408 24.176,6.5056 C21.6,8.2048 19.6608,10.8032 18.7136,13.8272 C17.7888,16.7744 17.888,19.792 18.992,22.32 C20.2944,25.3024 22.0128,26.6336 24.5664,26.6336 C24.5664,26.6336 24.5664,26.6336 24.5664,26.6336 C25.1968,26.6336 25.8112,26.56 26.4608,26.4832 C27.1168,26.4064 27.792,26.3264 28.4928,26.3264 C29.36,26.3264 30.1248,26.448 30.896,26.704 C32.3008,27.1744 33.3376,28.7488 34.0672,31.5168 C34.7968,34.2848 35.072,37.808 35.3184,40.912 C35.5232,43.504 35.7152,45.9488 36.1408,47.7952 C36.4,48.9152 36.7328,49.7664 37.1648,50.3968 C37.808,51.3376 38.7296,51.856 39.76,51.856 C42.5888,51.856 44.848,50.944 46.4768,49.1456 C47.8304,47.6512 48.5216,45.8048 49.0784,44.32 C49.4048,43.4464 49.744,42.5408 50.0736,42.1696 C53.712,38.0832 53.3376,34.7168 53.0624,32.256 C52.8608,30.4512 52.8576,29.8112 53.5872,29.1456 C54.2656,28.528 54.8832,27.9744 55.4272,27.488 C56.5888,26.4512 57.4272,25.7024 58.016,25.0624 C58.4192,24.6208 59.3664,23.5872 59.104,22.2944 C59.1008,22.2816 59.0976,22.272 59.0976,22.2592 C60.1952,25.3024 60.7936,28.5824 60.7936,32 C60.7936,47.8816 47.8752,60.8 31.9936,60.8 L32,60.8 Z" id="Shape"></path>
                            </g>
                        </g>
                    </g>
                </g>
            </g>
        </g>
    </g>
</svg>