<?xml version="1.0" encoding="UTF-8"?>
<svg width="62px" height="55px" viewBox="0 0 62 55" version="1.1" xmlns="http://www.w3.org/2000/svg" xmlns:xlink="http://www.w3.org/1999/xlink">
    <!-- Generator: Sketch 58 (84663) - https://sketch.com -->
    <title>0489-heart-pulse</title>
    <desc>Created with Sketch.</desc>
    <g id="Page-1" stroke="none" stroke-width="1" fill="none" fill-rule="evenodd">
        <g id="Artboard" transform="translate(-1207.000000, -646.000000)" fill="#005450" fill-rule="nonzero">
            <g id="0489-heart-pulse" transform="translate(1207.000000, 646.000000)">
                <path d="M30.7352941,55 C30.4635294,55 30.195,54.9320588 29.9491176,54.7961765 C29.5738235,54.5858824 20.6411765,49.5841176 12.5788235,41.5897059 C11.9447059,40.9620588 11.9414706,39.9364706 12.5691176,39.3023529 C13.1967647,38.6682353 14.2223529,38.665 14.8564706,39.2926471 C21.2591176,45.6402941 28.3994118,50.1179412 30.7352941,51.5091176 C33.0744118,50.1147059 40.2211765,45.6305882 46.6141176,39.2926471 C47.2482353,38.665 48.2738235,38.6682353 48.9014706,39.3023529 C49.5291176,39.9364706 49.5258824,40.9620588 48.8917647,41.5897059 C40.8261765,49.5841176 31.8967647,54.5858824 31.5214706,54.7961765 C31.2755882,54.9320588 31.0070588,55 30.7352941,55 Z" id="Path"></path>
                <path d="M4.13794118,29.1176471 C3.52970588,29.1176471 2.94735294,28.7747059 2.67235294,28.1891176 C0.899411765,24.42 0,20.6508824 0,16.9852941 C0,7.61911765 7.61911765,-8.8817842e-16 16.9852941,-8.8817842e-16 C20.1558824,-8.8817842e-16 23.5238235,1.18735294 26.4679412,3.34529412 C28.1891176,4.60705882 29.6547059,6.12764706 30.7352941,7.74205882 C31.8158824,6.12764706 33.2814706,4.60705882 35.0026471,3.34529412 C37.9467647,1.18735294 41.3147059,-8.8817842e-16 44.4852941,-8.8817842e-16 C53.8514706,-8.8817842e-16 61.4705882,7.61911765 61.4705882,16.9852941 C61.4705882,20.6508824 60.5711765,24.42 58.7982353,28.1891176 C58.4164706,28.9979412 57.4555882,29.3441176 56.6467647,28.9655882 C55.8379412,28.5870588 55.4917647,27.6229412 55.8702941,26.8141176 C57.4394118,23.4785294 58.2352941,20.1720588 58.2352941,16.9885294 C58.2352941,9.40823529 52.0655882,3.23852941 44.4852941,3.23852941 C38.9755882,3.23852941 33.6244118,7.77117647 32.2688235,11.8379412 C32.0488235,12.4979412 31.4308824,12.9444118 30.7352941,12.9444118 C30.0397059,12.9444118 29.4217647,12.4979412 29.2017647,11.8379412 C27.8461765,7.77117647 22.495,3.23852941 16.9852941,3.23852941 C9.405,3.23852941 3.23529412,9.40823529 3.23529412,16.9885294 C3.23529412,20.1720588 4.03117647,23.4785294 5.60029412,26.8141176 C5.98205882,27.6229412 5.63264706,28.5870588 4.82382353,28.9655882 C4.60058824,29.0691176 4.36764706,29.1208824 4.13794118,29.1208824 L4.13794118,29.1176471 Z" id="Path"></path>
                <path d="M34.0191176,42.0588235 C34.0029412,42.0588235 33.99,42.0588235 33.9770588,42.0588235 C33.3235294,42.0458824 32.1361765,41.7061765 31.5408824,39.5805882 L27.6035294,25.5588235 L24.9926471,36.1673529 C24.4814706,38.2476471 23.2941176,38.6844118 22.6308824,38.7555882 C21.9676471,38.8267647 20.7155882,38.6682353 19.7547059,36.7497059 L17.7941176,32.8317647 C17.7002941,32.6441176 17.6129412,32.5276471 17.5482353,32.4532353 C17.5385294,32.4661765 17.5255882,32.4823529 17.5126471,32.5017647 C16.3155882,34.2585294 13.6561765,35.585 11.3235294,35.585 L8.08823529,35.585 C7.19529412,35.585 6.47058824,34.8602941 6.47058824,33.9673529 C6.47058824,33.0744118 7.19529412,32.3497059 8.08823529,32.3497059 L11.3235294,32.3497059 C12.6855882,32.3497059 14.3032353,31.4697059 14.8402941,30.6802941 C15.5617647,29.6223529 16.61,29.0594118 17.7229412,29.1338235 C18.9329412,29.2147059 20.0135294,30.0364706 20.6897059,31.3855882 L22.1294118,34.265 L25.1576471,21.9611765 C25.6688235,19.8905882 26.7170588,19.4408824 27.5064706,19.4279412 C28.2958824,19.415 29.3570588,19.8323529 29.9361765,21.8867647 L34.0902941,36.6914706 L37.9014706,25.0185294 C38.5647059,22.9867647 39.7844118,22.6373529 40.4508824,22.6082353 C41.1173529,22.5791176 42.3597059,22.8282353 43.1911765,24.7985294 L45.5335294,30.36 C45.9735294,31.4017647 47.4035294,32.3529412 48.5326471,32.3529412 L53.3855882,32.3529412 C54.2785294,32.3529412 55.0032353,33.0776471 55.0032353,33.9705882 C55.0032353,34.8635294 54.2785294,35.5882353 53.3855882,35.5882353 L48.5326471,35.5882353 C46.1158824,35.5882353 43.4888235,33.8444118 42.5505882,31.6152941 L40.6352941,27.0664706 L36.5135294,39.6841176 C35.8438235,41.7352941 34.6823529,42.0555882 34.0191176,42.0555882 L34.0191176,42.0588235 Z" id="Path"></path>
            </g>
        </g>
    </g>
</svg>