<?xml version="1.0" encoding="UTF-8"?>
<svg width="247px" height="240px" viewBox="0 0 247 240" version="1.1" xmlns="http://www.w3.org/2000/svg" xmlns:xlink="http://www.w3.org/1999/xlink">
    <!-- Generator: Sketch 53 (72520) - https://sketchapp.com -->
    <title>bridges copy</title>
    <desc>Created with Sketch.</desc>
    <g id="Page-1" stroke="none" stroke-width="1" fill="none" fill-rule="evenodd">
        <g id="Artboard" transform="translate(-1859.000000, -6044.000000)">
            <g id="Group-5-Copy-3" transform="translate(708.000000, 242.000000)">
                <g id="Stacked-Group-2" transform="translate(250.000000, 3404.000000)">
                    <g id="Group-7-Copy" transform="translate(0.000000, 2383.000000)">
                        <g id="bridges-copy" transform="translate(901.000000, 15.000000)">
                            <rect id="background" fill="#FFFFFF" x="0" y="0" width="246.233766" height="240" rx="15"></rect>
                            <g id="communication" transform="translate(90.000000, 28.000000)" fill="#005450" fill-rule="nonzero">
                                <path d="M13.8496,28.0890909 C13.44,28.0890909 13.0304,27.9331818 12.7168,27.6245455 C12.0928,27.0040909 12.0928,25.9954545 12.7168,25.375 C14.832,23.2718182 15.9968,20.475 15.9968,17.5 C15.9968,14.525 14.832,11.7281818 12.7168,9.625 C12.0928,9.00454545 12.0928,7.99590909 12.7168,7.37545455 C13.3408,6.755 14.3552,6.755 14.9792,7.37545455 C17.6992,10.08 19.1968,13.6754545 19.1968,17.5 C19.1968,21.3245455 17.6992,24.92 14.9792,27.6245455 C14.6656,27.9363636 14.256,28.0890909 13.8464,28.0890909 L13.8496,28.0890909 Z" id="Path"></path>
                                <path d="M20.64,34.8409091 C20.2304,34.8409091 19.8208,34.685 19.5072,34.3763636 C18.8832,33.7559091 18.8832,32.7472727 19.5072,32.1268182 C23.4368,28.2195455 25.6,23.0268182 25.6,17.5031818 C25.6,11.9795455 23.4368,6.78363636 19.5072,2.87954545 C18.8832,2.25909091 18.8832,1.25045455 19.5072,0.63 C20.1312,0.00954545455 21.1456,0.00954545455 21.7696,0.63 C26.304,5.13863636 28.8,11.13 28.8,17.5031818 C28.8,23.8763636 26.304,29.8709091 21.7696,34.3763636 C21.456,34.6881818 21.0464,34.8409091 20.6368,34.8409091 L20.64,34.8409091 Z" id="Path"></path>
                                <path d="M50.1504,28.0890909 C49.7408,28.0890909 49.3312,27.9331818 49.0176,27.6245455 C46.2976,24.92 44.8,21.3245455 44.8,17.5 C44.8,13.6754545 46.2976,10.08 49.0176,7.37545455 C49.6416,6.755 50.656,6.755 51.28,7.37545455 C51.904,7.99590909 51.904,9.00454545 51.28,9.625 C49.1648,11.7281818 48,14.525 48,17.5 C48,20.475 49.1648,23.2718182 51.28,25.375 C51.904,25.9954545 51.904,27.0040909 51.28,27.6245455 C50.9664,27.9363636 50.5568,28.0890909 50.1472,28.0890909 L50.1504,28.0890909 Z" id="Path"></path>
                                <path d="M43.36,34.8409091 C42.9504,34.8409091 42.5408,34.685 42.2272,34.3763636 C37.6928,29.8677273 35.1968,23.8763636 35.1968,17.5031818 C35.1968,11.13 37.6928,5.13545455 42.2272,0.63 C42.8512,0.00954545455 43.8656,0.00954545455 44.4896,0.63 C45.1136,1.25045455 45.1136,2.25909091 44.4896,2.87954545 C40.56,6.78681818 38.3968,11.9795455 38.3968,17.5031818 C38.3968,23.0268182 40.56,28.2195455 44.4896,32.1268182 C45.1136,32.7472727 45.1136,33.7559091 44.4896,34.3763636 C44.176,34.6881818 43.7664,34.8409091 43.3568,34.8409091 L43.36,34.8409091 Z" id="Path"></path>
                                <path d="M4.8,22.2727273 C2.1536,22.2727273 0,20.1313636 0,17.5 C0,14.8686364 2.1536,12.7272727 4.8,12.7272727 C7.4464,12.7272727 9.6,14.8686364 9.6,17.5 C9.6,20.1313636 7.4464,22.2727273 4.8,22.2727273 Z M4.8,15.9090909 C3.9168,15.9090909 3.2,16.6218182 3.2,17.5 C3.2,18.3781818 3.9168,19.0909091 4.8,19.0909091 C5.6832,19.0909091 6.4,18.3781818 6.4,17.5 C6.4,16.6218182 5.6832,15.9090909 4.8,15.9090909 Z" id="Shape"></path>
                                <path d="M59.2,22.2727273 C56.5536,22.2727273 54.4,20.1313636 54.4,17.5 C54.4,14.8686364 56.5536,12.7272727 59.2,12.7272727 C61.8464,12.7272727 64,14.8686364 64,17.5 C64,20.1313636 61.8464,22.2727273 59.2,22.2727273 Z M59.2,15.9090909 C58.3168,15.9090909 57.6,16.6218182 57.6,17.5 C57.6,18.3781818 58.3168,19.0909091 59.2,19.0909091 C60.0832,19.0909091 60.8,18.3781818 60.8,17.5 C60.8,16.6218182 60.0832,15.9090909 59.2,15.9090909 Z" id="Shape"></path>
                            </g>
                            <g id="chat-text" transform="translate(168.000000, 90.000000)" fill="#005450" fill-rule="nonzero">
                                <path d="M1.68421053,60.6315789 C0.926315789,60.6315789 0.262736842,60.1263158 0.0606315789,59.3953684 C-0.141473684,58.6644211 0.168421053,57.8896842 0.818526316,57.5023158 C6.51452632,54.0867368 8.87578947,49.1183158 9.71452632,46.7941053 C3.52336842,42.0547368 -2.40747092e-15,35.4964211 -2.40747092e-15,28.6315789 C-2.40747092e-15,25.1654737 0.869052632,21.8071579 2.58694737,18.6475789 C4.224,15.6362105 6.56168421,12.9381053 9.52926316,10.6273684 C15.5486316,5.94526316 23.5284211,3.36505263 32,3.36505263 C40.4715789,3.36505263 48.4513684,5.94526316 54.4707368,10.6273684 C57.4383158,12.9347368 59.776,15.6328421 61.4130526,18.6475789 C63.1309474,21.8037895 64,25.1621053 64,28.6315789 C64,32.1010526 63.1309474,35.456 61.4130526,38.6155789 C59.776,41.6269474 57.4383158,44.3250526 54.4707368,46.6357895 C48.4513684,51.3178947 40.4715789,53.8981053 32,53.8981053 C28.5204211,53.8981053 25.1048421,53.4635789 21.8408421,52.6012632 C20.3957895,53.5646316 17.6943158,55.2724211 14.4673684,56.8791579 C9.45515789,59.3717895 5.15705263,60.6349474 1.68757895,60.6349474 L1.68421053,60.6315789 Z M32,6.73684211 C16.2122105,6.73684211 3.36842105,16.5591579 3.36842105,28.6315789 C3.36842105,34.7452632 6.75368421,40.6298947 12.6517895,44.7730526 C13.2311579,45.1806316 13.4938947,45.9048421 13.312,46.5886316 C12.9178947,48.0572632 11.5772632,52.0892632 7.98989474,55.9797895 C12.3755789,54.4437895 17.0981053,51.7793684 20.5844211,49.3810526 C20.9987368,49.0947368 21.5174737,49.0105263 22.0025263,49.1486316 C25.1957895,50.0614737 28.5608421,50.5263158 32,50.5263158 C47.7877895,50.5263158 60.6315789,40.704 60.6315789,28.6315789 C60.6315789,16.5591579 47.7877895,6.73684211 32,6.73684211 Z" id="Shape"></path>
                                <path d="M45.4736842,20.2105263 L18.5263158,20.2105263 C17.5966316,20.2105263 16.8421053,19.456 16.8421053,18.5263158 C16.8421053,17.5966316 17.5966316,16.8421053 18.5263158,16.8421053 L45.4736842,16.8421053 C46.4033684,16.8421053 47.1578947,17.5966316 47.1578947,18.5263158 C47.1578947,19.456 46.4033684,20.2105263 45.4736842,20.2105263 Z" id="Path"></path>
                                <path d="M45.4736842,26.9473684 L18.5263158,26.9473684 C17.5966316,26.9473684 16.8421053,26.1928421 16.8421053,25.2631579 C16.8421053,24.3334737 17.5966316,23.5789474 18.5263158,23.5789474 L45.4736842,23.5789474 C46.4033684,23.5789474 47.1578947,24.3334737 47.1578947,25.2631579 C47.1578947,26.1928421 46.4033684,26.9473684 45.4736842,26.9473684 Z" id="Path"></path>
                                <path d="M45.4736842,33.6842105 L18.5263158,33.6842105 C17.5966316,33.6842105 16.8421053,32.9296842 16.8421053,32 C16.8421053,31.0703158 17.5966316,30.3157895 18.5263158,30.3157895 L45.4736842,30.3157895 C46.4033684,30.3157895 47.1578947,31.0703158 47.1578947,32 C47.1578947,32.9296842 46.4033684,33.6842105 45.4736842,33.6842105 Z" id="Path"></path>
                                <path d="M38.7368421,40.4210526 L18.5263158,40.4210526 C17.5966316,40.4210526 16.8421053,39.6665263 16.8421053,38.7368421 C16.8421053,37.8071579 17.5966316,37.0526316 18.5263158,37.0526316 L38.7368421,37.0526316 C39.6665263,37.0526316 40.4210526,37.8071579 40.4210526,38.7368421 C40.4210526,39.6665263 39.6665263,40.4210526 38.7368421,40.4210526 Z" id="Path"></path>
                            </g>
                            <g id="sync" transform="translate(92.000000, 164.000000)" fill="#005450" fill-rule="nonzero">
                                <path d="M60.5074286,20.353375 C59.9131429,19.7561875 58.9470476,19.7561875 58.3527619,20.353375 L54.8510476,23.8721875 C54.695619,17.5634375 52.1752381,11.6528125 47.7165714,7.1754375 C43.111619,2.548 36.9889524,1.77635684e-15 30.4761905,1.77635684e-15 C21.4125714,1.77635684e-15 13.1474286,5.0071875 8.90819048,13.064625 C8.51504762,13.811875 8.79847619,14.7398125 9.54209524,15.134875 C10.2857143,15.5299375 11.2091429,15.245125 11.6022857,14.497875 C15.3112381,7.4449375 22.5432381,3.0625 30.4761905,3.0625 C42.023619,3.0625 51.4590476,12.3326875 51.800381,23.8538125 L48.3169524,20.353375 C47.7226667,19.7561875 46.7565714,19.7561875 46.1622857,20.353375 C45.568,20.9505625 45.568,21.921375 46.1622857,22.5185625 L52.2575238,28.6435625 C52.5561905,28.9436875 52.9462857,29.0906875 53.336381,29.0906875 C53.7264762,29.0906875 54.1165714,28.940625 54.4152381,28.6435625 L60.5104762,22.5185625 C61.1047619,21.921375 61.1047619,20.9505625 60.5104762,20.353375 L60.5074286,20.353375 Z" id="Path"></path>
                                <path d="M51.4102857,33.865125 C50.6666667,33.4700625 49.7432381,33.754875 49.3500952,34.502125 C45.6411429,41.5550625 38.4091429,45.9375 30.4761905,45.9375 C18.9287619,45.9375 9.49333333,36.6673125 9.152,25.1461875 L12.6354286,28.646625 C12.9340952,28.94675 13.3241905,29.09375 13.7142857,29.09375 C14.104381,29.09375 14.4944762,28.9436875 14.7931429,28.646625 C15.3874286,28.0494375 15.3874286,27.078625 14.7931429,26.4814375 L8.69790476,20.3564375 C8.10361905,19.75925 7.13752381,19.75925 6.5432381,20.3564375 L0.448,26.4814375 C-0.146285714,27.078625 -0.146285714,28.0494375 0.448,28.646625 C1.04228571,29.2438125 2.00838095,29.2438125 2.60266667,28.646625 L6.10438095,25.1278125 C6.25980952,31.4365625 8.78019048,37.3471875 13.2388571,41.8245625 C17.8438095,46.452 23.9664762,49 30.4792381,49 C39.5428571,49 47.808,43.9928125 52.0472381,35.935375 C52.440381,35.188125 52.1569524,34.2601875 51.4133333,33.865125 L51.4102857,33.865125 Z" id="Path"></path>
                            </g>
                            <g id="chat" transform="translate(14.000000, 94.000000)" fill="#005450" fill-rule="nonzero">
                                <path d="M63.4032,51.7777778 C63.4032,51.7777778 63.4032,51.7777778 63.4,51.7777778 C59.1088,51.7777778 54.6512,49.0195556 53.0096,47.8917778 C51.208,48.33 49.3264,48.5555556 47.4,48.5555556 C42.8016,48.5555556 38.456,47.2795556 35.1696,44.9595556 C31.7072,42.5203333 29.8,39.2175556 29.8,35.6666667 C29.8,32.1157778 31.7072,28.813 35.1696,26.3737778 C38.4592,24.057 42.8016,22.7777778 47.4,22.7777778 C51.9984,22.7777778 56.344,24.0537778 59.6304,26.3737778 C63.0928,28.813 65,32.1157778 65,35.6666667 C65,38.7728889 63.5248,41.7147778 60.8208,44.0347778 C61.0832,44.7791111 61.9056,46.3773333 64.4848,48.9808889 C64.8016,49.2741111 65,49.6962222 65,50.1666667 C65,51.056 64.2832,51.7777778 63.4,51.7777778 L63.4032,51.7777778 Z M53.3296,44.5342222 C53.6752,44.5342222 54.0144,44.647 54.296,44.8596667 C54.328,44.8822222 56.456,46.4836667 59.1056,47.5727778 C57.3648,45.0111111 57.4096,43.5514444 57.5664,42.9392222 C57.6592,42.588 57.864,42.2786667 58.152,42.0595556 C60.504,40.2808889 61.7968,38.0124444 61.7968,35.6666667 C61.7968,33.1952222 60.376,30.8333333 57.7936,29.0127778 C55.0384,27.0697778 51.3456,26 47.3968,26 C43.448,26 39.7552,27.0697778 37,29.0127778 C34.4176,30.8333333 32.9968,33.1952222 32.9968,35.6666667 C32.9968,38.1381111 34.4176,40.5 37,42.3205556 C39.7552,44.2635556 43.448,45.3333333 47.3968,45.3333333 C49.3008,45.3333333 51.1504,45.0852222 52.8944,44.5922222 C53.0352,44.5535556 53.1824,44.5342222 53.3264,44.5342222 L53.3296,44.5342222 Z" id="Shape"></path>
                                <path d="M2.6,55 C1.88,55 1.2496,54.5166667 1.0576,53.8174444 C0.8656,53.1182222 1.16,52.3771111 1.7776,52.0065556 C7.1888,48.7392222 9.432,43.9864444 10.2288,41.7631111 C4.3472,37.2294444 1,30.9557778 1,24.3888889 C1,21.0732222 1.8256,17.8606667 3.4576,14.8382222 C5.0128,11.9575556 7.2336,9.37655556 10.0528,7.16611111 C15.7712,2.68722222 23.352,0.219 31.4,0.219 C38.6896,0.219 45.7392,2.29411111 51.2464,6.06411111 C56.7984,9.86311111 60.4336,15.1217778 61.4832,20.8702222 C61.6432,21.7466667 61.0672,22.5844444 60.2,22.7455556 C59.3328,22.9066667 58.4976,22.3266667 58.3376,21.4534444 C57.4448,16.5588889 54.2864,12.0413333 49.448,8.72888889 C44.4656,5.31977778 38.056,3.44122222 31.4,3.44122222 C16.4016,3.44122222 4.2,12.8372222 4.2,24.3856667 C4.2,30.234 7.416,35.8632222 13.0192,39.8265556 C13.5696,40.2164444 13.8192,40.9092222 13.6464,41.5633333 C13.272,42.9682222 11.9984,46.8252222 8.5904,50.5468889 C12.7568,49.0775556 17.2432,46.5287778 20.5552,44.2345556 C20.9488,43.9606667 21.4416,43.8801111 21.9024,44.0122222 C24.936,44.8854444 28.1328,45.3301111 31.4,45.3301111 C32.2832,45.3301111 33,46.0518889 33,46.9412222 C33,47.8305556 32.2832,48.5523333 31.4,48.5523333 C28.0944,48.5523333 24.8496,48.1366667 21.7488,47.3117778 C20.376,48.2333333 17.8096,49.867 14.744,51.404 C9.9824,53.7884444 5.8992,54.9967778 2.6032,54.9967778 L2.6,55 Z" id="Path"></path>
                            </g>
                        </g>
                    </g>
                </g>
            </g>
        </g>
    </g>
</svg>