<?xml version="1.0" encoding="UTF-8"?>
<svg width="247px" height="240px" viewBox="0 0 247 240" version="1.1" xmlns="http://www.w3.org/2000/svg" xmlns:xlink="http://www.w3.org/1999/xlink">
    <!-- Generator: Sketch 53 (72520) - https://sketchapp.com -->
    <title>support copy</title>
    <desc>Created with Sketch.</desc>
    <g id="Page-1" stroke="none" stroke-width="1" fill="none" fill-rule="evenodd">
        <g id="Artboard" transform="translate(-1860.000000, -5259.000000)">
            <g id="Group-5-Copy-3" transform="translate(708.000000, 242.000000)">
                <g id="Stacked-Group-2" transform="translate(250.000000, 3404.000000)">
                    <g id="Group-7-Copy" transform="translate(0.000000, 1613.000000)">
                        <g id="support-copy" transform="translate(902.000000, 0.000000)">
                            <rect id="background" fill="#FFFFFF" x="2.98427949e-13" y="0" width="246.233766" height="240" rx="15"></rect>
                            <g id="group" transform="translate(29.000000, 133.000000)" fill="#005450" fill-rule="nonzero">
                                <path d="M39.6190476,19.72435 C39.6068571,19.21805 39.5032381,16.9519 38.5493333,14.6644 C37.8971429,13.0967 36.9828571,11.834 35.8339048,10.91595 C35.5413333,10.6811 35.2304762,10.47065 34.9104762,10.28155 C35.9405714,9.18965 36.5714286,7.71955 36.5714286,6.10305 C36.5714286,2.7389 33.8377143,0.00305 30.4761905,0.00305 C27.1146667,0.00305 24.3809524,2.7389 24.3809524,6.10305 C24.3809524,7.71955 25.0148571,9.18965 26.0419048,10.28155 C25.7219048,10.47065 25.4140952,10.6811 25.1184762,10.91595 C23.9695238,11.83705 23.0552381,13.09975 22.4030476,14.6644 C21.3455238,17.20505 21.3333333,19.7213 21.3333333,19.825 C21.3333333,20.6668 22.016,21.35 22.8571429,21.35 L38.0952381,21.35 C38.0952381,21.35 38.0952381,21.35 38.0982857,21.35 C38.9394286,21.35 39.6220952,20.6668 39.6220952,19.825 C39.6220952,19.79145 39.6220952,19.7579 39.6190476,19.72435 Z M27.4285714,6.1 C27.4285714,4.41945 28.7969524,3.05 30.4761905,3.05 C32.1554286,3.05 33.5238095,4.41945 33.5238095,6.1 C33.5238095,7.78055 32.1554286,9.15 30.4761905,9.15 C28.7969524,9.15 27.4285714,7.78055 27.4285714,6.1 Z M24.5333333,18.3 C24.6491429,17.5863 24.856381,16.70485 25.216,15.8356 C26.2339048,13.3895 27.9558095,12.2 30.4761905,12.2 C34.8312381,12.2 36.0746667,16.0674 36.4281905,18.3 L24.5302857,18.3 L24.5333333,18.3 Z" id="Shape"></path>
                                <path d="M18.2857143,53.27435 C18.2735238,52.76805 18.1699048,50.5019 17.216,48.2144 C16.5638095,46.6467 15.6495238,45.38705 14.5005714,44.46595 C14.208,44.2311 13.8971429,44.02065 13.5771429,43.83155 C14.6072381,42.73965 15.2380952,41.26955 15.2380952,39.65305 C15.2380952,36.2889 12.504381,33.55305 9.14285714,33.55305 C5.78133333,33.55305 3.04761905,36.2889 3.04761905,39.65305 C3.04761905,41.26955 3.68152381,42.73965 4.70857143,43.83155 C4.38857143,44.02065 4.0807619,44.2311 3.78514286,44.46595 C2.63619048,45.38705 1.72190476,46.64975 1.06971429,48.2144 C0.0121904762,50.75505 0,53.2713 0,53.375 C0,54.2168 0.682666667,54.9 1.52380952,54.9 L16.7619048,54.9 C16.7619048,54.9 16.7619048,54.9 16.7649524,54.9 C17.6060952,54.9 18.2887619,54.2168 18.2887619,53.375 C18.2887619,53.34145 18.2887619,53.3079 18.2857143,53.27435 Z M6.0952381,39.65 C6.0952381,37.96945 7.46361905,36.6 9.14285714,36.6 C10.8220952,36.6 12.1904762,37.96945 12.1904762,39.65 C12.1904762,41.33055 10.8220952,42.7 9.14285714,42.7 C7.46361905,42.7 6.0952381,41.33055 6.0952381,39.65 Z M3.2,51.85 C3.31580952,51.1363 3.52304762,50.25485 3.88266667,49.3856 C4.90057143,46.9395 6.62247619,45.75 9.14285714,45.75 C13.4979048,45.75 14.7413333,49.6174 15.0948571,51.85 L3.19695238,51.85 L3.2,51.85 Z" id="Shape"></path>
                                <path d="M60.952381,53.27435 C60.9401905,52.76805 60.8365714,50.5019 59.8826667,48.2144 C59.2304762,46.6467 58.3161905,45.38705 57.1672381,44.46595 C56.8746667,44.2311 56.5638095,44.02065 56.2438095,43.83155 C57.2739048,42.73965 57.9047619,41.26955 57.9047619,39.65305 C57.9047619,36.2889 55.1710476,33.55305 51.8095238,33.55305 C48.448,33.55305 45.7142857,36.2889 45.7142857,39.65305 C45.7142857,41.26955 46.3481905,42.73965 47.3752381,43.83155 C47.0552381,44.02065 46.7474286,44.2311 46.4518095,44.46595 C45.3028571,45.38705 44.3885714,46.64975 43.736381,48.2144 C42.6788571,50.75505 42.6666667,53.2713 42.6666667,53.375 C42.6666667,54.2168 43.3493333,54.9 44.1904762,54.9 L59.4285714,54.9 C59.4285714,54.9 59.4285714,54.9 59.431619,54.9 C60.2727619,54.9 60.9554286,54.2168 60.9554286,53.375 C60.9554286,53.34145 60.9554286,53.3079 60.952381,53.27435 L60.952381,53.27435 Z M48.7619048,39.65 C48.7619048,37.96945 50.1302857,36.6 51.8095238,36.6 C53.4887619,36.6 54.8571429,37.96945 54.8571429,39.65 C54.8571429,41.33055 53.4887619,42.7 51.8095238,42.7 C50.1302857,42.7 48.7619048,41.33055 48.7619048,39.65 Z M45.8666667,51.85 C45.9824762,51.1363 46.1897143,50.25485 46.5493333,49.3856 C47.5672381,46.9395 49.2891429,45.75 51.8095238,45.75 C56.1645714,45.75 57.408,49.6174 57.7615238,51.85 L45.863619,51.85 L45.8666667,51.85 Z" id="Shape"></path>
                                <path d="M30.4761905,61 C26.5142857,61 22.5798095,60.02705 19.096381,58.18485 C18.3527619,57.7914 18.0693333,56.86725 18.4624762,56.12305 C18.855619,55.37885 19.7790476,55.0952 20.5226667,55.48865 C23.5672381,57.09905 27.008,57.95 30.4761905,57.95 C33.944381,57.95 37.3851429,57.09905 40.4297143,55.48865 C41.1733333,55.0952 42.0967619,55.37885 42.4899048,56.12305 C42.8830476,56.86725 42.599619,57.7914 41.856,58.18485 C38.375619,60.02705 34.4411429,61 30.4761905,61 Z" id="Path"></path>
                                <path d="M52.5104762,32.025 C51.8430476,32.025 51.2274286,31.58275 51.0415238,30.90565 C49.6274286,25.78165 46.3634286,21.38965 41.8529524,18.53485 C41.1428571,18.08345 40.9295238,17.14405 41.3775238,16.43035 C41.8255238,15.71665 42.7672381,15.5062 43.480381,15.95455 C48.6369524,19.215 52.3641905,24.2353 53.9794286,30.0913 C54.2019048,30.9026 53.7264762,31.7444 52.9158095,31.96705 C52.7817143,32.00365 52.6445714,32.02195 52.5104762,32.02195 L52.5104762,32.025 Z" id="Path"></path>
                                <path d="M8.44190476,32.025 C8.30780952,32.025 8.17066667,32.0067 8.03657143,31.9701 C7.22590476,31.74745 6.75047619,30.90565 6.97295238,30.09435 C8.58819048,24.23835 12.3184762,19.21805 17.472,15.9576 C18.1820952,15.50925 19.1238095,15.7197 19.5748571,16.4334 C20.0259048,17.1471 19.8125714,18.0865 19.0994286,18.5379 C14.5859048,21.38965 11.3219048,25.7847 9.91085714,30.9087 C9.72495238,31.5858 9.11238095,32.02805 8.44190476,32.02805 L8.44190476,32.025 Z" id="Path"></path>
                            </g>
                            <g id="question" transform="translate(153.000000, 132.000000)" fill="#005450" fill-rule="nonzero">
                                <path d="M54.6290526,9.37094737 C48.5861053,3.328 40.5490526,0 32,0 C23.4509474,0 15.4172632,3.328 9.37094737,9.37094737 C3.32463158,15.4138947 0,23.4509474 0,31.9966316 C0,40.5423158 3.328,48.5793684 9.37094737,54.6256842 C15.4138947,60.672 23.4509474,63.9966316 32,63.9966316 C40.5490526,63.9966316 48.5827368,60.6686316 54.6290526,54.6256842 C60.6753684,48.5827368 64,40.5456842 64,31.9966316 C64,23.4475789 60.672,15.4138947 54.6290526,9.37094737 Z M32,60.6315789 C16.2122105,60.6315789 3.36842105,47.7877895 3.36842105,32 C3.36842105,16.2122105 16.2122105,3.36842105 32,3.36842105 C47.7877895,3.36842105 60.6315789,16.2122105 60.6315789,32 C60.6315789,47.7877895 47.7877895,60.6315789 32,60.6315789 Z" id="Shape"></path>
                                <path d="M32,47.1578947 C31.0703158,47.1578947 30.3157895,46.4033684 30.3157895,45.4736842 L30.3157895,38.7368421 C30.3157895,37.8071579 31.0703158,37.0526316 32,37.0526316 C38.5010526,37.0526316 43.7894737,31.7642105 43.7894737,25.2631579 C43.7894737,18.7621053 38.5010526,13.4736842 32,13.4736842 C25.4989474,13.4736842 20.2105263,18.7621053 20.2105263,25.2631579 C20.2105263,26.1928421 19.456,26.9473684 18.5263158,26.9473684 C17.5966316,26.9473684 16.8421053,26.1928421 16.8421053,25.2631579 C16.8421053,16.9061053 23.6429474,10.1052632 32,10.1052632 C40.3570526,10.1052632 47.1578947,16.9061053 47.1578947,25.2631579 C47.1578947,33.0509474 41.2530526,39.488 33.6842105,40.3267368 L33.6842105,45.4736842 C33.6842105,46.4033684 32.9296842,47.1578947 32,47.1578947 Z" id="Path"></path>
                                <path d="M32,57.2631579 C32,57.2631579 32,57.2631579 32,57.2631579 C31.0703158,57.2631579 30.3157895,56.5086316 30.3157895,55.5789474 L30.3157895,52.2105263 C30.3157895,51.2808421 31.0703158,50.5263158 32,50.5263158 C32,50.5263158 32,50.5263158 32,50.5263158 C32.9296842,50.5263158 33.6842105,51.2808421 33.6842105,52.2105263 L33.6842105,55.5789474 C33.6842105,56.5086316 32.9296842,57.2631579 32,57.2631579 Z" id="Path"></path>
                            </g>
                            <g id="check" transform="translate(89.000000, 45.000000)" fill="#005450" fill-rule="nonzero">
                                <path d="M32,64 C23.4509474,64 15.4172632,60.672 9.37094737,54.6290526 C3.32463158,48.5861053 0,40.5490526 0,32.0033684 C0,23.4543158 3.328,15.4206316 9.37094737,9.37431579 C15.4138947,3.328 23.4509474,1.77635684e-15 32,1.77635684e-15 C40.5490526,1.77635684e-15 48.5827368,3.328 54.6290526,9.37431579 C60.6753684,15.4206316 64,23.4543158 64,32.0033684 C64,40.5524211 60.672,48.5861053 54.6290526,54.6290526 C48.5861053,60.672 40.5490526,64 32,64 Z M32,3.36842105 C16.2122105,3.36842105 3.36842105,16.2122105 3.36842105,32 C3.36842105,47.7877895 16.2122105,60.6315789 32,60.6315789 C47.7877895,60.6315789 60.6315789,47.7877895 60.6315789,32 C60.6315789,16.2122105 47.7877895,3.36842105 32,3.36842105 Z" id="Shape"></path>
                                <path d="M25.2631579,45.4736842 C24.832,45.4736842 24.4008421,45.3086316 24.0707368,44.9818947 L13.9654737,34.8766316 C13.3086316,34.2197895 13.3086316,33.152 13.9654737,32.4951579 C14.6223158,31.8383158 15.6901053,31.8383158 16.3469474,32.4951579 L25.2597895,41.408 L47.6463158,19.0214737 C48.3031579,18.3646316 49.3709474,18.3646316 50.0277895,19.0214737 C50.6846316,19.6783158 50.6846316,20.7461053 50.0277895,21.4029474 L26.4488421,44.9818947 C26.1187368,45.312 25.6875789,45.4736842 25.2564211,45.4736842 L25.2631579,45.4736842 Z" id="Path"></path>
                            </g>
                        </g>
                    </g>
                </g>
            </g>
        </g>
    </g>
</svg>