<?xml version="1.0" encoding="UTF-8"?>
<svg width="247px" height="240px" viewBox="0 0 247 240" version="1.1" xmlns="http://www.w3.org/2000/svg" xmlns:xlink="http://www.w3.org/1999/xlink">
    <!-- Generator: Sketch 53 (72520) - https://sketchapp.com -->
    <title>custom-development copy</title>
    <desc>Created with Sketch.</desc>
    <g id="Page-1" stroke="none" stroke-width="1" fill="none" fill-rule="evenodd">
        <g id="Artboard" transform="translate(-1855.000000, -4500.000000)">
            <g id="Group-5-Copy-3" transform="translate(708.000000, 242.000000)">
                <g id="Stacked-Group-2" transform="translate(250.000000, 3404.000000)">
                    <g id="Group-7-Copy" transform="translate(0.000000, 845.000000)">
                        <g id="custom-development-copy" transform="translate(897.000000, 9.000000)">
                            <rect id="background" fill="#FFFFFF" x="2.84217094e-13" y="0" width="246.233766" height="240" rx="15"></rect>
                            <g id="pencil-ruler" transform="translate(20.000000, 164.000000)" fill="#005450" fill-rule="nonzero">
                                <path d="M54.6,16.8 C54.6,9.0804 48.3196,2.8 40.6,2.8 C38.4916,2.8 36.4616,3.2592 34.5716,4.1608 C34.4232,4.2308 34.2944,4.326 34.1852,4.4352 L34.1852,4.4352 L4.6088,34.0116 C4.3932,34.2272 4.256,34.5044 4.214,34.804 L1.414,54.404 C1.3524,54.8408 1.498,55.2804 1.8088,55.5912 C2.072,55.8544 2.4304,56 2.7972,56 C2.8616,56 2.9288,55.9944 2.996,55.986 L22.596,53.186 C22.8956,53.144 23.1728,53.004 23.3884,52.7912 L52.9424,23.2372 C52.9424,23.2372 52.9452,23.2344 52.9452,23.2344 L52.9648,23.2148 L52.9648,23.2148 C53.074,23.1056 53.1664,22.9768 53.2392,22.8284 C54.1436,20.9384 54.6,18.9084 54.6,16.8 L54.6,16.8 Z M51.8,16.8 C51.8,18.41 51.4668,19.9612 50.8088,21.4116 L47.5888,24.6316 C47.2948,16.59 40.81,10.1052 32.7684,9.8112 L35.9884,6.5912 C37.4388,5.9332 38.99,5.6 40.6,5.6 C46.7768,5.6 51.8,10.6232 51.8,16.8 L51.8,16.8 Z M5.614,44.8 L6.7984,36.5008 C7.3276,36.4336 7.8624,36.4 8.4,36.4 C15.3468,36.4 21,42.0532 21,49 C21,49.5348 20.9664,50.0724 20.8992,50.6016 L12.6,51.786 C12.5916,47.9388 9.464,44.8084 5.614,44.8 L5.614,44.8 Z M29.7388,12.8408 C30.5452,12.6812 31.3712,12.6 32.2,12.6 C35.1708,12.6 37.9036,13.6332 40.0596,15.3608 L18.2476,37.1728 C15.7108,35.0588 12.488,33.7428 8.9656,33.614 L29.736,12.8436 L29.7388,12.8408 Z M20.23,39.1496 L42.042,17.3376 C43.7668,19.4936 44.8028,22.2264 44.8028,25.1972 C44.8028,26.026 44.7216,26.852 44.562,27.6584 L23.7916,48.4288 C23.6628,44.9064 22.3468,41.6836 20.2328,39.1468 L20.23,39.1496 Z M5.2108,47.6196 C5.3396,47.6084 5.4684,47.6 5.6,47.6 C7.9156,47.6 9.8,49.4844 9.8,51.8 C9.8,51.9316 9.7944,52.0604 9.7804,52.1892 L4.4492,52.9508 L5.2108,47.6196 L5.2108,47.6196 Z" id="Shape"></path>
                                <path d="M18.2,0 L4.2,0 C1.8844,0 0,1.8844 0,4.2 L0,32.2 C0,32.9728 0.6272,33.6 1.4,33.6 C2.1728,33.6 2.8,32.9728 2.8,32.2 L2.8,25.2 L7,25.2 C7.7728,25.2 8.4,24.5728 8.4,23.8 C8.4,23.0272 7.7728,22.4 7,22.4 L2.8,22.4 L2.8,19.6 L4.2,19.6 C4.9728,19.6 5.6,18.9728 5.6,18.2 C5.6,17.4272 4.9728,16.8 4.2,16.8 L2.8,16.8 L2.8,14 L7,14 C7.7728,14 8.4,13.3728 8.4,12.6 C8.4,11.8272 7.7728,11.2 7,11.2 L2.8,11.2 L2.8,8.4 L4.2,8.4 C4.9728,8.4 5.6,7.7728 5.6,7 C5.6,6.2272 4.9728,5.6 4.2,5.6 L2.8,5.6 L2.8,4.2 C2.8,3.4272 3.4272,2.8 4.2,2.8 L18.2,2.8 C18.9728,2.8 19.6,3.4272 19.6,4.2 L19.6,9.8 C19.6,10.5728 20.2272,11.2 21,11.2 C21.7728,11.2 22.4,10.5728 22.4,9.8 L22.4,4.2 C22.4,1.8844 20.5156,0 18.2,0 Z" id="Path"></path>
                            </g>
                            <g id="compass" transform="translate(188.000000, 20.000000)" fill="#005450" fill-rule="nonzero">
                                <path d="M20.5833333,41.6 L14.25,41.6 C13.376,41.6 12.6666667,40.8832 12.6666667,40 C12.6666667,39.1168 13.376,38.4 14.25,38.4 L20.5833333,38.4 C21.4573333,38.4 22.1666667,39.1168 22.1666667,40 C22.1666667,40.8832 21.4573333,41.6 20.5833333,41.6 Z" id="Path"></path>
                                <path d="M36.4166667,35.2 C35.5426667,35.2 34.8333333,35.9168 34.8333333,36.8 L34.8333333,38.4 L31.6666667,38.4 C30.7926667,38.4 30.0833333,39.1168 30.0833333,40 C30.0833333,40.8832 30.7926667,41.6 31.6666667,41.6 L34.8333333,41.6 L34.8333333,43.2 C34.8333333,44.0832 35.5426667,44.8 36.4166667,44.8 C37.2906667,44.8 38,44.0832 38,43.2 L38,36.8 C38,35.9168 37.2906667,35.2 36.4166667,35.2 Z" id="Path"></path>
                                <path d="M34.7415,58.6624 L21.5175,21.2448 C23.8481667,19.8144 25.3333333,17.2288 25.3333333,14.4 C25.3333333,10.5376 22.61,7.3056 19,6.56 L19,3.2 L20.5833333,3.2 C21.4573333,3.2 22.1666667,2.4832 22.1666667,1.6 C22.1666667,0.7168 21.4573333,1.77635684e-15 20.5833333,1.77635684e-15 L14.25,1.77635684e-15 C13.376,1.77635684e-15 12.6666667,0.7168 12.6666667,1.6 C12.6666667,2.4832 13.376,3.2 14.25,3.2 L15.8333333,3.2 L15.8333333,6.56 C12.2233333,7.3024 9.5,10.5344 9.5,14.4 C9.5,17.2288 10.9851667,19.8144 13.3158333,21.2448 L0.0918333333,58.6624 C0.0316666667,58.8352 0,59.0176 0,59.2 L0,62.4 C0,63.2832 0.709333333,64 1.58333333,64 C2.45733333,64 3.16666667,63.2832 3.16666667,62.4 L3.16666667,59.4784 L17.4166667,19.1584 L31.6666667,59.4784 L31.6666667,62.4 C31.6666667,63.2832 32.376,64 33.25,64 C34.124,64 34.8333333,63.2832 34.8333333,62.4 L34.8333333,59.2 C34.8333333,59.0176 34.8016667,58.8352 34.7415,58.6624 Z M17.4166667,12.8 C16.7485,12.8 16.15,13.2256 15.9251667,13.8624 L14.4178333,18.1248 C13.3316667,17.2288 12.6666667,15.8688 12.6666667,14.4 C12.6666667,11.7536 14.7978333,9.6 17.4166667,9.6 C20.0355,9.6 22.1666667,11.7536 22.1666667,14.4 C22.1666667,15.8688 21.4985,17.2288 20.4123333,18.1248 L18.905,13.8624 C18.6801667,13.2256 18.0816667,12.8 17.4135,12.8 L17.4166667,12.8 Z" id="Shape"></path>
                            </g>
                            <g id="hammer-wrench" transform="translate(89.000000, 94.000000)" fill="#005450" fill-rule="nonzero">
                                <path d="M58.5072,39.5692941 L43.9952,26.4758824 L45.6912,24.6017647 C47.1248,25.1385882 48.6352,25.4117647 50.1968,25.4117647 C57.256,25.4117647 62.9968,19.7131765 62.9968,12.7058824 C62.9968,10.6761176 62.5008,8.65588235 61.5664,6.86435294 C61.3328,6.41329412 60.8944,6.102 60.392,6.02576471 C59.8896,5.94952941 59.3776,6.11470588 59.016,6.47364706 L52.7376,12.7058824 L50.2,12.7058824 L50.2,10.1869412 L56.4784,3.95470588 C56.84,3.59576471 57.0064,3.09070588 56.9296,2.58882353 C56.8528,2.08694118 56.5392,1.65494118 56.0848,1.42305882 C54.28,0.492352941 52.2448,0.00317647059 50.2,0.00317647059 C43.1408,0.00317647059 37.4,5.70176471 37.4,12.7090588 C37.4,14.2591765 37.6752,15.7584706 38.216,17.1815294 L35.944,19.2112941 L28.0464,12.0832941 C27.7424,11.8101176 27.5728,11.4448235 27.5632,11.0509412 C27.5536,10.6570588 27.7072,10.2854118 27.9984,9.99635294 L35.336,2.71270588 C35.7936,2.25847059 35.9312,1.57552941 35.6816,0.981529412 C35.432,0.387529412 34.8496,0 34.2032,0 C34.072,0 30.9168,0.00317647059 27.5088,0.200117647 C21,0.581294118 19.4128,1.31505882 18.6704,2.052 L7.4704,13.1696471 C7.1696,13.4682353 7.0032,13.8716471 7.0032,14.2941176 L7.0032,15.8823529 L5.4032,15.8823529 C4.9776,15.8823529 4.5712,16.0507059 4.2704,16.3461176 L1.0704,19.5225882 C0.4464,20.142 0.4464,21.1489412 1.0704,21.7683529 L7.4704,28.1212941 C8.0944,28.7407059 9.1088,28.7407059 9.7328,28.1212941 L12.9328,24.9448235 C13.2336,24.6462353 13.4,24.2428235 13.4,23.8203529 L13.4,22.2321176 L15,22.2321176 C15.4256,22.2321176 15.832,22.0637647 16.1328,21.7683529 L18.6704,19.2494118 C18.952,18.9698824 19.3168,18.8174118 19.6976,18.8174118 C20.104,18.8174118 20.4848,18.9889412 20.7696,19.2970588 L27.544,26.6950588 L13.1088,39.5724706 C12.1456,40.4301176 11.5984,41.6022353 11.5632,42.8696471 C11.528,44.1370588 12.0144,45.3377647 12.9296,46.2462353 L16.4048,49.6958824 C17.2912,50.5757647 18.4496,51.0554118 19.6784,51.0554118 C19.72,51.0554118 19.7616,51.0554118 19.8032,51.0522353 C21.08,51.0172941 22.2608,50.4741176 23.1248,49.518 L35.7104,35.6177647 L48.4592,49.5370588 C49.3456,50.5027059 50.6,51.0585882 51.8992,51.0585882 C53.1376,51.0585882 54.3056,50.5757647 55.1888,49.6958824 L58.664,46.2462353 C59.5792,45.3377647 60.0656,44.1402353 60.0336,42.8728235 C60.0016,41.6054118 59.4608,40.4301176 58.504,39.5661176 L58.5072,39.5692941 Z M41.576,16.8956471 C40.9264,15.5837647 40.6,14.1734118 40.6,12.7058824 C40.6,7.452 44.9072,3.17647059 50.2,3.17647059 C50.9776,3.17647059 51.7328,3.26541176 52.4688,3.44329412 L47.4672,8.40811765 C47.1664,8.70670588 47,9.11011765 47,9.53258824 L47,14.2972941 C47,15.174 47.7168,15.8855294 48.6,15.8855294 L53.4,15.8855294 C53.8256,15.8855294 54.232,15.7171765 54.5328,15.4217647 L59.5344,10.4569412 C59.7136,11.1875294 59.8032,11.9403529 59.8032,12.7090588 C59.8032,17.9629412 55.496,22.2384706 50.2032,22.2384706 C48.7216,22.2384706 47.3008,21.9112941 45.9824,21.2696471 C45.3392,20.9551765 44.5648,21.1044706 44.088,21.6349412 L41.6336,24.3444706 L38.3248,21.3585882 L41.2112,18.7824706 C41.7424,18.306 41.8928,17.5404706 41.5792,16.902 L41.576,16.8956471 Z M19.6944,15.6441176 C18.456,15.6441176 17.288,16.1269412 16.4048,17.0068235 L14.3376,19.0588235 L11.8,19.0588235 C10.9168,19.0588235 10.2,19.7703529 10.2,20.6470588 L10.2,23.166 L8.6,24.7542353 L4.4624,20.6470588 L6.0624,19.0588235 L8.6,19.0588235 C9.4832,19.0588235 10.2,18.3472941 10.2,17.4705882 L10.2,14.9516471 L20.888,4.34223529 C21.0896,4.22788235 22.36,3.66564706 28.0016,3.35435294 C28.7824,3.30988235 29.5472,3.27811765 30.2608,3.25270588 L25.7328,7.74741176 C24.8176,8.65588235 24.3312,9.85341176 24.3632,11.1208235 C24.3952,12.3882353 24.936,13.5635294 25.8928,14.4275294 L28.6832,16.9464706 L25.6752,19.9323529 L23.1376,17.1624706 C22.2512,16.1968235 20.9968,15.6409412 19.6976,15.6409412 L19.6944,15.6441176 Z M20.7504,47.3992941 C20.4784,47.7010588 20.1136,47.8725882 19.7232,47.8821176 C19.3328,47.8916471 18.9584,47.7391765 18.6704,47.4532941 L15.1952,44.0036471 C14.9072,43.7177647 14.7536,43.3461176 14.7632,42.9585882 C14.7728,42.5710588 14.9456,42.2089412 15.2496,41.9389412 L29.6976,29.0488235 L33.5536,33.2576471 L20.7504,47.3961176 L20.7504,47.3992941 Z M56.4048,44.0068235 L52.9296,47.4564706 C52.648,47.736 52.2832,47.8884706 51.9024,47.8884706 C51.496,47.8884706 51.1152,47.7169412 50.8304,47.4088235 L27.8288,22.2924706 L31.0544,19.0905882 L56.3568,41.9230588 C56.6608,42.1962353 56.8304,42.5615294 56.84,42.9554118 C56.8496,43.3492941 56.696,43.7209412 56.4048,44.01 L56.4048,44.0068235 Z" id="Shape"></path>
                            </g>
                        </g>
                    </g>
                </g>
            </g>
        </g>
    </g>
</svg>