<?xml version="1.0" encoding="UTF-8"?>
<svg width="55px" height="56px" viewBox="0 0 55 56" version="1.1" xmlns="http://www.w3.org/2000/svg" xmlns:xlink="http://www.w3.org/1999/xlink">
    <!-- Generator: Sketch 58 (84663) - https://sketch.com -->
    <title>pencil-ruler</title>
    <desc>Created with Sketch.</desc>
    <g id="Page-1" stroke="none" stroke-width="1" fill="none" fill-rule="evenodd">
        <g id="Artboard" transform="translate(-1125.000000, -646.000000)" fill="#005450" fill-rule="nonzero">
            <g id="pencil-ruler" transform="translate(1125.000000, 646.000000)">
                <path d="M54.6,16.8 C54.6,9.0804 48.3196,2.8 40.6,2.8 C38.4916,2.8 36.4616,3.2592 34.5716,4.1608 C34.4232,4.2308 34.2944,4.326 34.1852,4.4352 L34.1852,4.4352 L4.6088,34.0116 C4.3932,34.2272 4.256,34.5044 4.214,34.804 L1.414,54.404 C1.3524,54.8408 1.498,55.2804 1.8088,55.5912 C2.072,55.8544 2.4304,56 2.7972,56 C2.8616,56 2.9288,55.9944 2.996,55.986 L22.596,53.186 C22.8956,53.144 23.1728,53.004 23.3884,52.7912 L52.9424,23.2372 C52.9424,23.2372 52.9452,23.2344 52.9452,23.2344 L52.9648,23.2148 L52.9648,23.2148 C53.074,23.1056 53.1664,22.9768 53.2392,22.8284 C54.1436,20.9384 54.6,18.9084 54.6,16.8 L54.6,16.8 Z M51.8,16.8 C51.8,18.41 51.4668,19.9612 50.8088,21.4116 L47.5888,24.6316 C47.2948,16.59 40.81,10.1052 32.7684,9.8112 L35.9884,6.5912 C37.4388,5.9332 38.99,5.6 40.6,5.6 C46.7768,5.6 51.8,10.6232 51.8,16.8 L51.8,16.8 Z M5.614,44.8 L6.7984,36.5008 C7.3276,36.4336 7.8624,36.4 8.4,36.4 C15.3468,36.4 21,42.0532 21,49 C21,49.5348 20.9664,50.0724 20.8992,50.6016 L12.6,51.786 C12.5916,47.9388 9.464,44.8084 5.614,44.8 L5.614,44.8 Z M29.7388,12.8408 C30.5452,12.6812 31.3712,12.6 32.2,12.6 C35.1708,12.6 37.9036,13.6332 40.0596,15.3608 L18.2476,37.1728 C15.7108,35.0588 12.488,33.7428 8.9656,33.614 L29.736,12.8436 L29.7388,12.8408 Z M20.23,39.1496 L42.042,17.3376 C43.7668,19.4936 44.8028,22.2264 44.8028,25.1972 C44.8028,26.026 44.7216,26.852 44.562,27.6584 L23.7916,48.4288 C23.6628,44.9064 22.3468,41.6836 20.2328,39.1468 L20.23,39.1496 Z M5.2108,47.6196 C5.3396,47.6084 5.4684,47.6 5.6,47.6 C7.9156,47.6 9.8,49.4844 9.8,51.8 C9.8,51.9316 9.7944,52.0604 9.7804,52.1892 L4.4492,52.9508 L5.2108,47.6196 L5.2108,47.6196 Z" id="Shape"></path>
                <path d="M18.2,0 L4.2,0 C1.8844,0 0,1.8844 0,4.2 L0,32.2 C0,32.9728 0.6272,33.6 1.4,33.6 C2.1728,33.6 2.8,32.9728 2.8,32.2 L2.8,25.2 L7,25.2 C7.7728,25.2 8.4,24.5728 8.4,23.8 C8.4,23.0272 7.7728,22.4 7,22.4 L2.8,22.4 L2.8,19.6 L4.2,19.6 C4.9728,19.6 5.6,18.9728 5.6,18.2 C5.6,17.4272 4.9728,16.8 4.2,16.8 L2.8,16.8 L2.8,14 L7,14 C7.7728,14 8.4,13.3728 8.4,12.6 C8.4,11.8272 7.7728,11.2 7,11.2 L2.8,11.2 L2.8,8.4 L4.2,8.4 C4.9728,8.4 5.6,7.7728 5.6,7 C5.6,6.2272 4.9728,5.6 4.2,5.6 L2.8,5.6 L2.8,4.2 C2.8,3.4272 3.4272,2.8 4.2,2.8 L18.2,2.8 C18.9728,2.8 19.6,3.4272 19.6,4.2 L19.6,9.8 C19.6,10.5728 20.2272,11.2 21,11.2 C21.7728,11.2 22.4,10.5728 22.4,9.8 L22.4,4.2 C22.4,1.8844 20.5156,0 18.2,0 Z" id="Path"></path>
            </g>
        </g>
    </g>
</svg>