<?xml version="1.0" encoding="UTF-8"?>
<svg width="247px" height="240px" viewBox="0 0 247 240" version="1.1" xmlns="http://www.w3.org/2000/svg" xmlns:xlink="http://www.w3.org/1999/xlink">
    <!-- Generator: Sketch 53 (72520) - https://sketchapp.com -->
    <title>homeservers copy</title>
    <desc>Created with Sketch.</desc>
    <g id="Page-1" stroke="none" stroke-width="1" fill="none" fill-rule="evenodd">
        <g id="Artboard" transform="translate(-1855.000000, -4884.000000)">
            <g id="Group-5-Copy-3" transform="translate(708.000000, 242.000000)">
                <g id="Stacked-Group-2" transform="translate(250.000000, 3404.000000)">
                    <g id="Group-7-Copy" transform="translate(0.000000, 1229.000000)">
                        <g id="homeservers-copy" transform="translate(897.000000, 9.000000)">
                            <rect id="background" fill="#FFFFFF" x="2.84217094e-13" y="0" width="246.233766" height="240" rx="15"></rect>
                            <g id="server" transform="translate(162.000000, 20.000000)" fill="#005450" fill-rule="nonzero">
                                <path d="M56,28.8 L52.8,28.8 C51.9168,28.8 51.2,28.0832 51.2,27.2 C51.2,26.3168 51.9168,25.6 52.8,25.6 L56,25.6 C56.8832,25.6 57.6,26.3168 57.6,27.2 C57.6,28.0832 56.8832,28.8 56,28.8 Z" id="Path"></path>
                                <path d="M56,41.6 L52.8,41.6 C51.9168,41.6 51.2,40.8832 51.2,40 C51.2,39.1168 51.9168,38.4 52.8,38.4 L56,38.4 C56.8832,38.4 57.6,39.1168 57.6,40 C57.6,40.8832 56.8832,41.6 56,41.6 Z" id="Path"></path>
                                <path d="M56,54.4 L52.8,54.4 C51.9168,54.4 51.2,53.6832 51.2,52.8 C51.2,51.9168 51.9168,51.2 52.8,51.2 L56,51.2 C56.8832,51.2 57.6,51.9168 57.6,52.8 C57.6,53.6832 56.8832,54.4 56,54.4 Z" id="Path"></path>
                                <path d="M64,24 C64,21.9616 63.1968,18.9888 62.1696,17.2288 L54.1952,3.5584 C53.0112,1.5296 50.3488,0 48,0 L16,0 C13.6512,0 10.9888,1.5296 9.8048,3.5584 L1.8304,17.2288 C0.8032,18.9888 0,21.9616 0,24 L0,30.4 C0,31.6288 0.464,32.7488 1.2256,33.6 C0.464,34.4512 0,35.5712 0,36.8 L0,43.2 C0,44.4288 0.464,45.5488 1.2256,46.4 C0.464,47.2512 0,48.3712 0,49.6 L0,59.2 C0,61.8464 2.1536,64 4.8,64 L59.2,64 C61.8464,64 64,61.8464 64,59.2 L64,49.6 C64,48.3712 63.536,47.2512 62.7744,46.4 C63.536,45.5488 64,44.4288 64,43.2 L64,36.8 C64,35.5712 63.536,34.4512 62.7744,33.6 C63.536,32.7488 64,31.6288 64,30.4 L64,24 Z M60.8,36.8 L60.8,43.2 C60.8,44.0832 60.0832,44.8 59.2,44.8 L4.8,44.8 C3.9168,44.8 3.2,44.0832 3.2,43.2 L3.2,36.8 C3.2,35.9168 3.9168,35.2 4.8,35.2 L59.2,35.2 C60.0832,35.2 60.8,35.9168 60.8,36.8 Z M4.8,32 C3.9168,32 3.2,31.2832 3.2,30.4 L3.2,24 C3.2,23.1168 3.9168,22.4 4.8,22.4 L59.2,22.4 C60.0832,22.4 60.8,23.1168 60.8,24 L60.8,30.4 C60.8,31.2832 60.0832,32 59.2,32 L4.8,32 Z M12.5696,5.1712 C13.1712,4.1408 14.8064,3.2 16,3.2 L48,3.2 C49.1936,3.2 50.8288,4.1376 51.4304,5.1712 L59.4048,18.8416 C59.472,18.9568 59.5392,19.0848 59.6064,19.2192 C59.472,19.2064 59.3376,19.2 59.2,19.2 L4.8,19.2 C4.6624,19.2 4.528,19.2064 4.3936,19.2192 C4.4608,19.0848 4.528,18.96 4.5952,18.8416 L12.5696,5.1712 Z M60.8,59.2 C60.8,60.0832 60.0832,60.8 59.2,60.8 L4.8,60.8 C3.9168,60.8 3.2,60.0832 3.2,59.2 L3.2,49.6 C3.2,48.7168 3.9168,48 4.8,48 L59.2,48 C60.0832,48 60.8,48.7168 60.8,49.6 L60.8,59.2 Z" id="Shape"></path>
                                <path d="M9.6,40 C9.6,40.8832 8.8832,41.6 8,41.6 C7.1168,41.6 6.4,40.8832 6.4,40 C6.4,39.1168 7.1168,38.4 8,38.4 C8.8832,38.4 9.6,39.1168 9.6,40 Z" id="Path"></path>
                                <path d="M16,40 C16,40.8832 15.2832,41.6 14.4,41.6 C13.5168,41.6 12.8,40.8832 12.8,40 C12.8,39.1168 13.5168,38.4 14.4,38.4 C15.2832,38.4 16,39.1168 16,40 Z" id="Path"></path>
                                <path d="M22.4,40 C22.4,40.8832 21.6832,41.6 20.8,41.6 C19.9168,41.6 19.2,40.8832 19.2,40 C19.2,39.1168 19.9168,38.4 20.8,38.4 C21.6832,38.4 22.4,39.1168 22.4,40 Z" id="Path"></path>
                                <path d="M28.8,40 C28.8,40.8832 28.0832,41.6 27.2,41.6 C26.3168,41.6 25.6,40.8832 25.6,40 C25.6,39.1168 26.3168,38.4 27.2,38.4 C28.0832,38.4 28.8,39.1168 28.8,40 Z" id="Path"></path>
                                <path d="M48,27.2 C48,28.0832 47.2832,28.8 46.4,28.8 C45.5168,28.8 44.8,28.0832 44.8,27.2 C44.8,26.3168 45.5168,25.6 46.4,25.6 C47.2832,25.6 48,26.3168 48,27.2 Z" id="Path"></path>
                                <path d="M48,40 C48,40.8832 47.2832,41.6 46.4,41.6 C45.5168,41.6 44.8,40.8832 44.8,40 C44.8,39.1168 45.5168,38.4 46.4,38.4 C47.2832,38.4 48,39.1168 48,40 Z" id="Path"></path>
                                <path d="M48,52.8 C48,53.6832 47.2832,54.4 46.4,54.4 C45.5168,54.4 44.8,53.6832 44.8,52.8 C44.8,51.9168 45.5168,51.2 46.4,51.2 C47.2832,51.2 48,51.9168 48,52.8 Z" id="Path"></path>
                            </g>
                            <g id="server" transform="translate(91.000000, 88.000000)" fill="#005450" fill-rule="nonzero">
                                <path d="M56,28.8 L52.8,28.8 C51.9168,28.8 51.2,28.0832 51.2,27.2 C51.2,26.3168 51.9168,25.6 52.8,25.6 L56,25.6 C56.8832,25.6 57.6,26.3168 57.6,27.2 C57.6,28.0832 56.8832,28.8 56,28.8 Z" id="Path"></path>
                                <path d="M56,41.6 L52.8,41.6 C51.9168,41.6 51.2,40.8832 51.2,40 C51.2,39.1168 51.9168,38.4 52.8,38.4 L56,38.4 C56.8832,38.4 57.6,39.1168 57.6,40 C57.6,40.8832 56.8832,41.6 56,41.6 Z" id="Path"></path>
                                <path d="M56,54.4 L52.8,54.4 C51.9168,54.4 51.2,53.6832 51.2,52.8 C51.2,51.9168 51.9168,51.2 52.8,51.2 L56,51.2 C56.8832,51.2 57.6,51.9168 57.6,52.8 C57.6,53.6832 56.8832,54.4 56,54.4 Z" id="Path"></path>
                                <path d="M64,24 C64,21.9616 63.1968,18.9888 62.1696,17.2288 L54.1952,3.5584 C53.0112,1.5296 50.3488,0 48,0 L16,0 C13.6512,0 10.9888,1.5296 9.8048,3.5584 L1.8304,17.2288 C0.8032,18.9888 0,21.9616 0,24 L0,30.4 C0,31.6288 0.464,32.7488 1.2256,33.6 C0.464,34.4512 0,35.5712 0,36.8 L0,43.2 C0,44.4288 0.464,45.5488 1.2256,46.4 C0.464,47.2512 0,48.3712 0,49.6 L0,59.2 C0,61.8464 2.1536,64 4.8,64 L59.2,64 C61.8464,64 64,61.8464 64,59.2 L64,49.6 C64,48.3712 63.536,47.2512 62.7744,46.4 C63.536,45.5488 64,44.4288 64,43.2 L64,36.8 C64,35.5712 63.536,34.4512 62.7744,33.6 C63.536,32.7488 64,31.6288 64,30.4 L64,24 Z M60.8,36.8 L60.8,43.2 C60.8,44.0832 60.0832,44.8 59.2,44.8 L4.8,44.8 C3.9168,44.8 3.2,44.0832 3.2,43.2 L3.2,36.8 C3.2,35.9168 3.9168,35.2 4.8,35.2 L59.2,35.2 C60.0832,35.2 60.8,35.9168 60.8,36.8 Z M4.8,32 C3.9168,32 3.2,31.2832 3.2,30.4 L3.2,24 C3.2,23.1168 3.9168,22.4 4.8,22.4 L59.2,22.4 C60.0832,22.4 60.8,23.1168 60.8,24 L60.8,30.4 C60.8,31.2832 60.0832,32 59.2,32 L4.8,32 Z M12.5696,5.1712 C13.1712,4.1408 14.8064,3.2 16,3.2 L48,3.2 C49.1936,3.2 50.8288,4.1376 51.4304,5.1712 L59.4048,18.8416 C59.472,18.9568 59.5392,19.0848 59.6064,19.2192 C59.472,19.2064 59.3376,19.2 59.2,19.2 L4.8,19.2 C4.6624,19.2 4.528,19.2064 4.3936,19.2192 C4.4608,19.0848 4.528,18.96 4.5952,18.8416 L12.5696,5.1712 Z M60.8,59.2 C60.8,60.0832 60.0832,60.8 59.2,60.8 L4.8,60.8 C3.9168,60.8 3.2,60.0832 3.2,59.2 L3.2,49.6 C3.2,48.7168 3.9168,48 4.8,48 L59.2,48 C60.0832,48 60.8,48.7168 60.8,49.6 L60.8,59.2 Z" id="Shape"></path>
                                <path d="M9.6,40 C9.6,40.8832 8.8832,41.6 8,41.6 C7.1168,41.6 6.4,40.8832 6.4,40 C6.4,39.1168 7.1168,38.4 8,38.4 C8.8832,38.4 9.6,39.1168 9.6,40 Z" id="Path"></path>
                                <path d="M16,40 C16,40.8832 15.2832,41.6 14.4,41.6 C13.5168,41.6 12.8,40.8832 12.8,40 C12.8,39.1168 13.5168,38.4 14.4,38.4 C15.2832,38.4 16,39.1168 16,40 Z" id="Path"></path>
                                <path d="M22.4,40 C22.4,40.8832 21.6832,41.6 20.8,41.6 C19.9168,41.6 19.2,40.8832 19.2,40 C19.2,39.1168 19.9168,38.4 20.8,38.4 C21.6832,38.4 22.4,39.1168 22.4,40 Z" id="Path"></path>
                                <path d="M28.8,40 C28.8,40.8832 28.0832,41.6 27.2,41.6 C26.3168,41.6 25.6,40.8832 25.6,40 C25.6,39.1168 26.3168,38.4 27.2,38.4 C28.0832,38.4 28.8,39.1168 28.8,40 Z" id="Path"></path>
                                <path d="M48,27.2 C48,28.0832 47.2832,28.8 46.4,28.8 C45.5168,28.8 44.8,28.0832 44.8,27.2 C44.8,26.3168 45.5168,25.6 46.4,25.6 C47.2832,25.6 48,26.3168 48,27.2 Z" id="Path"></path>
                                <path d="M48,40 C48,40.8832 47.2832,41.6 46.4,41.6 C45.5168,41.6 44.8,40.8832 44.8,40 C44.8,39.1168 45.5168,38.4 46.4,38.4 C47.2832,38.4 48,39.1168 48,40 Z" id="Path"></path>
                                <path d="M48,52.8 C48,53.6832 47.2832,54.4 46.4,54.4 C45.5168,54.4 44.8,53.6832 44.8,52.8 C44.8,51.9168 45.5168,51.2 46.4,51.2 C47.2832,51.2 48,51.9168 48,52.8 Z" id="Path"></path>
                            </g>
                            <g id="server" transform="translate(20.000000, 156.000000)" fill="#005450" fill-rule="nonzero">
                                <path d="M56,28.8 L52.8,28.8 C51.9168,28.8 51.2,28.0832 51.2,27.2 C51.2,26.3168 51.9168,25.6 52.8,25.6 L56,25.6 C56.8832,25.6 57.6,26.3168 57.6,27.2 C57.6,28.0832 56.8832,28.8 56,28.8 Z" id="Path"></path>
                                <path d="M56,41.6 L52.8,41.6 C51.9168,41.6 51.2,40.8832 51.2,40 C51.2,39.1168 51.9168,38.4 52.8,38.4 L56,38.4 C56.8832,38.4 57.6,39.1168 57.6,40 C57.6,40.8832 56.8832,41.6 56,41.6 Z" id="Path"></path>
                                <path d="M56,54.4 L52.8,54.4 C51.9168,54.4 51.2,53.6832 51.2,52.8 C51.2,51.9168 51.9168,51.2 52.8,51.2 L56,51.2 C56.8832,51.2 57.6,51.9168 57.6,52.8 C57.6,53.6832 56.8832,54.4 56,54.4 Z" id="Path"></path>
                                <path d="M64,24 C64,21.9616 63.1968,18.9888 62.1696,17.2288 L54.1952,3.5584 C53.0112,1.5296 50.3488,0 48,0 L16,0 C13.6512,0 10.9888,1.5296 9.8048,3.5584 L1.8304,17.2288 C0.8032,18.9888 0,21.9616 0,24 L0,30.4 C0,31.6288 0.464,32.7488 1.2256,33.6 C0.464,34.4512 0,35.5712 0,36.8 L0,43.2 C0,44.4288 0.464,45.5488 1.2256,46.4 C0.464,47.2512 0,48.3712 0,49.6 L0,59.2 C0,61.8464 2.1536,64 4.8,64 L59.2,64 C61.8464,64 64,61.8464 64,59.2 L64,49.6 C64,48.3712 63.536,47.2512 62.7744,46.4 C63.536,45.5488 64,44.4288 64,43.2 L64,36.8 C64,35.5712 63.536,34.4512 62.7744,33.6 C63.536,32.7488 64,31.6288 64,30.4 L64,24 Z M60.8,36.8 L60.8,43.2 C60.8,44.0832 60.0832,44.8 59.2,44.8 L4.8,44.8 C3.9168,44.8 3.2,44.0832 3.2,43.2 L3.2,36.8 C3.2,35.9168 3.9168,35.2 4.8,35.2 L59.2,35.2 C60.0832,35.2 60.8,35.9168 60.8,36.8 Z M4.8,32 C3.9168,32 3.2,31.2832 3.2,30.4 L3.2,24 C3.2,23.1168 3.9168,22.4 4.8,22.4 L59.2,22.4 C60.0832,22.4 60.8,23.1168 60.8,24 L60.8,30.4 C60.8,31.2832 60.0832,32 59.2,32 L4.8,32 Z M12.5696,5.1712 C13.1712,4.1408 14.8064,3.2 16,3.2 L48,3.2 C49.1936,3.2 50.8288,4.1376 51.4304,5.1712 L59.4048,18.8416 C59.472,18.9568 59.5392,19.0848 59.6064,19.2192 C59.472,19.2064 59.3376,19.2 59.2,19.2 L4.8,19.2 C4.6624,19.2 4.528,19.2064 4.3936,19.2192 C4.4608,19.0848 4.528,18.96 4.5952,18.8416 L12.5696,5.1712 Z M60.8,59.2 C60.8,60.0832 60.0832,60.8 59.2,60.8 L4.8,60.8 C3.9168,60.8 3.2,60.0832 3.2,59.2 L3.2,49.6 C3.2,48.7168 3.9168,48 4.8,48 L59.2,48 C60.0832,48 60.8,48.7168 60.8,49.6 L60.8,59.2 Z" id="Shape"></path>
                                <path d="M9.6,40 C9.6,40.8832 8.8832,41.6 8,41.6 C7.1168,41.6 6.4,40.8832 6.4,40 C6.4,39.1168 7.1168,38.4 8,38.4 C8.8832,38.4 9.6,39.1168 9.6,40 Z" id="Path"></path>
                                <path d="M16,40 C16,40.8832 15.2832,41.6 14.4,41.6 C13.5168,41.6 12.8,40.8832 12.8,40 C12.8,39.1168 13.5168,38.4 14.4,38.4 C15.2832,38.4 16,39.1168 16,40 Z" id="Path"></path>
                                <path d="M22.4,40 C22.4,40.8832 21.6832,41.6 20.8,41.6 C19.9168,41.6 19.2,40.8832 19.2,40 C19.2,39.1168 19.9168,38.4 20.8,38.4 C21.6832,38.4 22.4,39.1168 22.4,40 Z" id="Path"></path>
                                <path d="M28.8,40 C28.8,40.8832 28.0832,41.6 27.2,41.6 C26.3168,41.6 25.6,40.8832 25.6,40 C25.6,39.1168 26.3168,38.4 27.2,38.4 C28.0832,38.4 28.8,39.1168 28.8,40 Z" id="Path"></path>
                                <path d="M48,27.2 C48,28.0832 47.2832,28.8 46.4,28.8 C45.5168,28.8 44.8,28.0832 44.8,27.2 C44.8,26.3168 45.5168,25.6 46.4,25.6 C47.2832,25.6 48,26.3168 48,27.2 Z" id="Path"></path>
                                <path d="M48,40 C48,40.8832 47.2832,41.6 46.4,41.6 C45.5168,41.6 44.8,40.8832 44.8,40 C44.8,39.1168 45.5168,38.4 46.4,38.4 C47.2832,38.4 48,39.1168 48,40 Z" id="Path"></path>
                                <path d="M48,52.8 C48,53.6832 47.2832,54.4 46.4,54.4 C45.5168,54.4 44.8,53.6832 44.8,52.8 C44.8,51.9168 45.5168,51.2 46.4,51.2 C47.2832,51.2 48,51.9168 48,52.8 Z" id="Path"></path>
                            </g>
                        </g>
                    </g>
                </g>
            </g>
        </g>
    </g>
</svg>