<?xml version="1.0" encoding="UTF-8"?>
<svg width="166px" height="70px" viewBox="0 0 166 70" version="1.1" xmlns="http://www.w3.org/2000/svg" xmlns:xlink="http://www.w3.org/1999/xlink">
    <!-- Generator: Sketch 53 (72520) - https://sketchapp.com -->
    <title>matrix</title>
    <desc>Created with Sketch.</desc>
    <g id="Page-1" stroke="none" stroke-width="1" fill="none" fill-rule="evenodd">
        <g id="Artboard" transform="translate(-675.000000, -8554.000000)" fill="#FFFFFF">
            <g id="Group-5" transform="translate(303.000000, 241.000000)">
                <g id="Group-6-Copy-2" transform="translate(24.000000, 8138.000000)">
                    <g id="Group-8" transform="translate(251.000000, 57.000000)">
                        <g id="matrix" transform="translate(97.000000, 118.000000)">
                            <polygon id="Path" points="2.22548453 1.99346043 2.22548453 67.9671261 6.95885987 67.9671261 6.95885987 69.5500295 0.409079855 69.5500295 0.409079855 0.41076245 6.95885987 0.41076245 6.95885987 1.99346043"></polygon>
                            <path d="M20.4617698,22.9080645 L20.4617698,26.2467156 L20.5565191,26.2467156 C21.4442572,24.9758358 22.513513,23.9890616 23.7661283,23.2894722 C25.017925,22.5911144 26.4528765,22.2404985 28.069141,22.2404985 C29.6219664,22.2404985 31.0407512,22.5432844 32.3242674,23.1468035 C33.6081929,23.751349 34.5831086,24.8159238 35.2488099,26.3423754 C35.9773363,25.2615836 36.9678048,24.3074487 38.22042,23.4807918 C39.4722168,22.6545455 40.9540313,22.2404985 42.6660686,22.2404985 C43.9657515,22.2404985 45.1696617,22.3997947 46.2800504,22.7177713 C47.3888023,23.0357478 48.3397748,23.5444281 49.1323543,24.2438123 C49.9241154,24.9438123 50.5421347,25.8579179 50.9868226,26.9857185 C51.4302821,28.1155719 51.6525238,29.4741056 51.6525238,31.0643988 L51.6525238,47.5659236 L44.9005572,47.5657187 L44.9005572,33.5915836 C44.9005572,32.7653372 44.8690424,31.986305 44.8053985,31.2544868 C44.7413454,30.523695 44.5678088,29.8881525 44.2825375,29.3468329 C43.9970614,28.8067449 43.5765217,28.3770968 43.0225552,28.058915 C42.4677702,27.7421701 41.7146864,27.5822581 40.7639187,27.5822581 C39.8131506,27.5822581 39.0443097,27.7661877 38.457805,28.1305572 C37.8708911,28.4967742 37.4116738,28.9740469 37.0791302,29.5615542 C36.7463818,30.1504985 36.524345,30.8178593 36.4136336,31.5654839 C36.3021035,32.3122874 36.2470548,33.0677126 36.2470548,33.8307331 L36.2470548,47.5659236 L29.4957021,47.5659236 L29.4957021,33.7352786 C29.4957021,33.0040762 29.4791261,32.2804692 29.4486344,31.5654839 C29.4163009,30.8496774 29.2820556,30.1901173 29.043852,29.5855719 C28.8060577,28.9820528 28.4096657,28.4967742 27.8550852,28.1305572 C27.3003,27.7661877 26.4841867,27.5822581 25.4065406,27.5822581 C25.0891404,27.5822581 24.6692146,27.6539003 24.1467629,27.79739 C23.6236973,27.9404692 23.1161845,28.2112317 22.6252477,28.6080352 C22.1332877,29.0058651 21.7137711,29.5781818 21.3650607,30.3247801 C21.0161456,31.0724047 20.8419951,32.0495308 20.8419951,33.2575953 L20.8419951,47.5657187 L14.0908471,47.5659236 L14.0908471,22.9080645 L20.4617698,22.9080645 Z" id="Path"></path>
                            <path d="M55.9786608,26.5332844 C56.675468,25.483695 57.5634106,24.6416422 58.6414662,24.0050733 C59.7187029,23.3693255 60.9305941,22.9164809 62.2781634,22.6459238 C63.625119,22.3759824 64.9804645,22.2402933 66.3433817,22.2402933 C67.5798303,22.2402933 68.8314224,22.3281525 70.0993858,22.502434 C71.3671447,22.6779472 72.5243966,23.0201466 73.5705278,23.5282112 C74.6164542,24.0366862 75.4720636,24.7446921 76.1379696,25.6503812 C76.8036709,26.5564809 77.1364189,27.7569502 77.1364189,29.2515836 L77.1364189,42.0802639 C77.1364189,43.1945162 77.199858,44.2584749 77.3269411,45.2758359 C77.4527961,46.2938124 77.6750375,47.0568327 77.9922331,47.565308 L71.1459262,47.565308 C71.0188435,47.1834899 70.9154991,46.7944867 70.836712,46.3966568 C70.7569012,45.9998533 70.7014435,45.5944281 70.6703379,45.1807918 C69.5924872,46.2938124 68.3241142,47.0728444 66.8670615,47.5180938 C65.408576,47.9621116 63.9187805,48.1854547 62.3972655,48.1854547 C61.2240512,48.1854547 60.1304429,48.0421702 59.116236,47.7564224 C58.1016196,47.4700586 57.2144954,47.0252199 56.4538403,46.4200586 C55.6929804,45.8169503 55.0986992,45.0537243 54.6707921,44.1318181 C54.2428854,43.2099119 54.0286251,42.1118767 54.0286251,40.8405865 C54.0286251,39.4420234 54.273991,38.2889736 54.7661556,37.383695 C55.2570923,36.4769795 55.8906647,35.7539883 56.6683055,35.2128739 C57.4445134,34.6725806 58.3318423,34.2671554 59.3307012,33.9970088 C60.328946,33.7270675 61.3351719,33.5129619 62.3495835,33.3530498 C63.3639952,33.1945748 64.3622404,33.0670968 65.3451369,32.9718475 C66.3276245,32.8761877 67.1996051,32.7329032 67.9602603,32.5421994 C68.7211202,32.3514956 69.3227687,32.0737537 69.767047,31.7077419 C70.2100973,31.3421407 70.4161722,30.8096481 70.3850663,30.1096481 C70.3850663,29.3788563 70.2663738,28.7981232 70.0285797,28.3690909 C69.79099,27.9400586 69.4737943,27.6056598 69.0778116,27.3673314 C68.6814196,27.1290029 68.2217934,26.969912 67.6991368,26.8900586 C67.1758666,26.8116422 66.612691,26.770997 66.0112477,26.770997 C64.6798448,26.770997 63.6339184,27.0573607 62.8730585,27.6296774 C62.1126078,28.2019941 61.6679203,29.1563343 61.541656,30.491261 L54.7903034,30.491261 C54.8848481,28.9019941 55.2804216,27.5818475 55.9786608,26.5332844 L55.9786608,26.5332844 Z M69.3149921,36.0957771 C68.8872898,36.238651 68.4274587,36.3575073 67.9365217,36.4531671 C67.4449711,36.5486217 66.9300914,36.6282698 66.3912681,36.6914956 C65.8520359,36.7557478 65.3132129,36.8347801 64.7747991,36.9302346 C64.2672861,37.024868 63.7681637,37.1531671 63.2774315,37.3114369 C62.7854716,37.471349 62.3575649,37.6854545 61.9935061,37.9556012 C61.6284245,38.2259531 61.3353767,38.5683578 61.1135445,38.9807623 C60.8915076,39.3941936 60.7807961,39.9190909 60.7807961,40.5548387 C60.7807961,41.1583577 60.8915076,41.6678593 61.1135445,42.0802639 C61.3353767,42.4943108 61.6370192,42.8200881 62.0172447,43.0584163 C62.3974699,43.2967449 62.8409297,43.4640469 63.348852,43.5588856 C63.8553414,43.6545453 64.3784068,43.7021702 64.9174346,43.7021702 C66.2486326,43.7021702 67.2783922,43.4800586 68.0081466,43.0343989 C68.7368778,42.5897656 69.2752915,42.0568622 69.624616,41.4363052 C69.9729168,40.8165687 70.1871775,40.1898533 70.2665786,39.5530792 C70.3451613,38.9173314 70.3852711,38.4084458 70.3852711,38.0270381 L70.3852711,35.498827 C70.0995906,35.7539883 69.7431036,35.9524927 69.3149921,36.0957771 L69.3149921,36.0957771 Z" id="Shape"></path>
                            <path d="M94.918194,22.9080645 L94.918194,27.4389736 L89.9738325,27.4389736 L89.9738325,39.6487389 C89.9738325,40.7927567 90.1637403,41.5561876 90.5443751,41.9373901 C90.924191,42.3190028 91.6854602,42.5097066 92.8265453,42.5097066 C93.2069752,42.5097066 93.571034,42.4941055 93.9199488,42.4620821 C94.2684548,42.4308799 94.6014076,42.3824341 94.918194,42.3192082 L94.918194,47.5655133 C94.3476511,47.6609677 93.713465,47.7241936 93.0164534,47.7566277 C92.3192374,47.7872142 91.6377786,47.8038416 90.9720774,47.8038416 C89.9261506,47.8038416 88.9352731,47.7319939 88.000467,47.5887098 C87.0650473,47.4460412 86.2411578,47.1685044 85.5281839,46.7546629 C84.8148011,46.3418476 84.2520351,45.7529034 83.8402948,44.9898828 C83.427736,44.2274782 83.2220703,43.2255133 83.2220703,41.9848092 L83.2220703,27.4389736 L79.1333182,27.4389736 L79.1333182,22.9080645 L83.2220703,22.9080645 L83.2220703,15.5155719 L89.9736277,15.5155719 L89.9736277,22.9080645 L94.918194,22.9080645 Z" id="Path"></path>
                            <path d="M104.569737,22.9080645 L104.569737,27.4868035 L104.664895,27.4868035 C104.981272,26.7231671 105.408974,26.016393 105.948411,25.3640176 C106.487439,24.7128739 107.10505,24.1559531 107.80247,23.6948974 C108.499277,23.2346628 109.244584,22.8768622 110.037777,22.6217009 C110.829334,22.3677713 111.654042,22.240088 112.510061,22.240088 C112.953725,22.240088 113.444457,22.3201466 113.983894,22.478827 L113.983894,28.7747214 C113.666494,28.7106745 113.286064,28.6548387 112.842809,28.6076246 C112.398735,28.5597947 111.971033,28.5357771 111.558884,28.5357771 C110.32264,28.5357771 109.276713,28.7431085 108.421309,29.1559238 C107.565495,29.5693548 106.876259,30.1332551 106.352989,30.8488563 C105.830128,31.5646628 105.456861,32.3987097 105.235233,33.3528446 C105.013606,34.3063636 104.902689,35.3403519 104.902689,36.4529619 L104.902689,47.565308 L98.1513367,47.565308 L98.1513367,22.9080645 L104.569737,22.9080645 Z" id="Path"></path>
                            <path d="M116.836402,19.092346 L116.836402,13.5122581 L123.588369,13.5122581 L123.588369,19.092346 L116.836402,19.092346 Z M123.588369,22.9080645 L123.588369,47.5655133 L116.836402,47.5655133 L116.836402,22.9080645 L123.588369,22.9080645 Z" id="Shape"></path>
                            <polygon id="Path" points="127.106374 22.9080645 134.808495 22.9080645 139.13545 29.3466276 143.414725 22.9080645 150.879256 22.9080645 142.796705 34.4500587 151.878115 47.5657187 144.17538 47.5657187 139.040292 39.7918181 133.904999 47.5657187 126.345923 47.5657187 135.189129 34.5935484"></polygon>
                            <polygon id="Path" points="163.211809 67.9671261 163.211809 1.99346043 158.478434 1.99346043 158.478434 0.41076245 165.028623 0.41076245 165.028623 69.5500295 158.478434 69.5500295 158.478434 67.9671261"></polygon>
                        </g>
                    </g>
                </g>
            </g>
        </g>
    </g>
</svg>