<?xml version="1.0" encoding="UTF-8"?>
<svg width="96px" height="96px" viewBox="0 0 96 96" version="1.1" xmlns="http://www.w3.org/2000/svg" xmlns:xlink="http://www.w3.org/1999/xlink">
    <!-- Generator: Sketch 53 (72520) - https://sketchapp.com -->
    <title>Group 14</title>
    <desc>Created with Sketch.</desc>
    <defs>
        <linearGradient x1="56.2330698%" y1="160.569426%" x2="50%" y2="-78.9400732%" id="linearGradient-1">
            <stop stop-color="#FFFFFF" offset="0%"></stop>
            <stop stop-color="#FFFFFF" offset="28.9876021%"></stop>
            <stop stop-color="#005450" stop-opacity="0.59842111" offset="100%"></stop>
        </linearGradient>
    </defs>
    <g id="Page-1" stroke="none" stroke-width="1" fill="none" fill-rule="evenodd">
        <g id="Artboard" transform="translate(-2725.000000, -1542.000000)">
            <g id="Group-5-Copy" transform="translate(2289.000000, 241.000000)">
                <g id="Group-9" transform="translate(187.000000, 1301.000000)">
                    <g id="Group-14" transform="translate(249.000000, 0.000000)">
                        <circle id="Oval" fill="url(#linearGradient-1)" cx="48" cy="48" r="48"></circle>
                        <g id="0146-flag2" transform="translate(18.000000, 18.000000)" fill="#005450" fill-rule="nonzero">
                            <path d="M4.57142857,61 C3.73028571,61 3.04761905,60.3168 3.04761905,59.475 L3.04761905,13.725 C3.04761905,12.8832 3.73028571,12.2 4.57142857,12.2 C5.41257143,12.2 6.0952381,12.8832 6.0952381,13.725 L6.0952381,59.475 C6.0952381,60.3168 5.41257143,61 4.57142857,61 Z" id="Path"></path>
                            <path d="M47.2380952,42.7 C40.512,42.7 37.0377143,39.223 33.9687619,36.1547 C30.936381,33.11995 28.3184762,30.5 22.8571429,30.5 C17.3958095,30.5 14.7748571,33.11995 11.7455238,36.1547 C11.1512381,36.74945 10.1851429,36.74945 9.59085714,36.1547 C8.99657143,35.55995 8.99657143,34.5931 9.59085714,33.99835 C12.6567619,30.93005 16.1310476,27.45305 22.8601905,27.45305 C29.5893333,27.45305 33.0605714,30.93005 36.1295238,33.99835 C39.1619048,37.0331 41.7798095,39.65305 47.2411429,39.65305 C52.4342857,39.65305 55.0582857,37.28625 57.9078095,34.4467 L57.9078095,17.2813 C55.3508571,19.48645 52.1691429,21.35305 47.2411429,21.35305 C40.5150476,21.35305 37.0407619,17.87605 33.9718095,14.80775 C30.9394286,11.773 28.3215238,9.15305 22.8601905,9.15305 C17.3988571,9.15305 14.7779048,11.773 11.7485714,14.80775 C11.1542857,15.4025 10.1881905,15.4025 9.59390476,14.80775 C8.99961905,14.213 8.99961905,13.24615 9.59390476,12.6514 C12.6598095,9.5831 16.1340952,6.1061 22.8632381,6.1061 C29.592381,6.1061 33.063619,9.5831 36.1325714,12.6514 C39.1649524,15.68615 41.7828571,18.3061 47.2441905,18.3061 C52.7055238,18.3061 55.3264762,15.68615 58.3558095,12.6514 C58.791619,12.21525 59.4468571,12.0841 60.0167619,12.322 C60.5866667,12.5599 60.9584762,13.115 60.9584762,13.7311 L60.9584762,35.0811 C60.9584762,35.48675 60.7969524,35.8741 60.5135238,36.1608 C57.447619,39.2291 53.9733333,42.7061 47.2441905,42.7061 L47.2380952,42.7 Z" id="Path"></path>
                            <path d="M4.57142857,9.15 C2.05104762,9.15 0,7.09735 0,4.575 C0,2.05265 2.05104762,0 4.57142857,0 C7.09180952,0 9.14285714,2.05265 9.14285714,4.575 C9.14285714,7.09735 7.09180952,9.15 4.57142857,9.15 Z M4.57142857,3.05 C3.73028571,3.05 3.04761905,3.7332 3.04761905,4.575 C3.04761905,5.4168 3.73028571,6.1 4.57142857,6.1 C5.41257143,6.1 6.0952381,5.4168 6.0952381,4.575 C6.0952381,3.7332 5.41257143,3.05 4.57142857,3.05 Z" id="Shape"></path>
                        </g>
                    </g>
                </g>
            </g>
        </g>
    </g>
</svg>