<?xml version="1.0" encoding="UTF-8"?>
<svg width="303px" height="48px" viewBox="0 0 303 48" version="1.1" xmlns="http://www.w3.org/2000/svg" xmlns:xlink="http://www.w3.org/1999/xlink">
    <!-- Generator: Sketch 53 (72520) - https://sketchapp.com -->
    <title>modular_logomark_logotype_landscape</title>
    <desc>Created with Sketch.</desc>
    <g id="Page-1" stroke="none" stroke-width="1" fill="none" fill-rule="evenodd">
        <g id="Artboard" transform="translate(-721.000000, -2155.000000)" fill="#005450" fill-rule="nonzero">
            <g id="Group-5" transform="translate(303.000000, 241.000000)">
                <g id="modular_logomark_logotype_landscape" transform="translate(418.000000, 1914.000000)">
                    <g id="Logotype" transform="translate(95.066560, 8.999999)">
                        <path d="M0.269944667,29.5333334 L0.269944667,6.86666666 L6.88358901,6.86666666 L6.88358901,9.39999999 C8.09834,7.4 10.932759,6.06666666 13.4972333,6.06666666 C16.7365694,6.06666666 19.1660712,7.4 20.24585,9.66666666 C22.0004903,7.13333333 24.2950199,6.06666666 27.3993837,6.06666666 C31.7184984,6.06666666 35.9026406,8.6 35.9026406,14.7333333 L35.9026406,29.4 L29.1540239,29.4 L29.1540239,16.3333334 C29.1540239,14.1999999 27.939273,12.4666667 25.509771,12.4666667 C23.0802691,12.4666667 21.7305456,14.3333333 21.7305456,16.3333334 L21.7305456,29.4 L14.8469567,29.4 L14.8469567,16.3333334 C14.8469567,14.1999999 13.6322057,12.4666667 11.2027037,12.4666667 C8.77320166,12.4666667 7.42347834,14.3333333 7.42347834,16.3333334 L7.42347834,29.4 L0.269944667,29.4 L0.269944667,29.5333334 Z" id="Shape"></path>
                        <path d="M67.8910838,18.2 C67.8910838,25.2666666 62.6271627,30.2 55.7435737,30.2 C48.9949569,30.2 43.5960637,25.1333333 43.5960637,18.2 C43.5960637,11.1333333 48.9949569,6.2 55.7435737,6.2 C62.6271627,6.2 67.8910838,11.2666667 67.8910838,18.2 M60.8725223,18.2 C60.8725223,14.3333333 58.4430205,12.6 55.7435737,12.6 C53.1790994,12.6 50.614625,14.3333333 50.614625,18.2 C50.614625,21.9333333 53.1790994,23.7999999 55.7435737,23.7999999 C58.4430205,23.9333333 60.8725223,22.0666667 60.8725223,18.2" id="Shape"></path>
                        <path d="M123.904602,27.2666666 C122.689851,29.2666667 120.125377,30.0666667 117.830847,30.0666667 C112.296981,30.0666667 109.192618,26.0666666 109.192618,21.2666666 L109.192618,7 L116.211179,7 L116.211179,19.8000001 C116.211179,21.9333334 117.42593,23.6666666 119.855432,23.6666666 C122.149962,23.6666666 123.634657,22.0666667 123.634657,19.8000001 L123.634657,7 L130.653219,7 L130.653219,25.5333334 C130.653219,27.5333333 130.788191,29.2666667 130.923163,29.5333334 L124.174547,29.5333334 C124.039574,29.1333334 123.904602,27.9333334 123.904602,27.2666666" id="Shape"></path>
                        <path d="M172.764586,26.6 C171.684808,28.7333333 169.390278,30.2 166.555859,30.2 C159.807243,30.2 155.218184,25.1333333 155.218184,18.2 C155.218184,11.5333333 159.537298,6.33333334 166.420887,6.33333334 C170.470058,6.33333334 172.359669,8.6 172.764586,9.66666667 L172.764586,7 L179.513204,7 L179.513204,25.5333334 C179.513204,27.6666667 179.648176,29.1333334 179.648176,29.5333334 L172.899558,29.5333334 C172.764586,29 172.764586,27.8 172.764586,26.8666667 L172.764586,26.6 Z M167.500666,24.2 C170.335085,24.2 172.764586,22.0666667 172.764586,18.2 C172.764586,14.3333333 170.470058,12.2 167.500666,12.2 C164.531275,12.2 162.236745,14.2 162.236745,18.2 C162.236745,21.9333334 164.666247,24.2 167.500666,24.2 Z" id="Shape"></path>
                        <path d="M203.268333,6.6 C205.832808,6.6 207.857393,8.6 207.857393,11.1333333 C207.857393,13.6666667 205.832808,15.5333333 203.268333,15.5333333 C200.70386,15.5333333 198.814247,13.5333333 198.814247,11.1333333 C198.814247,8.46666666 200.70386,6.6 203.268333,6.6 Z M196.249772,29.5333334 L189.23121,29.5333334 L189.23121,6.86666666 L196.249772,6.86666666 L196.249772,29.5333334 Z" id="Shape"></path>
                        <rect id="Rectangle-path" x="140.236254" y="0.0666666665" width="7.01856133" height="29.6"></rect>
                        <path d="M99.609582,0.0666666665 L92.725993,0.0666666665 L92.725993,8.73333334 C92.1861037,7.93333334 90.4314633,6.46666667 86.5172656,6.46666667 C80.0385936,6.46666667 75.4495343,11.5333333 75.4495343,18.2 C75.4495343,25.1333333 80.3085382,30.0666667 86.7872103,30.0666667 C89.4866571,30.0666667 91.916159,28.8666667 92.8609653,27.4 C92.8609653,28.3333334 92.9959377,29.2666667 92.9959377,29.5333334 L99.7445545,29.5333334 C99.7445545,29 99.609582,27.5333333 99.609582,25.5333334 L99.609582,0.0666666665 Z M87.5970444,23.9333333 C84.8975975,23.9333333 82.4680957,22.0666667 82.4680957,18.3333334 C82.4680957,14.6 84.8975975,12.7333333 87.5970444,12.7333333 C90.2964909,12.7333333 92.725993,14.6 92.725993,18.3333334 C92.725993,21.9333334 90.2964909,23.9333333 87.5970444,23.9333333 Z" id="Shape"></path>
                    </g>
                    <g id="Logomark">
                        <polygon id="Shape" points="56.1010847 4.22608695 49.1517648 0.313043479 42.2024448 4.22608695 42.1493964 43.7739131 49.1517648 47.7391305 56.1010847 43.826087"></polygon>
                        <polygon id="Shape" points="14.3521168 24 7.3497486 20.0869564 0.400428678 24 0.400428678 43.773913 7.40279685 47.7391305 14.3521168 43.773913"></polygon>
                        <polyline id="Shape" points="28.2507568 27.9652175 38.6482123 22.0695651 38.6482123 14.1391304 31.6988925 10.2260869 28.2507568 12.2608696 14.2990686 4.27826087 14.2990686 4.27826087 7.3497486 0.313043479 0.400428678 4.27826087 0.400428678 12.1565217 28.2507568 27.9652175"></polyline>
                    </g>
                </g>
            </g>
        </g>
    </g>
</svg>