<?xml version="1.0" encoding="UTF-8"?>
<svg width="284px" height="80px" viewBox="0 0 284 80" version="1.1" xmlns="http://www.w3.org/2000/svg" xmlns:xlink="http://www.w3.org/1999/xlink">
    <!-- Generator: Sketch 53 (72520) - https://sketchapp.com -->
    <title>Group 10</title>
    <desc>Created with Sketch.</desc>
    <g id="Page-1" stroke="none" stroke-width="1" fill="none" fill-rule="evenodd">
        <g id="Artboard" transform="translate(-787.000000, -408.000000)" fill-rule="nonzero">
            <g id="Group-10" transform="translate(787.000000, 408.000000)">
                <path d="M123.064,29.672 C123.064,29.1813309 123.223998,28.7813349 123.544,28.472 C123.864002,28.1626651 124.258664,28.008 124.728,28.008 C125.197336,28.008 125.586665,28.1626651 125.896,28.472 C126.205335,28.7813349 126.36,29.1813309 126.36,29.672 L126.36,51.336 C126.36,51.8266691 126.205335,52.2266651 125.896,52.536 C125.586665,52.8453349 125.197336,53 124.728,53 C124.493332,53 124.253335,52.9520005 124.008,52.856 C123.762665,52.7599995 123.576001,52.616001 123.448,52.424 L109.496,33.864 L109.496,51.336 C109.496,51.8053357 109.341335,52.1999984 109.032,52.52 C108.722665,52.8400016 108.322669,53 107.832,53 C107.362664,53 106.973335,52.8453349 106.664,52.536 C106.354665,52.2266651 106.2,51.8266691 106.2,51.336 L106.2,29.672 C106.2,29.1813309 106.354665,28.7813349 106.664,28.472 C106.973335,28.1626651 107.362664,28.008 107.832,28.008 C108.066668,28.008 108.301332,28.0666661 108.536,28.184 C108.770668,28.3013339 108.962666,28.4453325 109.112,28.616 L123.064,47.176 L123.064,29.672 Z M147.471149,43.976 C147.471149,44.3813354 147.332484,44.717332 147.055149,44.984 C146.777814,45.250668 146.425818,45.384 145.999149,45.384 L133.839149,45.384 C134.073817,46.8773408 134.751143,48.0826621 135.871149,49 C136.991155,49.9173379 138.361808,50.376 139.983149,50.376 C140.623152,50.376 141.289812,50.2586678 141.983149,50.024 C142.676486,49.7893322 143.247147,49.501335 143.695149,49.16 C143.993817,48.9253322 144.345814,48.808 144.751149,48.808 C145.156484,48.808 145.476481,48.9146656 145.711149,49.128 C146.095151,49.4480016 146.287149,49.8106646 146.287149,50.216 C146.287149,50.6000019 146.116484,50.9199987 145.775149,51.176 C145.049812,51.7520029 144.148488,52.2213315 143.071149,52.584 C141.99381,52.9466685 140.964487,53.128 139.983149,53.128 C138.233807,53.128 136.665823,52.7493371 135.279149,51.992 C133.892475,51.2346629 132.80982,50.1840067 132.031149,48.84 C131.252478,47.4959933 130.863149,45.9706752 130.863149,44.264 C130.863149,42.5573248 131.231145,41.0266734 131.967149,39.672 C132.703153,38.3173266 133.727142,37.2613371 135.039149,36.504 C136.351156,35.7466629 137.839141,35.368 139.503149,35.368 C141.145824,35.368 142.564476,35.730663 143.759149,36.456 C144.953822,37.181337 145.871146,38.1946602 146.511149,39.496 C147.151152,40.7973398 147.471149,42.2906582 147.471149,43.976 Z M139.503149,38.12 C137.945808,38.12 136.681821,38.5466624 135.711149,39.4 C134.740477,40.2533376 134.12715,41.3946595 133.871149,42.824 L144.527149,42.824 C144.335148,41.3946595 143.80182,40.2533376 142.927149,39.4 C142.052478,38.5466624 140.911156,38.12 139.503149,38.12 Z M168.902298,35.496 C169.3503,35.496 169.686297,35.6133322 169.910298,35.848 C170.134299,36.0826678 170.246298,36.4026646 170.246298,36.808 C170.246298,37.149335 170.192965,37.4586653 170.086298,37.736 L165.350298,51.944 C165.243631,52.2426682 165.051633,52.4933323 164.774298,52.696 C164.496963,52.8986677 164.187633,53 163.846298,53 C163.48363,53 163.158299,52.8986677 162.870298,52.696 C162.582297,52.4933323 162.395632,52.2426682 162.310298,51.944 L159.174298,40.328 L155.878298,51.944 C155.771631,52.2426682 155.574299,52.4933323 155.286298,52.696 C154.998297,52.8986677 154.683633,53 154.342298,53 C154.000963,53 153.686299,52.8986677 153.398298,52.696 C153.110297,52.4933323 152.912965,52.2426682 152.806298,51.944 L148.070298,37.736 C147.984964,37.4586653 147.942298,37.1600016 147.942298,36.84 C147.942298,35.9439955 148.390294,35.496 149.286298,35.496 C149.691633,35.496 150.02763,35.6133322 150.294298,35.848 C150.560966,36.0826678 150.77963,36.4559974 150.950298,36.968 L154.406298,47.752 L157.670298,36.712 C157.776965,36.3493315 157.96363,36.0560011 158.230298,35.832 C158.496966,35.6079989 158.843629,35.496 159.270298,35.496 C159.675633,35.496 160.01163,35.6079989 160.278298,35.832 C160.544966,36.0560011 160.731631,36.3493315 160.838298,36.712 L163.718298,47.976 L167.238298,36.968 C167.536966,35.9866618 168.091627,35.496 168.902298,35.496 Z M200.180596,28.008 C200.649932,28.008 201.017928,28.1359987 201.284596,28.392 C201.551264,28.6480013 201.684596,28.9786646 201.684596,29.384 C201.684596,29.6400013 201.620597,29.9173318 201.492596,30.216 L192.020596,51.944 C191.743261,52.6480035 191.241933,53 190.516596,53 C189.833926,53 189.332598,52.6480035 189.012596,51.944 L179.636596,30.504 C179.465928,30.0559978 179.380596,29.6826682 179.380596,29.384 C179.380596,28.9573312 179.513928,28.6213346 179.780596,28.376 C180.047264,28.1306654 180.41526,28.008 180.884596,28.008 C181.631266,28.008 182.143261,28.3386634 182.420596,29 L190.484596,48.328 L198.676596,29 C198.82593,28.6159981 199.017928,28.3546674 199.252596,28.216 C199.487264,28.0773326 199.796594,28.008 200.180596,28.008 Z M216.715745,43.976 C216.715745,44.3813354 216.57708,44.717332 216.299745,44.984 C216.02241,45.250668 215.670414,45.384 215.243745,45.384 L203.083745,45.384 C203.318413,46.8773408 203.995739,48.0826621 205.115745,49 C206.235751,49.9173379 207.606404,50.376 209.227745,50.376 C209.867748,50.376 210.534408,50.2586678 211.227745,50.024 C211.921082,49.7893322 212.491743,49.501335 212.939745,49.16 C213.238413,48.9253322 213.59041,48.808 213.995745,48.808 C214.40108,48.808 214.721077,48.9146656 214.955745,49.128 C215.339747,49.4480016 215.531745,49.8106646 215.531745,50.216 C215.531745,50.6000019 215.36108,50.9199987 215.019745,51.176 C214.294408,51.7520029 213.393084,52.2213315 212.315745,52.584 C211.238406,52.9466685 210.209083,53.128 209.227745,53.128 C207.478403,53.128 205.910419,52.7493371 204.523745,51.992 C203.137071,51.2346629 202.054416,50.1840067 201.275745,48.84 C200.497074,47.4959933 200.107745,45.9706752 200.107745,44.264 C200.107745,42.5573248 200.475741,41.0266734 201.211745,39.672 C201.947749,38.3173266 202.971738,37.2613371 204.283745,36.504 C205.595752,35.7466629 207.083737,35.368 208.747745,35.368 C210.39042,35.368 211.809072,35.730663 213.003745,36.456 C214.198418,37.181337 215.115742,38.1946602 215.755745,39.496 C216.395748,40.7973398 216.715745,42.2906582 216.715745,43.976 Z M208.747745,38.12 C207.190404,38.12 205.926417,38.5466624 204.955745,39.4 C203.985073,40.2533376 203.371746,41.3946595 203.115745,42.824 L213.771745,42.824 C213.579744,41.3946595 213.046416,40.2533376 212.171745,39.4 C211.297074,38.5466624 210.155752,38.12 208.747745,38.12 Z M227.330894,35.368 C229.84824,35.368 231.938886,36.3279904 233.602894,38.248 C233.816228,38.4826678 233.922894,38.7599984 233.922894,39.08 C233.922894,39.5493357 233.68823,39.9439984 233.218894,40.264 C233.00556,40.4133341 232.760229,40.488 232.482894,40.488 C231.992225,40.488 231.576229,40.2960019 231.234894,39.912 C230.701558,39.3359971 230.12023,38.914668 229.490894,38.648 C228.861558,38.381332 228.141565,38.248 227.330894,38.248 C225.688219,38.248 224.354899,38.7973278 223.330894,39.896 C222.306889,40.9946722 221.794894,42.4506576 221.794894,44.264 C221.794894,45.4160058 222.034892,46.4453288 222.514894,47.352 C222.994896,48.2586712 223.66689,48.9679974 224.530894,49.48 C225.394898,49.9920026 226.381555,50.248 227.490894,50.248 C228.941568,50.248 230.11489,49.8746704 231.010894,49.128 C231.416229,48.8293318 231.810892,48.68 232.194894,48.68 C232.493562,48.68 232.770893,48.775999 233.026894,48.968 C233.432229,49.309335 233.634894,49.6933312 233.634894,50.12 C233.634894,50.4400016 233.506895,50.7279987 233.250894,50.984 C231.714886,52.4133405 229.794906,53.128 227.490894,53.128 C225.805552,53.128 224.290901,52.7440038 222.946894,51.976 C221.602887,51.2079962 220.552231,50.1466734 219.794894,48.792 C219.037557,47.4373266 218.658894,45.9280083 218.658894,44.264 C218.658894,42.5573248 219.02689,41.0266734 219.762894,39.672 C220.498898,38.3173266 221.528221,37.2613371 222.850894,36.504 C224.173567,35.7466629 225.666886,35.368 227.330894,35.368 Z M245.562043,49.8 C245.946045,49.8 246.271375,49.9493318 246.538043,50.248 C246.804711,50.5466682 246.938043,50.9306643 246.938043,51.4 C246.938043,51.8693357 246.762045,52.2533318 246.410043,52.552 C246.058041,52.8506682 245.604712,53 245.050043,53 L244.474043,53 C243.428704,53 242.474047,52.7280027 241.610043,52.184 C240.746039,51.6399973 240.068712,50.8986714 239.578043,49.96 C239.087374,49.0213286 238.842043,47.9653392 238.842043,46.792 L238.842043,38.888 L237.370043,38.888 C236.922041,38.888 236.559378,38.7600013 236.282043,38.504 C236.004708,38.2479987 235.866043,37.9280019 235.866043,37.544 C235.866043,37.1173312 236.004708,36.7760013 236.282043,36.52 C236.559378,36.2639987 236.922041,36.136 237.370043,36.136 L238.842043,36.136 L238.842043,31.528 C238.842043,31.0586643 238.991375,30.6746682 239.290043,30.376 C239.588711,30.0773318 239.972707,29.928 240.442043,29.928 C240.911379,29.928 241.295375,30.0773318 241.594043,30.376 C241.892711,30.6746682 242.042043,31.0586643 242.042043,31.528 L242.042043,36.136 L244.762043,36.136 C245.210045,36.136 245.572708,36.2639987 245.850043,36.52 C246.127378,36.7760013 246.266043,37.1173312 246.266043,37.544 C246.266043,37.9280019 246.127378,38.2479987 245.850043,38.504 C245.572708,38.7600013 245.210045,38.888 244.762043,38.888 L242.042043,38.888 L242.042043,46.792 C242.042043,47.6453376 242.276707,48.3599971 242.746043,48.936 C243.215379,49.5120029 243.791373,49.8 244.474043,49.8 L245.562043,49.8 Z M258.193192,35.368 C259.878534,35.368 261.387852,35.7466629 262.721192,36.504 C264.054532,37.2613371 265.099855,38.3119933 265.857192,39.656 C266.614529,41.0000067 266.993192,42.5359914 266.993192,44.264 C266.993192,45.9706752 266.619862,47.4959933 265.873192,48.84 C265.126522,50.1840067 264.086532,51.2346629 262.753192,51.992 C261.419852,52.7493371 259.899867,53.128 258.193192,53.128 C256.486517,53.128 254.961199,52.7493371 253.617192,51.992 C252.273185,51.2346629 251.227862,50.1840067 250.481192,48.84 C249.734522,47.4959933 249.361192,45.9706752 249.361192,44.264 C249.361192,42.5359914 249.734522,41.0000067 250.481192,39.656 C251.227862,38.3119933 252.273185,37.2613371 253.617192,36.504 C254.961199,35.7466629 256.486517,35.368 258.193192,35.368 Z M258.193192,38.248 C257.105187,38.248 256.129196,38.5039974 255.265192,39.016 C254.401188,39.5280026 253.723861,40.2426621 253.233192,41.16 C252.742523,42.0773379 252.497192,43.1119942 252.497192,44.264 C252.497192,45.4160058 252.742523,46.4453288 253.233192,47.352 C253.723861,48.2586712 254.401188,48.9679974 255.265192,49.48 C256.129196,49.9920026 257.105187,50.248 258.193192,50.248 C259.281197,50.248 260.257188,49.9920026 261.121192,49.48 C261.985196,48.9679974 262.65719,48.2586712 263.137192,47.352 C263.617194,46.4453288 263.857192,45.4160058 263.857192,44.264 C263.857192,43.1119942 263.617194,42.0773379 263.137192,41.16 C262.65719,40.2426621 261.985196,39.5280026 261.121192,39.016 C260.257188,38.5039974 259.281197,38.248 258.193192,38.248 Z M279.752341,35.304 C280.883013,35.304 281.768338,35.474665 282.408341,35.816 C283.048344,36.157335 283.368341,36.5839974 283.368341,37.096 C283.368341,37.2453341 283.357674,37.3519997 283.336341,37.416 C283.14434,38.0986701 282.717678,38.44 282.056341,38.44 C281.949674,38.44 281.789675,38.4186669 281.576341,38.376 C280.723003,38.2266659 280.029677,38.152 279.496341,38.152 C277.960333,38.152 276.723012,38.5039965 275.784341,39.208 C274.84567,39.9120035 274.376341,40.8613274 274.376341,42.056 L274.376341,51.4 C274.376341,51.9120026 274.243009,52.3066653 273.976341,52.584 C273.709673,52.8613347 273.309677,53 272.776341,53 C272.264338,53 271.869676,52.866668 271.592341,52.6 C271.315006,52.333332 271.176341,51.933336 271.176341,51.4 L271.176341,37.096 C271.176341,36.5839974 271.315006,36.1893347 271.592341,35.912 C271.869676,35.6346653 272.264338,35.496 272.776341,35.496 C273.843013,35.496 274.376341,36.029328 274.376341,37.096 L274.376341,37.704 C275.016344,36.9573296 275.80567,36.3706688 276.744341,35.944 C277.683012,35.5173312 278.685669,35.304 279.752341,35.304 Z" id="NewVector" fill="#005450"></path>
                <g id="vector-logo-copy-2">
                    <path d="M45.3892857,9.95744681 C45.3047619,10.3829787 45.2202381,10.8085106 45.0511905,11.1489362 C45.4738095,11.3191489 45.9809524,11.4893617 46.4035714,11.6595745 C48.5166667,12.4255319 50.4607143,13.4468085 52.3202381,14.6382979 C53.5880952,15.4893617 54.7714286,16.3404255 55.9547619,17.3617021 C56.2083333,17.0212766 56.5464286,16.7659574 56.8845238,16.5106383 C57.222619,16.2553191 57.5607143,16 57.9833333,15.7446809 C57.1380952,14.9787234 56.2083333,14.212766 55.2785714,13.5319149 C52.5738095,11.5744681 49.6154762,9.95744681 46.4035714,8.93617021 C46.15,8.85106383 45.8119048,8.76595745 45.5583333,8.68085106 C45.5583333,9.10638298 45.4738095,9.53191489 45.3892857,9.95744681 Z" id="Path" fill="#005450"></path>
                    <path d="M35.922619,13.1914894 C38.0357143,13.1914894 39.8107143,11.9148936 40.5714286,10.1276596 C40.7404762,9.70212766 40.825,9.36170213 40.9095238,8.93617021 C40.9940476,8.68085106 40.9940476,8.42553191 40.9940476,8.08510638 C40.9940476,7.91489362 40.9940476,7.74468085 40.9940476,7.65957447 C40.9095238,6.29787234 40.2333333,5.10638298 39.3035714,4.25531915 C38.3738095,3.4893617 37.275,2.9787234 35.922619,2.9787234 C34.6547619,2.9787234 33.4714286,3.4893617 32.5416667,4.25531915 C31.6119048,5.10638298 30.9357143,6.29787234 30.8511905,7.65957447 C30.8511905,7.82978723 30.8511905,8 30.8511905,8.08510638 C30.8511905,8.34042553 30.8511905,8.68085106 30.9357143,8.93617021 C31.0202381,9.36170213 31.1047619,9.78723404 31.2738095,10.1276596 C32.0345238,11.9148936 33.8095238,13.1914894 35.922619,13.1914894 Z" id="Path"></path>
                    <path d="M35.922619,15.7446809 C39.2190476,15.7446809 42.0083333,13.6170213 43.1071429,10.6382979 C43.2761905,10.212766 43.3607143,9.78723404 43.4452381,9.44680851 C43.5297619,9.0212766 43.5297619,8.59574468 43.5297619,8.17021277 C43.5297619,8.17021277 43.5297619,8.17021277 43.5297619,8.08510638 C43.5297619,6.72340426 43.1916667,5.36170213 42.5154762,4.25531915 C41.1630952,1.95744681 38.7119048,0.425531915 35.922619,0.425531915 C33.1333333,0.425531915 30.6821429,1.95744681 29.3297619,4.25531915 C28.6535714,5.36170213 28.3154762,6.72340426 28.3154762,8.08510638 C28.3154762,8.08510638 28.3154762,8.08510638 28.3154762,8.17021277 C28.3154762,8.59574468 28.4,9.0212766 28.4,9.44680851 C28.4845238,9.87234043 28.5690476,10.2978723 28.7380952,10.6382979 C29.752381,13.6170213 32.5416667,15.7446809 35.922619,15.7446809 Z M30.8511905,8.93617021 C30.7666667,8.68085106 30.7666667,8.42553191 30.7666667,8.08510638 C30.7666667,7.91489362 30.7666667,7.74468085 30.7666667,7.65957447 C30.8511905,6.29787234 31.527381,5.10638298 32.4571429,4.25531915 C33.3869048,3.4893617 34.4857143,2.9787234 35.8380952,2.9787234 C37.1059524,2.9787234 38.2892857,3.4893617 39.2190476,4.25531915 C40.1488095,5.10638298 40.825,6.29787234 40.9095238,7.65957447 C40.9095238,7.82978723 40.9095238,8 40.9095238,8.08510638 C40.9095238,8.34042553 40.9095238,8.68085106 40.825,8.93617021 C40.7404762,9.36170213 40.6559524,9.78723404 40.4869048,10.1276596 C39.7261905,11.9148936 37.9511905,13.1914894 35.8380952,13.1914894 C33.725,13.1914894 31.95,11.9148936 31.1892857,10.1276596 C31.1047619,9.78723404 30.9357143,9.36170213 30.8511905,8.93617021 Z" id="Shape" fill="#005450"></path>
                    <path d="M4.81785714,46.5531915 C5.24047619,46.3829787 5.66309524,46.2978723 6.08571429,46.212766 C6.00119048,45.8723404 5.91666667,45.5319149 5.91666667,45.106383 C5.66309524,43.5744681 5.57857143,42.0425532 5.57857143,40.4255319 C5.57857143,38.5531915 5.74761905,36.6808511 6.08571429,34.893617 C6.1702381,34.5531915 6.2547619,34.212766 6.2547619,33.8723404 C5.83214286,33.787234 5.40952381,33.7021277 4.98690476,33.5319149 C4.56428571,33.3617021 4.22619048,33.1914894 3.80357143,33.0212766 C3.63452381,33.6170213 3.55,34.212766 3.46547619,34.893617 C3.12738095,36.6808511 3.04285714,38.5531915 3.04285714,40.4255319 C3.04285714,42.0425532 3.12738095,43.5744681 3.38095238,45.106383 C3.46547619,45.787234 3.55,46.3829787 3.71904762,47.0638298 C3.97261905,46.8085106 4.3952381,46.6382979 4.81785714,46.5531915 Z" id="Path" fill="#005450"></path>
                    <path d="M10.5654762,51.3191489 L11.1571429,50.212766 L11.072619,50.3829787 L10.9880952,50.5531915 L10.5654762,51.3191489 C9.7202381,50.893617 8.875,50.6382979 8.0297619,50.6382979 C7.77619048,50.6382979 7.52261905,50.6382979 7.26904762,50.7234043 C6.84642857,50.8085106 6.42380952,50.893617 6.08571429,51.0638298 C5.66309524,51.2340426 5.325,51.4893617 4.98690476,51.7446809 C4.4797619,52.1702128 4.05714286,52.5957447 3.71904762,53.1914894 C3.29642857,53.9574468 3.04285714,54.893617 3.04285714,55.7446809 C3.04285714,57.5319149 3.97261905,59.2340426 5.57857143,60.1702128 C6.42380952,60.5957447 7.26904762,60.8510638 8.11428571,60.8510638 C8.70595238,60.8510638 9.29761905,60.7659574 9.8047619,60.5106383 C10.227381,60.3404255 10.5654762,60.1702128 10.9880952,59.9148936 C11.3261905,59.6595745 11.6642857,59.4042553 11.9178571,59.0638298 C12.1714286,58.8085106 12.3404762,58.5531915 12.5095238,58.212766 C12.9321429,57.3617021 13.1857143,56.5106383 13.1857143,55.6595745 C13.1011905,53.9574468 12.1714286,52.2553191 10.5654762,51.3191489 Z" id="Path"></path>
                    <path d="M11.8333333,49.106383 L11.8333333,49.106383 C10.65,48.4255319 9.29761905,48.0851064 8.0297619,48.0851064 C7.52261905,48.0851064 7.01547619,48.1702128 6.50833333,48.2553191 C6.08571429,48.3404255 5.66309524,48.4255319 5.325,48.5957447 C4.90238095,48.7659574 4.56428571,48.9361702 4.14166667,49.1914894 C3.04285714,49.8723404 2.11309524,50.7234043 1.43690476,51.9148936 C0.760714286,53.106383 0.422619048,54.4680851 0.422619048,55.7446809 C0.422619048,58.3829787 1.775,60.9361702 4.22619048,62.3829787 C5.40952381,63.0638298 6.76190476,63.4042553 8.0297619,63.4042553 C8.0297619,63.4042553 8.0297619,63.4042553 8.0297619,63.4042553 C9.21309524,63.4042553 10.3119048,63.1489362 11.4107143,62.5531915 C11.8333333,62.3829787 12.1714286,62.1276596 12.5095238,61.8723404 C12.847619,61.6170213 13.1857143,61.3617021 13.4392857,61.0212766 C13.8619048,60.5957447 14.2845238,60.0851064 14.622619,59.4893617 C15.2988095,58.2978723 15.6369048,56.9361702 15.6369048,55.6595745 C15.6369048,53.106383 14.2,50.5531915 11.8333333,49.106383 Z M10.5654762,51.3191489 C12.1714286,52.2553191 13.1011905,53.9574468 13.1011905,55.7446809 C13.1011905,56.5957447 12.847619,57.4468085 12.425,58.2978723 C12.2559524,58.6382979 12.0869048,58.893617 11.8333333,59.1489362 C11.5797619,59.4893617 11.2416667,59.7446809 10.9035714,60 C10.5654762,60.2553191 10.1428571,60.4255319 9.7202381,60.5957447 C9.21309524,60.7659574 8.62142857,60.9361702 8.0297619,60.9361702 C7.18452381,60.9361702 6.33928571,60.6808511 5.49404762,60.2553191 C3.88809524,59.3191489 2.95833333,57.6170213 2.95833333,55.8297872 C2.95833333,54.9787234 3.21190476,54.1276596 3.63452381,53.2765957 C3.97261905,52.6808511 4.3952381,52.1702128 4.90238095,51.8297872 C5.24047619,51.5744681 5.66309524,51.3191489 6.00119048,51.1489362 C6.42380952,50.9787234 6.76190476,50.893617 7.18452381,50.8085106 C7.43809524,50.8085106 7.69166667,50.7234043 7.9452381,50.7234043 C8.875,50.6382979 9.7202381,50.893617 10.5654762,51.3191489 L10.5654762,51.3191489 Z" id="Shape" fill="#005450"></path>
                    <path d="M57.4761905,63.8297872 C57.1380952,63.5744681 56.8,63.3191489 56.4619048,63.0638298 C55.1940476,64.2553191 53.8416667,65.2765957 52.4047619,66.212766 C50.5452381,67.4042553 48.6011905,68.4255319 46.4880952,69.1914894 C46.15,69.3617021 45.727381,69.4468085 45.3047619,69.6170213 C45.3892857,70.0425532 45.4738095,70.4680851 45.5583333,70.893617 C45.5583333,71.2340426 45.6428571,71.5744681 45.6428571,72 C45.6428571,72.0851064 45.6428571,72.1702128 45.6428571,72.2553191 C45.8964286,72.1702128 46.2345238,72.0851064 46.4880952,72 C50.122619,70.7234043 53.5035714,68.8510638 56.4619048,66.5531915 C57.222619,65.9574468 57.8988095,65.2765957 58.6595238,64.6808511 C58.2369048,64.2553191 57.8142857,64.0851064 57.4761905,63.8297872 Z" id="Path" fill="#005450"></path>
                    <path d="M68.0416667,55.7446809 C68.0416667,54.893617 67.7880952,54.0425532 67.3654762,53.1914894 C67.1964286,52.8510638 66.9428571,52.5957447 66.6892857,52.3404255 C66.3511905,52 66.0130952,51.7446809 65.675,51.4893617 C65.3369048,51.2340426 64.9142857,51.0638298 64.4916667,50.9787234 C63.9845238,50.8085106 63.477381,50.7234043 62.9702381,50.7234043 C62.125,50.7234043 61.2797619,50.9787234 60.4345238,51.4042553 C58.8285714,52.3404255 57.8988095,54.0425532 57.8988095,55.8297872 C57.8988095,56.6808511 58.152381,57.5319149 58.575,58.3829787 C58.8285714,58.893617 59.2511905,59.3191489 59.6738095,59.6595745 C60.0119048,59.9148936 60.35,60.1702128 60.772619,60.3404255 C61.1952381,60.5106383 61.6178571,60.6808511 62.0404762,60.7659574 C62.3785714,60.8510638 62.7166667,60.8510638 63.0547619,60.8510638 C63.9,60.8510638 64.7452381,60.5957447 65.5904762,60.1702128 L65.5904762,60.1702128 C67.1119048,59.2340426 68.0416667,57.5319149 68.0416667,55.7446809 Z" id="Path"></path>
                    <path d="M66.7738095,62.3829787 C66.7738095,62.3829787 66.7738095,62.3829787 66.7738095,62.3829787 C69.225,60.9361702 70.577381,58.3829787 70.577381,55.7446809 C70.577381,54.4680851 70.2392857,53.106383 69.5630952,51.9148936 C69.0559524,50.9787234 68.3797619,50.212766 67.6190476,49.6170213 C67.2809524,49.3617021 66.8583333,49.106383 66.5202381,48.9361702 C66.1821429,48.7659574 65.7595238,48.5957447 65.3369048,48.4255319 C64.5761905,48.1702128 63.8154762,48.0851064 63.0547619,48.0851064 C61.7869048,48.0851064 60.4345238,48.4255319 59.2511905,49.106383 C56.8,50.5531915 55.447619,53.106383 55.447619,55.7446809 C55.447619,57.0212766 55.7857143,58.3829787 56.4619048,59.5744681 C56.8845238,60.3404255 57.4761905,60.9361702 58.0678571,61.5319149 C58.4059524,61.787234 58.7440476,62.0425532 59.0821429,62.2978723 C59.4202381,62.5531915 59.8428571,62.7234043 60.2654762,62.893617 C61.1107143,63.2340426 62.125,63.4042553 63.0547619,63.4042553 C63.0547619,63.4042553 63.0547619,63.4042553 63.0547619,63.4042553 C64.2380952,63.4042553 65.5059524,63.0638298 66.7738095,62.3829787 L66.7738095,62.3829787 L66.7738095,62.3829787 Z M65.5059524,60.1702128 L65.5059524,60.1702128 C64.6607143,60.5957447 63.8154762,60.8510638 62.9702381,60.8510638 C62.6321429,60.8510638 62.2940476,60.7659574 61.9559524,60.7659574 C61.5333333,60.6808511 61.1107143,60.5106383 60.6880952,60.3404255 C60.35,60.1702128 59.927381,59.9148936 59.5892857,59.6595745 C59.1666667,59.3191489 58.8285714,58.893617 58.4904762,58.3829787 C57.9833333,57.5319149 57.8142857,56.6808511 57.8142857,55.8297872 C57.8142857,54.0425532 58.7440476,52.3404255 60.35,51.4042553 C61.1952381,50.893617 62.0404762,50.7234043 62.8857143,50.7234043 C63.3928571,50.7234043 63.9845238,50.8085106 64.4071429,50.9787234 C64.8297619,51.1489362 65.1678571,51.3191489 65.5904762,51.4893617 C65.9285714,51.7446809 66.2666667,52 66.6047619,52.3404255 C66.8583333,52.5957447 67.1119048,52.9361702 67.2809524,53.1914894 C67.7035714,53.9574468 67.9571429,54.893617 67.9571429,55.7446809 C68.0416667,57.5319149 67.1119048,59.2340426 65.5059524,60.1702128 Z" id="Shape" fill="#005450"></path>
                    <path d="M26.202381,71.9148936 C26.202381,71.5744681 26.202381,71.1489362 26.2869048,70.8085106 C26.3714286,70.3829787 26.4559524,69.9574468 26.5404762,69.5319149 C26.1178571,69.4468085 25.7797619,69.2765957 25.3571429,69.106383 C22.9059524,68.1702128 20.7083333,66.9787234 18.5952381,65.5319149 C17.327381,64.5957447 16.0595238,63.6595745 14.9607143,62.5531915 C14.622619,62.893617 14.3690476,63.1489362 14.0309524,63.4042553 C13.6928571,63.6595745 13.3547619,63.9148936 12.9321429,64.1702128 C13.6928571,64.9361702 14.5380952,65.7021277 15.3833333,66.3829787 C18.3416667,68.7659574 21.722619,70.6382979 25.3571429,71.8297872 C25.6107143,71.9148936 25.9488095,72 26.202381,72.0851064 C26.202381,72.0851064 26.202381,72 26.202381,71.9148936 Z" id="Path" fill="#005450"></path>
                    <path d="M34.5702381,62.212766 C34.2321429,61.9574468 33.9785714,61.6170213 33.6404762,61.2765957 C28.822619,56.4255319 20.4547619,46.7234043 17.0738095,34.893617 C16.5666667,33.2765957 16.2285714,31.5744681 15.975,29.787234 C15.3833333,30.6382979 14.622619,31.4893617 13.8619048,32.0851064 C14.0309524,33.0212766 14.2845238,33.9574468 14.5380952,34.893617 C15.4678571,38.5531915 16.9047619,41.9574468 18.5107143,45.106383 C18.5107143,45.1914894 18.5952381,45.2765957 18.5952381,45.2765957 C22.0607143,52 26.625,57.5319149 30.0904762,61.2765957 C30.6821429,61.9574468 31.2738095,62.5531915 31.7809524,63.0638298 C32.6261905,62.6382979 33.5559524,62.3829787 34.5702381,62.212766 Z" id="Path" fill="#005450"></path>
                    <path d="M35.922619,66.8085106 C33.5559524,66.8085106 31.6119048,68.4255319 31.0202381,70.6382979 C30.9357143,71.0638298 30.8511905,71.4893617 30.8511905,71.9148936 C30.8511905,71.9148936 30.8511905,71.9148936 30.8511905,71.9148936 C30.8511905,72.3404255 30.9357143,72.8510638 31.0202381,73.2765957 C31.4428571,74.8085106 32.4571429,76 33.8940476,76.5957447 C34.4857143,76.8510638 35.1619048,77.0212766 35.922619,77.0212766 C36.5988095,77.0212766 37.3595238,76.8510638 37.9511905,76.5957447 C39.3880952,76 40.402381,74.7234043 40.825,73.2765957 C40.9095238,72.8510638 40.9940476,72.4255319 40.9940476,71.9148936 C40.9940476,71.9148936 40.9940476,71.9148936 40.9940476,71.9148936 C40.9940476,71.4893617 40.9095238,71.0638298 40.825,70.6382979 C40.2333333,68.4255319 38.2892857,66.8085106 35.922619,66.8085106 Z" id="Path"></path>
                    <path d="M38.2892857,64.6808511 C37.7821429,64.5106383 37.3595238,64.4255319 36.852381,64.3404255 C36.5142857,64.3404255 36.1761905,64.2553191 35.922619,64.2553191 C35.5845238,64.2553191 35.2464286,64.2553191 34.9928571,64.3404255 C34.4857143,64.4255319 33.9785714,64.5106383 33.5559524,64.6808511 C31.1047619,65.5319149 29.1607143,67.5744681 28.5690476,70.1276596 C28.4845238,70.5531915 28.4,70.9787234 28.4,71.4042553 C28.4,71.5744681 28.4,71.7446809 28.4,71.9148936 C28.4,72.1702128 28.4,72.4255319 28.4845238,72.7659574 C28.6535714,74.212766 29.1607143,75.5744681 30.0059524,76.5957447 C31.3583333,78.3829787 33.5559524,79.5744681 36.0071429,79.5744681 C38.4583333,79.5744681 40.6559524,78.3829787 42.0083333,76.5957447 C42.8535714,75.4893617 43.4452381,74.212766 43.5297619,72.7659574 C43.5297619,72.5106383 43.6142857,72.2553191 43.6142857,71.9148936 C43.6142857,71.7446809 43.6142857,71.5744681 43.6142857,71.4042553 C43.6142857,70.9787234 43.5297619,70.5531915 43.4452381,70.1276596 C42.6845238,67.5744681 40.825,65.5319149 38.2892857,64.6808511 Z M40.9940476,71.9148936 C40.9940476,71.9148936 40.9940476,71.9148936 40.9940476,71.9148936 C40.9940476,72.4255319 40.9095238,72.8510638 40.825,73.2765957 C40.402381,74.8085106 39.3880952,76 37.9511905,76.5957447 C37.3595238,76.8510638 36.6833333,77.0212766 35.922619,77.0212766 C35.2464286,77.0212766 34.4857143,76.8510638 33.8940476,76.5957447 C32.4571429,76 31.4428571,74.7234043 31.0202381,73.2765957 C30.9357143,72.8510638 30.8511905,72.4255319 30.8511905,71.9148936 C30.8511905,71.9148936 30.8511905,71.9148936 30.8511905,71.9148936 C30.8511905,71.4893617 30.9357143,71.0638298 31.0202381,70.6382979 C31.6119048,68.4255319 33.5559524,66.8085106 35.922619,66.8085106 C38.2892857,66.8085106 40.2333333,68.4255319 40.825,70.6382979 C40.9095238,71.0638298 40.9940476,71.4893617 40.9940476,71.9148936 Z" id="Shape" fill="#005450"></path>
                    <path d="M14.4535714,16.9361702 C14.7916667,17.1914894 15.0452381,17.5319149 15.3833333,17.8723404 C16.397619,16.9361702 17.4964286,16.0851064 18.5952381,15.2340426 C20.7083333,13.787234 22.9059524,12.5957447 25.3571429,11.6595745 C25.7797619,11.4893617 26.2869048,11.3191489 26.7095238,11.1489362 C26.5404762,10.7234043 26.4559524,10.2978723 26.3714286,9.95744681 C26.2869048,9.53191489 26.202381,9.10638298 26.202381,8.68085106 C25.9488095,8.76595745 25.6107143,8.85106383 25.3571429,8.93617021 C22.1452381,10.0425532 19.1869048,11.5744681 16.4821429,13.5319149 C15.3833333,14.2978723 14.3690476,15.1489362 13.4392857,16.0851064 C13.777381,16.4255319 14.1154762,16.6808511 14.4535714,16.9361702 Z" id="Path" fill="#005450"></path>
                    <path d="M5.49404762,28.6808511 C5.74761905,28.8510638 6.00119048,28.9361702 6.33928571,29.0212766 C6.76190476,29.1914894 7.18452381,29.2765957 7.60714286,29.2765957 C7.77619048,29.2765957 7.9452381,29.2765957 8.11428571,29.2765957 C9.88928571,29.2765957 11.5797619,28.3404255 12.5095238,26.7234043 C12.9321429,25.9574468 13.1857143,25.0212766 13.1857143,24.1702128 C13.1857143,23.1489362 12.847619,22.0425532 12.2559524,21.1914894 C12.002381,20.8510638 11.7488095,20.5106383 11.4107143,20.2553191 C11.1571429,20.0851064 10.9880952,19.9148936 10.65,19.7446809 L11.072619,19.0638298 L11.1571429,18.9787234 L11.3261905,18.6382979 L10.65,19.7446809 C10.5654762,19.6595745 10.3964286,19.6595745 10.3119048,19.5744681 C9.63571429,19.2340426 8.875,19.0638298 8.11428571,19.0638298 C6.33928571,19.0638298 4.64880952,20 3.71904762,21.6170213 C3.29642857,22.3829787 3.04285714,23.3191489 3.04285714,24.1702128 C3.04285714,25.787234 3.80357143,27.4042553 5.24047619,28.3404255 C5.24047619,28.5106383 5.325,28.5957447 5.49404762,28.6808511 Z" id="Path"></path>
                    <path d="M6.67738095,31.8297872 C7.1,31.9148936 7.52261905,31.9148936 7.9452381,31.9148936 C7.9452381,31.9148936 7.9452381,31.9148936 7.9452381,31.9148936 C9.97380952,31.9148936 11.9178571,31.0638298 13.3547619,29.6170213 C13.777381,29.1914894 14.2,28.6808511 14.5380952,28.0851064 C15.1297619,26.9787234 15.4678571,25.8723404 15.552381,24.6808511 C15.552381,24.5106383 15.552381,24.4255319 15.552381,24.2553191 C15.552381,22.4680851 14.8761905,20.7659574 13.777381,19.3191489 C13.5238095,18.9787234 13.1857143,18.7234043 12.847619,18.3829787 C12.5095238,18.1276596 12.1714286,17.8723404 11.8333333,17.6170213 C11.8333333,17.6170213 11.7488095,17.6170213 11.7488095,17.5319149 C10.5654762,16.8510638 9.21309524,16.5106383 7.9452381,16.5106383 C5.325,16.5106383 2.78928571,17.8723404 1.35238095,20.3404255 C0.676190476,21.5319149 0.338095238,22.893617 0.338095238,24.1702128 C0.338095238,26.8085106 1.69047619,29.3617021 4.14166667,30.8085106 C4.14166667,30.8085106 4.22619048,30.8085106 4.22619048,30.893617 C4.56428571,31.1489362 4.98690476,31.2340426 5.40952381,31.4042553 C5.83214286,31.5744681 6.2547619,31.7446809 6.67738095,31.8297872 Z M10.5654762,19.8297872 C10.8190476,20 11.072619,20.1702128 11.3261905,20.3404255 C11.6642857,20.5957447 11.9178571,20.9361702 12.1714286,21.2765957 C12.7630952,22.1276596 13.1011905,23.1489362 13.1011905,24.2553191 C13.1011905,25.106383 12.847619,25.9574468 12.425,26.8085106 C11.4952381,28.4255319 9.8047619,29.3617021 8.0297619,29.3617021 C7.86071429,29.3617021 7.69166667,29.3617021 7.52261905,29.3617021 C7.1,29.3617021 6.67738095,29.1914894 6.2547619,29.106383 C6.00119048,29.0212766 5.74761905,28.8510638 5.40952381,28.7659574 C5.325,28.6808511 5.15595238,28.5957447 5.07142857,28.5106383 C3.63452381,27.5744681 2.87380952,25.9574468 2.87380952,24.3404255 C2.87380952,23.4893617 3.12738095,22.6382979 3.55,21.787234 C4.4797619,20.1702128 6.1702381,19.2340426 7.9452381,19.2340426 C8.70595238,19.2340426 9.38214286,19.4042553 10.1428571,19.7446809 C10.3119048,19.7446809 10.3964286,19.7446809 10.5654762,19.8297872 L10.5654762,19.8297872 Z" id="Shape" fill="#005450"></path>
                    <path d="M67.7880952,32.7659574 C67.45,32.9361702 67.1119048,33.106383 66.7738095,33.2765957 C66.3511905,33.4468085 66.0130952,33.6170213 65.5904762,33.7021277 C65.675,34.1276596 65.7595238,34.5531915 65.8440476,34.893617 C66.1821429,36.6808511 66.3511905,38.5531915 66.3511905,40.4255319 C66.3511905,42.0425532 66.2666667,43.5744681 66.0130952,45.106383 C65.9285714,45.5319149 65.8440476,45.9574468 65.7595238,46.3829787 C66.1821429,46.4680851 66.6047619,46.6382979 66.9428571,46.8085106 C67.3654762,46.9787234 67.7035714,47.2340426 68.1261905,47.4042553 C68.2952381,46.6382979 68.4642857,45.8723404 68.5488095,45.0212766 C68.802381,43.4893617 68.8869048,41.9574468 68.8869048,40.3404255 C68.8869048,38.4680851 68.7178571,36.5957447 68.4642857,34.8085106 C68.2952381,34.0425532 68.2107143,33.2765957 68.0416667,32.5957447 C67.872619,32.6808511 67.872619,32.6808511 67.7880952,32.7659574" id="Path" fill="#005450"></path>
                    <path d="M54.6869048,34.893617 C52.7428571,41.787234 49.1083333,47.9148936 45.4738095,52.8510638 C42.8535714,56.3404255 40.2333333,59.2340426 38.2047619,61.2765957 C38.1202381,61.3617021 38.1202381,61.3617021 38.0357143,61.4468085 C37.7821429,61.7021277 37.5285714,61.9574468 37.1904762,62.212766 C38.2047619,62.3829787 39.1345238,62.6382979 39.9797619,63.0638298 C40.4869048,62.5531915 41.0785714,61.9574468 41.6702381,61.2765957 C44.8821429,57.8723404 48.9392857,52.9361702 52.3202381,46.893617 C52.6583333,46.2978723 52.9964286,45.7021277 53.25,45.106383 C54.8559524,41.9574468 56.2928571,38.5531915 57.222619,34.893617 C57.3916667,34.1276596 57.6452381,33.3617021 57.7297619,32.5957447 C56.8845238,32.0851064 56.2083333,31.4893617 55.5321429,30.7234043 C55.447619,32.1702128 55.1095238,33.5319149 54.6869048,34.893617 Z" id="Path" fill="#005450"></path>
                    <path d="M68.0416667,24.2553191 C68.0416667,23.4042553 67.7880952,22.5531915 67.3654762,21.7021277 C66.4357143,20.0851064 64.7452381,19.1489362 62.9702381,19.1489362 C62.4630952,19.1489362 61.9559524,19.2340426 61.4488095,19.4042553 C61.1107143,19.4893617 60.772619,19.6595745 60.4345238,19.8297872 C60.35,19.8297872 60.35,19.9148936 60.2654762,20 C59.927381,20.2553191 59.5892857,20.5106383 59.2511905,20.8510638 C58.4059524,21.787234 57.8988095,23.0638298 57.8988095,24.3404255 C57.8988095,24.5106383 57.8988095,24.5957447 57.8988095,24.7659574 C57.9833333,25.5319149 58.152381,26.212766 58.575,26.893617 C58.575,26.9787234 58.6595238,26.9787234 58.6595238,27.0638298 C59.5892857,28.5957447 61.2797619,29.4468085 62.9702381,29.4468085 C63.3928571,29.4468085 63.8154762,29.3617021 64.2380952,29.2765957 C64.6607143,29.1914894 64.9988095,29.0212766 65.4214286,28.7659574 C65.4214286,28.7659574 65.5059524,28.7659574 65.5059524,28.6808511 L65.5059524,28.6808511 C65.8440476,28.5106383 66.1821429,28.2553191 66.4357143,27.9148936 C67.45,26.9787234 68.0416667,25.6170213 68.0416667,24.2553191 Z" id="Path"></path>
                    <path d="M66.7738095,30.893617 C67.027381,30.8085106 67.1964286,30.6382979 67.3654762,30.4680851 C69.3940476,29.0212766 70.577381,26.6382979 70.577381,24.2553191 C70.577381,22.9787234 70.2392857,21.6170213 69.5630952,20.4255319 C68.1261905,17.9574468 65.5904762,16.5957447 62.9702381,16.5957447 C61.8714286,16.5957447 60.6880952,16.8510638 59.6738095,17.3617021 C59.5047619,17.4468085 59.3357143,17.5319149 59.1666667,17.6170213 C58.9130952,17.787234 58.7440476,17.8723404 58.4904762,18.0425532 C58.152381,18.2978723 57.8142857,18.5531915 57.4761905,18.893617 C56.0392857,20.3404255 55.2785714,22.2978723 55.2785714,24.2553191 C55.2785714,25.3617021 55.5321429,26.4680851 56.0392857,27.4893617 C56.1238095,27.6595745 56.2083333,27.9148936 56.377381,28.0851064 C56.8845238,28.9361702 57.5607143,29.7021277 58.3214286,30.2978723 C59.6738095,31.3191489 61.2797619,31.9148936 62.9702381,31.9148936 C63.6464286,31.9148936 64.4071429,31.8297872 65.0833333,31.5744681 C65.5059524,31.4893617 65.8440476,31.3191489 66.2666667,31.1489362 C66.3511905,31.0638298 66.6047619,30.9787234 66.7738095,30.893617 L66.7738095,30.893617 Z M65.5059524,28.6808511 L65.5059524,28.6808511 C65.5059524,28.6808511 65.4214286,28.6808511 65.4214286,28.7659574 C64.9988095,28.9361702 64.6607143,29.106383 64.2380952,29.2765957 C63.8154762,29.3617021 63.3928571,29.4468085 62.9702381,29.4468085 C61.2797619,29.4468085 59.5892857,28.5957447 58.6595238,27.0638298 C58.6595238,26.9787234 58.575,26.9787234 58.575,26.893617 C58.152381,26.212766 57.9833333,25.5319149 57.8988095,24.7659574 C57.8988095,24.5957447 57.8988095,24.5106383 57.8988095,24.3404255 C57.8988095,23.0638298 58.4059524,21.787234 59.2511905,20.8510638 C59.5047619,20.5106383 59.8428571,20.2553191 60.2654762,20 C60.35,20 60.35,19.9148936 60.4345238,19.8297872 C60.772619,19.6595745 61.1107143,19.4893617 61.4488095,19.4042553 C61.9559524,19.2340426 62.4630952,19.1489362 62.9702381,19.1489362 C64.7452381,19.1489362 66.4357143,20.0851064 67.3654762,21.7021277 C67.7880952,22.4680851 68.0416667,23.4042553 68.0416667,24.2553191 C68.0416667,25.6170213 67.45,26.9787234 66.4357143,27.9148936 C66.1821429,28.2553191 65.8440476,28.5106383 65.5059524,28.6808511 Z" id="Shape" fill="#005450"></path>
                </g>
            </g>
        </g>
    </g>
</svg>