<?xml version="1.0" encoding="UTF-8"?>
<svg width="232px" height="90px" viewBox="0 0 232 90" version="1.1" xmlns="http://www.w3.org/2000/svg" xmlns:xlink="http://www.w3.org/1999/xlink">
    <!-- Generator: Sketch 53 (72520) - https://sketchapp.com -->
    <title>elisa</title>
    <desc>Created with Sketch.</desc>
    <g id="Page-1" stroke="none" stroke-width="1" fill="none" fill-rule="evenodd">
        <g id="Artboard" transform="translate(-1390.000000, -7285.000000)" fill="#0625AE" fill-rule="nonzero">
            <g id="Stacked-Group" transform="translate(503.000000, 7280.000000)">
                <g id="elisa" transform="translate(887.000000, 5.000000)">
                    <path d="M83.1146432,24.5938909 C83.0915361,28.0276428 83.3919077,33.2246731 83.9464506,38.537712 C84.2468222,41.2290264 84.6165151,42.9459086 84.778251,43.6883444 C84.8706794,44.0595554 85.0093082,44.1059603 85.0093082,44.1059603 C85.1248368,44.1059603 85.1710511,44.0595554 85.3558941,43.8739499 C86.1414941,43.0619137 87.1350374,40.3473899 87.7588947,38.8161272 C89.9770384,33.4334845 91.5251245,27.5636203 92.3569319,21.3921456 C92.4724605,20.6497151 93.4197965,13.8750119 91.4095959,11.0908906 C90.9012673,10.3716537 90.2312027,9.67562262 89.4456096,9.58282336 C89.3531881,9.55961745 89.1683382,9.53642384 88.8910736,9.53642384 C87.3429875,9.53642384 83.5998647,10.6964756 83.2994862,19.4896634 C83.2994934,19.4664591 83.1146432,23.5498444 83.1146432,24.5938909 L83.1146432,24.5938909 Z M46.6088261,40.5298013 C43.1255037,40.5298013 40.0162243,41.8766953 39.8759547,41.9223589 C33.8444209,44.3878596 29.5662398,48.4742052 27.5089719,53.7476409 C27.4388371,53.9302749 26.5037176,55.9620309 27.111546,56.7153764 C27.5557273,57.2632681 28.4440934,57.2176113 29.4727255,57.2176113 L29.5896157,57.2176113 C39.946086,56.989324 47.5673269,55.9620309 51.0272699,51.670228 C51.14416,51.5560844 54.1365457,48.1317741 53.7858752,45.0042382 C53.6456126,43.7943145 53.037786,42.7898481 51.9857744,42.0365026 C50.5363334,41.0320328 48.7362289,40.5298013 46.6088263,40.5298013 L46.6088261,40.5298013 Z M203.649384,62.6283588 C192.1951,62.8790967 186.237004,64.3151305 183.119401,67.5519142 C181.71074,69.0107437 180.879357,70.8342823 180.602262,73.1137055 C180.602262,73.1820923 180.325139,75.2791575 181.618333,76.8975493 C182.47279,77.9916697 183.789142,78.5843211 185.521143,78.6754967 C185.521143,78.6754967 185.705873,78.6754967 186.00607,78.6754967 C188.500163,78.6754967 201.201508,78.0600565 205.843295,66.0474935 C205.912558,65.8651424 206.697751,64.1328004 206.004951,63.1298278 C205.727828,62.7423299 204.896444,62.5827815 203.857243,62.5827815 C203.764893,62.6055841 203.695615,62.6055841 203.649426,62.6283588 L203.649384,62.6283588 Z M186.764062,89.9769762 C182.895392,89.9769762 177.613622,89.4014169 174.393603,86.7078102 C168.648506,81.8731113 169.829992,71.8353401 169.876297,71.3979304 C170.687096,64.9286203 174.208266,56.4794269 186.370257,52.9109587 C191.906885,51.2763581 198.231068,50.9540568 202.516731,50.8619687 L202.516731,50.8619687 C203.049539,50.8619687 205.01862,50.8159211 205.273465,50.010138 C205.528296,49.2043549 203.814003,47.8230123 202.702039,47.086297 C199.36622,44.8301035 191.188713,40.9853675 173.026851,40.9853675 C172.957342,40.9853675 171.289426,40.9853675 170.548107,40.9853675 C162.810782,40.9853675 152.641062,42.3436897 147.28977,45.543802 C146.061978,46.2805138 145.297514,47.1093207 145.20486,48.1913752 C145.042711,50.010138 146.756948,51.4605483 146.942285,51.6217043 L146.988605,51.6677518 C148.656536,52.9109587 150.463455,53.9009181 151.621739,54.4764775 L152.10824,54.7067012 C154.980761,56.0880438 160.308879,58.6435288 162.694954,64.0077255 C164.015386,66.93157 164.571396,70.0626216 164.316551,73.078547 C162.463297,89.7928002 143.397954,89.999986 142.587156,89.999986 L142.517662,89.999986 C134.687668,89.999986 128.965745,87.0301009 125.537229,84.5206633 C125.490895,84.4746227 120.209125,81.274507 118.101026,74.8512656 C118.054706,74.6670893 117.684033,73.5389943 117.614539,73.3087706 C117.382882,72.3648518 116.826915,70.2007499 116.340427,70.1547024 C115.529636,70.0626214 114.209189,72.7562349 113.79221,73.5159777 C112.888744,75.1505818 111.776794,77.1074837 111.406135,77.6600053 C109.321225,81.0673351 103.900467,90 95.6998214,90 C93.5917511,90 91.4141726,89.4014169 89.213434,88.2042575 C83.9316642,85.3494914 82.4027287,80.9982498 81.1517839,77.49886 C80.8274659,76.55492 80.5494751,75.4959174 80.2251572,74.5289749 C78.9047112,70.5691235 78.6267274,70.4540117 75.6151904,73.1476324 C72.7426488,75.7261412 69.9627685,78.2586025 67.5303732,80.1464332 C63.6617037,83.1623657 55.8548738,88.4114506 47.214082,89.5165287 C45.0365105,89.7927931 42.9052627,90 40.9130172,90 C32.8745342,90 26.9209544,87.6977624 23.2144455,83.2774776 C20.2955751,79.7780738 17.9790082,75.4038224 16.5195703,70.6381948 C15.639276,67.7373741 15.3844558,68.1517741 12.9288916,67.645286 C9.98685043,67.0467028 7.80927984,66.724391 4.3807601,65.9646484 C2.94448884,65.6423365 1.69354294,64.767489 0.905910182,63.5012584 C0.0951117596,62.212004 -0.182876503,60.6925258 0.118277197,59.1960714 C0.651087589,56.5715219 2.92132572,54.6606675 5.49271292,54.6606675 C5.86336316,54.6606675 6.25717977,54.7067081 6.62783024,54.7757794 C7.18380399,54.8908913 7.69345149,55.0060032 8.15675955,55.121115 C9.47720733,55.4204032 12.0254319,55.9268982 12.8825591,56.0420101 C12.9983874,56.0650269 13.2763748,56.0880507 13.3690326,56.0880507 C15.1759573,56.1801388 15.1759573,55.9959626 15.7782677,53.8318606 C15.8477673,53.6016369 15.8940961,53.3023382 15.9867555,53.0030503 C18.5813079,42.8041337 25.9016626,34.9995464 35.9323981,31.2008544 C38.3647899,30.2799594 42.3261207,29.4972071 46.6812707,29.4972071 C50.5499333,29.4972071 55.7853794,30.1878784 59.0054025,32.8814991 C64.5883302,37.5780517 64.6578244,44.4157141 64.2176781,48.1223076 C63.7080376,52.3123792 61.0208185,62.4882755 47.0287557,66.6092793 C42.7199399,67.87551 37.6466597,68.5201337 30.6042942,68.6582622 C29.6545003,68.6812931 28.6120452,68.5891978 28.3108908,69.1877741 C27.8475774,70.0626356 28.8437019,71.4439782 28.9132031,71.5360592 C30.4189716,74.1375848 34.1023081,78.5578837 41.6311506,78.5578837 C42.9747636,78.5578837 44.3878639,78.3967243 45.8704723,78.1204671 C52.6811776,76.8772602 58.5420892,73.2627373 63.2678843,69.5791572 C66.9049043,66.7474078 71.4222026,62.3271089 73.4839599,60.0479023 C73.6229625,59.9097595 74.1557558,59.3802548 74.5727422,58.4133051 C74.7812247,57.9298338 74.9665544,57.3312507 75.0360556,56.6175591 C75.1055568,55.9038641 75.1055568,55.0750572 74.9202272,54.1311384 C74.8043989,53.5786028 73.1364749,43.0573744 73.0206465,42.2285744 C72.0708455,34.7002548 71.7928619,28.5532812 71.9318714,24.6625046 C71.9318714,24.4553027 72.0940198,5.02441612 83.9316853,0.581100162 C84.0475137,0.535053109 85.6922776,-0.063526354 88.2173341,0.00554077268 C92.4334887,0.0976256705 96.2558241,1.59408008 98.6418853,4.37979213 C104.016323,10.6188555 103.830994,17.778814 103.066523,23.3272045 C101.213269,36.6801805 96.5106409,48.6057754 89.1207938,58.8046885 C87.7076866,60.5313666 88.1941671,62.4192042 88.3099954,62.7415161 C89.190295,66.1258011 90.2559102,70.0626287 91.4836949,73.515992 C91.530022,73.6541276 92.873635,77.613979 95.6998425,77.7290909 C98.1090776,77.8211718 102.417887,70.9835307 102.417887,70.9835307 C102.603209,70.6842356 112.587621,56.1571256 113.653236,42.0213744 C113.653236,41.8602256 113.861733,39.4428761 113.537408,36.2427567 C113.537408,36.1736889 113.097269,32.9505492 114.695691,31.0166747 C115.50649,30.0267153 116.757434,29.5432546 118.425365,29.5432546 C124.03146,29.5432546 124.610602,36.1276554 124.633762,36.4039198 C124.680096,36.9564483 124.703256,37.508998 124.72643,38.0615336 C124.888593,40.0414593 126.278533,57.3772982 127.135651,64.4912249 C127.158825,64.6293536 128.849916,79.6399381 140.780236,79.6629619 C140.896064,79.6629619 141.289883,79.6859856 141.892185,79.6859856 C148.980889,79.6859856 153.243363,76.7851649 153.289697,71.9504661 C153.382366,71.2597948 153.359192,68.1287503 146.895978,64.7905059 C144.926896,63.8235633 140.733902,61.291102 138.811154,59.6104714 C138.718486,59.541407 138.440509,59.3111833 138.440509,59.3111833 C130.610501,52.7728159 133.089231,45.7509914 134.039032,43.7250288 C137.235891,36.9564517 145.01955,32.5591766 157.204701,30.6253019 C162.996118,29.7044069 168.370542,29.5662678 171.080928,29.5662678 C172.007555,29.5662678 172.633031,29.5432406 172.887848,29.5432406 C206.153771,29.5662678 213.636265,41.5148759 214.794549,43.9092016 C215.651653,45.6128594 216.346623,47.4086054 216.902619,49.2273717 C217.29641,50.5166296 217.342758,51.0691617 219.31184,51.1612499 C220.307947,51.2072974 221.07244,51.2993855 221.744235,51.3684533 C223.574343,51.5065855 224.663118,51.5756462 227.720961,52.1972568 C229.110901,52.473528 230.315533,53.3253552 231.103186,54.5915859 C231.913984,55.8808369 232.191961,57.5154235 231.867622,59.0118813 C231.31164,61.6134139 229.041421,63.4321662 226.331021,63.4321662 C225.960376,63.4321662 225.612891,63.4091424 225.24226,63.3400921 C223.296367,62.9947564 222.485568,62.9026614 221.489447,62.8105733 C221.211457,62.7875355 220.910306,62.7645327 220.562821,62.7184852 C220.423776,62.6954614 220.28483,62.6954614 220.169001,62.6954614 C218.19992,62.6724236 218.014597,63.0868305 217.78294,64.6063227 C217.481761,66.4481128 216.948925,68.2438553 216.277172,69.9935432 C213.057124,78.5118222 206.176917,85.2573895 197.443457,88.5035318 C195.49755,89.194203 191.814202,89.9078912 186.764089,89.9769693 L186.764062,89.9769762 Z" id="svg_2"></path>
                    <path d="M117.192277,6.5625 C113.628486,6.5625 110.907484,9.23668263 110.835234,12.7638297 C110.762997,16.6598368 113.893357,20.1639344 117.818343,20.5788941 C118.083229,20.6019419 118.324025,20.625 118.564822,20.625 C122.128613,20.625 124.849615,17.9508164 124.921851,14.4236713 C124.994102,10.5276642 121.863742,7.02356557 117.938741,6.60860679 C117.697945,6.5625 117.433074,6.5625 117.192277,6.5625" id="svg_3"></path>
                </g>
            </g>
        </g>
    </g>
</svg>