<?xml version="1.0" encoding="UTF-8"?>
<svg width="374px" height="44px" viewBox="0 0 374 44" version="1.1" xmlns="http://www.w3.org/2000/svg" xmlns:xlink="http://www.w3.org/1999/xlink">
    <!-- Generator: Sketch 53 (72520) - https://sketchapp.com -->
    <title>Thales_Logo</title>
    <desc>Created with Sketch.</desc>
    <g id="Page-1" stroke="none" stroke-width="1" fill="none" fill-rule="evenodd">
        <g id="Artboard" transform="translate(-771.000000, -7308.000000)" fill-rule="nonzero">
            <g id="Stacked-Group" transform="translate(503.000000, 7280.000000)">
                <g id="Thales_Logo" transform="translate(268.000000, 28.000000)">
                    <path d="M374,32.2950913 C374,38.2712629 372.246905,40.0333598 367.448972,41.4690389 C362.248882,43.033095 353.019938,44 347.523398,44 C341.01935,44 332.915131,43.5775907 326,42.0079428 L326,35.0967858 L364.151612,35.0967858 L364.151612,25.7073233 L337.149292,25.7073233 C329.030273,25.7073233 326.008926,23.4911305 326.008926,15.6277469 L326.008926,11.5241091 C326.008926,5.32659783 327.858803,3.45685994 332.92993,2.15514959 C338.036058,0.84458565 346.401492,0 351.860212,0 C358.493222,0 366.462606,0.512576119 373.398174,2.03562616 L373.398174,8.94678316 L335.857315,8.94678316 L335.857315,16.8886841 L362.862453,16.8886841 C370.978418,16.8886841 374,19.058512 374,26.9218957 L374,32.2950913" id="path36820" fill="#242A75"></path>
                    <path d="M309,42.0167964 C301.142937,43.5719989 293.230322,44 285.574458,44 C277.91556,44 269.859864,43.5719989 262,42.0167964 L262,2.03585915 C269.859864,0.480656606 277.819395,0 285.478059,0 C293.139758,0 300.956208,0.480656606 308.813272,2.03585915 L308.813272,9.16835584 L273.320408,9.16835584 L273.320408,17.1568546 L296.430846,17.1568546 L296.430846,25.4512682 L273.320408,25.4512682 L273.320408,34.8842997 L309,34.8842997 L309,42.0167964" id="path36824" fill="#242A75"></path>
                    <path d="M248,42.0171085 C240.802203,43.5778901 233.544607,44 226.572902,44 C219.601436,44 212.194938,43.5778901 205,42.0171085 L205,1 L216.548829,1 L216.548829,34.3587956 L248,34.3587956 L248,42.0171085" id="path36828" fill="#242A75"></path>
                    <path d="M192,42.463349 C188.241192,43.5494489 183.27091,43.9356021 179.567307,44 L162.182036,8.69262188 L161.209549,8.69262188 L143.827072,44 C140.120441,43.9356021 135.756013,43.5494489 132,42.463349 L154.014776,1 L169.71153,1 L192,42.463349" id="path36832" fill="#242A75"></path>
                    <path d="M170,32.498566 C170,36.6392084 166.601998,40 162.474508,40 C158.341063,40 155,36.6332335 155,32.498566 C155,28.3607916 158.350116,25 162.474508,25 C166.593183,25 170,28.3519486 170,32.498566" id="path36836" fill="#00BBDE"></path>
                    <path d="M119,41.5347295 C115.369493,42.5596358 111.483971,42.9338993 107.624725,43 L107.624725,25.2831709 L79.3724602,25.2831709 L79.3724602,43 C75.5101639,42.9338993 71.6305069,42.5596358 68,41.5347295 L68,1.46849491 C71.6305069,0.440594537 75.5101639,0.0693251205 79.3724602,0 L79.3724602,17.0982003 L107.624725,17.0982003 L107.624725,0 C111.483971,0.0693251205 115.363628,0.440594537 119,1.46849491 L119,41.5347295" id="path36840" fill="#242A75"></path>
                    <path d="M51,9.240529 L31.1133914,9.240529 L31.1133914,43 L19.8866086,43 L19.8866086,9.240529 L0,9.240529 L0,2.03318164 C8.56322862,0.482816651 17.1645815,0 25.5261958,0 C33.8761156,0 42.4540793,0.485841527 51,2.03318164 L51,9.240529" id="path36844" fill="#242A75"></path>
                </g>
            </g>
        </g>
    </g>
</svg>