<?xml version="1.0" encoding="UTF-8"?>
<svg width="195px" height="100px" viewBox="0 0 195 100" version="1.1" xmlns="http://www.w3.org/2000/svg" xmlns:xlink="http://www.w3.org/1999/xlink">
    <!-- Generator: Sketch 53 (72520) - https://sketchapp.com -->
    <title>surf</title>
    <desc>Created with Sketch.</desc>
    <g id="Page-1" stroke="none" stroke-width="1" fill="none" fill-rule="evenodd">
        <g id="Artboard" transform="translate(-1702.000000, -7280.000000)" fill-rule="nonzero">
            <g id="Stacked-Group" transform="translate(503.000000, 7280.000000)">
                <g id="surf" transform="translate(1199.000000, 0.000000)">
                    <path d="M180.091524,60.4191322 C188.323976,60.4191322 195,67.1348492 195,75.4202061 L195,85.0027164 C195,93.287231 188.323976,100 180.091524,100 L157.84118,100 C149.608728,100 142.935634,93.287231 142.935634,85.0027164 L142.935634,79.0846645 C142.935634,68.7765064 134.63078,60.4195533 124.386147,60.4195533 L18.5494868,60.4195533 C8.30610891,60.4195533 0,52.0621791 0,41.751494 L0,18.6680593 C0,8.35863765 8.30610891,0 18.5494868,0 L124.386147,0 C134.63078,0 142.935634,8.35863765 142.935634,18.6680593 L142.935634,41.751494 C142.935634,52.0621791 151.240487,60.4195533 161.48805,60.4195533 L180.091524,60.4195533 L180.091524,60.4191322 Z" id="Path" fill="#353837"></path>
                    <path d="M31.5631177,35.5313858 C31.5631177,34.1265693 29.7822953,33.5498551 27.4915701,32.8645582 L22.9101198,31.4952318 C19.6004418,30.522634 16.6915236,28.2161999 16.6915236,24.1800459 C16.6915236,19.3149445 21.0922057,16 27.0554242,16 C31.6739661,16 37.1277082,17.5852245 37.1277082,20.5051304 C37.1277082,22.3066755 36.2174722,23.4233462 34.5449401,23.4233462 C33.6730747,23.4233462 32.9090733,23.1352004 32.0372079,22.8474771 C30.7637301,22.3789232 29.2007674,21.8381217 27.0554242,21.8381217 C25.3091353,21.8381217 23.1279795,22.5229961 23.1279795,23.8923225 C23.1279795,25.1175761 24.1094144,25.6938677 26.2547576,26.341562 L31.3814968,27.891719 C34.8361304,28.936142 38,30.9903428 38,35.7126388 C38,40.7568807 33.2360761,44 27.1274757,44 C22.0007364,44 16,42.414353 16,39.4948696 C16,37.6933245 17.054339,36.5766538 18.873532,36.5766538 C19.8178753,36.5766538 20.6914461,36.828042 21.6724546,37.1537904 C23.0542227,37.6210768 24.6896632,38.1618783 27.1270493,38.1618783 C29.2011938,38.1614558 31.5631177,37.2260381 31.5631177,35.5313858 Z" id="Path" fill="#FFFFFF"></path>
                    <path d="M62.6866742,20.0027303 C62.6866742,18.0127867 63.7816116,17 65.8247244,17 C67.9033511,17 69,18.0127867 69,20.0027303 L69,31.5291682 C69,39.1088915 63.707161,44 56.4811734,44 C49.2911275,44 44,39.1093011 44,31.5291682 L44,20.0027303 C44,18.0127867 45.096221,17 47.1393339,17 C49.2183884,17 50.3137537,18.0127867 50.3137537,20.0027303 L50.3137537,31.5291682 C50.3137537,35.6167637 52.9058328,38.0621132 56.4816013,38.0621132 C60.0945951,38.0621132 62.6866742,35.6167637 62.6866742,31.5291682 L62.6866742,20.0027303 Z" id="Path" fill="#FFFFFF"></path>
                    <path d="M87.8421855,35.532564 L82.1888893,35.532564 L82.1888893,40.9533349 C82.1888893,42.9730902 81.1151866,44 79.0772486,44 C77.0745415,44 76,42.9730902 76,40.9533349 L76,20.0483268 C76,18.0289868 77.0745415,17 79.0772486,17 L87.9482976,17 C93.8876349,17 98,20.8629587 98,26.4253866 C98,29.8259866 96.4246769,32.4148627 93.7790064,33.7961228 L96.6406756,39.4648973 C96.9267167,40.0311101 97.0332482,40.561597 97.0332482,41.0945765 C97.0332482,42.8659128 94.9957296,43.9995846 93.4568956,43.9995846 C92.3131506,43.9995846 91.4919358,43.3261943 90.9173371,42.0521117 L87.8421855,35.532564 Z M82.1888893,22.8469882 L82.1888893,29.9680591 L87.4118656,29.9680591 C89.7735921,29.9680591 91.6320204,28.9062543 91.6320204,26.425802 C91.6320204,23.9104547 89.7735921,22.8469882 87.4118656,22.8469882 L82.1888893,22.8469882 Z" id="Shape" fill="#FFFFFF"></path>
                    <path d="M110.203872,34.363849 L110.203872,40.953288 C110.203872,42.9730744 109.160092,44 107.101725,44 C105.08059,44 104,42.9730744 104,40.953288 L104,20.0483737 C104,18.0290027 105.08059,17 107.101725,17 L122.042128,17 C124.026877,17 125,17.9941071 125,19.9071299 C125,21.8546327 124.026877,22.8470782 122.042128,22.8470782 L110.203872,22.8470782 L110.203872,28.5171862 L117.602994,28.5171862 C119.588165,28.5171862 120.560866,29.5096317 120.560866,31.4575499 C120.560866,33.3714035 119.588165,34.3642644 117.602994,34.3642644 L110.203872,34.3642644 L110.203872,34.363849 Z" id="Path" fill="#FFFFFF"></path>
                </g>
            </g>
        </g>
    </g>
</svg>