<?xml version="1.0" encoding="UTF-8"?>
<svg width="223px" height="219px" viewBox="0 0 223 219" version="1.1" xmlns="http://www.w3.org/2000/svg" xmlns:xlink="http://www.w3.org/1999/xlink">
    <!-- Generator: Sketch 53 (72520) - https://sketchapp.com -->
    <title>Group 13</title>
    <desc>Created with Sketch.</desc>
    <defs>
        <linearGradient x1="100%" y1="123.524743%" x2="-7.67808603%" y2="-10.0279519%" id="linearGradient-1">
            <stop stop-color="#FFFFFF" offset="0%"></stop>
            <stop stop-color="#FFFFFF" offset="43.1662265%"></stop>
            <stop stop-color="#005450" stop-opacity="0.59842111" offset="100%"></stop>
        </linearGradient>
        <linearGradient x1="0%" y1="0%" x2="138.243283%" y2="140.258956%" id="linearGradient-2">
            <stop stop-color="#FFFFFF" offset="0%"></stop>
            <stop stop-color="#FFFFFF" offset="39.0481591%"></stop>
            <stop stop-color="#005450" stop-opacity="0.59842111" offset="100%"></stop>
        </linearGradient>
        <linearGradient x1="0%" y1="94.4997652%" x2="113.983195%" y2="-12.3073619%" id="linearGradient-3">
            <stop stop-color="#FFFFFF" offset="0%"></stop>
            <stop stop-color="#FFFFFF" offset="40.9975517%"></stop>
            <stop stop-color="#005450" stop-opacity="0.59842111" offset="100%"></stop>
        </linearGradient>
        <linearGradient x1="60.7524841%" y1="117.657489%" x2="60.7524841%" y2="-40.6623962%" id="linearGradient-4">
            <stop stop-color="#FFFFFF" offset="0%"></stop>
            <stop stop-color="#FFFFFF" offset="40.9975517%"></stop>
            <stop stop-color="#005450" stop-opacity="0.59842111" offset="100%"></stop>
        </linearGradient>
    </defs>
    <g id="Page-1" stroke="none" stroke-width="1" fill="none" fill-rule="evenodd">
        <g id="Artboard" transform="translate(-1460.000000, -6093.000000)">
            <g id="Group-5" transform="translate(304.000000, 242.000000)">
                <g id="Stacked-Group-2" transform="translate(250.000000, 3404.000000)">
                    <g id="Group-7-Copy" transform="translate(0.000000, 2381.000000)">
                        <g id="Group-13" transform="translate(906.000000, 66.000000)">
                            <g id="Group-13-Copy" transform="translate(136.000000, 135.000000)">
                                <rect id="Rectangle" fill="url(#linearGradient-1)" x="0" y="0" width="84" height="84" rx="15"></rect>
                                <g id="0701-wifi-low2" transform="translate(10.000000, 20.000000)" fill="#005450" fill-rule="nonzero">
                                    <path d="M32,45 C28.8865882,45 26.3529412,42.47625 26.3529412,39.375 C26.3529412,36.27375 28.8865882,33.75 32,33.75 C35.1134118,33.75 37.6470588,36.27375 37.6470588,39.375 C37.6470588,42.47625 35.1134118,45 32,45 Z M32,37.5 C30.9609412,37.5 30.1176471,38.34 30.1176471,39.375 C30.1176471,40.41 30.9609412,41.25 32,41.25 C33.0390588,41.25 33.8823529,40.41 33.8823529,39.375 C33.8823529,38.34 33.0390588,37.5 32,37.5 Z" id="Shape"></path>
                                    <path d="M44.9769412,33.63 C44.3331765,33.63 43.7044706,33.3 43.3543529,32.7075 C42.6465882,31.515 41.7581176,30.44625 40.7152941,29.5275 C39.936,28.84125 39.8607059,27.65625 40.5496471,26.88 C41.2385882,26.10375 42.4282353,26.02875 43.2075294,26.715 C44.5477647,27.8925 45.6884706,29.26875 46.5957647,30.79875 C47.1265882,31.69125 46.8291765,32.83875 45.9331765,33.3675 C45.632,33.54375 45.3044706,33.63 44.9769412,33.63 Z" id="Path"></path>
                                    <path d="M28.2352941,26.7225 C27.3957647,26.7225 26.6315294,26.16 26.4131765,25.3125 C26.1534118,24.31125 26.7595294,23.2875 27.7684706,23.02875 C30.5204706,22.32375 33.4832941,22.32375 36.2352941,23.02875 C37.2404706,23.2875 37.8465882,24.3075 37.5905882,25.3125 C37.3345882,26.3175 36.3030588,26.9175 35.2978824,26.6625 C33.1557647,26.115 30.8442353,26.115 28.7058824,26.6625 C28.5477647,26.70375 28.3896471,26.7225 28.2352941,26.7225 Z" id="Path"></path>
                                    <path d="M19.0230588,33.63 C18.6992941,33.63 18.368,33.5475 18.0668235,33.3675 C17.1708235,32.8425 16.8734118,31.69125 17.4042353,30.79875 C18.3115294,29.26875 19.4522353,27.89625 20.7924706,26.715 C21.5717647,26.02875 22.7614118,26.10375 23.4503529,26.88 C24.1392941,27.65625 24.064,28.84125 23.2847059,29.5275 C22.2418824,30.44625 21.3534118,31.515 20.6456471,32.7075 C20.2955294,33.3 19.6668235,33.63 19.0230588,33.63 L19.0230588,33.63 Z" id="Path"></path>
                                    <path d="M53.1087059,25.53 C52.5364706,25.53 51.9717647,25.27125 51.5990588,24.78 C49.6865882,22.2375 47.3336471,20.11875 44.608,18.48 C43.7157647,17.9475 43.4296471,16.7925 43.968,15.9075 C44.5063529,15.0225 45.6621176,14.73375 46.5505882,15.27 C49.6941176,17.15625 52.4084706,19.60125 54.6108235,22.53375 C55.2357647,23.3625 55.0663529,24.53625 54.2343529,25.15875 C53.8955294,25.41 53.5002353,25.53375 53.1087059,25.53375 L53.1087059,25.53 Z" id="Path"></path>
                                    <path d="M37.6508235,15.60375 C37.5190588,15.60375 37.3835294,15.58875 37.248,15.55875 C33.8258824,14.8125 30.1778824,14.81625 26.7557647,15.55875 C25.7392941,15.78 24.7378824,15.13875 24.5157647,14.12625 C24.2936471,13.11375 24.9374118,12.11625 25.9538824,11.895 C29.9030588,11.03625 34.1007059,11.03625 38.0498824,11.895 C39.0663529,12.11625 39.7101176,13.11375 39.488,14.12625 C39.296,15.00375 38.5167059,15.6 37.6508235,15.6 L37.6508235,15.60375 Z" id="Path"></path>
                                    <path d="M10.8912941,25.53 C10.4997647,25.53 10.1044706,25.40625 9.76564706,25.155 C8.93364706,24.5325 8.76423529,23.35875 9.38917647,22.53 C11.5915294,19.60125 14.3058824,17.15625 17.4494118,15.27 C18.3416471,14.73375 19.4974118,15.0225 20.032,15.9075 C20.5665882,16.7925 20.2804706,17.9475 19.392,18.48 C16.6663529,20.11875 14.3134118,22.2375 12.4009412,24.77625 C12.032,25.2675 11.4672941,25.52625 10.8912941,25.52625 L10.8912941,25.53 Z" id="Path"></path>
                                    <path d="M61.1501176,17.51625 C60.6042353,17.51625 60.0658824,17.28 59.6931765,16.83 C56.5383529,12.99 52.5251765,9.78 48.0941176,7.5525 C47.1642353,7.0875 46.7915294,5.95875 47.2621176,5.0325 C47.7327059,4.10625 48.8621176,3.735 49.792,4.20375 C54.7614118,6.70125 59.0757647,10.15125 62.6108235,14.45625 C63.2696471,15.25875 63.1491765,16.44 62.3472941,17.09625 C61.9971765,17.38125 61.5755294,17.52 61.1576471,17.52 L61.1501176,17.51625 Z" id="Path"></path>
                                    <path d="M39.5331765,4.5 C39.4089412,4.5 39.2847059,4.48875 39.1567059,4.4625 C34.4771765,3.5175 29.5265882,3.5175 24.8470588,4.4625 C23.8268235,4.66875 22.8329412,4.0125 22.6296471,2.99625 C22.4263529,1.98 23.0814118,0.99 24.1016471,0.7875 C29.2705882,-0.25875 34.7407059,-0.25875 39.9096471,0.7875 C40.9298824,0.99375 41.5887059,1.98375 41.3816471,2.99625 C41.2009412,3.885 40.4141176,4.5 39.5369412,4.5 L39.5331765,4.5 Z" id="Path"></path>
                                    <path d="M2.84988235,17.51625 C2.432,17.51625 2.01035294,17.3775 1.66023529,17.0925 C0.854588235,16.43625 0.737882353,15.255 1.39670588,14.4525 C4.93176471,10.1475 9.24611765,6.70125 14.2155294,4.2 C15.1454118,3.735 16.2748235,4.10625 16.7454118,5.02875 C17.216,5.95125 16.8395294,7.08 15.9134118,7.54875 C11.4785882,9.77625 7.46917647,12.98625 4.31435294,16.82625 C3.94164706,17.28 3.40329412,17.5125 2.85741176,17.5125 L2.84988235,17.51625 Z" id="Path"></path>
                                </g>
                            </g>
                            <g id="Group-13-Copy-2" transform="translate(1.000000, 0.000000)">
                                <rect id="Rectangle" fill="url(#linearGradient-2)" x="0" y="0" width="84" height="84" rx="15"></rect>
                                <g id="0415-signal-40" transform="translate(9.000000, 33.000000)" fill="#005450" fill-rule="nonzero">
                                    <path d="M8.42105263,20 L1.68421053,20 C0.754526316,20 0,19.2533333 0,18.3333333 L0,8.33333333 C0,7.41333333 0.754526316,6.66666667 1.68421053,6.66666667 L8.42105263,6.66666667 C9.35073684,6.66666667 10.1052632,7.41333333 10.1052632,8.33333333 L10.1052632,18.3333333 C10.1052632,19.2533333 9.35073684,20 8.42105263,20 Z M3.36842105,16.6666667 L6.73684211,16.6666667 L6.73684211,10 L3.36842105,10 L3.36842105,16.6666667 Z" id="Shape"></path>
                                    <path d="M21.8947368,20 L15.1578947,20 C14.2282105,20 13.4736842,19.2533333 13.4736842,18.3333333 L13.4736842,1.66666667 C13.4736842,0.746666667 14.2282105,0 15.1578947,0 L21.8947368,0 C22.8244211,0 23.5789474,0.746666667 23.5789474,1.66666667 L23.5789474,18.3333333 C23.5789474,19.2533333 22.8244211,20 21.8947368,20 Z M16.8421053,16.6666667 L20.2105263,16.6666667 L20.2105263,3.33333333 L16.8421053,3.33333333 L16.8421053,16.6666667 Z" id="Shape"></path>
                                    <path d="M62.3157895,20 L55.5789474,20 C54.6492632,20 53.8947368,19.2533333 53.8947368,18.3333333 C53.8947368,17.4133333 54.6492632,16.6666667 55.5789474,16.6666667 L62.3157895,16.6666667 C63.2454737,16.6666667 64,17.4133333 64,18.3333333 C64,19.2533333 63.2454737,20 62.3157895,20 Z" id="Path"></path>
                                    <path d="M48.8421053,20 L42.1052632,20 C41.1755789,20 40.4210526,19.2533333 40.4210526,18.3333333 C40.4210526,17.4133333 41.1755789,16.6666667 42.1052632,16.6666667 L48.8421053,16.6666667 C49.7717895,16.6666667 50.5263158,17.4133333 50.5263158,18.3333333 C50.5263158,19.2533333 49.7717895,20 48.8421053,20 Z" id="Path"></path>
                                    <path d="M35.3684211,20 L28.6315789,20 C27.7018947,20 26.9473684,19.2533333 26.9473684,18.3333333 C26.9473684,17.4133333 27.7018947,16.6666667 28.6315789,16.6666667 L35.3684211,16.6666667 C36.2981053,16.6666667 37.0526316,17.4133333 37.0526316,18.3333333 C37.0526316,19.2533333 36.2981053,20 35.3684211,20 Z" id="Path"></path>
                                </g>
                            </g>
                            <g id="Group-13-Copy-3" transform="translate(139.000000, 2.000000)">
                                <rect id="Rectangle" fill="url(#linearGradient-3)" x="0" y="0" width="84" height="84" rx="15"></rect>
                                <g id="0714-satellite" transform="translate(10.000000, 12.000000)" fill="#005450" fill-rule="nonzero">
                                    <path d="M29.4,47.272 C28.1168,47.272 26.9104,46.7728 26.0048,45.8704 L17.7296,37.5952 C16.824,36.6896 16.328,35.4864 16.328,34.2 C16.328,32.9136 16.8272,31.7104 17.7296,30.8048 L32.4048,16.1296 C33.3104,15.224 34.5136,14.728 35.8,14.728 C37.0864,14.728 38.2896,15.2272 39.1952,16.1296 L47.4704,24.4048 C49.3424,26.2768 49.3424,29.32 47.4704,31.192 L32.7952,45.8672 C31.8896,46.7728 30.6864,47.2688 29.4,47.2688 L29.4,47.272 Z M35.8,17.928 C35.3712,17.928 34.968,18.0944 34.6672,18.392 L19.992,33.0672 C19.6912,33.368 19.528,33.768 19.528,34.2 C19.528,34.632 19.6944,35.032 19.992,35.3296 L28.2672,43.6048 C28.568,43.9056 28.968,44.0688 29.4,44.0688 C29.832,44.0688 30.232,43.9024 30.5328,43.6048 L45.208,28.9296 C45.832,28.3056 45.832,27.2912 45.208,26.6672 L36.9328,18.392 C36.632,18.0912 36.232,17.928 35.8,17.928 Z" id="Shape"></path>
                                    <path d="M16.6,29.4 C16.1904,29.4 15.7808,29.2432 15.4672,28.9328 L2.6672,16.1328 C2.0432,15.5088 2.0432,14.4944 2.6672,13.8704 L15.4672,1.0704 C16.0912,0.4464 17.1056,0.4464 17.7296,1.0704 L30.5296,13.8704 C31.1536,14.4944 31.1536,15.5088 30.5296,16.1328 C29.9056,16.7568 28.8912,16.7568 28.2672,16.1328 L16.6,4.4656 L6.0624,15.0032 L17.7296,26.6704 C18.3536,27.2944 18.3536,28.3088 17.7296,28.9328 C17.416,29.2464 17.0064,29.4 16.5968,29.4 L16.6,29.4 Z" id="Path"></path>
                                    <path d="M48.6,61.4 C48.1904,61.4 47.7808,61.2432 47.4672,60.9328 L34.6672,48.1328 C34.0432,47.5088 34.0432,46.4944 34.6672,45.8704 C35.2912,45.2464 36.3056,45.2464 36.9296,45.8704 L48.5968,57.5376 L59.1344,47 L47.4672,35.3328 C46.8432,34.7088 46.8432,33.6944 47.4672,33.0704 C48.0912,32.4464 49.1056,32.4464 49.7296,33.0704 L62.5296,45.8704 C63.1536,46.4944 63.1536,47.5088 62.5296,48.1328 L49.7296,60.9328 C49.416,61.2464 49.0064,61.4 48.5968,61.4 L48.6,61.4 Z" id="Path"></path>
                                    <path d="M53.4,21.4 L48.6,21.4 C47.7168,21.4 47,20.6832 47,19.8 C47,18.9168 47.7168,18.2 48.6,18.2 L52.7376,18.2 L43.8,9.2624 L43.8,13.4 C43.8,14.2832 43.0832,15 42.2,15 C41.3168,15 40.6,14.2832 40.6,13.4 L40.6,8.6 C40.6,6.4432 41.7552,5.7328 42.2512,5.528 C42.7472,5.3232 44.0688,5.0064 45.592,6.5328 L55.4672,16.408 C56.9904,17.9344 56.6768,19.2528 56.472,19.7488 C56.2672,20.2448 55.5536,21.4 53.4,21.4 Z" id="Path"></path>
                                    <path d="M21.4,50.2 C20.9904,50.2 20.5808,50.0432 20.2672,49.7328 L13.8672,43.3328 C13.2432,42.7088 13.2432,41.6944 13.8672,41.0704 C14.4912,40.4464 15.5056,40.4464 16.1296,41.0704 L22.5296,47.4704 C23.1536,48.0944 23.1536,49.1088 22.5296,49.7328 C22.216,50.0464 21.8064,50.2 21.3968,50.2 L21.4,50.2 Z" id="Path"></path>
                                    <path d="M18.2,56.6 C17.7904,56.6 17.3808,56.4432 17.0672,56.1328 L7.4672,46.5328 C6.8432,45.9088 6.8432,44.8944 7.4672,44.2704 C8.0912,43.6464 9.1056,43.6464 9.7296,44.2704 L19.3296,53.8704 C19.9536,54.4944 19.9536,55.5088 19.3296,56.1328 C19.016,56.4464 18.6064,56.6 18.1968,56.6 L18.2,56.6 Z" id="Path"></path>
                                    <path d="M15,63 C14.5904,63 14.1808,62.8432 13.8672,62.5328 L1.0672,49.7328 C0.4432,49.1088 0.4432,48.0944 1.0672,47.4704 C1.6912,46.8464 2.7056,46.8464 3.3296,47.4704 L16.1296,60.2704 C16.7536,60.8944 16.7536,61.9088 16.1296,62.5328 C15.816,62.8464 15.4064,63 14.9968,63 L15,63 Z" id="Path"></path>
                                </g>
                            </g>
                            <g id="Group-13-Copy-4" transform="translate(0.000000, 135.000000)">
                                <rect id="Rectangle" fill="url(#linearGradient-3)" x="0" y="0" width="84" height="84" rx="15"></rect>
                                <g id="0715-satellite2" transform="translate(12.000000, 10.000000)" fill="#005450" fill-rule="nonzero">
                                    <path d="M19.5555556,67.45 C19.2888889,67.45 19.0186667,67.38965 18.7626667,67.26185 C17.8844444,66.8252 17.5288889,65.75665 17.9662222,64.8798 L25.0773333,50.6798 C25.5146667,49.80295 26.5848889,49.44795 27.4631111,49.8846 C28.3413333,50.32125 28.6968889,51.3898 28.2595556,52.26665 L21.1484444,66.46665 C20.8355556,67.0879 20.2097778,67.45 19.5555556,67.45 Z" id="Path"></path>
                                    <path d="M1.77777778,60.35 C1.44,60.35 1.09511111,60.25415 0.792888889,60.0518 C-0.0248888889,59.50865 -0.245333333,58.4046 0.298666667,57.59165 L7.40977778,46.94165 C7.95377778,46.12515 9.05955556,45.90505 9.87377778,46.4482 C10.688,46.99135 10.912,48.0954 10.368,48.90835 L3.25688889,59.55835 C2.91555556,60.0731 2.35022222,60.35 1.77422222,60.35 L1.77777778,60.35 Z" id="Path"></path>
                                    <path d="M60.4444444,5.325 C60.4444444,2.38915 58.0515556,0 55.1111111,0 C52.256,0 49.92,2.2507 49.7848889,5.06585 L19.0435556,14.27455 C18.1048889,14.555 17.568,15.54545 17.8524444,16.4862 C18.0835556,17.25655 18.7911111,17.75 19.5555556,17.75 C19.7262222,17.75 19.8968889,17.72515 20.0675556,17.67545 L50.8088889,8.46675 C50.8195556,8.4845 50.8337778,8.4987 50.8444444,8.51645 L32.2986667,36.29165 C31.7546667,37.10815 31.9751111,38.20865 32.7928889,38.7518 C33.0951111,38.95415 33.44,39.05 33.7777778,39.05 C34.3537778,39.05 34.9155556,38.7731 35.2568889,38.25835 L51.3102222,14.2142 L46.2648889,36.88805 C46.0515556,37.84655 46.656,38.7944 47.616,39.0074 C47.7475556,39.0358 47.8755556,39.05 48.0035556,39.05 C48.8177778,39.05 49.5537778,38.48555 49.7386667,37.6584 L55.7582222,10.6074 C58.3964444,10.2879 60.448,8.04075 60.448,5.32145 L60.4444444,5.325 Z M55.1111111,7.1 C54.1297778,7.1 53.3333333,6.3048 53.3333333,5.325 C53.3333333,4.3452 54.1297778,3.55 55.1111111,3.55 C56.0924444,3.55 56.8888889,4.3452 56.8888889,5.325 C56.8888889,6.3048 56.0924444,7.1 55.1111111,7.1 Z" id="Shape"></path>
                                    <path d="M37.7884444,15.975 C38.4248889,16.55365 39.0613333,17.14295 39.6977778,17.75 L37.7884444,15.975 Z" id="Path"></path>
                                    <path d="M39.6942222,19.525 C39.2533333,19.525 38.8088889,19.3617 38.464,19.03155 C37.8488889,18.44225 37.216,17.8565 36.5902222,17.2885 C35.8613333,16.63175 35.808,15.5064 36.4657778,14.7822 C37.1235556,14.058 38.2506667,14.0012 38.976,14.65795 C39.6266667,15.24725 40.2808889,15.8543 40.9208889,16.4649 C41.6284444,17.14295 41.6533333,18.26475 40.9742222,18.97475 C40.6257778,19.3404 40.1564444,19.52145 39.6906667,19.52145 L39.6942222,19.525 Z" id="Path"></path>
                                    <path d="M56.608,36.4443 C56.1493333,35.5781 55.072,35.24795 54.2044444,35.70945 C53.3368889,36.17095 53.0062222,37.24305 53.4684444,38.10925 C56.9422222,44.6448 57.8062222,49.9982 55.7191111,52.08205 C53.8808889,53.9174 49.4648889,53.48075 43.904,50.91765 C37.6355556,48.0315 30.592,42.85205 24.0711111,36.3378 C17.5502222,29.82355 12.3626667,22.791 9.46844444,16.5359 C6.90133333,10.9837 6.46755556,6.5746 8.30222222,4.73925 C9.74933333,3.2944 12.448,3.5003 14.4568889,3.92985 C17.6497778,4.61145 21.5431111,6.35095 25.7208889,8.97085 C26.5528889,9.4927 27.6515556,9.24065 28.1706667,8.40995 C28.6897778,7.57925 28.4408889,6.4823 27.6088889,5.964 C23.0826667,3.12755 18.7911111,1.22475 15.1964444,0.4615 C9.99466667,-0.6461 7.20711111,0.81295 5.78488889,2.23295 C3.31377778,4.7002 1.62133333,7.83485 0.750222222,11.55525 C-0.0746666667,15.08395 -0.120888889,18.957 0.618666667,23.0679 C2.12977778,31.5027 6.74488889,39.9233 13.6106667,46.77835 C15.1644444,48.3297 16.8213333,49.7852 18.5386667,51.1058 C18.8622222,51.3543 19.2426667,51.475 19.6231111,51.475 C20.1564444,51.475 20.6826667,51.23715 21.0311111,50.78275 C21.632,50.0053 21.4862222,48.8906 20.7075556,48.2942 C19.1111111,47.0659 17.568,45.7098 16.1244444,44.2685 C9.76711111,37.9211 5.504,30.1679 4.11733333,22.4431 C3.47022222,18.8434 3.51644444,15.4496 4.20622222,12.45695 C4.64355556,14.18225 5.31911111,16.04245 6.23644444,18.02335 C9.30133333,24.6512 14.7377778,32.04585 21.5537778,38.8512 C28.3697778,45.65655 35.776,51.0845 42.4142222,54.1446 C44.4266667,55.07115 46.3182222,55.7563 48.064,56.1894 C43.5911111,57.23665 38.2328889,56.8071 32.5902222,54.8262 C31.6622222,54.4996 30.6488889,54.98595 30.3217778,55.9125 C29.9946667,56.83905 30.4817778,57.8508 31.4097778,58.1774 C33.504,58.91225 35.5982222,59.4554 37.6568889,59.8033 L39.1573333,66.09035 C39.3528889,66.90685 40.0817778,67.45355 40.8853333,67.45355 C41.0204444,67.45355 41.1591111,67.43935 41.2977778,67.40385 C42.2542222,67.17665 42.8408889,66.21815 42.6133333,65.26675 L41.4115556,60.22575 C41.9555556,60.25415 42.4924444,60.2719 43.0257778,60.2719 C44.1137778,60.2719 45.1804444,60.21155 46.2222222,60.0873 C51.0506667,59.51575 55.2035556,57.6165 58.2293333,54.59545 C61.6106667,51.2194 61.0346667,44.7726 56.6044444,36.44785 L56.608,36.4443 Z" id="Path"></path>
                                </g>
                            </g>
                            <g id="Group-13-Copy-6" transform="translate(69.000000, 67.000000)">
                                <rect id="Rectangle" fill="url(#linearGradient-4)" x="0" y="0" width="84" height="84" rx="15"></rect>
                                <g id="0645-earth" transform="translate(11.000000, 11.000000)" fill="#005450" fill-rule="nonzero">
                                    <path d="M54.6272,9.3728 C48.5824,3.328 40.5472,0 32,0 C23.4528,0 15.4176,3.328 9.3728,9.3728 C3.328,15.4176 0,23.4528 0,32 C0,40.5472 3.328,48.5824 9.3728,54.6272 C15.4176,60.672 23.4528,64 32,64 C40.5472,64 48.5824,60.672 54.6272,54.6272 C60.672,48.5824 64,40.5472 64,32 C64,23.4528 60.672,15.4176 54.6272,9.3728 Z M58.8704,21.6352 C58.2464,20.512 56.6784,19.9776 54.6304,19.28 C52.432,18.5312 51.6544,16.272 50.7552,13.6544 C49.9744,11.3824 49.168,9.0368 47.2512,7.5776 C52.496,10.864 56.608,15.792 58.8704,21.6352 Z M49.8912,32.6112 C50.1344,34.7776 50.384,37.0208 47.6928,40.0416 C46.9664,40.8576 46.5408,41.9936 46.0896,43.1968 C45.0464,45.984 44.0608,48.6176 39.8624,48.656 C39.744,48.5152 39.4112,47.984 39.1136,46.3104 C38.8416,44.768 38.6848,42.7712 38.5152,40.6624 C38.2592,37.424 37.968,33.7504 37.168,30.704 C36.144,26.8096 34.4256,24.5088 31.9168,23.6704 C30.8224,23.3056 29.7024,23.1264 28.4992,23.1264 C27.6096,23.1264 26.8032,23.2224 26.0928,23.3056 C25.5392,23.3696 25.0144,23.4336 24.5728,23.4336 C24.5728,23.4336 24.5728,23.4336 24.5728,23.4336 C23.824,23.4336 22.976,23.4336 21.9296,21.04 C20.4288,17.6 21.536,12.0864 25.9424,9.1776 C28.3584,7.584 30.0256,6.9024 31.5168,6.9024 C32.7072,6.9024 33.9904,7.3152 35.8112,8.288 C37.9616,9.4336 39.648,9.5808 40.8768,9.5808 C41.3632,9.5808 41.8048,9.5552 42.2304,9.5296 C42.5888,9.5072 42.9248,9.488 43.2384,9.488 C43.9424,9.488 44.512,9.5808 45.1808,10.0352 C46.4128,10.8768 47.0528,12.736 47.728,14.7008 C48.752,17.6832 49.9136,21.0624 53.6,22.3168 C54.096,22.4864 54.9472,22.7744 55.552,23.0272 C55.0304,23.5648 54.16,24.3424 53.3056,25.104 C52.7552,25.5968 52.1312,26.1536 51.44,26.784 C49.4432,28.6048 49.68,30.736 49.8912,32.6144 L49.8912,32.6112 Z M3.2032,31.7536 C3.5488,31.8144 3.92,31.888 4.304,31.968 C6.1024,32.352 6.944,32.6976 7.312,32.8928 C7.1424,33.2224 6.8,33.7088 6.5728,34.0288 C5.7824,35.152 4.7968,36.5504 5.1712,38.0896 C5.424,39.1296 5.2096,40.4032 4.8416,41.5808 C3.7792,38.5792 3.2,35.3536 3.2,31.9936 C3.2,31.9104 3.2032,31.8304 3.2032,31.7472 L3.2032,31.7536 Z M32,60.8 C21.04,60.8 11.488,54.6432 6.624,45.6096 C7.4624,44.0128 9.0176,40.48 8.2912,37.3888 C8.3424,37.0784 8.8704,36.3296 9.1872,35.8784 C10.0544,34.6464 11.1328,33.1168 10.3328,31.4944 C9.7728,30.3552 8.272,29.5872 5.3216,28.9216 C4.6368,28.768 3.9712,28.6432 3.4048,28.544 C5.12,14.288 17.2864,3.2032 31.9968,3.2032 C37.0464,3.2032 41.7952,4.512 45.9232,6.8032 C44.9024,6.3584 43.9776,6.288 43.2352,6.288 C42.8288,6.288 42.4256,6.3104 42.0352,6.336 C41.6544,6.3584 41.2608,6.3808 40.8704,6.3808 C39.9616,6.3808 38.8288,6.272 37.312,5.4624 C34.9952,4.2304 33.2608,3.7024 31.5136,3.7024 C29.3504,3.7024 27.1552,4.5408 24.176,6.5056 C21.6,8.2048 19.6608,10.8032 18.7136,13.8272 C17.7888,16.7744 17.888,19.792 18.992,22.32 C20.2944,25.3024 22.0128,26.6336 24.5664,26.6336 C24.5664,26.6336 24.5664,26.6336 24.5664,26.6336 C25.1968,26.6336 25.8112,26.56 26.4608,26.4832 C27.1168,26.4064 27.792,26.3264 28.4928,26.3264 C29.36,26.3264 30.1248,26.448 30.896,26.704 C32.3008,27.1744 33.3376,28.7488 34.0672,31.5168 C34.7968,34.2848 35.072,37.808 35.3184,40.912 C35.5232,43.504 35.7152,45.9488 36.1408,47.7952 C36.4,48.9152 36.7328,49.7664 37.1648,50.3968 C37.808,51.3376 38.7296,51.856 39.76,51.856 C42.5888,51.856 44.848,50.944 46.4768,49.1456 C47.8304,47.6512 48.5216,45.8048 49.0784,44.32 C49.4048,43.4464 49.744,42.5408 50.0736,42.1696 C53.712,38.0832 53.3376,34.7168 53.0624,32.256 C52.8608,30.4512 52.8576,29.8112 53.5872,29.1456 C54.2656,28.528 54.8832,27.9744 55.4272,27.488 C56.5888,26.4512 57.4272,25.7024 58.016,25.0624 C58.4192,24.6208 59.3664,23.5872 59.104,22.2944 C59.1008,22.2816 59.0976,22.272 59.0976,22.2592 C60.1952,25.3024 60.7936,28.5824 60.7936,32 C60.7936,47.8816 47.8752,60.8 31.9936,60.8 L32,60.8 Z" id="Shape"></path>
                                </g>
                            </g>
                        </g>
                    </g>
                </g>
            </g>
        </g>
    </g>
</svg>