<?xml version="1.0" encoding="UTF-8"?>
<svg width="96px" height="96px" viewBox="0 0 96 96" version="1.1" xmlns="http://www.w3.org/2000/svg" xmlns:xlink="http://www.w3.org/1999/xlink">
    <!-- Generator: Sketch 53 (72520) - https://sketchapp.com -->
    <title>Group 17</title>
    <desc>Created with Sketch.</desc>
    <defs>
        <linearGradient x1="56.2330698%" y1="160.569426%" x2="50%" y2="-78.9400732%" id="linearGradient-1">
            <stop stop-color="#FFFFFF" offset="0%"></stop>
            <stop stop-color="#FFFFFF" offset="28.9876021%"></stop>
            <stop stop-color="#005450" stop-opacity="0.59842111" offset="100%"></stop>
        </linearGradient>
    </defs>
    <g id="Page-1" stroke="none" stroke-width="1" fill="none" fill-rule="evenodd">
        <g id="Artboard" transform="translate(-3154.000000, -2874.000000)">
            <g id="Group-5-Copy" transform="translate(2289.000000, 241.000000)">
                <g id="Group-9-Copy-4" transform="translate(580.000000, 2633.000000)">
                    <g id="Group-17" transform="translate(285.000000, 0.000000)">
                        <circle id="Oval" fill="url(#linearGradient-1)" cx="48" cy="48" r="48"></circle>
                        <path d="M48,78 C47.7170526,78 47.4374737,77.9295882 47.1814737,77.7887647 C46.8648421,77.6144118 39.3465263,73.4265882 31.7136842,66.5664706 C27.1966316,62.5094118 23.5924211,58.3584706 20.992,54.2276471 C17.6774737,48.9601765 16,43.7027647 16,38.6029412 C16,28.8961765 23.9326316,21 33.6842105,21 C36.9852632,21 40.4917895,22.2305294 43.5570526,24.4669412 C45.3490526,25.7745882 46.8749474,27.3504706 48,29.0235882 C49.1250526,27.3504706 50.6509474,25.7745882 52.4429474,24.4669412 C55.5082105,22.2305294 59.0147368,21 62.3157895,21 C72.0673684,21 80,28.8961765 80,38.6029412 C80,43.7027647 78.3191579,48.9601765 75.008,54.2276471 C72.4109474,58.3584706 68.8033684,62.5094118 64.2896842,66.5664706 C56.6568421,73.4265882 49.1385263,77.6144118 48.8218947,77.7887647 C48.5658947,77.9295882 48.2863158,78 48.0033684,78 L48,78 Z M33.6842105,24.3529412 C25.792,24.3529412 19.3684211,30.747 19.3684211,38.6029412 C19.3684211,48.7958824 27.2842105,58.0567059 33.9233684,64.035 C39.8517895,69.3728824 45.8610526,73.1147647 48,74.3855294 C50.1389474,73.1147647 56.1482105,69.3728824 62.0766316,64.035 C68.7157895,58.0600588 76.6315789,48.7958824 76.6315789,38.6029412 C76.6315789,30.747 70.208,24.3529412 62.3157895,24.3529412 C56.5793684,24.3529412 51.008,29.0504118 49.5966316,33.2650588 C49.3675789,33.9490588 48.7242105,34.4117647 48,34.4117647 C47.2757895,34.4117647 46.6324211,33.9490588 46.4033684,33.2650588 C44.992,29.0504118 39.4206316,24.3529412 33.6842105,24.3529412 Z" id="Shape" fill="#005450" fill-rule="nonzero"></path>
                    </g>
                </g>
            </g>
        </g>
    </g>
</svg>