<?xml version="1.0" encoding="UTF-8"?>
<svg width="96px" height="96px" viewBox="0 0 96 96" version="1.1" xmlns="http://www.w3.org/2000/svg" xmlns:xlink="http://www.w3.org/1999/xlink">
    <!-- Generator: Sketch 53 (72520) - https://sketchapp.com -->
    <title>Group 16</title>
    <desc>Created with Sketch.</desc>
    <defs>
        <linearGradient x1="56.2330698%" y1="160.569426%" x2="50%" y2="-78.9400732%" id="linearGradient-1">
            <stop stop-color="#FFFFFF" offset="0%"></stop>
            <stop stop-color="#FFFFFF" offset="28.9876021%"></stop>
            <stop stop-color="#005450" stop-opacity="0.59842111" offset="100%"></stop>
        </linearGradient>
    </defs>
    <g id="Page-1" stroke="none" stroke-width="1" fill="none" fill-rule="evenodd">
        <g id="Artboard" transform="translate(-3534.000000, -2216.000000)">
            <g id="Group-5-Copy" transform="translate(2289.000000, 241.000000)">
                <g id="Group-9-Copy-2" transform="translate(980.000000, 1975.000000)">
                    <g id="Group-16" transform="translate(265.000000, 0.000000)">
                        <circle id="Oval" fill="url(#linearGradient-1)" cx="48" cy="48" r="48"></circle>
                        <g id="0645-earth" transform="translate(17.000000, 15.000000)" fill="#005450" fill-rule="nonzero">
                            <path d="M54.6272,9.3728 C48.5824,3.328 40.5472,0 32,0 C23.4528,0 15.4176,3.328 9.3728,9.3728 C3.328,15.4176 0,23.4528 0,32 C0,40.5472 3.328,48.5824 9.3728,54.6272 C15.4176,60.672 23.4528,64 32,64 C40.5472,64 48.5824,60.672 54.6272,54.6272 C60.672,48.5824 64,40.5472 64,32 C64,23.4528 60.672,15.4176 54.6272,9.3728 Z M58.8704,21.6352 C58.2464,20.512 56.6784,19.9776 54.6304,19.28 C52.432,18.5312 51.6544,16.272 50.7552,13.6544 C49.9744,11.3824 49.168,9.0368 47.2512,7.5776 C52.496,10.864 56.608,15.792 58.8704,21.6352 Z M49.8912,32.6112 C50.1344,34.7776 50.384,37.0208 47.6928,40.0416 C46.9664,40.8576 46.5408,41.9936 46.0896,43.1968 C45.0464,45.984 44.0608,48.6176 39.8624,48.656 C39.744,48.5152 39.4112,47.984 39.1136,46.3104 C38.8416,44.768 38.6848,42.7712 38.5152,40.6624 C38.2592,37.424 37.968,33.7504 37.168,30.704 C36.144,26.8096 34.4256,24.5088 31.9168,23.6704 C30.8224,23.3056 29.7024,23.1264 28.4992,23.1264 C27.6096,23.1264 26.8032,23.2224 26.0928,23.3056 C25.5392,23.3696 25.0144,23.4336 24.5728,23.4336 C24.5728,23.4336 24.5728,23.4336 24.5728,23.4336 C23.824,23.4336 22.976,23.4336 21.9296,21.04 C20.4288,17.6 21.536,12.0864 25.9424,9.1776 C28.3584,7.584 30.0256,6.9024 31.5168,6.9024 C32.7072,6.9024 33.9904,7.3152 35.8112,8.288 C37.9616,9.4336 39.648,9.5808 40.8768,9.5808 C41.3632,9.5808 41.8048,9.5552 42.2304,9.5296 C42.5888,9.5072 42.9248,9.488 43.2384,9.488 C43.9424,9.488 44.512,9.5808 45.1808,10.0352 C46.4128,10.8768 47.0528,12.736 47.728,14.7008 C48.752,17.6832 49.9136,21.0624 53.6,22.3168 C54.096,22.4864 54.9472,22.7744 55.552,23.0272 C55.0304,23.5648 54.16,24.3424 53.3056,25.104 C52.7552,25.5968 52.1312,26.1536 51.44,26.784 C49.4432,28.6048 49.68,30.736 49.8912,32.6144 L49.8912,32.6112 Z M3.2032,31.7536 C3.5488,31.8144 3.92,31.888 4.304,31.968 C6.1024,32.352 6.944,32.6976 7.312,32.8928 C7.1424,33.2224 6.8,33.7088 6.5728,34.0288 C5.7824,35.152 4.7968,36.5504 5.1712,38.0896 C5.424,39.1296 5.2096,40.4032 4.8416,41.5808 C3.7792,38.5792 3.2,35.3536 3.2,31.9936 C3.2,31.9104 3.2032,31.8304 3.2032,31.7472 L3.2032,31.7536 Z M32,60.8 C21.04,60.8 11.488,54.6432 6.624,45.6096 C7.4624,44.0128 9.0176,40.48 8.2912,37.3888 C8.3424,37.0784 8.8704,36.3296 9.1872,35.8784 C10.0544,34.6464 11.1328,33.1168 10.3328,31.4944 C9.7728,30.3552 8.272,29.5872 5.3216,28.9216 C4.6368,28.768 3.9712,28.6432 3.4048,28.544 C5.12,14.288 17.2864,3.2032 31.9968,3.2032 C37.0464,3.2032 41.7952,4.512 45.9232,6.8032 C44.9024,6.3584 43.9776,6.288 43.2352,6.288 C42.8288,6.288 42.4256,6.3104 42.0352,6.336 C41.6544,6.3584 41.2608,6.3808 40.8704,6.3808 C39.9616,6.3808 38.8288,6.272 37.312,5.4624 C34.9952,4.2304 33.2608,3.7024 31.5136,3.7024 C29.3504,3.7024 27.1552,4.5408 24.176,6.5056 C21.6,8.2048 19.6608,10.8032 18.7136,13.8272 C17.7888,16.7744 17.888,19.792 18.992,22.32 C20.2944,25.3024 22.0128,26.6336 24.5664,26.6336 C24.5664,26.6336 24.5664,26.6336 24.5664,26.6336 C25.1968,26.6336 25.8112,26.56 26.4608,26.4832 C27.1168,26.4064 27.792,26.3264 28.4928,26.3264 C29.36,26.3264 30.1248,26.448 30.896,26.704 C32.3008,27.1744 33.3376,28.7488 34.0672,31.5168 C34.7968,34.2848 35.072,37.808 35.3184,40.912 C35.5232,43.504 35.7152,45.9488 36.1408,47.7952 C36.4,48.9152 36.7328,49.7664 37.1648,50.3968 C37.808,51.3376 38.7296,51.856 39.76,51.856 C42.5888,51.856 44.848,50.944 46.4768,49.1456 C47.8304,47.6512 48.5216,45.8048 49.0784,44.32 C49.4048,43.4464 49.744,42.5408 50.0736,42.1696 C53.712,38.0832 53.3376,34.7168 53.0624,32.256 C52.8608,30.4512 52.8576,29.8112 53.5872,29.1456 C54.2656,28.528 54.8832,27.9744 55.4272,27.488 C56.5888,26.4512 57.4272,25.7024 58.016,25.0624 C58.4192,24.6208 59.3664,23.5872 59.104,22.2944 C59.1008,22.2816 59.0976,22.272 59.0976,22.2592 C60.1952,25.3024 60.7936,28.5824 60.7936,32 C60.7936,47.8816 47.8752,60.8 31.9936,60.8 L32,60.8 Z" id="Shape"></path>
                        </g>
                    </g>
                </g>
            </g>
        </g>
    </g>
</svg>