<?xml version="1.0" encoding="UTF-8"?>
<svg width="239px" height="119px" viewBox="0 0 239 119" version="1.1" xmlns="http://www.w3.org/2000/svg" xmlns:xlink="http://www.w3.org/1999/xlink">
    <!-- Generator: Sketch 53 (72520) - https://sketchapp.com -->
    <title>Group 13</title>
    <desc>Created with Sketch.</desc>
    <defs>
        <linearGradient x1="43.3347578%" y1="132.322806%" x2="111.30129%" y2="-8.02852668%" id="linearGradient-1">
            <stop stop-color="#FFFFFF" offset="0%"></stop>
            <stop stop-color="#FFFFFF" offset="43.1662265%"></stop>
            <stop stop-color="#005450" stop-opacity="0.59842111" offset="100%"></stop>
        </linearGradient>
        <linearGradient x1="106.944898%" y1="110.247552%" x2="-44.5505978%" y2="-30.1078002%" id="linearGradient-2">
            <stop stop-color="#FFFFFF" offset="0%"></stop>
            <stop stop-color="#FFFFFF" offset="35.2846687%"></stop>
            <stop stop-color="#005450" stop-opacity="0.59842111" offset="100%"></stop>
        </linearGradient>
        <linearGradient x1="76.7923383%" y1="-79.6859353%" x2="83.794637%" y2="146.514051%" id="linearGradient-3">
            <stop stop-color="#FFFFFF" offset="0%"></stop>
            <stop stop-color="#FFFFFF" offset="40.9975517%"></stop>
            <stop stop-color="#005450" stop-opacity="0.59842111" offset="100%"></stop>
        </linearGradient>
    </defs>
    <g id="Page-1" stroke="none" stroke-width="1" fill="none" fill-rule="evenodd">
        <g id="Artboard" transform="translate(-1444.000000, -5340.000000)">
            <g id="Group-5" transform="translate(304.000000, 242.000000)">
                <g id="Stacked-Group-2" transform="translate(250.000000, 3404.000000)">
                    <g id="Group-7-Copy" transform="translate(0.000000, 1613.000000)">
                        <g id="Group-13" transform="translate(890.000000, 81.000000)">
                            <g id="Group-13-Copy" transform="translate(0.000000, 35.000000)">
                                <rect id="Rectangle" fill="url(#linearGradient-1)" x="0" y="0" width="84" height="84" rx="15"></rect>
                                <g id="0637-fence" transform="translate(10.000000, 10.000000)" fill="#005450" fill-rule="nonzero">
                                    <path d="M9.6,20.8 C9.6,21.6832 8.8832,22.4 8,22.4 C7.1168,22.4 6.4,21.6832 6.4,20.8 C6.4,19.9168 7.1168,19.2 8,19.2 C8.8832,19.2 9.6,19.9168 9.6,20.8 Z" id="Path"></path>
                                    <path d="M32,20.8 C32,21.6832 31.2832,22.4 30.4,22.4 C29.5168,22.4 28.8,21.6832 28.8,20.8 C28.8,19.9168 29.5168,19.2 30.4,19.2 C31.2832,19.2 32,19.9168 32,20.8 Z" id="Path"></path>
                                    <path d="M54.4,20.8 C54.4,21.6832 53.6832,22.4 52.8,22.4 C51.9168,22.4 51.2,21.6832 51.2,20.8 C51.2,19.9168 51.9168,19.2 52.8,19.2 C53.6832,19.2 54.4,19.9168 54.4,20.8 Z" id="Path"></path>
                                    <path d="M60.3328,8.4672 L53.9328,2.0672 C53.3088,1.4432 52.2944,1.4432 51.6704,2.0672 L45.2704,8.4672 C44.9696,8.768 44.8032,9.1744 44.8032,9.6 L44.8032,12.8 L38.4032,12.8 L38.4032,9.6 C38.4032,9.1744 38.2336,8.768 37.936,8.4672 L31.536,2.0672 C30.912,1.4432 29.8976,1.4432 29.2736,2.0672 L22.8736,8.4672 C22.5728,8.768 22.4064,9.1744 22.4064,9.6 L22.4064,12.8 L16.0064,12.8 L16.0064,9.6 C16.0064,9.1744 15.8368,8.768 15.5392,8.4672 L9.1392,2.0672 C8.5152,1.4432 7.5008,1.4432 6.8768,2.0672 L0.4768,8.4672 C0.176,8.768 0.0096,9.1744 0.0096,9.6 L0.0096,62.4 C0.0096,63.2832 0.7264,64 1.6096,64 L14.4096,64 C15.2928,64 16.0096,63.2832 16.0096,62.4 L16.0096,57.6 L22.4096,57.6 L22.4096,62.4 C22.4096,63.2832 23.1264,64 24.0096,64 L36.8096,64 C37.6928,64 38.4096,63.2832 38.4096,62.4 L38.4096,57.6 L44.8096,57.6 L44.8096,62.4 C44.8096,63.2832 45.5264,64 46.4096,64 L59.2096,64 C60.0928,64 60.8096,63.2832 60.8096,62.4 L60.8096,9.6 C60.8096,9.1744 60.64,8.768 60.3424,8.4672 L60.3328,8.4672 Z M38.4,28.8 L44.8,28.8 L44.8,41.6 L38.4,41.6 L38.4,28.8 Z M44.8,16 L44.8,25.6 L38.4,25.6 L38.4,16 L44.8,16 Z M16,28.8 L22.4,28.8 L22.4,41.6 L16,41.6 L16,28.8 Z M22.4,16 L22.4,25.6 L16,25.6 L16,16 L22.4,16 Z M12.8,60.8 L3.2,60.8 L3.2,10.2624 L8,5.4624 L12.8,10.2624 L12.8,60.8 Z M16,54.4 L16,44.8 L22.4,44.8 L22.4,54.4 L16,54.4 Z M35.2,60.8 L25.6,60.8 L25.6,10.2624 L30.4,5.4624 L35.2,10.2624 L35.2,60.8 Z M38.4,54.4 L38.4,44.8 L44.8,44.8 L44.8,54.4 L38.4,54.4 Z M57.6,60.8 L48,60.8 L48,10.2624 L52.8,5.4624 L57.6,10.2624 L57.6,60.8 Z" id="Shape"></path>
                                    <path d="M9.6,49.6 C9.6,50.4832 8.8832,51.2 8,51.2 C7.1168,51.2 6.4,50.4832 6.4,49.6 C6.4,48.7168 7.1168,48 8,48 C8.8832,48 9.6,48.7168 9.6,49.6 Z" id="Path"></path>
                                    <path d="M32,49.6 C32,50.4832 31.2832,51.2 30.4,51.2 C29.5168,51.2 28.8,50.4832 28.8,49.6 C28.8,48.7168 29.5168,48 30.4,48 C31.2832,48 32,48.7168 32,49.6 Z" id="Path"></path>
                                    <path d="M54.4,49.6 C54.4,50.4832 53.6832,51.2 52.8,51.2 C51.9168,51.2 51.2,50.4832 51.2,49.6 C51.2,48.7168 51.9168,48 52.8,48 C53.6832,48 54.4,48.7168 54.4,49.6 Z" id="Path"></path>
                                </g>
                            </g>
                            <g id="Group-13-Copy-2" transform="translate(155.000000, 33.000000)">
                                <rect id="Rectangle" fill="url(#linearGradient-2)" x="0" y="0" width="84" height="84" rx="15"></rect>
                                <g id="0636-wall" transform="translate(10.000000, 15.000000)" fill="#005450" fill-rule="nonzero">
                                    <path d="M62.3157895,16.7647059 C63.2454737,16.7647059 64,16.0136471 64,15.0882353 C64,14.1628235 63.2454737,13.4117647 62.3157895,13.4117647 L53.8947368,13.4117647 L53.8947368,3.35294118 L62.3157895,3.35294118 C63.2454737,3.35294118 64,2.60188235 64,1.67647059 C64,0.751058824 63.2454737,0 62.3157895,0 L1.68421053,0 C0.754526316,0 0,0.751058824 0,1.67647059 C0,2.60188235 0.754526316,3.35294118 1.68421053,3.35294118 L20.2105263,3.35294118 L20.2105263,13.4117647 L1.68421053,13.4117647 C0.754526316,13.4117647 0,14.1628235 0,15.0882353 C0,16.0136471 0.754526316,16.7647059 1.68421053,16.7647059 L10.1052632,16.7647059 L10.1052632,26.8235294 L1.68421053,26.8235294 C0.754526316,26.8235294 0,27.5745882 0,28.5 C0,29.4254118 0.754526316,30.1764706 1.68421053,30.1764706 L20.2105263,30.1764706 L20.2105263,40.2352941 L1.68421053,40.2352941 C0.754526316,40.2352941 0,40.9863529 0,41.9117647 C0,42.8371765 0.754526316,43.5882353 1.68421053,43.5882353 L10.1052632,43.5882353 L10.1052632,53.6470588 L1.68421053,53.6470588 C0.754526316,53.6470588 0,54.3981176 0,55.3235294 C0,56.2489412 0.754526316,57 1.68421053,57 L62.3157895,57 C63.2454737,57 64,56.2489412 64,55.3235294 C64,54.3981176 63.2454737,53.6470588 62.3157895,53.6470588 L43.7894737,53.6470588 L43.7894737,43.5882353 L62.3157895,43.5882353 C63.2454737,43.5882353 64,42.8371765 64,41.9117647 C64,40.9863529 63.2454737,40.2352941 62.3157895,40.2352941 L53.8947368,40.2352941 L53.8947368,30.1764706 L62.3157895,30.1764706 C63.2454737,30.1764706 64,29.4254118 64,28.5 C64,27.5745882 63.2454737,26.8235294 62.3157895,26.8235294 L43.7894737,26.8235294 L43.7894737,16.7647059 L62.3157895,16.7647059 Z M23.5789474,3.35294118 L50.5263158,3.35294118 L50.5263158,13.4117647 L23.5789474,13.4117647 L23.5789474,3.35294118 Z M40.4210526,53.6470588 L13.4736842,53.6470588 L13.4736842,43.5882353 L40.4210526,43.5882353 L40.4210526,53.6470588 Z M50.5263158,40.2352941 L23.5789474,40.2352941 L23.5789474,30.1764706 L50.5263158,30.1764706 L50.5263158,40.2352941 Z M40.4210526,26.8235294 L13.4736842,26.8235294 L13.4736842,16.7647059 L40.4210526,16.7647059 L40.4210526,26.8235294 Z" id="Shape"></path>
                                </g>
                            </g>
                            <g id="Group-13-Copy-3" transform="translate(77.000000, 0.000000)">
                                <rect id="Rectangle" fill="url(#linearGradient-3)" x="0" y="0" width="84" height="84" rx="15"></rect>
                                <g id="0694-lan" transform="translate(10.000000, 14.000000)" fill="#005450" fill-rule="nonzero">
                                    <path d="M62.3157895,23.8 L33.6842105,23.8 L33.6842105,17 L38.7368421,17 C39.6665263,17 40.4210526,16.2384 40.4210526,15.3 L40.4210526,1.7 C40.4210526,0.7616 39.6665263,0 38.7368421,0 L25.2631579,0 C24.3334737,0 23.5789474,0.7616 23.5789474,1.7 L23.5789474,15.3 C23.5789474,16.2384 24.3334737,17 25.2631579,17 L30.3157895,17 L30.3157895,23.8 L1.68421053,23.8 C0.754526316,23.8 0,24.5616 0,25.5 C0,26.4384 0.754526316,27.2 1.68421053,27.2 L13.4736842,27.2 L13.4736842,34 L8.42105263,34 C7.49136842,34 6.73684211,34.7616 6.73684211,35.7 L6.73684211,49.3 C6.73684211,50.2384 7.49136842,51 8.42105263,51 L21.8947368,51 C22.8244211,51 23.5789474,50.2384 23.5789474,49.3 L23.5789474,35.7 C23.5789474,34.7616 22.8244211,34 21.8947368,34 L16.8421053,34 L16.8421053,27.2 L47.1578947,27.2 L47.1578947,34 L42.1052632,34 C41.1755789,34 40.4210526,34.7616 40.4210526,35.7 L40.4210526,49.3 C40.4210526,50.2384 41.1755789,51 42.1052632,51 L55.5789474,51 C56.5086316,51 57.2631579,50.2384 57.2631579,49.3 L57.2631579,35.7 C57.2631579,34.7616 56.5086316,34 55.5789474,34 L50.5263158,34 L50.5263158,27.2 L62.3157895,27.2 C63.2454737,27.2 64,26.4384 64,25.5 C64,24.5616 63.2454737,23.8 62.3157895,23.8 Z M26.9473684,3.4 L37.0526316,3.4 L37.0526316,13.6 L26.9473684,13.6 L26.9473684,3.4 Z M20.2105263,47.6 L10.1052632,47.6 L10.1052632,37.4 L20.2105263,37.4 L20.2105263,47.6 Z M53.8947368,47.6 L43.7894737,47.6 L43.7894737,37.4 L53.8947368,37.4 L53.8947368,47.6 Z" id="Shape"></path>
                                </g>
                            </g>
                        </g>
                    </g>
                </g>
            </g>
        </g>
    </g>
</svg>