<?xml version="1.0" encoding="UTF-8"?>
<svg width="96px" height="96px" viewBox="0 0 96 96" version="1.1" xmlns="http://www.w3.org/2000/svg" xmlns:xlink="http://www.w3.org/1999/xlink">
    <!-- Generator: Sketch 53 (72520) - https://sketchapp.com -->
    <title>Group 15</title>
    <desc>Created with Sketch.</desc>
    <defs>
        <linearGradient x1="56.2330698%" y1="160.569426%" x2="50%" y2="-78.9400732%" id="linearGradient-1">
            <stop stop-color="#FFFFFF" offset="0%"></stop>
            <stop stop-color="#FFFFFF" offset="28.9876021%"></stop>
            <stop stop-color="#005450" stop-opacity="0.59842111" offset="100%"></stop>
        </linearGradient>
    </defs>
    <g id="Page-1" stroke="none" stroke-width="1" fill="none" fill-rule="evenodd">
        <g id="Artboard" transform="translate(-2733.000000, -2208.000000)">
            <g id="Group-5-Copy" transform="translate(2289.000000, 241.000000)">
                <g id="Group-15" transform="translate(444.000000, 1967.000000)">
                    <circle id="Oval" fill="url(#linearGradient-1)" cx="48" cy="48" r="48"></circle>
                    <g id="0499-brain" transform="translate(16.000000, 12.000000)" fill="#005450" fill-rule="nonzero">
                        <path d="M35.5,31 C35.224,31 35,30.776 35,30.5 C35,30.224 35.224,30 35.5,30 C35.776,30 36,29.776 36,29.5 C36,29.224 36.224,29 36.5,29 C36.776,29 37,29.224 37,29.5 C37,30.327 36.327,31 35.5,31 Z" id="Path"></path>
                        <path d="M35.585,39 C35.379,39 35.186,38.872 35.114,38.667 C35.038,38.453 35,38.229 35,38 C35,36.897 35.897,36 37,36 C37.228,36 37.453,36.038 37.667,36.114 C37.927,36.206 38.064,36.492 37.972,36.752 C37.88,37.012 37.594,37.149 37.334,37.057 C37.227,37.019 37.115,37 37.001,37 C36.45,37 36.001,37.449 36.001,38 C36.001,38.115 36.02,38.227 36.058,38.333 C36.15,38.593 36.014,38.879 35.753,38.971 C35.698,38.99 35.642,39 35.586,39 L35.585,39 Z" id="Path"></path>
                        <path d="M64,35.1765912 C64,26.939353 61.4265263,19.0940453 56.5557895,12.4680766 C55.2993684,8.76316184 52.4530526,5.72151392 48.6770526,4.26098695 C46.8446316,1.68496575 43.8265263,0 40.4210526,0 C36.9111579,0 33.8122105,1.78881056 32,4.50217489 C30.1877895,1.79216039 27.0888421,0 23.5789474,0 C20.1734737,0 17.1553684,1.68496575 15.3229474,4.26098695 C11.5435789,5.72151392 8.69726316,8.76316184 7.44421053,12.4680766 C2.57347368,19.0940453 0,26.939353 0,35.1765912 C0,37.3707315 0.188631579,39.5715714 0.559157895,41.7188141 C0.188631579,43.3870306 0,45.1255937 0,46.9010049 C0,52.2071396 1.71115789,57.2117894 4.82021053,60.9904005 C8.01010526,64.8661567 12.2778947,67 16.8421053,67 C17.728,67 18.6172632,66.9162542 19.4863158,66.7554622 C20.2644211,66.9162542 21.0694737,67 21.8947368,67 C26.1793684,67 29.9351579,64.7154142 32,61.3086346 C34.0648421,64.7154142 37.8206316,67 42.1052632,67 C42.9305263,67 43.7355789,66.9162542 44.5136842,66.7554622 C45.3861053,66.919604 46.272,67 47.1578947,67 C51.7221053,67 55.9898947,64.8661567 59.1797895,60.9904005 C62.2888421,57.2117894 64,52.2071396 64,46.9010049 C64,45.1222439 63.8113684,43.3870306 63.4408421,41.7188141 C63.8113684,39.5715714 64,37.3740813 64,35.1765912 Z M21.8947368,63.6501675 C17.2530526,63.6501675 13.4736842,59.8916554 13.4736842,55.2755862 C13.4736842,54.3510324 12.7191579,53.60067 11.7894737,53.60067 C10.8597895,53.60067 10.1052632,54.3510324 10.1052632,55.2755862 C10.1052632,58.2100395 11.1932632,60.8932553 12.992,62.9534023 C7.43410526,60.8899055 3.36842105,54.4749763 3.36842105,46.9010049 C3.36842105,43.0218989 4.46652632,39.2365882 6.45726316,36.2451877 C6.96926316,35.4747263 6.75705263,34.4329284 5.98231579,33.9237538 C5.20757895,33.4145793 4.16336842,33.6256187 3.648,34.3960802 C3.55368421,34.5367732 3.46273684,34.680816 3.37178947,34.8215089 C3.42568421,29.4517274 4.67536842,24.2728864 7.03326316,19.5563222 C7.55873684,22.0184491 8.77473684,24.2896355 10.5869474,26.1286936 C10.9170526,26.4636768 11.3549474,26.6311684 11.7894737,26.6311684 C12.2138947,26.6311684 12.6416842,26.4703765 12.9684211,26.1521424 C13.632,25.5056247 13.6454737,24.4437278 12.992,23.7838108 C11.1292632,21.8945053 10.1052632,19.3955302 10.1052632,16.7525124 C10.1052632,13.8113594 11.3886316,11.0946453 13.5073684,9.22878856 C13.4837895,9.50012499 13.4736842,9.77481126 13.4736842,10.0528474 C13.4736842,10.7295135 13.5410526,11.4028299 13.6757895,12.0627469 C13.8374737,12.8566572 14.5414737,13.4060297 15.3229474,13.4060297 C15.4341053,13.4060297 15.5452632,13.3959802 15.6597895,13.3725314 C16.5726316,13.1882906 17.1587368,12.3039348 16.9768421,11.39948 C16.8858947,10.960652 16.8421053,10.5084246 16.8421053,10.0561972 C16.8421053,6.36133193 19.8635789,3.35653217 23.5789474,3.35653217 C27.2943158,3.35653217 30.3157895,6.36133193 30.3157895,10.0561972 L30.3157895,32.7211639 C28.5271579,31.1266437 26.1658947,30.1551922 23.5789474,30.1551922 C22.8951579,30.1551922 22.2113684,30.2255387 21.5444211,30.359532 C20.6315789,30.5437728 20.0454737,31.4314784 20.2307368,32.3359332 C20.416,33.240388 21.3052632,33.8266087 22.2181053,33.6423679 C22.6627368,33.5519224 23.1208421,33.5050247 23.5789474,33.5050247 C27.2943158,33.5050247 30.3157895,36.5098245 30.3157895,40.2046898 L30.3157895,55.2789361 C30.3157895,59.8950052 26.5364211,63.6535173 21.8947368,63.6535173 L21.8947368,63.6501675 Z M51.008,62.9500525 C52.8033684,60.8932553 53.8947368,58.2066897 53.8947368,55.2755862 C53.8947368,54.3510324 53.1402105,53.60067 52.2105263,53.60067 C51.2808421,53.60067 50.5263158,54.3510324 50.5263158,55.2755862 C50.5263158,59.8916554 46.7469474,63.6501675 42.1052632,63.6501675 C37.4635789,63.6501675 33.6842105,59.8916554 33.6842105,55.2755862 L33.6842105,40.2013399 C33.6842105,36.5064747 36.7056842,33.5016749 40.4210526,33.5016749 C40.8791579,33.5016749 41.3372632,33.5485726 41.7818947,33.639018 C42.6913684,33.8232588 43.584,33.240388 43.7692632,32.3325834 C43.9545263,31.4247788 43.3684211,30.540423 42.4555789,30.3561822 C41.7886316,30.2221889 41.1048421,30.1518424 40.4210526,30.1518424 C37.8341053,30.1518424 35.4728421,31.1232938 33.6842105,32.7178141 L33.6842105,10.0528474 C33.6842105,6.3579821 36.7056842,3.35318234 40.4210526,3.35318234 C44.1364211,3.35318234 47.1578947,6.3579821 47.1578947,10.0528474 C47.1578947,10.5050747 47.1141053,10.9573021 47.0231579,11.3961302 C46.8378947,12.3039348 47.4273684,13.1882906 48.3402105,13.3691815 C48.4547368,13.3926304 48.5658947,13.4026799 48.6770526,13.4026799 C49.4618947,13.4026799 50.1625263,12.8533073 50.3242105,12.059397 C50.4589474,11.4028299 50.5263158,10.7261637 50.5263158,10.0528474 C50.5263158,9.77481126 50.5128421,9.50012499 50.4926316,9.22878856 C52.6113684,11.0979951 53.8947368,13.8113594 53.8947368,16.7525124 C53.8947368,19.3988801 52.8707368,21.8945053 51.008,23.7838108 C50.3578947,24.4437278 50.368,25.5056247 51.0315789,26.1521424 C51.3583158,26.4703765 51.7861053,26.6311684 52.2105263,26.6311684 C52.6484211,26.6311684 53.0829474,26.4636768 53.4130526,26.1286936 C55.2252632,24.2896355 56.4412632,22.0217989 56.9667368,19.5563222 C59.3246316,24.2695365 60.5743158,29.4517274 60.6282105,34.8215089 C60.5372632,34.6774661 60.4463158,34.5367732 60.352,34.3960802 C59.84,33.6256187 58.7924211,33.4145793 58.0176842,33.9237538 C57.2429474,34.4329284 57.0307368,35.4747263 57.5427368,36.2451877 C59.5334737,39.2365882 60.6315789,43.0218989 60.6315789,46.9010049 C60.6315789,54.4716264 56.5692632,60.8865557 51.008,62.9500525 L51.008,62.9500525 Z" id="Shape"></path>
                        <path d="M29.5,31 C28.673,31 28,30.327 28,29.5 C28,29.224 28.224,29 28.5,29 C28.776,29 29,29.224 29,29.5 C29,29.776 29.224,30 29.5,30 C29.776,30 30,30.224 30,30.5 C30,30.776 29.776,31 29.5,31 Z" id="Path"></path>
                        <path d="M29.415,39 C29.36,39 29.303,38.991 29.248,38.971 C28.988,38.879 28.851,38.593 28.943,38.333 C28.981,38.226 29,38.114 29,38 C29,37.449 28.551,37 28,37 C27.885,37 27.773,37.019 27.667,37.057 C27.407,37.149 27.121,37.013 27.029,36.752 C26.937,36.491 27.073,36.206 27.334,36.114 C27.548,36.038 27.772,36 28.001,36 C29.104,36 30.001,36.897 30.001,38 C30.001,38.228 29.963,38.453 29.887,38.667 C29.814,38.872 29.621,39 29.416,39 L29.415,39 Z" id="Path"></path>
                    </g>
                </g>
            </g>
        </g>
    </g>
</svg>