<?xml version="1.0" encoding="UTF-8"?>
<svg width="85px" height="90px" viewBox="0 0 85 90" version="1.1" xmlns="http://www.w3.org/2000/svg" xmlns:xlink="http://www.w3.org/1999/xlink">
    <!-- Generator: Sketch 53 (72520) - https://sketchapp.com -->
    <title>kde-logo-blue-transparent-source</title>
    <desc>Created with Sketch.</desc>
    <g id="Page-1" stroke="none" stroke-width="1" fill="none" fill-rule="evenodd">
        <g id="Artboard" transform="translate(-1225.000000, -7285.000000)" fill="#1D99F3" fill-rule="nonzero">
            <g id="Stacked-Group" transform="translate(503.000000, 7280.000000)">
                <g id="kde-logo-blue-transparent-source" transform="translate(722.000000, 5.000000)">
                    <path d="M49.3174883,0.0939599863 L34.4553943,1.5235445 L34.4553943,63.0150813 L49.1603143,60.7906121 L49.1603143,34.5734059 L68.9265816,63.6517249 L84.422553,58.7250435 L64.1823458,30.7602087 L84.5811087,4.3840325 L68.7694076,0.731193631 L49.1606598,27.1063285 L49.3174883,0.0939599863 Z M15.6287165,15.0784437 C15.4608927,15.0957985 15.2988066,15.1704242 15.1727738,15.2978084 L9.33971973,21.1578311 C9.09446962,21.4049635 9.04826738,21.7881922 9.22907962,22.0874237 L16.0583749,33.3892183 C14.847099,35.4353496 13.876282,37.6414921 13.1824367,39.9687711 L0.644790225,42.5891381 C0.295967648,42.6616811 0.0446274754,42.9722974 0.0446274754,43.331993 L0.0446274754,51.6196055 C0.0446274754,51.9701031 0.283276282,52.2736733 0.619400584,52.3553103 L12.7884655,55.3440503 C13.437404,58.0394247 14.4430065,60.5945723 15.7720764,62.9430242 L8.72826464,73.7356289 C8.53174882,74.0372553 8.57282131,74.4346109 8.82671772,74.6886852 L14.6576992,80.5487079 C14.9029493,80.7944519 15.2858078,80.8426982 15.5848874,80.6618612 L26.6226452,73.9261152 C28.7907823,75.1832624 31.1288746,76.1725555 33.600133,76.8434575 L36.1754717,89.2851155 C36.2479444,89.637661 36.558078,89.8881949 36.9137402,89.8881949 L45.1627827,89.8881949 C45.5095672,89.8881949 45.8122048,89.6504341 45.8949716,89.3085792 L48.9283256,76.8412361 C51.4757529,76.1504455 53.8850052,75.1208545 56.106167,73.8065753 L66.9832964,80.9727204 C67.282376,81.1705652 67.6779363,81.1309962 67.9317982,80.8758806 L73.7648523,75.015858 C74.0115981,74.7680314 74.0557795,74.3847679 73.874494,74.0863 L69.9036924,67.5109124 L68.6190456,67.9190626 C68.4317841,67.978416 68.2275616,67.9086497 68.1174016,67.7444733 C68.1174016,67.7444733 65.5846899,64.0190914 62.3137097,59.2086872 C58.4033596,66.8982531 50.4479387,72.1657828 41.261034,72.1657828 C28.208686,72.1657828 17.6269054,61.5328423 17.6269054,48.4171238 C17.6269054,38.7688948 23.3542557,30.4712165 31.5760087,26.7541649 L31.5760087,20.6275724 C30.0796434,21.1535618 28.6330211,21.787741 27.2590788,22.539794 C27.2580736,22.5388569 27.2570684,22.5363231 27.2532064,22.5328521 L16.120108,15.1959357 C15.9701675,15.0973604 15.7963883,15.0581386 15.6286198,15.0754934 L15.6287165,15.0784437 Z" id="Shape"></path>
                </g>
            </g>
        </g>
    </g>
</svg>