<?xml version="1.0" encoding="UTF-8" standalone="no"?>
<svg width="190px" height="190px" viewBox="0 0 190 190" version="1.1" xmlns="http://www.w3.org/2000/svg" xmlns:xlink="http://www.w3.org/1999/xlink" xmlns:sketch="http://www.bohemiancoding.com/sketch/ns">
    <!-- Generator: sketchtool 3.4.4 (395) - http://www.bohemiancoding.com/sketch -->
    <title>Creative agencies</title>
    <desc>Created with sketchtool.</desc>
    <defs></defs>
    <g id="01-Homepage" stroke="none" stroke-width="1" fill="none" fill-rule="evenodd" sketch:type="MSPage">
        <g id="03-Homepage---Desktop" sketch:type="MSArtboardGroup" transform="translate(-418.000000, -2869.000000)">
            <g id="Segments" sketch:type="MSLayerGroup" transform="translate(0.000000, 2728.000000)">
                <g id="Creative-agencies" transform="translate(423.000000, 146.000000)" sketch:type="MSShapeGroup">
                    <g id="Illustrations">
                        <g>
                            <g id="Creative-agencies">
                                <circle id="circle-copy" fill="#DAD658" cx="90" cy="90" r="90"></circle>
                                <g id="circle" transform="translate(5.000000, 5.000000)">
                                    <circle id="path-1" cx="85" cy="85" r="85"></circle>
                                    <g id="path-1-link" stroke="#EBEBEB" stroke-width="20">
                                        <circle id="path-1" cx="85" cy="85" r="85"></circle>
                                    </g>
                                </g>
                                <g id="glasses" transform="translate(15.000000, 55.000000)">
                                    <path d="M75,20.1470588 C76.2213135,20.147058 77.0977321,20.1093319 78.1412354,20.5784908 C79.1847386,21.0476496 80.0211644,21.1142437 81.1473684,25.6029412 C82.4486949,30.1171076 85.7099822,40.5315053 90.3684211,45.8676471 C99.5894737,56.3293091 108.85037,56.0634069 115.726316,56 C126.484211,55.8506948 140.7,55.1631409 142.621053,26.3823529 C142.807511,23.605665 143.751324,19.9422466 145.694737,18.5882353 C147.613755,16.816919 148,16.25 148,16.25 L148,9.23529412 C148,9.23529412 148.000001,7.83160292 144.926316,6.89705882 C112.83452,-2.33071601 84.9894737,7.67647059 84.9894737,7.67647059 C84.9894737,7.67647059 81.1798942,9.00360078 75,9.23529412 C75.0000001,9.23529513 75,9.23529412 75,9.23529412 C68.8201058,9.00360078 65.0105263,7.67647059 65.0105263,7.67647059 C65.0105263,7.67647059 37.1654801,-2.33071601 5.07368421,6.89705882 C1.99999856,7.83160292 2,9.23529412 2,9.23529412 L2,16.25 C2,16.25 2.38624483,16.816919 4.30526316,18.5882353 C6.24867579,19.9422466 7.19248882,23.605665 7.37894737,26.3823529 C9.3,55.1631409 23.5157895,55.8506948 34.2736842,56 C41.1496302,56.0634069 50.4105263,56.3293091 59.6315789,45.8676471 C64.2900178,40.5315053 67.5513051,30.1171076 68.8526316,25.6029412 C69.9788356,21.1142437 71.1492457,21.0605891 71.7609864,20.6446529 C72.3727272,20.2287167 73.7105713,20.1470596 75,20.1470588 L75,20.1470588 Z" id="Shadow" stroke-opacity="0.25" stroke="#000000" stroke-width="4"></path>
                                    <path d="M75,7.35294118 C81.3492063,7.11687627 85.2631579,5.76470588 85.2631579,5.76470588 C85.2631579,5.76470588 113.871082,-4.43129556 146.842105,4.97058824 C150.000001,5.92276524 150,7.35294118 150,7.35294118 L150,14.5 C150,14.5 149.603173,15.0776156 147.631579,16.8823529 C145.634922,18.2619116 144.665251,21.9944511 144.473684,24.8235294 C142.5,54.1473511 127.894737,54.8478777 116.842105,55 C109.777777,55.0646032 100.263158,55.3355225 90.7894737,44.6764706 C86.0034064,39.2396469 82.6527688,28.6287512 81.3157895,24.0294118 C80.1587305,19.4560219 79.0134277,19.3216549 78.2955322,19.0202633 C77.5776367,18.7188717 77.5244141,18.4705883 75,18.4705882 L75,7.35294118 L75,7.35294118 Z M75,7.35294118 C68.6507937,7.11687627 64.7368421,5.76470588 64.7368421,5.76470588 C64.7368421,5.76470588 36.1289179,-4.43129556 3.15789474,4.97058824 C-1.48287552e-06,5.92276524 0,7.35294118 0,7.35294118 L0,14.5 C0,14.5 0.396826878,15.0776156 2.36842105,16.8823529 C4.36507786,18.2619116 5.33474878,21.9944511 5.52631579,24.8235294 C7.5,54.1473511 22.1052632,54.8478777 33.1578947,55 C40.2222228,55.0646032 49.7368421,55.3355225 59.2105263,44.6764706 C63.9965936,39.2396469 67.3472312,28.6287512 68.6842105,24.0294118 C69.8412695,19.4560219 70.887085,19.3991695 71.6566162,19.0465084 C72.4261475,18.6938473 73.2445068,18.4705883 75,18.4705882 L75,7.35294118 L75,7.35294118 Z" id="frames" fill="#000000"></path>
                                    <path d="M101.842105,5.76470588 C111.128607,4.46999835 119.780058,4.79879042 127.105263,6.55882353 C135.083451,7.90639151 139.736841,12.4451055 139.736842,20.0588235 C139.736845,41.982765 132.666225,47.1039596 124.736842,49.4411765 C118.740481,50.5953775 113.811249,50.649404 106.578947,49.4411765 C99.6700154,47.4978977 92.9922114,41.982765 89.2105263,31.1764706 C85.9215946,19.9222357 86.26772,7.47500071 101.842105,5.76470588 L101.842105,5.76470588 Z" id="lens-2" fill="#FFFFFF"></path>
                                    <path d="M11.9291513,31.1764706 C15.7108364,41.982765 22.3886403,47.4978977 29.2975723,49.4411765 C36.5298738,50.649404 41.4591057,50.5953775 47.4554671,49.4411765 C55.3848503,47.1039596 62.4554697,41.982765 62.4554671,20.0588235 C62.4554662,12.4451055 57.802076,7.90639151 49.8238881,6.55882353 C42.4986831,4.79879042 33.8472316,4.46999835 24.5607302,5.76470588 C8.9863449,7.47500071 8.64021954,19.9222357 11.9291513,31.1764706 L11.9291513,31.1764706 Z" id="lens-1" fill="#FFFFFF" transform="translate(36.359312, 27.652445) scale(-1, 1) translate(-36.359312, -27.652445) "></path>
                                    <ellipse id="eye-2" fill="#000000" cx="120" cy="29.5882353" rx="5.52631579" ry="5.55882353"></ellipse>
                                    <ellipse id="eye-1" fill="#000000" transform="translate(45.789474, 29.588235) scale(-1, 1) translate(-45.789474, -29.588235) " cx="45.7894743" cy="29.5882353" rx="5.52631579" ry="5.55882353"></ellipse>
                                </g>
                            </g>
                        </g>
                    </g>
                </g>
            </g>
        </g>
    </g>
</svg>