<?xml version="1.0" encoding="UTF-8" standalone="no"?>
<svg width="190px" height="190px" viewBox="0 0 190 190" version="1.1" xmlns="http://www.w3.org/2000/svg" xmlns:xlink="http://www.w3.org/1999/xlink" xmlns:sketch="http://www.bohemiancoding.com/sketch/ns">
    <!-- Generator: sketchtool 3.4.4 (395) - http://www.bohemiancoding.com/sketch -->
    <title>Open source groups</title>
    <desc>Created with sketchtool.</desc>
    <defs></defs>
    <g id="01-Homepage" stroke="none" stroke-width="1" fill="none" fill-rule="evenodd" sketch:type="MSPage">
        <g id="03-Homepage---Desktop" sketch:type="MSArtboardGroup" transform="translate(-154.000000, -2939.000000)">
            <g id="Segments" sketch:type="MSLayerGroup" transform="translate(0.000000, 2728.000000)">
                <g id="Open-source-groups" transform="translate(159.000000, 216.000000)">
                    <g id="Illustrations">
                        <g>
                            <g id="Open-source-groups">
                                <circle id="circle-copy" fill="#81BDDA" sketch:type="MSShapeGroup" cx="90" cy="90" r="90"></circle>
                                <g id="Wallpaper" transform="translate(11.000000, 10.000000)" fill="#B3D7E8" sketch:type="MSShapeGroup">
                                    <circle id="Oval-63" cx="96" cy="26" r="6"></circle>
                                    <circle id="Oval-63-Copy-19" cx="96" cy="6" r="6"></circle>
                                    <circle id="Oval-63-Copy-24" cx="56" cy="6" r="6"></circle>
                                    <circle id="Oval-63-Copy-2" cx="96" cy="66" r="6"></circle>
                                    <circle id="Oval-63-Copy-3" cx="96" cy="86" r="6"></circle>
                                    <circle id="Oval-63-Copy" cx="96" cy="46" r="6"></circle>
                                    <circle id="Oval-63-Copy-7" cx="116" cy="36" r="6"></circle>
                                    <circle id="Oval-63-Copy-20" cx="116" cy="16" r="6"></circle>
                                    <circle id="Oval-63-Copy-21" cx="76" cy="16" r="6"></circle>
                                    <circle id="Oval-63-Copy-6" cx="116" cy="76" r="6"></circle>
                                    <circle id="Oval-63-Copy-5" cx="116" cy="96" r="6"></circle>
                                    <circle id="Oval-63-Copy-4" cx="116" cy="56" r="6"></circle>
                                    <circle id="Oval-63-Copy-26" cx="156" cy="76" r="6"></circle>
                                    <circle id="Oval-63-Copy-27" cx="156" cy="96" r="6"></circle>
                                    <circle id="Oval-63-Copy-25" cx="156" cy="56" r="6"></circle>
                                    <circle id="Oval-63-Copy-11" cx="136" cy="26" r="6"></circle>
                                    <circle id="Oval-63-Copy-10" cx="136" cy="66" r="6"></circle>
                                    <circle id="Oval-63-Copy-9" cx="136" cy="86" r="6"></circle>
                                    <circle id="Oval-63-Copy-22" cx="136" cy="106" r="6"></circle>
                                    <circle id="Oval-63-Copy-23" cx="136" cy="126" r="6"></circle>
                                    <circle id="Oval-63-Copy-8" cx="136" cy="46" r="6"></circle>
                                    <circle id="Oval-63-Copy-15" cx="26" cy="26" r="6"></circle>
                                    <circle id="Oval-63-Copy-14" cx="26" cy="66" r="6"></circle>
                                    <circle id="Oval-63-Copy-13" cx="26" cy="86" r="6"></circle>
                                    <circle id="Oval-63-Copy-12" cx="26" cy="46" r="6"></circle>
                                    <circle id="Oval-63-Copy-18" cx="6" cy="76" r="6"></circle>
                                    <circle id="Oval-63-Copy-17" cx="6" cy="96" r="6"></circle>
                                    <circle id="Oval-63-Copy-16" cx="6" cy="56" r="6"></circle>
                                </g>
                                <g id="Girl" transform="translate(75.000000, 72.000000) rotate(-40.000000) translate(-75.000000, -72.000000) translate(31.000000, 26.000000)" sketch:type="MSShapeGroup">
                                    <rect id="Face" fill="#9D633D" transform="translate(41.755102, 44.647059) rotate(40.000000) translate(-41.755102, -44.647059) " x="21.5510205" y="11.7254903" width="40.4081633" height="65.8431373"></rect>
                                    <path d="M83.5139852,27.6156511 C81.1064933,19.6475292 73.0361114,14.7253274 66.8001468,8.78153388 C57.3926213,-0.185224703 49.4959533,-3.24425143 36.8947097,4.82406997 C24.2934661,12.8923914 0.775593265,39.0712091 0.775593265,39.0712091 L4.25480846,57.2317892 L38.4006215,21.0465243 C45.8184685,41.7035398 68.419493,39.4752519 68.419493,39.4752519 L29.7161087,90.8329738 L48.3605313,91.9723091 C48.3605313,91.9723091 73.8231069,60.9538278 81.8065812,42.671945 C83.6149113,38.530931 84.3167748,34.9871292 84.2113142,31.8782462 C85.380958,30.0507597 86.7243936,27.830264 87.4685906,26.1876915 C88.4732926,23.9701389 87.7970983,22.9079293 86.2834423,24.9144646 C85.3308602,26.1772281 84.3894715,27.036602 83.5139852,27.6156511 L83.5139852,27.6156511 Z" id="Hair" fill="#311F1D"></path>
                                    <rect id="Eye-1" fill="#311F1D" transform="translate(32.326531, 38.784314) rotate(40.000000) translate(-32.326531, -38.784314) " x="29.6326534" y="34.2745096" width="5.3877551" height="9.01960784" rx="5"></rect>
                                    <rect id="Eye-2" fill="#311F1D" transform="translate(49.387755, 53.215686) rotate(40.000000) translate(-49.387755, -53.215686) " x="46.6938774" y="48.7058824" width="5.3877551" height="9.01960784" rx="5"></rect>
                                    <rect id="Nose" fill-opacity="0.5" fill="#000000" transform="translate(34.122449, 53.215686) rotate(40.000000) translate(-34.122449, -53.215686) " x="30.530612" y="46.9019607" width="7.18367347" height="12.627451" rx="7"></rect>
                                </g>
                                <ellipse id="Oval-86" fill-opacity="0.400000006" fill="#98AAD6" sketch:type="MSShapeGroup" cx="75" cy="98" rx="55" ry="16"></ellipse>
                                <path d="M16,100.99021 C16,97.6819084 18.6795114,95 22.0007422,95 L128.949617,95 C132.263735,95 134.950359,97.6857833 134.950359,100.994357 L134.950359,158.606353 C134.950359,161.916945 132.283175,164.957567 129.001428,165.379991 C129.001428,165.379991 79.0706147,172.34342 58.1246502,169.574672 C45.2967172,167.879009 20.3960536,143.835152 20.3960536,143.835152 C17.9681802,141.58501 16,137.07836 16,133.7707 L16,100.99021 L16,100.99021 Z" id="Rectangle-41" stroke="#CCCCCC" fill="#F2F2F2" sketch:type="MSShapeGroup"></path>
                                <g id="circle" transform="translate(5.000000, 5.000000)" sketch:type="MSShapeGroup">
                                    <circle id="path-2" cx="85" cy="85" r="85"></circle>
                                    <g id="path-2-link" stroke="#EBEBEB" stroke-width="20">
                                        <circle id="path-2" cx="85" cy="85" r="85"></circle>
                                    </g>
                                </g>
                                <text id="matrix" fill="#000000" sketch:type="MSTextLayer" font-family="Arial" font-size="8.95104895" font-weight="bold">
                                    <tspan x="60" y="125">matrix</tspan>
                                </text>
                                <path d="M57.6170213,114.68 L55.8723404,114.68 L55.8723404,130.32 L57.6170213,130.32 L57.6170213,131 L93.3829787,131 L93.3829787,130.32 L95.1276596,130.32 L95.1276596,114.68 L93.3829787,114.68 L93.3829787,114 L57.6170213,114 L57.6170213,114.68 L57.6170213,114.68 Z M55,114 L96,114 L96,131 L55,131 L55,114 L55,114 Z" id="Rectangle-47" fill="#000000" sketch:type="MSShapeGroup"></path>
                            </g>
                        </g>
                    </g>
                </g>
            </g>
        </g>
    </g>
</svg>