<?xml version="1.0" encoding="UTF-8" standalone="no"?>
<svg width="255px" height="256px" viewBox="0 0 255 256" version="1.1" xmlns="http://www.w3.org/2000/svg" xmlns:xlink="http://www.w3.org/1999/xlink" xmlns:sketch="http://www.bohemiancoding.com/sketch/ns">
    <!-- Generator: sketchtool 3.4.4 (395) - http://www.bohemiancoding.com/sketch -->
    <title>Integration@2x</title>
    <desc>Created with sketchtool.</desc>
    <defs></defs>
    <g id="02-Features" stroke="none" stroke-width="1" fill="none" fill-rule="evenodd" sketch:type="MSPage">
        <g id="03-Features---Desktop" sketch:type="MSArtboardGroup" transform="translate(-306.000000, -3983.000000)">
            <g id="Icons" sketch:type="MSLayerGroup" transform="translate(140.000000, 582.000000)">
                <g id="Integration@2x" transform="translate(161.000000, 3405.000000)">
                    <g id="Integration">
                        <g id="Illustrations">
                            <g id="Integration">
                                <ellipse id="circle-copy" fill="#81BDDA" sketch:type="MSShapeGroup" cx="132.129032" cy="123.970588" rx="123.870968" ry="123.970588"></ellipse>
                                <g id="Girl" transform="translate(133.505376, 183.200980) rotate(-40.000000) translate(-133.505376, -183.200980) translate(66.064516, 112.950980)" sketch:type="MSShapeGroup">
                                    <rect id="Face" fill="#EEDBCB" transform="translate(64.000000, 68.183824) rotate(40.000000) translate(-64.000000, -68.183824) " x="33.0322581" y="17.9068627" width="61.9354839" height="100.553922"></rect>
                                    <path d="M128.005796,42.1739019 C124.31572,30.005194 111.945868,22.4881358 102.387713,13.4109295 C87.968358,-0.282870335 75.8647652,-4.95453614 56.550249,7.36719381 C37.2357329,19.6889237 1.18878811,59.6685314 1.18878811,59.6685314 L6.52154415,87.4028954 L58.8584306,32.1417029 C70.228112,63.688558 104.869761,60.2855748 104.869761,60.2855748 L45.5472713,138.717748 L74.1244507,140.457711 C74.1244507,140.457711 113.152133,93.0870958 125.388777,65.1674812 C128.16049,58.8434326 129.236269,53.4314311 129.074624,48.683626 C130.867392,45.8927362 132.926539,42.501653 134.067204,39.9931593 C135.607158,36.6065708 134.570724,34.984392 132.250672,38.0487204 C130.790605,39.9771798 129.347694,41.2895933 128.005796,42.1739019 L128.005796,42.1739019 Z" id="Hair" fill="#BB814D"></path>
                                    <rect id="Eye-1" fill="#81BDDA" transform="translate(49.548387, 59.230392) rotate(40.000000) translate(-49.548387, -59.230392) " x="45.4193548" y="52.3431373" width="8.25806452" height="13.7745098" rx="5"></rect>
                                    <rect id="Eye-2" fill="#81BDDA" transform="translate(75.698925, 81.269608) rotate(40.000000) translate(-75.698925, -81.269608) " x="71.5698925" y="74.3823529" width="8.25806452" height="13.7745098" rx="5"></rect>
                                    <rect id="Nose" fill-opacity="0.100000001" fill="#000000" transform="translate(52.301075, 81.269608) rotate(40.000000) translate(-52.301075, -81.269608) " x="46.7956989" y="71.627451" width="11.0107527" height="19.2843137" rx="7"></rect>
                                    <rect id="Nose-Copy" fill-opacity="0.200000018" fill="#E55E5E" transform="translate(36.560779, 67.403445) rotate(40.000000) translate(-36.560779, -67.403445) " x="31.0554031" y="61.8936408" width="11.0107527" height="11.0196078" rx="7"></rect>
                                    <rect id="Nose-Copy-2" fill-opacity="0.200000018" fill="#E55E5E" transform="translate(68.216693, 94.952464) rotate(40.000000) translate(-68.216693, -94.952464) " x="62.7113171" y="89.4426604" width="11.0107527" height="11.0196078" rx="7"></rect>
                                </g>
                                <g id="Ring" transform="translate(15.139785, 6.887255)" sketch:type="MSShapeGroup">
                                    <ellipse id="path-1" cx="116.989247" cy="117.083333" rx="116.989247" ry="117.083333"></ellipse>
                                    <g id="path-1-link" stroke="#EBEBEB" stroke-width="20">
                                        <ellipse id="path-1" cx="116.989247" cy="117.083333" rx="116.989247" ry="117.083333"></ellipse>
                                    </g>
                                </g>
                                <g id="Oval-10-+-Rectangle-17-+-Rectangle-16" transform="translate(204.870911, 101.556571) rotate(7.000000) translate(-204.870911, -101.556571) translate(159.451556, 60.233041)" sketch:type="MSShapeGroup">
                                    <path d="M61.8796401,67.8637779 C78.4296507,63.1217124 90.1333022,51.4478506 90.1333022,37.7983194 C90.1333022,19.9431828 70.1064694,5.46873468 45.4021194,5.46873468 C20.6977693,5.46873468 0.670936601,19.9431828 0.670936601,37.7983194 C0.670936601,55.1296322 19.5399343,69.2757081 43.2402978,70.0908105 C43.8183134,77.7423476 40.5571844,78.081011 38.4676212,80.4347325 C37.8131351,81.1719572 38.0200181,81.8283233 39.6981642,81.8284372 C42.0464491,81.8285967 56.9159669,77.3740219 61.8796401,67.8637779 L61.8796401,67.8637779 Z" id="Oval-10-Copy-2" fill-opacity="0.25" fill="#000000"></path>
                                    <path d="M61.2087036,62.3950432 C77.7587141,57.6529777 89.4623656,45.9791159 89.4623656,32.3295847 C89.4623656,14.4744482 69.4355329,-1.13686838e-13 44.7311828,-1.13686838e-13 C20.0268327,-1.13686838e-13 1.07291953e-12,14.4744482 1.07291953e-12,32.3295847 C1.07291953e-12,49.6608975 18.8689978,63.8069735 42.5693612,64.6220758 C43.1473767,72.273613 39.8862479,72.6122764 37.7966845,74.9659978 C37.1421986,75.7032225 37.3490816,76.3595886 39.0272275,76.3597026 C41.3755125,76.3598621 56.2450303,71.9052873 61.2087036,62.3950432 L61.2087036,62.3950432 Z" id="Oval-10" fill="#FFFFFF"></path>
                                </g>
                                <g id="Oval-10-Copy-+-Oval-10" transform="translate(61.935484, 16.529412)" sketch:type="MSShapeGroup">
                                    <path d="M68.090424,76.169553 C84.6404345,71.4274875 96.344086,59.7536257 96.344086,46.1040945 C96.344086,28.248958 76.3172533,13.7745098 51.6129032,13.7745098 C26.908553,13.7745098 6.88172038,28.248958 6.88172038,46.1040945 C6.88172038,63.4354073 25.7507182,77.5814833 49.4510816,78.3965856 C50.0290971,86.0481228 46.7679683,86.3867862 44.6784049,88.7405076 C44.023919,89.4777323 44.230802,90.1340984 45.9089479,90.1342124 C48.2572329,90.1343719 63.1267506,85.6797971 68.090424,76.169553 L68.090424,76.169553 Z" id="Oval-10-Copy" fill-opacity="0.25" fill="#000000" transform="translate(51.612903, 51.954361) rotate(-10.000000) translate(-51.612903, -51.954361) "></path>
                                    <path d="M68.090424,70.6597491 C84.6404345,65.9176836 96.344086,54.2438218 96.344086,40.5942906 C96.344086,22.739154 76.3172533,8.26470589 51.6129032,8.26470589 C26.908553,8.26470589 6.88172038,22.739154 6.88172038,40.5942906 C6.88172038,57.9256034 25.7507182,72.0716793 49.4510816,72.8867817 C50.0290971,80.5383188 46.7679683,80.8769823 44.6784049,83.2307037 C44.023919,83.9679284 44.230802,84.6242945 45.9089479,84.6244084 C48.2572329,84.624568 63.1267506,80.1699931 68.090424,70.6597491 L68.090424,70.6597491 Z" id="Oval-10" fill="#FFFFFF" transform="translate(51.612903, 46.444557) rotate(-10.000000) translate(-51.612903, -46.444557) "></path>
                                </g>
                                <g id="Oval-10-Copy-+-Oval-10-Copy" transform="translate(58.494624, 128.791667) rotate(-8.000000) translate(-58.494624, -128.791667) translate(6.881720, 79.892157)" sketch:type="MSShapeGroup">
                                    <path d="M68.090424,76.169553 C84.6404345,71.4274875 96.344086,59.7536257 96.344086,46.1040945 C96.344086,28.248958 76.3172533,13.7745098 51.6129032,13.7745098 C26.908553,13.7745098 6.88172038,28.248958 6.88172038,46.1040945 C6.88172038,63.4354073 25.7507182,77.5814833 49.4510816,78.3965856 C50.0290971,86.0481228 46.7679683,86.3867862 44.6784049,88.7405076 C44.023919,89.4777323 44.230802,90.1340984 45.9089479,90.1342124 C48.2572329,90.1343719 63.1267506,85.6797971 68.090424,76.169553 L68.090424,76.169553 Z" id="Oval-10-Copy" fill-opacity="0.25" fill="#000000" transform="translate(51.612903, 51.954361) rotate(-10.000000) translate(-51.612903, -51.954361) "></path>
                                    <path d="M68.090424,70.6597491 C84.6404345,65.9176836 96.344086,54.2438218 96.344086,40.5942906 C96.344086,22.739154 76.3172533,8.26470589 51.6129032,8.26470589 C26.908553,8.26470589 6.88172038,22.739154 6.88172038,40.5942906 C6.88172038,57.9256034 25.7507182,72.0716793 49.4510816,72.8867817 C50.0290971,80.5383188 46.7679683,80.8769823 44.6784049,83.2307037 C44.023919,83.9679284 44.230802,84.6242945 45.9089479,84.6244084 C48.2572329,84.624568 63.1267506,80.1699931 68.090424,70.6597491 L68.090424,70.6597491 Z" id="Oval-10" fill="#FFFFFF" transform="translate(51.612903, 46.444557) rotate(-10.000000) translate(-51.612903, -46.444557) "></path>
                                </g>
                                <g id="slack" transform="translate(206.451613, 93.666667) rotate(10.000000) translate(-206.451613, -93.666667) translate(185.806452, 73.004902)" sketch:type="MSShapeGroup">
                                    <g id="Layer_1">
                                        <g id="Group">
                                            <g id="Shape">
                                                <path d="M3.6260157,21.864926 C2.09325196,21.8767327 0.79483871,20.9563706 0.316094158,19.5198859 C0.297680907,19.4642256 0.281778553,19.4102521 0.266434176,19.3559974 C-0.25527463,17.5163975 0.756338274,15.5919018 2.56948561,14.9757033 L31.6512641,5.15841337 C32.0047427,5.05636955 32.3607324,5.00436374 32.713374,5.00211484 C34.2868702,4.9897459 35.6209939,5.93034814 36.1114559,7.39719287 L36.1549783,7.53887354 C36.6990061,9.45493597 35.347306,11.1652241 33.7277768,11.7133934 C33.7266608,11.7142367 33.4320489,11.8145938 4.8072537,21.6622439 C4.42029642,21.7946479 4.02329556,21.8615526 3.6260157,21.864926 L3.6260157,21.864926 L3.6260157,21.864926 L3.6260157,21.864926 Z" fill="#70CADB"></path>
                                                <path d="M8.47344377,36.2761555 C6.92868352,36.2874 5.62580645,35.3799689 5.15264168,33.9640057 C5.13478639,33.910032 5.11776809,33.8557773 5.10242371,33.8012415 C4.57346121,31.9397149 5.58395815,29.994979 7.40324324,29.3779372 L36.4861378,19.4706912 C36.8619355,19.3441907 37.2500088,19.2795348 37.6403138,19.2758804 C39.1892589,19.2640736 40.5501656,20.217607 41.0303052,21.6495939 L41.0749433,21.7985834 C41.3558849,22.7883804 41.1898866,23.9007423 40.6313513,24.7786564 C40.2151003,25.4313996 38.9021796,26.0059934 38.9021796,26.0059934 L9.70880557,36.0639156 C9.3020401,36.2008173 8.88718395,36.2730632 8.47344377,36.2767176 L8.47344377,36.2761555 L8.47344377,36.2761555 L8.47344377,36.2761555 Z" fill="#E01765"></path>
                                                <path d="M32.6829642,36.3388436 C31.1317873,36.3509314 29.7583261,35.3647889 29.2639582,33.8866997 L19.5579425,4.83653962 L19.5093984,4.67349439 C18.9835048,2.82096338 19.9948387,0.888596439 21.8074281,0.272960184 C22.1701134,0.150114046 22.5450741,0.0860204082 22.9225458,0.0826470588 C23.483313,0.0784303721 24.025946,0.20577431 24.5370532,0.460181073 C25.3915955,0.88887755 26.0307585,1.62679772 26.336251,2.53816426 L36.0414299,31.5857943 L36.0696076,31.6791236 C36.6147515,33.602495 35.6056495,35.5359863 33.7930602,36.1516226 C33.4340018,36.2722198 33.060157,36.3354702 32.6829642,36.3388436 L32.6829642,36.3388436 L32.6829642,36.3388436 L32.6829642,36.3388436 Z" fill="#E8A723"></path>
                                                <path d="M18.2556234,41.2318868 C16.7044463,41.2439746 15.3298692,40.2578321 14.8352223,38.7777751 L5.13171752,9.72873949 C5.1149782,9.67532813 5.09823889,9.62191676 5.08205754,9.56709983 C4.55755885,7.71513105 5.56582389,5.78248299 7.37785527,5.16628451 C7.73914559,5.04540616 8.11271142,4.98159363 8.4896251,4.97850139 C10.0410811,4.96613245 11.4148213,5.9519938 11.9091892,7.43064526 L21.612973,36.4808053 C21.6311073,36.5314056 21.6475676,36.587347 21.662354,36.6407584 C22.1879686,38.4941327 21.1791456,40.4279051 19.3643243,41.0441037 C19.003871,41.165263 18.6308631,41.2285134 18.2545074,41.2316056 L18.2556234,41.2316056 L18.2556234,41.2318868 L18.2556234,41.2318868 Z" fill="#3EB890"></path>
                                                <path d="M27.8980297,29.7967947 L34.6657367,27.4652481 L32.4533566,20.84505 L25.6778379,23.1521399 L27.8980297,29.7967947 L27.8980297,29.7967947 L27.8980297,29.7967947 Z" fill="#CC2027"></path>
                                                <path d="M13.4930078,34.7595539 L20.260157,32.4282883 L18.0310375,25.7574901 L11.2571927,28.0654232 L13.4930078,34.7595539 L13.4930078,34.7595539 L13.4930078,34.7595539 Z" fill="#361238"></path>
                                                <path d="M23.0798954,15.3768507 L29.8481605,13.0483964 L27.6617263,6.5055042 L20.8809067,8.79460284 L23.0798954,15.3768507 L23.0798954,15.3768507 L23.0798954,15.3768507 Z" fill="#65863A"></path>
                                                <path d="M8.67319965,20.3328632 L15.4414647,18.0044087 L13.2282476,11.3780262 L6.44742807,13.6668437 L8.67319965,20.3328632 L8.67319965,20.3328632 L8.67319965,20.3328632 L8.67319965,20.3328632 Z" fill="#1A937D"></path>
                                            </g>
                                        </g>
                                    </g>
                                </g>
                                <g id="github-octocat" transform="translate(112.860215, 58.541667) rotate(-10.000000) translate(-112.860215, -58.541667) translate(88.086022, 38.568627)" sketch:type="MSShapeGroup">
                                    <g id="Group" transform="translate(-0.000000, -0.000000)">
                                        <path d="M9.07741935,24.6791535 L8.67096774,26.0905109 C8.67096774,26.0905109 8.57419355,26.6001677 9.03870968,26.6981787 C9.54193548,26.6785765 9.50322581,26.2081241 9.46451613,26.0709088 L9.07741935,24.6791535 L9.07741935,24.6791535 L9.07741935,24.6791535 L9.07741935,24.6791535 Z" id="Shape" fill="#9EDCF2"></path>
                                        <path d="M49.5096774,18.7396908 L49.5483871,18.5632712 C45.4645161,17.7399793 41.283871,17.7203771 38.7483871,17.8379902 C39.1548387,16.3286218 39.2903226,14.5644249 39.2903226,12.6238084 C39.2903226,9.8206957 38.2451613,7.58604638 36.5806452,5.9002583 C36.8709677,4.93975114 37.2580645,2.80311275 36.1935484,0.0784087481 C36.1935484,0.0784087481 34.2967742,-0.529259049 29.9806452,2.39146682 C28.2967742,1.9602187 26.4967742,1.74459464 24.6967742,1.74459464 C22.7225806,1.74459464 20.7290323,1.99942307 18.8516129,2.50907994 C14.4,-0.568463424 12.4451613,0.0588065611 12.4451613,0.0588065611 C11.1677419,3.29316742 11.9612903,5.70423643 12.1935484,6.29230203 C10.683871,7.93888575 9.77419355,10.0363198 9.77419355,12.6042063 C9.77419355,14.5448228 9.98709677,16.2894174 10.5290323,17.7987859 C7.97419355,17.7007749 3.9483871,17.7399793 2.62900812e-13,18.5436689 L0.0387096774,18.7200886 C3.98709677,17.916399 8.0516129,17.8967967 10.5870968,17.9948078 C10.7032258,18.3084427 10.8387097,18.6220777 10.9741935,18.9161105 C8.45806452,18.9945193 4.18064516,19.3277565 0.0774193548,20.5038876 L0.135483871,20.6803073 C4.27741935,19.5041761 8.59354839,19.1905411 11.0903226,19.1121324 C12.6,21.9348473 15.5419355,23.7774529 20.8064516,24.3459163 C20.0516129,24.8555732 19.2967742,25.7180693 18.9870968,27.1882334 C17.9612903,27.6782881 14.7483871,28.8936236 12.8129032,25.5220475 C12.8129032,25.5220475 11.7290323,23.5226245 9.65806452,23.3658069 C9.65806452,23.3658069 7.64516129,23.3266026 9.52258065,24.6399491 C9.52258065,24.6399491 10.8580645,25.2868213 11.7870968,27.6978902 C11.7870968,27.6978902 13.0064516,31.8143496 18.8322581,30.4814009 L18.8322581,34.695871 C18.8322581,34.695871 18.716129,36.2052395 17.3419355,36.6952941 C17.3419355,36.6952941 16.5290323,37.2637575 17.4,37.5773925 C17.4,37.5773925 21.1741935,37.8910275 21.1741935,34.7546775 L21.1741935,30.1285615 C21.1741935,30.1285615 21.0193548,28.2859559 21.9096774,27.6586859 L21.9096774,35.2643344 C21.9096774,35.2643344 21.8516129,37.0873379 20.9225806,37.7734144 C20.9225806,37.7734144 20.3032258,38.8907391 21.6580645,38.5967062 C21.6580645,38.5967062 24.2516129,38.2242647 24.3677419,35.1467213 L24.4258065,27.4430618 L25.0451613,27.4430618 L25.1032258,35.1467213 C25.2193548,38.2046625 27.8129032,38.5967062 27.8129032,38.5967062 C29.1677419,38.9103412 28.5483871,37.7734144 28.5483871,37.7734144 C27.6193548,37.0873379 27.5612903,35.2643344 27.5612903,35.2643344 L27.5612903,27.7174925 C28.4516129,28.4231712 28.2967742,30.1285615 28.2967742,30.1285615 L28.2967742,34.7546775 C28.2967742,37.8910275 32.0709677,37.5773925 32.0709677,37.5773925 C32.9419355,37.2637575 32.1290323,36.6952941 32.1290323,36.6952941 C30.7741935,36.1856373 30.6387097,34.695871 30.6387097,34.695871 L30.6387097,28.6191931 C30.6387097,26.2473284 29.6516129,24.9927885 28.683871,24.3459163 C34.2967742,23.7774529 36.9870968,21.9544494 38.2258065,19.0925301 C40.683871,19.1513367 45.116129,19.4649717 49.3354839,20.6803073 L49.3935484,20.5038876 C45.1935484,19.3081542 40.8,18.9945193 38.3032258,18.9161105 C38.4193548,18.6220777 38.516129,18.3280448 38.6129032,18.0144098 C41.2064516,17.916399 45.4064516,17.916399 49.5096774,18.7396908 L49.5096774,18.7396908 L49.5096774,18.7396908 L49.5096774,18.7396908 Z" id="Shape" fill="#010101"></path>
                                        <path d="M33.7935484,12.4865931 C34.9935484,13.6039178 35.7096774,14.9368666 35.7096774,16.3678262 C35.7096774,23.1109785 30.7548387,23.2873981 24.6387097,23.2873981 C18.5225806,23.2873981 13.5677419,22.3464932 13.5677419,16.3678262 C13.5677419,14.9368666 14.2645161,13.6039178 15.4645161,12.5061953 C17.4580645,10.6635897 20.8258065,11.6436991 24.6387097,11.6436991 C28.4516129,11.6436991 31.8,10.6439876 33.7935484,12.4865931 L33.7935484,12.4865931 L33.7935484,12.4865931 L33.7935484,12.4865931 Z" id="Shape" fill="#F5CCB3"></path>
                                        <path d="M20.9612903,16.7206656 C20.9612903,18.5828733 19.9354839,20.0726395 18.6580645,20.0726395 C17.3806452,20.0726395 16.3548387,18.5632712 16.3548387,16.7206656 C16.3548387,14.8584578 17.3806452,13.3686916 18.6580645,13.3686916 C19.9354839,13.3490894 20.9612903,14.8584578 20.9612903,16.7206656 L20.9612903,16.7206656 L20.9612903,16.7206656 L20.9612903,16.7206656 Z" id="Shape" fill="#FFFFFF"></path>
                                        <path d="M20.2258065,16.7598699 C20.2258065,17.9948078 19.5290323,18.9945193 18.6967742,18.9945193 C17.8451613,18.9945193 17.1677419,17.9948078 17.1677419,16.7598699 C17.1677419,15.5249321 17.8645161,14.5252206 18.6967742,14.5252206 C19.5290323,14.5252206 20.2258065,15.5249321 20.2258065,16.7598699 L20.2258065,16.7598699 L20.2258065,16.7598699 L20.2258065,16.7598699 Z" id="Shape" fill="#AF5C51"></path>
                                        <path d="M33.3290323,16.7206656 C33.3290323,18.5828733 32.3032258,20.0726395 31.0258065,20.0726395 C29.7483871,20.0726395 28.7225806,18.5632712 28.7225806,16.7206656 C28.7225806,14.8584578 29.7483871,13.3686916 31.0258065,13.3686916 C32.283871,13.3490894 33.3290323,14.8584578 33.3290323,16.7206656 L33.3290323,16.7206656 L33.3290323,16.7206656 L33.3290323,16.7206656 Z" id="Shape" fill="#FFFFFF"></path>
                                        <path d="M32.5741935,16.7598699 C32.5741935,17.9948078 31.8774194,18.9945193 31.0451613,18.9945193 C30.1935484,18.9945193 29.516129,17.9948078 29.516129,16.7598699 C29.516129,15.5249321 30.2129032,14.5252206 31.0451613,14.5252206 C31.8967742,14.5252206 32.5741935,15.5249321 32.5741935,16.7598699 L32.5741935,16.7598699 L32.5741935,16.7598699 L32.5741935,16.7598699 Z" id="Shape" fill="#AF5C51"></path>
                                        <path d="M25.2580645,19.700198 C25.2580645,20.013833 25.0064516,20.2882636 24.6774194,20.2882636 C24.3677419,20.2882636 24.0967742,20.0334352 24.0967742,19.700198 C24.0967742,19.3669608 24.3483871,19.1121324 24.6774194,19.1121324 C24.9870968,19.1121324 25.2580645,19.3669608 25.2580645,19.700198 L25.2580645,19.700198 L25.2580645,19.700198 L25.2580645,19.700198 Z" id="Shape" fill="#AF5C51"></path>
                                        <path d="M23.3419355,21.170362 C23.3032258,21.072351 23.3612903,20.9743402 23.4580645,20.9351357 C23.5548387,20.8959314 23.6516129,20.9547379 23.6903226,21.0527489 C23.8451613,21.483997 24.2322581,21.7584275 24.6774194,21.7584275 C25.1225806,21.7584275 25.5096774,21.4643948 25.6645161,21.0527489 C25.7032258,20.9547379 25.8,20.8959314 25.8967742,20.9351357 C25.9935484,20.9743402 26.0516129,21.072351 26.0129032,21.170362 C25.8193548,21.7388254 25.2774194,22.1308692 24.6774194,22.1308692 C24.0774194,22.1308692 23.5354839,21.7388254 23.3419355,21.170362 L23.3419355,21.170362 L23.3419355,21.170362 L23.3419355,21.170362 Z" id="Shape" fill="#AF5C51"></path>
                                        <path d="M10.5483871,23.8362594 C10.5483871,23.9930769 10.3741935,24.1106901 10.1419355,24.1106901 C9.92903226,24.1106901 9.73548387,23.9930769 9.73548387,23.8362594 C9.73548387,23.6794419 9.90967742,23.5618288 10.1419355,23.5618288 C10.3741935,23.5618288 10.5483871,23.6794419 10.5483871,23.8362594 L10.5483871,23.8362594 L10.5483871,23.8362594 L10.5483871,23.8362594 Z" id="Shape" fill="#C4E5D9"></path>
                                        <path d="M11.6709677,24.4635294 C11.6709677,24.620347 11.4967742,24.7379601 11.2645161,24.7379601 C11.0516129,24.7379601 10.8580645,24.620347 10.8580645,24.4635294 C10.8580645,24.3067119 11.0322581,24.1890988 11.2645161,24.1890988 C11.4967742,24.1890988 11.6709677,24.3067119 11.6709677,24.4635294 L11.6709677,24.4635294 L11.6709677,24.4635294 L11.6709677,24.4635294 Z" id="Shape" fill="#C4E5D9"></path>
                                        <path d="M12.3483871,25.2868213 C12.3483871,25.4436388 12.1741935,25.5612519 11.9419355,25.5612519 C11.7290323,25.5612519 11.5354839,25.4436388 11.5354839,25.2868213 C11.5354839,25.1300038 11.7096774,25.0123906 11.9419355,25.0123906 C12.1741935,24.9927885 12.3483871,25.1300038 12.3483871,25.2868213 L12.3483871,25.2868213 L12.3483871,25.2868213 L12.3483871,25.2868213 Z" id="Shape" fill="#C4E5D9"></path>
                                        <path d="M12.9677419,26.2277262 C12.9677419,26.3845438 12.7935484,26.5021569 12.5612903,26.5021569 C12.3483871,26.5021569 12.1548387,26.3845438 12.1548387,26.2277262 C12.1548387,26.0709088 12.3290323,25.9532957 12.5612903,25.9532957 C12.7935484,25.9336934 12.9677419,26.0709088 12.9677419,26.2277262 L12.9677419,26.2277262 L12.9677419,26.2277262 L12.9677419,26.2277262 Z" id="Shape" fill="#C4E5D9"></path>
                                        <path d="M13.6451613,27.0902225 C13.6451613,27.2470399 13.4709677,27.364653 13.2387097,27.364653 C13.0258065,27.364653 12.8322581,27.2470399 12.8322581,27.0902225 C12.8322581,26.9334049 13.0064516,26.8157918 13.2387097,26.8157918 C13.4709677,26.8157918 13.6451613,26.9334049 13.6451613,27.0902225 L13.6451613,27.0902225 L13.6451613,27.0902225 L13.6451613,27.0902225 Z" id="Shape" fill="#C4E5D9"></path>
                                        <path d="M14.5741935,27.8547078 C14.5741935,28.0115252 14.4,28.1291383 14.1677419,28.1291383 C13.9548387,28.1291383 13.7612903,28.0115252 13.7612903,27.8547078 C13.7612903,27.6978902 13.9354839,27.5802771 14.1677419,27.5802771 C14.4,27.5606749 14.5741935,27.6978902 14.5741935,27.8547078 L14.5741935,27.8547078 L14.5741935,27.8547078 L14.5741935,27.8547078 Z" id="Shape" fill="#C4E5D9"></path>
                                        <path d="M15.8709677,28.3447624 C15.8709677,28.50158 15.6967742,28.6191931 15.4645161,28.6191931 C15.2516129,28.6191931 15.0580645,28.50158 15.0580645,28.3447624 C15.0580645,28.187945 15.2322581,28.0703318 15.4645161,28.0703318 C15.6967742,28.0703318 15.8709677,28.187945 15.8709677,28.3447624 L15.8709677,28.3447624 L15.8709677,28.3447624 L15.8709677,28.3447624 Z" id="Shape" fill="#C4E5D9"></path>
                                        <path d="M17.1677419,28.3447624 C17.1677419,28.50158 16.9935484,28.6191931 16.7612903,28.6191931 C16.5483871,28.6191931 16.3548387,28.50158 16.3548387,28.3447624 C16.3548387,28.187945 16.5290323,28.0703318 16.7612903,28.0703318 C16.9935484,28.0703318 17.1677419,28.187945 17.1677419,28.3447624 L17.1677419,28.3447624 L17.1677419,28.3447624 L17.1677419,28.3447624 Z" id="Shape" fill="#C4E5D9"></path>
                                        <path d="M18.483871,28.1291383 C18.483871,28.2859559 18.3096774,28.403569 18.0774194,28.403569 C17.8645161,28.403569 17.6709677,28.2859559 17.6709677,28.1291383 C17.6709677,27.9723209 17.8451613,27.8547078 18.0774194,27.8547078 C18.2903226,27.8547078 18.483871,27.9723209 18.483871,28.1291383 L18.483871,28.1291383 L18.483871,28.1291383 L18.483871,28.1291383 Z" id="Shape" fill="#C4E5D9"></path>
                                    </g>
                                </g>
                                <g id="IRC" transform="translate(54.397168, 119.791062) rotate(-20.000000) translate(-54.397168, -119.791062) translate(33.752007, 106.016552)" font-size="16.6666329" font-family="Montserrat" fill="#76CFA6" sketch:type="MSTextLayer" font-weight="bold">
                                    <text>
                                        <tspan x="0.768817273" y="17" fill="#000000">IRC</tspan>
                                    </text>
                                </g>
                            </g>
                        </g>
                    </g>
                </g>
            </g>
        </g>
    </g>
</svg>