<?xml version="1.0" encoding="UTF-8" standalone="no"?>
<svg width="258px" height="258px" viewBox="0 0 258 258" version="1.1" xmlns="http://www.w3.org/2000/svg" xmlns:xlink="http://www.w3.org/1999/xlink" xmlns:sketch="http://www.bohemiancoding.com/sketch/ns">
    <!-- Generator: sketchtool 3.4.4 (395) - http://www.bohemiancoding.com/sketch -->
    <title>Real security@2x</title>
    <desc>Created with sketchtool.</desc>
    <defs></defs>
    <g id="02-Features" stroke="none" stroke-width="1" fill="none" fill-rule="evenodd" sketch:type="MSPage">
        <g id="03-Features---Desktop" sketch:type="MSArtboardGroup" transform="translate(-136.000000, -3605.000000)">
            <g id="Icons" sketch:type="MSLayerGroup" transform="translate(140.000000, 582.000000)">
                <g id="Real-security@2x" transform="translate(0.000000, 3027.000000)" sketch:type="MSShapeGroup">
                    <g id="Real-security">
                        <g id="Illustrations">
                            <g id="Real-security">
                                <circle id="circle-copy" fill="#BD79CB" cx="125" cy="125" r="125"></circle>
                                <g id="Ring" transform="translate(6.944444, 6.944444)">
                                    <circle id="path-1" cx="118.055556" cy="118.055556" r="118.055556"></circle>
                                    <g id="path-1-link" stroke="#EBEBEB" stroke-width="20">
                                        <circle id="path-1" cx="118.055556" cy="118.055556" r="118.055556"></circle>
                                    </g>
                                </g>
                                <g id="Padlock" transform="translate(72.222222, 56.944444)">
                                    <rect id="Rectangle-154-Copy" fill-opacity="0.25" fill="#000000" x="0" y="122.222222" width="105.555556" height="13.8888889" rx="3"></rect>
                                    <rect id="Rectangle-154" fill="#FFFFFF" x="0" y="116.666667" width="105.555556" height="13.8888889" rx="3"></rect>
                                    <rect id="Rectangle-155-Copy" stroke-opacity="0.25" stroke="#000000" stroke-width="4" x="23.6111111" y="8.33333333" width="61.1111111" height="91.6666667" rx="32"></rect>
                                    <rect id="Rectangle-155" stroke="#FFFFFF" stroke-width="8" x="23.6111111" y="0" width="61.1111111" height="80.5555556" rx="32"></rect>
                                    <rect id="Rectangle-152" fill="#ECECEC" x="0" y="50" width="52.7777778" height="75"></rect>
                                    <rect id="Rectangle-152-Copy" fill="#D8D8D8" x="52.7777778" y="50" width="52.7777778" height="75"></rect>
                                    <path d="M66.6666667,79.1666667 C66.6666667,71.4960451 60.4483993,65.2777778 52.7777778,65.2777778 C45.1071562,65.2777778 38.8888889,71.4960451 38.8888889,79.1666667 C38.8888889,84.3075164 41.6819349,88.7960151 45.8333333,91.1974694 L45.8333333,101.392123 C45.8333333,105.223266 48.9424671,108.333333 52.7777778,108.333333 C56.6052844,108.333333 59.7222222,105.225648 59.7222222,101.392123 L59.7222222,91.1974694 C63.8736207,88.7960151 66.6666667,84.3075164 66.6666667,79.1666667 L66.6666667,79.1666667 Z" id="Oval-99" fill="#595959"></path>
                                    <path d="M66.6666667,79.1666667 C66.6666667,71.4960451 60.4483993,65.2777778 52.7777778,65.2777778 C45.1071562,65.2777778 38.8888889,71.4960451 38.8888889,79.1666667 C43.9758301,68.0555556 61.5112304,68.0555556 66.6666667,79.1666667 L66.6666667,79.1666667 Z" id="Oval-99-Copy" fill-opacity="0.25" fill="#000000"></path>
                                </g>
                            </g>
                        </g>
                    </g>
                </g>
            </g>
        </g>
    </g>
</svg>