<?xml version="1.0" encoding="UTF-8" standalone="no"?>
<svg width="183px" height="149px" viewBox="0 0 183 149" version="1.1" xmlns="http://www.w3.org/2000/svg" xmlns:xlink="http://www.w3.org/1999/xlink">
    <!-- Generator: Sketch 3.8.3 (29802) - http://www.bohemiancoding.com/sketch -->
    <title>path22</title>
    <desc>Created with Sketch.</desc>
    <defs></defs>
    <g id="Page-1" stroke="none" stroke-width="1" fill="none" fill-rule="evenodd">
        <g id="twitter" transform="translate(0.000000, -1.000000)" fill="#FFFFFF">
            <g id="g10" transform="translate(91.500000, 74.836700) scale(1, -1) translate(-91.500000, -74.836700) translate(0.000000, 0.336700)">
                <g id="g12">
                    <g id="g14">
                        <g id="g16-Clipped">
                            <g id="g16" transform="translate(-0.133330, 0.000000)">
                                <path d="M182.382107,130.582069 C175.679608,127.60761 168.471788,125.59726 160.909311,124.691549 C168.627784,129.321167 174.554303,136.64845 177.346233,145.377699 C170.122413,141.091139 162.122613,137.981884 153.601493,136.305926 C146.78433,143.571077 137.065907,148.112297 126.311509,148.112297 C105.660025,148.112297 88.9217769,131.372716 88.9217769,110.722565 C88.9217769,107.790905 89.2493687,104.93631 89.889486,102.201445 C58.8129296,103.758739 31.2616184,118.649034 12.8194128,141.268468 C9.60069331,135.748606 7.75700607,129.3265 7.75700607,122.472938 C7.75700607,109.498862 14.3553744,98.0562152 24.3912569,91.3483829 C18.2622101,91.5399781 12.4958209,93.222736 7.45434697,96.0253326 C7.44861378,95.8680032 7.44861378,95.7122738 7.44861378,95.556011 C7.44861378,77.436464 20.3389582,62.3275084 37.4425306,58.890261 C34.3076756,58.0356157 31.0052249,57.583627 27.5947768,57.583627 C25.1829704,57.583627 22.8444955,57.8117547 20.5574861,58.250277 C25.3188337,43.3959817 39.1250219,32.584252 55.4899461,32.2815929 C42.6825329,22.251177 26.5626693,16.2766597 9.04310725,16.2766597 C6.02704932,16.2766597 3.04845712,16.4542553 0.12093031,16.79798 C16.6751831,6.1891786 36.3266918,0.00106664 57.4448305,0.00106664 C126.219111,0.00106664 163.823504,56.9743089 163.823504,106.389074 C163.823504,108.009433 163.786172,109.618726 163.718174,111.222286 C171.020658,116.498287 177.359166,123.08199 182.375041,130.581802" id="path22"></path>
                            </g>
                        </g>
                    </g>
                </g>
            </g>
        </g>
    </g>
</svg>